<svg xmlns="http://www.w3.org/2000/svg" viewBox="0 0 851.37 407.38"><defs><style>.cls-1{fill:#0ea2bd;}.cls-2{fill:#2f2e41;}.cls-3{fill:#e6e6e6;}.cls-4,.cls-6{fill:#ccc;}.cls-5{opacity:0.8;}.cls-6{opacity:0.36;}.cls-7{fill:#a0616a;}.cls-8{fill:#cbc1bd;}.cls-9{fill:#f2f0ee;}.cls-10{fill:#f0f2f3;}.cls-11{fill:#3a4439;}.cls-12{fill:#be9673;}.cls-13{fill:#fff;}.cls-14{fill:#aa7f5e;}.cls-15{fill:#ff6584;}.cls-16{fill:#0a0a0a;}.cls-17{fill:#feffff;}.cls-18{fill:#a5a5a5;}.cls-19{fill:#f6cfbe;}.cls-20{fill:#e0b4a4;}.cls-21{fill:#403a3a;}.cls-22{fill:#908788;}.cls-23{fill:#367d87;}.cls-24{fill:#c6441c;}.cls-25{fill:#b8bcbd;}.cls-26{fill:#738589;}.cls-27{fill:#5c6a6d;}.cls-28{fill:#4a5456;}.cls-29{fill:#081a24;}.cls-30{fill:#d3d3d3;}.cls-31{fill:#efefef;}.cls-32{fill:#58b730;}.cls-33{fill:#a03325;}</style></defs><g id="Layer_2" data-name="Layer 2"><g id="Layer_2-2" data-name="Layer 2"><path class="cls-1" d="M364.22,108.76a9.12,9.12,0,0,0-3.76-7.37,4.46,4.46,0,0,1-1.82-3.58V94.37h-7.52v3.44a4.43,4.43,0,0,1-1.81,3.58,9.12,9.12,0,0,0-3.76,7.37c0,.23,0,.46,0,.69h0v25.77a1.54,1.54,0,0,0,1.55,1.55h15.57a1.55,1.55,0,0,0,1.55-1.55V109.45h0Q364.22,109.1,364.22,108.76Z"/><rect class="cls-2" x="350.2" y="91.26" width="9.36" height="4.73" rx="0.66"/><circle class="cls-3" cx="354.88" cy="111.44" r="3.36"/><rect class="cls-4" x="348.75" y="117.57" width="12.26" height="12.26" rx="0.83"/><path class="cls-1" d="M222.69,109.14a9.16,9.16,0,0,0-3.76-7.38,4.42,4.42,0,0,1-1.82-3.57V94.75h-7.52v3.44a4.42,4.42,0,0,1-1.81,3.57,9.13,9.13,0,0,0-3.76,7.38c0,.23,0,.45,0,.68h0v25.77a1.55,1.55,0,0,0,1.55,1.56h15.56a1.56,1.56,0,0,0,1.56-1.56V109.82h0C222.68,109.59,222.69,109.37,222.69,109.14Z"/><rect class="cls-2" x="208.67" y="91.64" width="9.36" height="4.73" rx="0.66"/><circle class="cls-3" cx="213.35" cy="111.82" r="3.36"/><rect class="cls-4" x="207.22" y="117.95" width="12.26" height="12.26" rx="0.83"/><path class="cls-1" d="M291,108.76a9.12,9.12,0,0,0-3.76-7.37,4.45,4.45,0,0,1-1.81-3.58V94.37h-7.52v3.44a4.44,4.44,0,0,1-1.82,3.58,9.12,9.12,0,0,0-3.76,7.37q0,.34,0,.69h0v25.77a1.55,1.55,0,0,0,1.55,1.55h15.57a1.54,1.54,0,0,0,1.55-1.55V109.45h0C291,109.22,291,109,291,108.76Z"/><rect class="cls-2" x="277" y="91.26" width="9.36" height="4.73" rx="0.66"/><circle class="cls-3" cx="281.68" cy="111.44" r="3.36"/><rect class="cls-4" x="275.55" y="117.57" width="12.26" height="12.26" rx="0.83"/><path class="cls-1" d="M582.22,249.77a9.12,9.12,0,0,0-6-5.74,4.44,4.44,0,0,1-2.88-2.8L572.27,238l-7.11,2.45,1.12,3.25a4.45,4.45,0,0,1-.55,4,9.1,9.1,0,0,0-1.16,8.2c.07.22.16.43.25.64h0l8.38,24.37a1.56,1.56,0,0,0,2,1l14.72-5.06a1.56,1.56,0,0,0,1-2l-8.38-24.37h0C582.36,250.21,582.3,250,582.22,249.77Z"/><rect class="cls-2" x="563.79" y="236.14" width="9.36" height="4.73" rx="0.66" transform="translate(-46.67 197.89) rotate(-18.98)"/><circle class="cls-3" cx="574.27" cy="255.35" r="3.36"/><rect class="cls-4" x="572.12" y="260.81" width="12.26" height="12.26" rx="0.83" transform="translate(-55.39 202.62) rotate(-18.98)"/><g class="cls-5"><rect class="cls-6" x="572.49" width="243.22" height="220.6"/><rect class="cls-4" x="578.37" y="11.16" width="232.16" height="38.12"/><rect class="cls-4" x="578.02" y="54.7" width="232.16" height="38.12"/><rect class="cls-4" x="578.2" y="97.61" width="232.16" height="38.12"/><rect class="cls-4" x="579.13" y="140.67" width="232.16" height="38.12"/><path class="cls-3" d="M594.36,109.56v-2.32H595v-2.61h-7.06v2.61h.58v2.32s-3.77,4.58-3.89,7.15c0,1.09-.07,2.71-.08,4.53h0v8.44h0c0,2.76.05,4.82.05,4.82a1.54,1.54,0,0,0,1.57,1.5h10.53a1.53,1.53,0,0,0,1.56-1.5s.15-13.22,0-17.62C598.16,114.31,594.36,109.56,594.36,109.56Z"/><path class="cls-3" d="M612.23,109.58v-2.31h.6v-2.62h-7.06v2.62h.57v2.31s-3.76,4.59-3.88,7.16c-.05,1.08-.08,2.7-.09,4.52h0v8.44h0c0,2.76.06,4.82.06,4.82A1.53,1.53,0,0,0,604,136h10.53a1.53,1.53,0,0,0,1.57-1.5s.14-13.21,0-17.62C616,114.33,612.23,109.58,612.23,109.58Z"/><path class="cls-3" d="M630.11,109.6v-2.31h.59v-2.62h-7.06v2.62h.58v2.31s-3.77,4.59-3.89,7.16c-.05,1.09-.07,2.7-.08,4.53h0v8.43h0c0,2.77.05,4.83.05,4.83a1.54,1.54,0,0,0,1.57,1.5h10.52a1.53,1.53,0,0,0,1.57-1.5s.15-13.22,0-17.62C633.91,114.36,630.11,109.6,630.11,109.6Z"/><path class="cls-3" d="M648,109.63v-2.31h.6V104.7h-7.06v2.62h.57v2.31s-3.76,4.58-3.88,7.15c-.05,1.09-.07,2.71-.08,4.53h0v8.44h0c0,2.76.06,4.82.06,4.82a1.53,1.53,0,0,0,1.57,1.5H650.3a1.54,1.54,0,0,0,1.57-1.5s0-2.06,0-4.82h0v-.11c0-4.23,0-10,0-12.69S648,109.63,648,109.63Z"/><path class="cls-3" d="M683.73,109.68v-2.32h.6v-2.61h-7.06v2.61h.57v2.32s-3.76,4.58-3.88,7.15c-.05,1.09-.08,2.71-.09,4.53h0v8.44h0c0,2.76.06,4.82.06,4.82a1.53,1.53,0,0,0,1.56,1.5h10.53a1.54,1.54,0,0,0,1.57-1.5s.14-13.22,0-17.62C687.53,114.43,683.73,109.68,683.73,109.68Z"/><path class="cls-3" d="M701.61,109.7v-2.31h.59v-2.62h-7.06v2.62h.58v2.31s-3.77,4.59-3.89,7.16c0,1.08-.07,2.7-.08,4.52h0v8.44h0c0,2.76.05,4.82.05,4.82a1.53,1.53,0,0,0,1.57,1.5h10.52a1.53,1.53,0,0,0,1.57-1.5s0-2.06,0-4.82v0c0-4.24.05-10.11,0-12.78S701.61,109.7,701.61,109.7Z"/><path class="cls-3" d="M719.48,109.72v-2.31h.6v-2.62H713v2.62h.57v2.31s-3.77,4.59-3.88,7.16c-.05,1.08-.07,2.7-.09,4.53h0v8.43h0c0,2.76.06,4.82.06,4.82a1.54,1.54,0,0,0,1.56,1.51H721.8a1.54,1.54,0,0,0,1.56-1.51s0-2.06,0-4.82h0v-.19c0-4.22,0-10,0-12.6S719.48,109.72,719.48,109.72Z"/><path class="cls-3" d="M737.36,109.75v-2.31H738v-2.62h-7.06v2.62h.58v2.31s-3.77,4.58-3.89,7.15c0,1.09-.07,2.71-.08,4.53h0v8.44h0c0,2.76.05,4.82.05,4.82a1.54,1.54,0,0,0,1.57,1.5h10.52a1.53,1.53,0,0,0,1.57-1.5s.14-13.22,0-17.62C741.16,114.5,737.36,109.75,737.36,109.75Z"/><path class="cls-3" d="M593.64,152.53v-2.32h.59V147.6h-7.06v2.61h.58v2.32s-3.77,4.58-3.89,7.15c-.05,1.09-.07,2.71-.08,4.53h0v8.44h0c0,2.76.05,4.82.05,4.82a1.53,1.53,0,0,0,1.57,1.5H596a1.53,1.53,0,0,0,1.57-1.5s.14-13.22,0-17.62C597.43,157.28,593.64,152.53,593.64,152.53Z"/><path class="cls-3" d="M611.51,152.55v-2.31h.6v-2.62h-7.06v2.62h.57v2.31s-3.77,4.59-3.88,7.16c0,1.08-.08,2.7-.09,4.52h0v8.44h0c0,2.76.06,4.82.06,4.82A1.54,1.54,0,0,0,603.3,179h10.53a1.54,1.54,0,0,0,1.56-1.51s.15-13.21,0-17.61C615.31,157.3,611.51,152.55,611.51,152.55Z"/><path class="cls-3" d="M629.39,152.57v-2.31H630v-2.62h-7.06v2.62h.57v2.31s-3.76,4.59-3.88,7.16c-.05,1.09-.07,2.7-.08,4.53h0v8.44h0c0,2.76.05,4.82.05,4.82a1.53,1.53,0,0,0,1.57,1.5H631.7a1.53,1.53,0,0,0,1.57-1.5s.14-13.22,0-17.62C633.18,157.33,629.39,152.57,629.39,152.57Z"/><path class="cls-3" d="M647.26,152.6v-2.31h.6v-2.62H640.8v2.62h.57v2.31s-3.77,4.58-3.88,7.15c0,1.09-.08,2.71-.09,4.53h0v8.44h0c0,2.76.06,4.82.06,4.82a1.53,1.53,0,0,0,1.56,1.5h10.53a1.53,1.53,0,0,0,1.56-1.5s0-2.06,0-4.82h0v-.11c0-4.23.05-10,0-12.69S647.26,152.6,647.26,152.6Z"/><path class="cls-3" d="M665.14,152.62v-2.31h.59v-2.62h-7.06v2.62h.57v2.31s-3.76,4.59-3.88,7.16c-.05,1.08-.07,2.7-.08,4.52h0v8.44h0c0,2.76.05,4.82.05,4.82a1.54,1.54,0,0,0,1.57,1.51h10.52a1.54,1.54,0,0,0,1.57-1.51s0-2.06,0-4.82h0v-.1c0-4.23,0-10,0-12.69S665.14,152.62,665.14,152.62Z"/><path class="cls-3" d="M683,152.65v-2.32h.59v-2.61h-7.06v2.61h.58v2.32s-3.77,4.58-3.88,7.15c0,1.09-.08,2.71-.09,4.53h0v8.44h0c0,2.76.06,4.82.06,4.82a1.53,1.53,0,0,0,1.56,1.5h10.53a1.53,1.53,0,0,0,1.56-1.5s.15-13.22,0-17.62C686.81,157.4,683,152.65,683,152.65Z"/><path class="cls-3" d="M700.89,152.67v-2.31h.59v-2.62h-7.06v2.62H695v2.31s-3.76,4.59-3.88,7.16c-.05,1.08-.07,2.7-.08,4.52h0v8.44h0c0,2.76.05,4.82.05,4.82a1.53,1.53,0,0,0,1.57,1.5H703.2a1.53,1.53,0,0,0,1.57-1.5s0-2.06,0-4.82v0c0-4.24.05-10.11,0-12.78S700.89,152.67,700.89,152.67Z"/><path class="cls-3" d="M718.76,152.69v-2.31h.6v-2.62H712.3v2.62h.57v2.31s-3.77,4.59-3.88,7.16c0,1.08-.08,2.7-.09,4.53h0v8.43h0c0,2.77.06,4.83.06,4.83a1.54,1.54,0,0,0,1.56,1.5h10.53a1.54,1.54,0,0,0,1.56-1.5s0-2.07,0-4.83h0v-.19c0-4.22.05-10,0-12.6S718.76,152.69,718.76,152.69Z"/><path class="cls-3" d="M736.64,152.72v-2.31h.59v-2.62h-7.06v2.62h.57v2.31s-3.76,4.58-3.88,7.15c-.05,1.09-.07,2.71-.08,4.53h0v8.44h0c0,2.76.05,4.82.05,4.82a1.53,1.53,0,0,0,1.57,1.5H739a1.53,1.53,0,0,0,1.57-1.5s.14-13.22,0-17.62C740.43,157.47,736.64,152.72,736.64,152.72Z"/><polygon class="cls-3" points="595.97 60.33 590.03 60.33 590.03 63.13 587.14 63.13 587.14 92.82 598.3 92.82 598.3 63.13 595.97 63.13 595.97 60.33"/><polygon class="cls-3" points="616.25 60.33 610.32 60.33 610.32 63.13 607.42 63.13 607.42 92.82 618.59 92.82 618.59 63.13 616.25 63.13 616.25 60.33"/><polygon class="cls-3" points="630.6 60.33 630.6 63.13 627.71 63.13 627.71 92.82 638.87 92.82 638.87 63.13 636.53 63.13 636.53 60.33 630.6 60.33"/><polygon class="cls-3" points="647.99 92.82 659.15 92.82 659.15 63.13 656.81 63.13 656.81 60.33 650.88 60.33 650.88 63.13 647.99 63.13 647.99 92.82"/><polygon class="cls-3" points="668.27 92.82 679.44 92.82 679.44 63.13 677.1 63.13 677.1 60.33 671.16 60.33 671.16 63.13 668.27 63.13 668.27 92.82"/><polygon class="cls-3" points="699.72 63.13 697.38 63.13 697.38 60.33 691.45 60.33 691.45 63.13 688.56 63.13 688.56 92.82 699.72 92.82 699.72 63.13"/><polygon class="cls-3" points="720 63.13 717.66 63.13 717.66 60.33 711.73 60.33 711.73 63.13 708.84 63.13 708.84 92.82 720 92.82 720 63.13"/><polygon class="cls-3" points="740.29 63.13 737.95 63.13 737.95 60.33 732.01 60.33 732.01 63.13 729.12 63.13 729.12 92.82 740.29 92.82 740.29 63.13"/><polygon class="cls-3" points="752.3 60.33 752.3 63.13 749.41 63.13 749.41 92.82 760.57 92.82 760.57 63.13 758.23 63.13 758.23 60.33 752.3 60.33"/><polygon class="cls-3" points="780.85 63.13 778.51 63.13 778.51 60.33 772.58 60.33 772.58 63.13 769.69 63.13 769.69 92.82 780.85 92.82 780.85 63.13"/><polygon class="cls-3" points="792.86 60.33 792.86 63.13 789.97 63.13 789.97 92.82 801.13 92.82 801.13 63.13 798.79 63.13 798.79 60.33 792.86 60.33"/><rect class="cls-3" x="752.98" y="113.22" width="8.41" height="22.51"/><rect class="cls-3" x="764.83" y="113.2" width="8.41" height="22.51"/><rect class="cls-3" x="776.19" y="113.21" width="8.41" height="22.51"/><rect class="cls-3" x="788.05" y="113.19" width="8.41" height="22.51"/><path class="cls-3" d="M800,170.83v-8.31h-8.12v-8.31H779.08v8.31h-3.54v-8.31H762.78v8.31h-8.12v8.31h-7v8.31h12.76v-8.31H764v8.31h12.76v-8.31h3.47v8.31H793v-8.31h3.54v8.31h12.76v-8.31Zm-29,0h-3.54v-8.31H771Zm16.24,0h-3.48v-8.31h3.48Z"/><path class="cls-3" d="M604.73,49.31h12.76V41H621v8.31h12.76V41h3.54v8.31H650V41H640.7V32.69h-8.11v-8.3H619.83v8.3h-3.54v-8.3H603.53v8.3h-8.12V41h-7v8.31h12.76V41h3.54Zm19.74-16.62h3.47V41h-3.47Zm-16.3,0h3.54V41h-3.54Z"/><path class="cls-3" d="M748,41h3.53v8.31H764.3V41h3.47v8.31h12.76V41h3.54v8.31h12.76V41h-9.32V32.69H779.4v-8.3H766.63v8.3H763.1v-8.3H750.34v8.3h-8.12V41h-7v8.31H748Zm23.28-8.31h3.47V41h-3.47Zm-16.3,0h3.54V41H755Z"/><rect class="cls-3" x="658.38" y="27.66" width="9.9" height="21.62"/><rect class="cls-3" x="672.63" y="27.66" width="9.9" height="21.62"/><rect class="cls-3" x="686.57" y="27.66" width="9.9" height="21.62"/><rect class="cls-3" x="700.82" y="27.66" width="9.9" height="21.62"/><rect class="cls-3" x="714.42" y="27.91" width="9.9" height="21.62"/></g><path class="cls-1" d="M442,109.46a9.12,9.12,0,0,0-3.76-7.37,4.46,4.46,0,0,1-1.82-3.58V95.07h-7.52v3.44a4.45,4.45,0,0,1-1.81,3.58,9.12,9.12,0,0,0-3.76,7.37c0,.23,0,.46,0,.68h0v25.77a1.55,1.55,0,0,0,1.55,1.56h15.57a1.55,1.55,0,0,0,1.55-1.56V110.14h0C442,109.92,442,109.69,442,109.46Z"/><rect class="cls-2" x="427.95" y="91.96" width="9.36" height="4.73" rx="0.66"/><circle class="cls-3" cx="432.63" cy="112.14" r="3.36"/><rect class="cls-4" x="426.5" y="118.27" width="12.26" height="12.26" rx="0.83"/><path class="cls-3" d="M492,178.54H175.5a19.1,19.1,0,0,1-19.07-19.08v-5.2a19.1,19.1,0,0,1,19.07-19.07H492a19.1,19.1,0,0,1,19.07,19.07v5.2A19.1,19.1,0,0,1,492,178.54ZM175.5,142.28a12,12,0,0,0-12,12v5.2a12,12,0,0,0,12,12H492a12,12,0,0,0,12-12v-5.2a12,12,0,0,0-12-12Z"/><rect class="cls-4" x="172.02" y="177.55" width="323.43" height="6.75"/><rect class="cls-4" x="272.19" y="177.55" width="7.37" height="41.51"/><rect class="cls-4" x="387.98" y="177.55" width="7.37" height="41.51"/><rect class="cls-4" x="172.02" y="177.55" width="7.37" height="41.51"/><rect class="cls-4" x="488.15" y="177.55" width="7.37" height="41.51"/><path class="cls-4" d="M180.54,217.05h-10a.66.66,0,0,0-.71.6v2.19a.66.66,0,0,0,.71.6h10a.66.66,0,0,0,.71-.6v-2.19A.66.66,0,0,0,180.54,217.05Z"/><path class="cls-4" d="M280.9,217.36h-10a.66.66,0,0,0-.71.6v2.2a.65.65,0,0,0,.71.59h10a.66.66,0,0,0,.71-.59V218A.66.66,0,0,0,280.9,217.36Z"/><path class="cls-4" d="M396.65,217.36h-10a.66.66,0,0,0-.71.6v2.2a.66.66,0,0,0,.71.59h10a.65.65,0,0,0,.71-.59V218A.66.66,0,0,0,396.65,217.36Z"/><path class="cls-4" d="M496.86,217.36H486.81a.66.66,0,0,0-.71.6v2.2a.66.66,0,0,0,.71.59h10.05a.66.66,0,0,0,.71-.59V218A.66.66,0,0,0,496.86,217.36Z"/><rect class="cls-4" x="172.02" y="142.28" width="323.49" height="3.61"/><rect class="cls-4" x="172.02" y="142.8" width="7.37" height="5.15"/><rect class="cls-4" x="192.36" y="142.8" width="7.37" height="5.15"/><rect class="cls-4" x="212.69" y="142.8" width="7.37" height="5.15"/><rect class="cls-4" x="233.03" y="142.8" width="7.37" height="5.15"/><rect class="cls-4" x="253.37" y="142.8" width="7.37" height="5.15"/><rect class="cls-4" x="273.58" y="142.8" width="7.37" height="5.15"/><rect class="cls-4" x="293.92" y="142.8" width="7.37" height="5.15"/><rect class="cls-4" x="314.25" y="142.8" width="7.37" height="5.15"/><rect class="cls-4" x="334.59" y="142.8" width="7.37" height="5.15"/><rect class="cls-4" x="334.59" y="142.8" width="7.37" height="5.15"/><rect class="cls-4" x="354.92" y="142.8" width="7.37" height="5.15"/><rect class="cls-4" x="375.26" y="142.8" width="7.37" height="5.15"/><rect class="cls-4" x="395.6" y="142.8" width="7.37" height="5.15"/><rect class="cls-4" x="415.93" y="142.8" width="7.37" height="5.15"/><rect class="cls-4" x="436.15" y="142.8" width="7.37" height="5.15"/><rect class="cls-4" x="456.48" y="142.8" width="7.37" height="5.15"/><rect class="cls-4" x="476.82" y="142.8" width="7.37" height="5.15"/><rect class="cls-4" x="171.99" y="167.74" width="323.49" height="3.62"/><rect class="cls-4" x="171.99" y="165.69" width="7.37" height="5.15"/><rect class="cls-4" x="192.33" y="165.69" width="7.37" height="5.15"/><rect class="cls-4" x="212.66" y="165.69" width="7.37" height="5.15"/><rect class="cls-4" x="233" y="165.69" width="7.37" height="5.15"/><rect class="cls-4" x="253.33" y="165.69" width="7.37" height="5.15"/><rect class="cls-4" x="273.55" y="165.69" width="7.37" height="5.15"/><rect class="cls-4" x="293.88" y="165.69" width="7.37" height="5.15"/><rect class="cls-4" x="314.22" y="165.69" width="7.37" height="5.15"/><rect class="cls-4" x="334.56" y="165.69" width="7.37" height="5.15"/><rect class="cls-4" x="334.56" y="165.69" width="7.37" height="5.15"/><rect class="cls-4" x="354.89" y="165.69" width="7.37" height="5.15"/><rect class="cls-4" x="375.23" y="165.69" width="7.37" height="5.15"/><rect class="cls-4" x="395.56" y="165.69" width="7.37" height="5.15"/><rect class="cls-4" x="415.9" y="165.69" width="7.37" height="5.15"/><rect class="cls-4" x="436.11" y="165.69" width="7.37" height="5.15"/><rect class="cls-4" x="456.45" y="165.69" width="7.37" height="5.15"/><rect class="cls-4" x="476.78" y="165.69" width="7.37" height="5.15"/><circle class="cls-3" cx="392.31" cy="156.86" r="15.85" transform="translate(-30.17 162.07) rotate(-22.5)"/><circle class="cls-4" cx="392.31" cy="156.86" r="7.85"/><circle class="cls-3" cx="275.16" cy="156.86" r="15.85" transform="translate(59.27 388.62) rotate(-76.72)"/><circle class="cls-4" cx="275.16" cy="156.86" r="7.85"/><circle class="cls-3" cx="177.69" cy="156.86" r="15.85" transform="translate(-46.5 79.94) rotate(-22.5)"/><circle class="cls-4" cx="177.69" cy="156.86" r="7.85"/><circle class="cls-3" cx="489.78" cy="156.86" r="15.85" transform="translate(-22.75 199.37) rotate(-22.5)"/><circle class="cls-4" cx="489.78" cy="156.86" r="7.85"/><rect class="cls-3" x="172.02" y="190.52" width="323.49" height="4.77"/><path class="cls-4" d="M173.91,73.81H31.09a1.66,1.66,0,0,0-1.66,1.65V224.11H175.57V75.46A1.65,1.65,0,0,0,173.91,73.81Z"/><rect class="cls-3" x="29.43" y="205.28" width="146.13" height="18.84"/><path class="cls-3" d="M146.75,64.12H58.25a5,5,0,0,0-5,5v4.66h98.56V69.15A5,5,0,0,0,146.75,64.12Z"/><rect class="cls-4" x="29.43" y="148.96" width="146.13" height="7.13"/><rect class="cls-3" x="40.45" y="89.02" width="47.77" height="25.31" rx="1.66"/><path class="cls-7" d="M86.56,115.51H42.11a2.84,2.84,0,0,1-2.84-2.84v-22a2.84,2.84,0,0,1,2.84-2.84H86.56a2.84,2.84,0,0,1,2.84,2.84v22A2.85,2.85,0,0,1,86.56,115.51ZM42.11,90.2a.48.48,0,0,0-.48.48v22a.48.48,0,0,0,.48.47H86.56a.47.47,0,0,0,.47-.47v-22a.47.47,0,0,0-.47-.48Z"/><rect class="cls-8" x="45.16" y="93" width="12.13" height="1.39" rx="0.36"/><rect class="cls-8" x="45.16" y="95.36" width="12.13" height="1.39" rx="0.36"/><rect class="cls-8" x="45.16" y="103.37" width="31.71" height="2.72" rx="1.07"/><rect class="cls-8" x="45.16" y="99.05" width="31.71" height="2.72" rx="1.07"/><rect class="cls-8" x="45.16" y="107.68" width="31.71" height="2.72" rx="1.07"/><circle class="cls-8" cx="81.17" cy="95.36" r="2.34"/><circle class="cls-8" cx="81.17" cy="101.67" r="2.34"/><rect class="cls-8" x="78.84" y="105.5" width="4.67" height="1.34" rx="0.28"/><rect class="cls-8" x="78.84" y="108.02" width="4.67" height="1.34" rx="0.28"/><path class="cls-3" d="M52.86,119H50.78a1.42,1.42,0,1,0,0,2.83h2.08a1.42,1.42,0,0,0,0-2.83Z"/><path class="cls-3" d="M46.2,119H44.12a1.42,1.42,0,0,0,0,2.83H46.2a1.42,1.42,0,1,0,0-2.83Z"/><path class="cls-3" d="M57.44,121.82h2.07a1.42,1.42,0,1,0,0-2.83H57.44a1.42,1.42,0,1,0,0,2.83Z"/><path class="cls-3" d="M52.86,123H50.78a1.42,1.42,0,0,0,0,2.84h2.08a1.42,1.42,0,0,0,0-2.84Z"/><path class="cls-3" d="M46.2,123H44.12a1.42,1.42,0,0,0,0,2.84H46.2a1.42,1.42,0,0,0,0-2.84Z"/><path class="cls-3" d="M59.51,123H57.44a1.42,1.42,0,1,0,0,2.84h2.07a1.42,1.42,0,0,0,0-2.84Z"/><path class="cls-3" d="M77.89,119H75.81a1.42,1.42,0,1,0,0,2.83h2.08a1.42,1.42,0,0,0,0-2.83Z"/><path class="cls-3" d="M71.23,119H69.15a1.42,1.42,0,0,0,0,2.83h2.08a1.42,1.42,0,1,0,0-2.83Z"/><path class="cls-3" d="M82.47,121.82h2.07a1.42,1.42,0,1,0,0-2.83H82.47a1.42,1.42,0,1,0,0,2.83Z"/><path class="cls-3" d="M77.89,123H75.81a1.42,1.42,0,0,0,0,2.84h2.08a1.42,1.42,0,0,0,0-2.84Z"/><path class="cls-3" d="M71.23,123H69.15a1.42,1.42,0,0,0,0,2.84h2.08a1.42,1.42,0,0,0,0-2.84Z"/><path class="cls-3" d="M84.54,123H82.47a1.42,1.42,0,0,0,0,2.84h2.07a1.42,1.42,0,0,0,0-2.84Z"/><path class="cls-3" d="M52.86,129.25H50.78a1.42,1.42,0,1,0,0,2.84h2.08a1.42,1.42,0,0,0,0-2.84Z"/><path class="cls-3" d="M46.2,129.25H44.12a1.42,1.42,0,0,0,0,2.84H46.2a1.42,1.42,0,1,0,0-2.84Z"/><path class="cls-3" d="M57.44,132.09h2.07a1.42,1.42,0,1,0,0-2.84H57.44a1.42,1.42,0,0,0,0,2.84Z"/><path class="cls-3" d="M52.86,133.22H50.78a1.42,1.42,0,1,0,0,2.83h2.08a1.42,1.42,0,0,0,0-2.83Z"/><path class="cls-3" d="M46.2,133.22H44.12a1.42,1.42,0,0,0,0,2.83H46.2a1.42,1.42,0,1,0,0-2.83Z"/><path class="cls-3" d="M59.51,133.22H57.44a1.42,1.42,0,1,0,0,2.83h2.07a1.42,1.42,0,1,0,0-2.83Z"/><path class="cls-3" d="M77.89,129.25H75.81a1.42,1.42,0,1,0,0,2.84h2.08a1.42,1.42,0,0,0,0-2.84Z"/><path class="cls-3" d="M71.23,129.25H69.15a1.42,1.42,0,0,0,0,2.84h2.08a1.42,1.42,0,1,0,0-2.84Z"/><path class="cls-3" d="M82.47,132.09h2.07a1.42,1.42,0,1,0,0-2.84H82.47a1.42,1.42,0,1,0,0,2.84Z"/><path class="cls-3" d="M77.89,133.22H75.81a1.42,1.42,0,1,0,0,2.83h2.08a1.42,1.42,0,0,0,0-2.83Z"/><path class="cls-3" d="M71.23,133.22H69.15a1.42,1.42,0,0,0,0,2.83h2.08a1.42,1.42,0,1,0,0-2.83Z"/><path class="cls-3" d="M84.54,133.22H82.47a1.42,1.42,0,1,0,0,2.83h2.07a1.42,1.42,0,1,0,0-2.83Z"/><circle class="cls-9" cx="105.15" cy="96.05" r="6.38" transform="translate(-37.12 102.48) rotate(-45)"/><path class="cls-3" d="M105.15,102.91A6.86,6.86,0,1,1,112,96.05,6.86,6.86,0,0,1,105.15,102.91Zm0-12.77a5.92,5.92,0,1,0,5.91,5.91A5.92,5.92,0,0,0,105.15,90.14Z"/><path class="cls-1" d="M105.65,96a.5.5,0,0,1-.5.51h0a.5.5,0,0,1-.5-.51V92.25a.5.5,0,0,1,.5-.5h0a.5.5,0,0,1,.5.5Z"/><circle class="cls-9" cx="158.59" cy="96.05" r="6.38" transform="translate(-21.47 140.27) rotate(-45)"/><path class="cls-3" d="M158.59,102.91a6.86,6.86,0,1,1,6.86-6.86A6.86,6.86,0,0,1,158.59,102.91Zm0-12.77a5.92,5.92,0,1,0,5.91,5.91A5.92,5.92,0,0,0,158.59,90.14Z"/><path class="cls-1" d="M159.09,96a.5.5,0,0,1-.5.51h0a.5.5,0,0,1-.5-.51V92.25a.5.5,0,0,1,.5-.5h0a.5.5,0,0,1,.5.5Z"/><circle class="cls-9" cx="122.76" cy="96.05" r="6.38" transform="translate(-31.53 118.24) rotate(-46.22)"/><path class="cls-3" d="M117.05,99.85a6.86,6.86,0,1,1,9.51,1.92A6.87,6.87,0,0,1,117.05,99.85Zm10.64-7.07A5.91,5.91,0,1,0,126,101,5.93,5.93,0,0,0,127.69,92.78Z"/><path class="cls-1" d="M123.11,96.43a.51.51,0,0,1-.7-.14h0a.51.51,0,0,1,.14-.7l3.11-2.06a.5.5,0,0,1,.69.14h0a.5.5,0,0,1-.14.7Z"/><circle class="cls-9" cx="140.6" cy="96.05" r="6.38" transform="translate(-27.69 70.1) rotate(-25.57)"/><path class="cls-3" d="M146.29,99.88a6.86,6.86,0,1,1-1.87-9.52A6.85,6.85,0,0,1,146.29,99.88Zm-10.6-7.12a5.91,5.91,0,1,0,8.2-1.61A5.91,5.91,0,0,0,135.69,92.76Z"/><path class="cls-1" d="M140.81,95.59a.51.51,0,0,1,.14.7h0a.51.51,0,0,1-.7.14l-3.09-2.08a.51.51,0,0,1-.14-.7h0a.5.5,0,0,1,.7-.13Z"/><path class="cls-10" d="M163.8,116.18H100.64c-.65,0-1.17.32-1.17.72v2.89c0,.4.52.72,1.17.72H163.8c.65,0,1.17-.32,1.17-.72V116.9C165,116.5,164.45,116.18,163.8,116.18Z"/><path class="cls-10" d="M163.8,108.28H100.64c-.65,0-1.17.32-1.17.72v2.89c0,.39.52.72,1.17.72H163.8c.65,0,1.17-.33,1.17-.72V109C165,108.6,164.45,108.28,163.8,108.28Z"/><path class="cls-10" d="M163.8,124.08H100.64c-.65,0-1.17.33-1.17.72v2.89c0,.4.52.72,1.17.72H163.8c.65,0,1.17-.32,1.17-.72V124.8C165,124.41,164.45,124.08,163.8,124.08Z"/><path class="cls-11" d="M608.4,150.91s-1.44-8,1.54-11.82,9.73-2.1,11-3.43a7.69,7.69,0,0,0,1.77-2.54v2l2.88-2-.45,2.32h3.2l-.88,1.11,2.22,1-1.34,1.33a6.76,6.76,0,0,1,1.34,2.32l.32,1.21s-.9-1.1-1.66-1.1.1,1.55,0,2.21a7.21,7.21,0,0,0,0,1.55s-.44-1.77-1.54-1.77-3.09,1.88-3.09,1.88-8.29,0-9.18,3.42S612,160.75,612,160.75A20.72,20.72,0,0,1,608.4,150.91Z"/><path class="cls-7" d="M612.4,166.27l-11.3,3.32s-4.75,1.33-6.08,3.87-4.09,17.46-4.09,17.46a27.17,27.17,0,0,0,5.12,1c3.1.33,5.62.77,5.62.77l1.87,37.77h32.09V190.65l9-.93s-4-18.82-6.48-19.44-15.31-4-15.31-4S615.55,165.35,612.4,166.27Z"/><path class="cls-12" d="M625.08,141c1.48.79,1.71,2.84,2.62,6.18,1.14,4.21.63,9.79.14,13.71s-5.05,3-5.05,3-.16,4.26-.41,6.2c-.29,2.38-3.33,6.07-3.33,6.07s-5.4-3.58-6.17-7.19a49.42,49.42,0,0,1-.88-6.06V158.2s-4.9-2.22-3.92-5.65,3.43,0,3.43,0,.49-6.87,2.94-10.3S622.72,139.71,625.08,141Z"/><path class="cls-13" d="M619.05,156.7h7.63s-1.76,2.78-3.81,2.47S619.05,156.7,619.05,156.7Z"/><path class="cls-14" d="M661.64,190.54s3.36.29,5.26-.92,3.46-3.86,3.25-4.75-6.36-.48-7.94,0A3.75,3.75,0,0,0,659.9,189C660.22,190.75,661.64,190.54,661.64,190.54Z"/><path class="cls-15" d="M668.92,187.53a.52.52,0,0,1-.74.07l-4.51-3.75a.53.53,0,0,1-.07-.74l5.67-6.81a.53.53,0,0,1,.75-.07l4.5,3.74a.55.55,0,0,1,.07.75Z"/><rect class="cls-16" x="664.84" y="181.86" width="9.92" height="1.28" transform="translate(100.66 580.02) rotate(-50.17)"/><rect class="cls-17" x="667.2" y="179.68" width="4.48" height="1.08" transform="translate(101.97 578.47) rotate(-50.13)"/><path class="cls-12" d="M669.93,182.5c-.85.37-.63,2.73-.63,2.73s-.74-1.83-1.52-1.31.21,2.11.49,2.59c-.26-.44-1.12-1.8-1.65-1.54-.34.17-.15,1,.09,1.77-.22-.35-.5-.61-.88-.51-1,.27,0,3.21,0,3.21l-3.23.85a4.89,4.89,0,0,0,.93-1.14c.57-1,.12-4.16.47-4.62s3.08-.64,2.85-1.44-2.28-.6-4.69.2-4,4.83-4,4.83-12.47,13.26-13,12.45-1.8-10.73-1.8-10.73l-7.65.79v5.75s2.72,11.45,5.78,13.47c.73.48.69,0,3.17-1.49s9.29-8.07,13.17-12.93c1.73-2.17,3.93-4.36,3.93-4.36l.34-.27a17,17,0,0,0,4.28-.52c.65-.13,1.53-.74,2-.84s.52-.84.94-1.11.47-.78.84-.84.48-1.31.48-1.31S670.77,182.14,669.93,182.5Z"/><polygon class="cls-2" points="635.63 230.46 628.39 286.05 621.28 334.44 613.22 334.44 618.17 280.67 618.17 230.46 635.63 230.46"/><polygon class="cls-2" points="603.54 230.46 600.5 276.52 585.14 333.22 592.89 332.99 613.22 273.58 619.08 230.46 603.54 230.46"/><path class="cls-18" d="M617.13,259.94V255.6h-56.2v4.34h2.51l2,22.68v3.57h46.68V282H612l2.35-22.05Zm-34.8,0h4.95V282h-4ZM580.12,282H576l-1.66-22.05h4.89Zm10.28-22.05h4.92L594.43,282h-4Zm8,0h4.7L601.82,282h-4.27Zm-27.23,0L572.87,282h-4.4l-1.91-22.05ZM608.87,282h-3.93l1.32-22.05h5Z"/><path class="cls-3" d="M589,286.19V255.6h-28.1v4.34h2.51l2,22.68v3.57Zm-1.75-26.25V282h-4l-.91-22.05Zm-8.06,0,.9,22.05H576l-1.66-22.05Zm-8,0L572.87,282h-4.4l-1.91-22.05Z"/><rect class="cls-7" x="560.93" y="258.96" width="56.21" height="1.34"/><rect class="cls-7" x="565.4" y="284.78" width="46.68" height="1.41"/><path class="cls-2" d="M579,256.15v-7.29a2.58,2.58,0,0,1,2.62-2.55h17.34a2.59,2.59,0,0,1,2.62,2.55v7.29H604v-7.29a4.84,4.84,0,0,0-5-4.61H581.59a4.85,4.85,0,0,0-5,4.61v7.29Z"/><path class="cls-12" d="M591.28,191.07s-2.67,9.07-3,10.21.23,2.41,0,3,.58,28.4-.11,30a79.06,79.06,0,0,0-2.87,9.74,6,6,0,0,0,.21,3.19c.36.77,4.11,1.06,6,.8.32,0,2.43-.12,2.8-1.47.13-.46-2-.21-2-.21a6.54,6.54,0,0,1,0-.9c0-.53.38-3,.81-3.07s.11,1.91.55,1.91h1.78a21.62,21.62,0,0,1-.4-3.46c0-2.52-1.26-5.61-1.26-6.64s2.86-29.32,3.43-30.58,4.14-11,4.14-11Z"/><path class="cls-13" d="M585.42,331.09s-.78-.32-1.63,1.3-.75,6.23-.75,6.23h16.85s.66-3-.94-3.78a35.39,35.39,0,0,1-4.05-2.45,2.3,2.3,0,0,0-3-2.05c-2.82.56-2.54,2.05-2.54,2.05a6.57,6.57,0,0,1-2.35,0A5.94,5.94,0,0,1,585.42,331.09Z"/><rect class="cls-1" x="583.03" y="337.28" width="16.99" height="1.34"/><path class="cls-1" d="M594.9,332.39a5.23,5.23,0,0,0-2.43.52,4.16,4.16,0,0,0-1.77,1.27s-.31.39,0,.69,1-.2,1.38-.43a10.3,10.3,0,0,1,2.78-1.22,2.36,2.36,0,0,1,1.14-.08A6,6,0,0,0,594.9,332.39Z"/><path class="cls-1" d="M596.52,333.39a5.23,5.23,0,0,0-2.43.52,4.36,4.36,0,0,0-1.78,1.27.54.54,0,0,0,0,.7c.31.31,1-.2,1.39-.44a10.45,10.45,0,0,1,2.78-1.22,2.41,2.41,0,0,1,1.15-.08A6.07,6.07,0,0,0,596.52,333.39Z"/><path class="cls-13" d="M613.89,331.09s-.79-.32-1.64,1.3-.75,6.23-.75,6.23h16.86s.66-3-1-3.78a34.91,34.91,0,0,1-4-2.45,2.3,2.3,0,0,0-3-2.05c-2.82.56-2.54,2.05-2.54,2.05a6.58,6.58,0,0,1-2.35,0A5.94,5.94,0,0,1,613.89,331.09Z"/><rect class="cls-1" x="611.5" y="337.28" width="16.99" height="1.34"/><path class="cls-1" d="M623.37,332.39a5.23,5.23,0,0,0-2.43.52,4.16,4.16,0,0,0-1.78,1.27s-.31.39,0,.69,1-.2,1.39-.43a10.3,10.3,0,0,1,2.78-1.22,2.36,2.36,0,0,1,1.14-.08A6,6,0,0,0,623.37,332.39Z"/><path class="cls-1" d="M625,333.39a5.21,5.21,0,0,0-2.43.52,4.36,4.36,0,0,0-1.78,1.27.54.54,0,0,0,0,.7c.31.31,1-.2,1.39-.44a10.3,10.3,0,0,1,2.78-1.22,2.37,2.37,0,0,1,1.14-.08A6,6,0,0,0,625,333.39Z"/><path class="cls-1" d="M669.82,116.88a6.2,6.2,0,0,0-2.56-5,3,3,0,0,1-1.24-2.44v-2.34h-5.11v2.34a3,3,0,0,1-1.23,2.44,6.2,6.2,0,0,0-2.56,5c0,.15,0,.31,0,.46h0v17.53a1.06,1.06,0,0,0,1.06,1.06h10.58a1.07,1.07,0,0,0,1.06-1.06V117.34h0C669.81,117.19,669.82,117,669.82,116.88Z"/><rect class="cls-2" x="660.28" y="104.98" width="6.37" height="3.21" rx="0.45"/><circle class="cls-3" cx="663.47" cy="118.7" r="2.29"/><rect class="cls-4" x="659.3" y="122.87" width="8.34" height="8.34" rx="0.57"/><path id="Layer" class="cls-4" d="M718.69,407.38q-19.4,0-42.5-1.4c-79.6-5.1-182.7-22.6-290.4-49.5s-206.9-59.8-279.6-92.7c-35.4-16.1-62.5-31.3-80.7-45.2-19.2-14.7-27.7-27.6-25-38.1,5.1-20.7,50.7-25.2,88-25.3l.1,3c-51.3.2-81.6,8.3-85.2,23-4.7,18.6,33.3,47.7,104.1,79.8,72.5,32.9,171.6,65.8,279,92.6s210.4,44.3,289.9,49.4c77.6,4.9,124.7-2.9,129.4-21.6,3.8-15.5-21.6-38.3-71.7-64.2l1.4-2.7c36.4,18.9,78.6,45.9,73.2,67.6-2.6,10.6-16.1,18-40,22-13.7,2.2-30.4,3.3-50,3.3Z"/><path id="Layer-2" data-name="Layer" class="cls-4" d="M815.89,31.81c16.8.16,27.72,2.93,32.68,8.28,6.56,7,1.55,17.68-14.69,31.67q-4.14,3.36-8.64,6.72-4.32,3.36-9,6.62l-9.33,6.29q-4.83,3.14-9.85,6.07c-10.19,6.18-21.76,12.8-34.38,19.63-66.33,35.57-160.32,76.34-265,114.62s-207.48,69.52-289.54,88.06c-40.08,9.11-72.91,14.64-98,16.59l-4.14.22-4.32.22c-1.38.07-2.77.11-4.15.11s-2.76.1-4.14.1h0c-17.8,0-29.2-2.82-34.38-8.24C49,317.93,65.79,299,109,272.27l3.63,2.39C72.53,299.38,55.08,318,63.55,327.15c5.35,5.74,21.25,7.8,46,6s57.19-7.37,96.92-16.38c81.72-18.43,184.16-49.66,288.68-87.84,104.35-38.17,198.16-78.83,264.15-114.3,12.61-6.83,24.19-13.33,34.21-19.41l9.67-6.07q4.67-3,9.16-6.18,4.66-3.15,9-6.51t8.47-6.61c14.68-12.58,19.69-22.34,14.33-28.09-3.83-4.12-12.84-6.32-26.5-6.62Z"/><path class="cls-19" d="M765.19,167.94a4,4,0,0,1-4,4h0a4,4,0,0,1-4-4V160a4,4,0,0,1,4-4h0a4,4,0,0,1,4,4Z"/><path class="cls-20" d="M757.25,162.15s-.1,1.49,3,1.82a5.76,5.76,0,0,0,4.86-1.82l-.29-3.48h-7.55Z"/><path class="cls-19" d="M770,149.46c0,6.65-4.23,13.42-9.24,13.42-3.33,0-7.31-4.08-8.88-7.64-.79-1.78,0-3.55,0-5.78,0-2.49-.14-6.52.83-8.44,1.63-3.21,5.1-3.6,8.23-3.6C765.92,137.42,770,142.81,770,149.46Z"/><path class="cls-21" d="M760.73,135.78s-7.22-1.79-9.23,3.75a16.35,16.35,0,0,0,0,10.62,7.64,7.64,0,0,1,4.17-5.23,35.79,35.79,0,0,0,7.62-5.54s.87,6.73,2.47,7.78a4.28,4.28,0,0,1,1.74,3s.75-2.09,1.6-1,.15,5.09-.73,5.39-.77,3.56-.77,3.56,5.13-3,5-11.28-4.15-10.62-6.19-11.54S760.73,135.78,760.73,135.78Z"/><path class="cls-1" d="M757.25,166.45a78,78,0,0,1-7.54,3.31c-1.46.34-7.73-.16-8.57,3.65s-2.33,8.93-2.33,8.93l7.62,1.66s.88,7.12,1.6,8.11,5.86,25.64,5.86,25.64h21.6V182.82l7.94-.67s-2.44-10.58-3.33-11.91c-1.87-2.78-6.25-2.76-8.19-2.22s-6.82-1.57-6.82-1.57-1.18,3-3.92,3.3S757.25,166.45,757.25,166.45Z"/><rect class="cls-13" x="762.48" y="179.35" width="11.26" height="5.6"/><path class="cls-19" d="M739.86,182.57s-2,11.71-2.51,13.58-8,26.67-9.6,28.53c-.8.93-3.58,2.67-5.06,4.27-.89,1-2.33,1.68-3,2.36-.45.46.4.56.16.62-.8.17-.16.81,1.1.67.62-.06,1.38-.5,1.6-.45.67.13,7.14-4.13,7.44-2.93s-.83,3.73,0,3.86,2.3-5.06,2.3-6.4,9.2-22.13,10.13-23.86a6.92,6.92,0,0,0,.93-2.94l3.2-14.93-.12-.95S741.57,181.8,739.86,182.57Z"/><path class="cls-19" d="M775.49,182.82s-.16,12.92,1.77,14.74,19.28,7.78,20.24,8.86,3.38,4.42,4.1,5.56,3.19,5.05,3.68,4.6-1.46-3.46-1.46-3.46,3.67,4.76,4.15,4.63-1.92-3.8-1.82-4.19,2.76,4.24,3.25,3.79-1.57-4.4-1.57-4.4,2.94,2.43,3.51,2.07-2.86-3.85-2.86-3.85l-3.53-4s3.16,2.23,3.53,1.9-1.72-2.34-2.82-3.14-3.9-2.76-5.24-2.75-17.19-9.26-17.11-9.49-.41-11.56-.41-11.56Z"/><path class="cls-22" d="M775.49,213.64s5.32,7.31,6.17,15.83-2.38,39.72-2.38,39.72l-3.79,37.73h-4.73s-2.29-28.94-2.65-42-2.08-37.73-2.92-37.45-7.94,36.32-7.94,36.32l-13,43.12-5.4.86s7.56-54.48,9.88-68.95,5.2-21.08,5.2-21.08Z"/><polygon class="cls-23" points="752.43 192.1 770.76 190.31 755.55 194.85 758.39 197.38 752.43 198.54 754.71 197.38 752.43 192.1"/><path class="cls-24" d="M744.21,306.92s.56,2.84,0,4.26-4.55.85-5.4,1.14-7.57,2.05-9.64,1.13c-2.39-1.06,1.75-2.55,3.85-3.26a33.1,33.1,0,0,0,5.79-3.27Z"/><path class="cls-24" d="M770.76,306.92a16.2,16.2,0,0,0-.53,2,5,5,0,0,0,.53,1.94,2.27,2.27,0,0,0,1.92,2c1.6.25,6.33.59,6.24-.42s-1.52-2.62-1.85-3a25.58,25.58,0,0,1-1.58-2.6Z"/><rect class="cls-25" x="665.59" y="231.35" width="169.95" height="6.44"/><rect class="cls-26" x="670.74" y="237.78" width="158.36" height="82.91"/><rect class="cls-27" x="670.74" y="237.78" width="158.36" height="5.05"/><rect class="cls-26" x="679.19" y="187.36" width="41.38" height="30.47"/><rect class="cls-28" x="696.69" y="199.49" width="6.37" height="31.85"/><rect class="cls-28" x="690.85" y="230" width="18.48" height="1.34"/><rect class="cls-25" x="679.19" y="187.36" width="41.38" height="1.47"/><rect class="cls-29" x="670.74" y="317.43" width="158.36" height="3.77"/><path class="cls-26" d="M799.64,231.35s.31-3.88,2.6-5.8c.58-.49,2.31-.43,3.15-.64,1.7-.43,6.93,1.81,9.69,3.6,2.46,1.61,2.52,2.84,2.52,2.84Z"/><path class="cls-28" d="M808.48,228.66a28,28,0,0,0-5.18-2.46h0l5-.86s-.61-.27-.94-.39-1.9-.35-1.9-.35l-7.15.35h0a2.24,2.24,0,0,0-.55,0c-3.21.87-3.79,6.34-3.79,6.34h17.2S810.94,230.27,808.48,228.66Z"/><polygon class="cls-25" points="805.84 226.7 806.69 227.1 807.6 226.95 806.89 226.5 805.84 226.7"/><polygon class="cls-25" points="807.24 226.4 808.09 226.8 809 226.65 808.29 226.2 807.24 226.4"/><path class="cls-30" d="M803.58,220.8l.66.78-6.66,1.19a2.37,2.37,0,0,1,1.84-1.8C801,220.69,803,220.33,803.58,220.8Z"/><path class="cls-31" d="M801.13,225.34s-.52-3.48-1.32-3.91-.87-.32-.87-.32a8.47,8.47,0,0,1,1.25-.43c1-.23,3.39-.47,3.39-.47s.85.14,1.21,1.41a23.76,23.76,0,0,1,.59,3.08Z"/><polygon class="cls-25" points="808.62 226.1 809.47 226.5 810.61 226.35 809.67 225.9 808.62 226.1"/><polygon class="cls-25" points="807.71 227.6 808.56 228 809.48 227.85 808.76 227.4 807.71 227.6"/><polygon class="cls-25" points="809.11 227.3 809.96 227.7 810.88 227.55 810.16 227.1 809.11 227.3"/><polygon class="cls-25" points="810.49 227 811.34 227.4 812.41 227.25 811.54 226.8 810.49 227"/><polygon class="cls-25" points="809.51 228.5 810.36 228.9 811.28 228.75 810.56 228.3 809.51 228.5"/><polygon class="cls-25" points="810.91 228.2 811.76 228.6 812.68 228.45 811.96 228 810.91 228.2"/><polygon class="cls-25" points="812.29 227.9 813.14 228.3 814.07 228.14 813.34 227.7 812.29 227.9"/><polygon class="cls-28" points="810.9 229.4 811.75 229.8 812.67 229.65 811.95 229.2 810.9 229.4"/><polygon class="cls-32" points="812.3 229.1 813.15 229.5 814.07 229.35 813.35 228.9 812.3 229.1"/><polygon class="cls-33" points="813.68 228.8 814.53 229.2 815.45 229.05 814.73 228.6 813.68 228.8"/><path class="cls-13" d="M755.49,156h7.8s-1.45,2.6-3.9,2.64S755.49,156,755.49,156Z"/></g></g></svg>