<svg xmlns="http://www.w3.org/2000/svg" viewBox="0 0 851.37 547.36"><defs><style>.cls-1{fill:#0ea2bd;}.cls-2{fill:#2f2e41;}.cls-3{fill:#e6e6e6;}.cls-4,.cls-6{fill:#ccc;}.cls-5{opacity:0.8;}.cls-6{opacity:0.36;}.cls-7{fill:#a0616a;}.cls-8{fill:#cbc1bd;}.cls-9{fill:#f2f0ee;}.cls-10{fill:#f0f2f3;}.cls-11{fill:#3a4439;}.cls-12{fill:#be9673;}.cls-13,.cls-34{fill:#fff;}.cls-14{fill:#aa7f5e;}.cls-15{fill:#ff6584;}.cls-16{fill:#0a0a0a;}.cls-17{fill:#feffff;}.cls-18{fill:#a5a5a5;}.cls-19{fill:#f6cfbe;}.cls-20{fill:#e0b4a4;}.cls-21{fill:#403a3a;}.cls-22{fill:#908788;}.cls-23{fill:#367d87;}.cls-24{fill:#c6441c;}.cls-25{fill:#b8bcbd;}.cls-26{fill:#738589;}.cls-27{fill:#5c6a6d;}.cls-28{fill:#4a5456;}.cls-29{fill:#081a24;}.cls-30{fill:#d3d3d3;}.cls-31{fill:#efefef;}.cls-32{fill:#58b730;}.cls-33{fill:#a03325;}.cls-34{stroke:#0ea2bd;stroke-miterlimit:10;}.cls-35{fill:#05a1bc;}</style></defs><g id="Layer_2" data-name="Layer 2"><g id="Layer_2-2" data-name="Layer 2"><path class="cls-1" d="M364.22,248.74a9.14,9.14,0,0,0-3.76-7.37,4.42,4.42,0,0,1-1.82-3.57v-3.45h-7.52v3.45a4.42,4.42,0,0,1-1.81,3.57,9.14,9.14,0,0,0-3.76,7.37c0,.23,0,.46,0,.69h0V275.2a1.55,1.55,0,0,0,1.55,1.56h15.57a1.56,1.56,0,0,0,1.55-1.56V249.43h0Q364.22,249.08,364.22,248.74Z"/><rect class="cls-2" x="350.2" y="231.25" width="9.36" height="4.73" rx="0.66"/><circle class="cls-3" cx="354.88" cy="251.43" r="3.36"/><rect class="cls-4" x="348.75" y="257.56" width="12.26" height="12.26" rx="0.83"/><path class="cls-1" d="M222.69,249.12a9.12,9.12,0,0,0-3.76-7.37,4.46,4.46,0,0,1-1.82-3.58v-3.44h-7.52v3.44a4.45,4.45,0,0,1-1.81,3.58,9.1,9.1,0,0,0-3.76,7.37c0,.23,0,.46,0,.68h0v25.78a1.54,1.54,0,0,0,1.55,1.55h15.56a1.55,1.55,0,0,0,1.56-1.55V249.8h0C222.68,249.58,222.69,249.35,222.69,249.12Z"/><rect class="cls-2" x="208.67" y="231.62" width="9.36" height="4.73" rx="0.66"/><circle class="cls-3" cx="213.35" cy="251.8" r="3.36"/><rect class="cls-4" x="207.22" y="257.93" width="12.26" height="12.26" rx="0.83"/><path class="cls-1" d="M291,248.74a9.14,9.14,0,0,0-3.76-7.37,4.42,4.42,0,0,1-1.81-3.57v-3.45h-7.52v3.45a4.42,4.42,0,0,1-1.82,3.57,9.14,9.14,0,0,0-3.76,7.37q0,.34,0,.69h0V275.2a1.56,1.56,0,0,0,1.55,1.56h15.57A1.55,1.55,0,0,0,291,275.2V249.43h0C291,249.2,291,249,291,248.74Z"/><rect class="cls-2" x="277" y="231.25" width="9.36" height="4.73" rx="0.66"/><circle class="cls-3" cx="281.68" cy="251.43" r="3.36"/><rect class="cls-4" x="275.55" y="257.56" width="12.26" height="12.26" rx="0.83"/><path class="cls-1" d="M582.22,389.76a9.11,9.11,0,0,0-6-5.75,4.45,4.45,0,0,1-2.88-2.79L572.27,378l-7.11,2.45,1.12,3.25a4.47,4.47,0,0,1-.55,4,9.08,9.08,0,0,0-1.16,8.19c.07.22.16.43.25.64h0l8.38,24.37a1.56,1.56,0,0,0,2,1l14.72-5.06a1.55,1.55,0,0,0,1-2l-8.38-24.38h0C582.36,390.19,582.3,390,582.22,389.76Z"/><rect class="cls-2" x="563.79" y="376.12" width="9.36" height="4.73" rx="0.66" transform="translate(-92.2 205.51) rotate(-18.98)"/><circle class="cls-3" cx="574.27" cy="395.33" r="3.36"/><rect class="cls-4" x="572.12" y="400.79" width="12.26" height="12.26" rx="0.83" transform="translate(-100.92 210.24) rotate(-18.98)"/><g class="cls-5"><rect class="cls-6" x="572.49" y="139.98" width="243.22" height="220.6"/><rect class="cls-4" x="578.37" y="151.14" width="232.16" height="38.12"/><rect class="cls-4" x="578.02" y="194.69" width="232.16" height="38.12"/><rect class="cls-4" x="578.2" y="237.59" width="232.16" height="38.12"/><rect class="cls-4" x="579.13" y="280.65" width="232.16" height="38.12"/><path class="cls-3" d="M594.36,249.54v-2.31H595v-2.62h-7.06v2.62h.58v2.31s-3.77,4.59-3.89,7.16c0,1.08-.07,2.7-.08,4.52h0v8.44h0c0,2.76.05,4.82.05,4.82a1.54,1.54,0,0,0,1.57,1.5h10.53a1.53,1.53,0,0,0,1.56-1.5s.15-13.21,0-17.62C598.16,254.29,594.36,249.54,594.36,249.54Z"/><path class="cls-3" d="M612.23,249.56v-2.31h.6v-2.62h-7.06v2.62h.57v2.31s-3.76,4.59-3.88,7.16c-.05,1.08-.08,2.7-.09,4.53h0v8.43h0c0,2.76.06,4.83.06,4.83A1.53,1.53,0,0,0,604,276h10.53a1.53,1.53,0,0,0,1.57-1.5s.14-13.22,0-17.62C616,254.32,612.23,249.56,612.23,249.56Z"/><path class="cls-3" d="M630.11,249.59v-2.31h.59v-2.62h-7.06v2.62h.58v2.31s-3.77,4.58-3.89,7.15c-.05,1.09-.07,2.71-.08,4.53h0v8.44h0c0,2.76.05,4.82.05,4.82a1.54,1.54,0,0,0,1.57,1.5h10.52a1.53,1.53,0,0,0,1.57-1.5s.15-13.22,0-17.62C633.91,254.34,630.11,249.59,630.11,249.59Z"/><path class="cls-3" d="M648,249.61V247.3h.6v-2.62h-7.06v2.62h.57v2.31s-3.76,4.59-3.88,7.16c-.05,1.08-.07,2.7-.08,4.52h0v8.44h0c0,2.76.06,4.82.06,4.82a1.53,1.53,0,0,0,1.57,1.5H650.3a1.54,1.54,0,0,0,1.57-1.5s0-2.06,0-4.82h0v-.1c0-4.23,0-10.05,0-12.69S648,249.61,648,249.61Z"/><path class="cls-3" d="M683.73,249.66v-2.31h.6v-2.62h-7.06v2.62h.57v2.31s-3.76,4.58-3.88,7.15c-.05,1.09-.08,2.71-.09,4.53h0v8.44h0c0,2.76.06,4.82.06,4.82a1.53,1.53,0,0,0,1.56,1.5h10.53a1.54,1.54,0,0,0,1.57-1.5s.14-13.21,0-17.62C687.53,254.41,683.73,249.66,683.73,249.66Z"/><path class="cls-3" d="M701.61,249.68v-2.31h.59v-2.62h-7.06v2.62h.58v2.31s-3.77,4.59-3.89,7.16c0,1.08-.07,2.7-.08,4.53h0v8.43h0c0,2.76.05,4.83.05,4.83a1.54,1.54,0,0,0,1.57,1.5h10.52a1.54,1.54,0,0,0,1.57-1.5s0-2.07,0-4.83v0c0-4.23.05-10.11,0-12.77S701.61,249.68,701.61,249.68Z"/><path class="cls-3" d="M719.48,249.71v-2.32h.6v-2.61H713v2.61h.57v2.32s-3.77,4.58-3.88,7.15c-.05,1.09-.07,2.71-.09,4.53h0v8.44h0c0,2.76.06,4.82.06,4.82a1.53,1.53,0,0,0,1.56,1.5H721.8a1.53,1.53,0,0,0,1.56-1.5s0-2.07,0-4.82h0v-.19c0-4.23,0-10,0-12.61S719.48,249.71,719.48,249.71Z"/><path class="cls-3" d="M737.36,249.73v-2.31H738V244.8h-7.06v2.62h.58v2.31s-3.77,4.59-3.89,7.16c0,1.08-.07,2.7-.08,4.52h0v8.44h0c0,2.76.05,4.82.05,4.82a1.54,1.54,0,0,0,1.57,1.5h10.52a1.53,1.53,0,0,0,1.57-1.5s.14-13.21,0-17.62C741.16,254.48,737.36,249.73,737.36,249.73Z"/><path class="cls-3" d="M593.64,292.51V290.2h.59v-2.62h-7.06v2.62h.58v2.31s-3.77,4.59-3.89,7.16c-.05,1.08-.07,2.7-.08,4.52h0v8.44h0c0,2.76.05,4.82.05,4.82a1.53,1.53,0,0,0,1.57,1.5H596a1.53,1.53,0,0,0,1.57-1.5s.14-13.21,0-17.62C597.43,297.26,593.64,292.51,593.64,292.51Z"/><path class="cls-3" d="M611.51,292.53v-2.31h.6V287.6h-7.06v2.62h.57v2.31s-3.77,4.59-3.88,7.16c0,1.09-.08,2.7-.09,4.53h0v8.43h0c0,2.76.06,4.83.06,4.83a1.53,1.53,0,0,0,1.56,1.5h10.53a1.53,1.53,0,0,0,1.56-1.5s.15-13.22,0-17.62C615.31,297.29,611.51,292.53,611.51,292.53Z"/><path class="cls-3" d="M629.39,292.56v-2.31H630v-2.62h-7.06v2.62h.57v2.31s-3.76,4.58-3.88,7.15c-.05,1.09-.07,2.71-.08,4.53h0v8.44h0c0,2.76.05,4.82.05,4.82a1.53,1.53,0,0,0,1.57,1.5H631.7a1.53,1.53,0,0,0,1.57-1.5s.14-13.22,0-17.62C633.18,297.31,629.39,292.56,629.39,292.56Z"/><path class="cls-3" d="M647.26,292.58v-2.31h.6v-2.62H640.8v2.62h.57v2.31s-3.77,4.59-3.88,7.16c0,1.08-.08,2.7-.09,4.52h0v8.44h0c0,2.76.06,4.82.06,4.82a1.54,1.54,0,0,0,1.56,1.51h10.53a1.54,1.54,0,0,0,1.56-1.51s0-2.06,0-4.82h0v-.1c0-4.23.05-10.05,0-12.69S647.26,292.58,647.26,292.58Z"/><path class="cls-3" d="M665.14,292.6v-2.31h.59v-2.62h-7.06v2.62h.57v2.31s-3.76,4.59-3.88,7.16c-.05,1.09-.07,2.71-.08,4.53h0v8.44h0c0,2.76.05,4.82.05,4.82a1.53,1.53,0,0,0,1.57,1.5h10.52a1.53,1.53,0,0,0,1.57-1.5s0-2.07,0-4.82h0v-.11c0-4.23,0-10.05,0-12.69S665.14,292.6,665.14,292.6Z"/><path class="cls-3" d="M683,292.63v-2.31h.59V287.7h-7.06v2.62h.58v2.31s-3.77,4.58-3.88,7.16c0,1.08-.08,2.7-.09,4.52h0v8.44h0c0,2.76.06,4.82.06,4.82a1.53,1.53,0,0,0,1.56,1.5h10.53a1.53,1.53,0,0,0,1.56-1.5s.15-13.21,0-17.62C686.81,297.38,683,292.63,683,292.63Z"/><path class="cls-3" d="M700.89,292.65v-2.31h.59v-2.62h-7.06v2.62H695v2.31s-3.76,4.59-3.88,7.16c-.05,1.08-.07,2.7-.08,4.53h0v8.43h0c0,2.76.05,4.83.05,4.83a1.53,1.53,0,0,0,1.57,1.5H703.2a1.53,1.53,0,0,0,1.57-1.5s0-2.07,0-4.83v0c0-4.23.05-10.11,0-12.77S700.89,292.65,700.89,292.65Z"/><path class="cls-3" d="M718.76,292.68v-2.32h.6v-2.61H712.3v2.61h.57v2.32s-3.77,4.58-3.88,7.15c0,1.09-.08,2.71-.09,4.53h0v8.44h0c0,2.76.06,4.82.06,4.82a1.53,1.53,0,0,0,1.56,1.5h10.53a1.53,1.53,0,0,0,1.56-1.5s0-2.07,0-4.82h0v-.19c0-4.23.05-10,0-12.61S718.76,292.68,718.76,292.68Z"/><path class="cls-3" d="M736.64,292.7v-2.31h.59v-2.62h-7.06v2.62h.57v2.31s-3.76,4.59-3.88,7.16c-.05,1.08-.07,2.7-.08,4.52h0v8.44h0c0,2.76.05,4.82.05,4.82a1.53,1.53,0,0,0,1.57,1.5H739a1.53,1.53,0,0,0,1.57-1.5s.14-13.21,0-17.62C740.43,297.45,736.64,292.7,736.64,292.7Z"/><polygon class="cls-3" points="595.97 200.31 590.03 200.31 590.03 203.12 587.14 203.12 587.14 232.81 598.3 232.81 598.3 203.12 595.97 203.12 595.97 200.31"/><polygon class="cls-3" points="616.25 200.31 610.32 200.31 610.32 203.12 607.42 203.12 607.42 232.81 618.59 232.81 618.59 203.12 616.25 203.12 616.25 200.31"/><polygon class="cls-3" points="630.6 200.31 630.6 203.12 627.71 203.12 627.71 232.81 638.87 232.81 638.87 203.12 636.53 203.12 636.53 200.31 630.6 200.31"/><polygon class="cls-3" points="647.99 232.81 659.15 232.81 659.15 203.12 656.81 203.12 656.81 200.31 650.88 200.31 650.88 203.12 647.99 203.12 647.99 232.81"/><polygon class="cls-3" points="668.27 232.81 679.44 232.81 679.44 203.12 677.1 203.12 677.1 200.31 671.16 200.31 671.16 203.12 668.27 203.12 668.27 232.81"/><polygon class="cls-3" points="699.72 203.12 697.38 203.12 697.38 200.31 691.45 200.31 691.45 203.12 688.56 203.12 688.56 232.81 699.72 232.81 699.72 203.12"/><polygon class="cls-3" points="720 203.12 717.66 203.12 717.66 200.31 711.73 200.31 711.73 203.12 708.84 203.12 708.84 232.81 720 232.81 720 203.12"/><polygon class="cls-3" points="740.29 203.12 737.95 203.12 737.95 200.31 732.01 200.31 732.01 203.12 729.12 203.12 729.12 232.81 740.29 232.81 740.29 203.12"/><polygon class="cls-3" points="752.3 200.31 752.3 203.12 749.41 203.12 749.41 232.81 760.57 232.81 760.57 203.12 758.23 203.12 758.23 200.31 752.3 200.31"/><polygon class="cls-3" points="780.85 203.12 778.51 203.12 778.51 200.31 772.58 200.31 772.58 203.12 769.69 203.12 769.69 232.81 780.85 232.81 780.85 203.12"/><polygon class="cls-3" points="792.86 200.31 792.86 203.12 789.97 203.12 789.97 232.81 801.13 232.81 801.13 203.12 798.79 203.12 798.79 200.31 792.86 200.31"/><rect class="cls-3" x="752.98" y="253.2" width="8.41" height="22.51"/><rect class="cls-3" x="764.83" y="253.18" width="8.41" height="22.51"/><rect class="cls-3" x="776.19" y="253.19" width="8.41" height="22.51"/><rect class="cls-3" x="788.05" y="253.17" width="8.41" height="22.51"/><path class="cls-3" d="M800,310.81V302.5h-8.12v-8.31H779.08v8.31h-3.54v-8.31H762.78v8.31h-8.12v8.31h-7v8.31h12.76v-8.31H764v8.31h12.76v-8.31h3.47v8.31H793v-8.31h3.54v8.31h12.76v-8.31Zm-29,0h-3.54V302.5H771Zm16.24,0h-3.48V302.5h3.48Z"/><path class="cls-3" d="M604.73,189.3h12.76V181H621v8.31h12.76V181h3.54v8.31H650V181H640.7v-8.31h-8.11v-8.31H619.83v8.31h-3.54v-8.31H603.53v8.31h-8.12V181h-7v8.31h12.76V181h3.54Zm19.74-16.62h3.47V181h-3.47Zm-16.3,0h3.54V181h-3.54Z"/><path class="cls-3" d="M748,181h3.53v8.31H764.3V181h3.47v8.31h12.76V181h3.54v8.31h12.76V181h-9.32v-8.31H779.4v-8.31H766.63v8.31H763.1v-8.31H750.34v8.31h-8.12V181h-7v8.31H748Zm23.28-8.31h3.47V181h-3.47Zm-16.3,0h3.54V181H755Z"/><rect class="cls-3" x="658.38" y="167.64" width="9.9" height="21.62"/><rect class="cls-3" x="672.63" y="167.64" width="9.9" height="21.62"/><rect class="cls-3" x="686.57" y="167.64" width="9.9" height="21.62"/><rect class="cls-3" x="700.82" y="167.64" width="9.9" height="21.62"/><rect class="cls-3" x="714.42" y="167.89" width="9.9" height="21.62"/></g><path class="cls-1" d="M442,249.44a9.12,9.12,0,0,0-3.76-7.37,4.46,4.46,0,0,1-1.82-3.58v-3.44h-7.52v3.44a4.45,4.45,0,0,1-1.81,3.58,9.12,9.12,0,0,0-3.76,7.37q0,.34,0,.69h0V275.9a1.54,1.54,0,0,0,1.55,1.55h15.57A1.54,1.54,0,0,0,442,275.9V250.13h0Q442,249.79,442,249.44Z"/><rect class="cls-2" x="427.95" y="231.94" width="9.36" height="4.73" rx="0.66"/><circle class="cls-3" cx="432.63" cy="252.12" r="3.36"/><rect class="cls-4" x="426.5" y="258.25" width="12.26" height="12.26" rx="0.83"/><path class="cls-3" d="M492,318.52H175.5a19.1,19.1,0,0,1-19.07-19.07v-5.21a19.1,19.1,0,0,1,19.07-19.07H492a19.1,19.1,0,0,1,19.07,19.07v5.21A19.1,19.1,0,0,1,492,318.52ZM175.5,282.27a12,12,0,0,0-12,12v5.21a12,12,0,0,0,12,12H492a12,12,0,0,0,12-12v-5.21a12,12,0,0,0-12-12Z"/><rect class="cls-4" x="172.02" y="317.53" width="323.43" height="6.75"/><rect class="cls-4" x="272.19" y="317.53" width="7.37" height="41.51"/><rect class="cls-4" x="387.98" y="317.53" width="7.37" height="41.51"/><rect class="cls-4" x="172.02" y="317.53" width="7.37" height="41.51"/><rect class="cls-4" x="488.15" y="317.53" width="7.37" height="41.51"/><path class="cls-4" d="M180.54,357h-10a.66.66,0,0,0-.71.6v2.2a.66.66,0,0,0,.71.59h10a.66.66,0,0,0,.71-.59v-2.2A.66.66,0,0,0,180.54,357Z"/><path class="cls-4" d="M280.9,357.35h-10a.65.65,0,0,0-.71.59v2.2a.66.66,0,0,0,.71.6h10a.66.66,0,0,0,.71-.6v-2.2A.66.66,0,0,0,280.9,357.35Z"/><path class="cls-4" d="M396.65,357.35h-10a.66.66,0,0,0-.71.59v2.2a.66.66,0,0,0,.71.6h10a.66.66,0,0,0,.71-.6v-2.2A.65.65,0,0,0,396.65,357.35Z"/><path class="cls-4" d="M496.86,357.35H486.81a.66.66,0,0,0-.71.59v2.2a.66.66,0,0,0,.71.6h10.05a.66.66,0,0,0,.71-.6v-2.2A.66.66,0,0,0,496.86,357.35Z"/><rect class="cls-4" x="172.02" y="282.27" width="323.49" height="3.61"/><rect class="cls-4" x="172.02" y="282.78" width="7.37" height="5.15"/><rect class="cls-4" x="192.36" y="282.78" width="7.37" height="5.15"/><rect class="cls-4" x="212.69" y="282.78" width="7.37" height="5.15"/><rect class="cls-4" x="233.03" y="282.78" width="7.37" height="5.15"/><rect class="cls-4" x="253.37" y="282.78" width="7.37" height="5.15"/><rect class="cls-4" x="273.58" y="282.78" width="7.37" height="5.15"/><rect class="cls-4" x="293.92" y="282.78" width="7.37" height="5.15"/><rect class="cls-4" x="314.25" y="282.78" width="7.37" height="5.15"/><rect class="cls-4" x="334.59" y="282.78" width="7.37" height="5.15"/><rect class="cls-4" x="334.59" y="282.78" width="7.37" height="5.15"/><rect class="cls-4" x="354.92" y="282.78" width="7.37" height="5.15"/><rect class="cls-4" x="375.26" y="282.78" width="7.37" height="5.15"/><rect class="cls-4" x="395.6" y="282.78" width="7.37" height="5.15"/><rect class="cls-4" x="415.93" y="282.78" width="7.37" height="5.15"/><rect class="cls-4" x="436.15" y="282.78" width="7.37" height="5.15"/><rect class="cls-4" x="456.48" y="282.78" width="7.37" height="5.15"/><rect class="cls-4" x="476.82" y="282.78" width="7.37" height="5.15"/><rect class="cls-4" x="171.99" y="307.73" width="323.49" height="3.62"/><rect class="cls-4" x="171.99" y="305.68" width="7.37" height="5.15"/><rect class="cls-4" x="192.33" y="305.68" width="7.37" height="5.15"/><rect class="cls-4" x="212.66" y="305.68" width="7.37" height="5.15"/><rect class="cls-4" x="233" y="305.68" width="7.37" height="5.15"/><rect class="cls-4" x="253.33" y="305.68" width="7.37" height="5.15"/><rect class="cls-4" x="273.55" y="305.68" width="7.37" height="5.15"/><rect class="cls-4" x="293.88" y="305.68" width="7.37" height="5.15"/><rect class="cls-4" x="314.22" y="305.68" width="7.37" height="5.15"/><rect class="cls-4" x="334.56" y="305.68" width="7.37" height="5.15"/><rect class="cls-4" x="334.56" y="305.68" width="7.37" height="5.15"/><rect class="cls-4" x="354.89" y="305.68" width="7.37" height="5.15"/><rect class="cls-4" x="375.23" y="305.68" width="7.37" height="5.15"/><rect class="cls-4" x="395.56" y="305.68" width="7.37" height="5.15"/><rect class="cls-4" x="415.9" y="305.68" width="7.37" height="5.15"/><rect class="cls-4" x="436.11" y="305.68" width="7.37" height="5.15"/><rect class="cls-4" x="456.45" y="305.68" width="7.37" height="5.15"/><rect class="cls-4" x="476.78" y="305.68" width="7.37" height="5.15"/><circle class="cls-3" cx="392.31" cy="296.85" r="15.85" transform="translate(-83.73 172.73) rotate(-22.5)"/><circle class="cls-4" cx="392.31" cy="296.85" r="7.85"/><circle class="cls-3" cx="275.16" cy="296.85" r="15.85" transform="translate(-76.96 496.44) rotate(-76.72)"/><circle class="cls-4" cx="275.16" cy="296.85" r="7.85"/><circle class="cls-3" cx="177.69" cy="296.85" r="15.85" transform="translate(-100.07 90.6) rotate(-22.5)"/><circle class="cls-4" cx="177.69" cy="296.85" r="7.85"/><circle class="cls-3" cx="489.78" cy="296.85" r="15.85" transform="translate(-76.32 210.03) rotate(-22.5)"/><circle class="cls-4" cx="489.78" cy="296.85" r="7.85"/><rect class="cls-3" x="172.02" y="330.51" width="323.49" height="4.77"/><path class="cls-4" d="M173.91,213.79H31.09a1.66,1.66,0,0,0-1.66,1.66V364.1H175.57V215.45A1.66,1.66,0,0,0,173.91,213.79Z"/><rect class="cls-3" x="29.43" y="345.26" width="146.13" height="18.84"/><path class="cls-3" d="M146.75,204.1H58.25a5,5,0,0,0-5,5v4.66h98.56v-4.66A5,5,0,0,0,146.75,204.1Z"/><rect class="cls-4" x="29.43" y="288.94" width="146.13" height="7.13"/><rect class="cls-3" x="40.45" y="229" width="47.77" height="25.31" rx="1.66"/><path class="cls-7" d="M86.56,255.49H42.11a2.84,2.84,0,0,1-2.84-2.84v-22a2.84,2.84,0,0,1,2.84-2.84H86.56a2.84,2.84,0,0,1,2.84,2.84v22A2.84,2.84,0,0,1,86.56,255.49ZM42.11,230.18a.49.49,0,0,0-.48.48v22a.49.49,0,0,0,.48.48H86.56a.48.48,0,0,0,.47-.48v-22a.48.48,0,0,0-.47-.48Z"/><rect class="cls-8" x="45.16" y="232.98" width="12.13" height="1.39" rx="0.36"/><rect class="cls-8" x="45.16" y="235.34" width="12.13" height="1.39" rx="0.36"/><rect class="cls-8" x="45.16" y="243.35" width="31.71" height="2.72" rx="1.07"/><rect class="cls-8" x="45.16" y="239.03" width="31.71" height="2.72" rx="1.07"/><rect class="cls-8" x="45.16" y="247.67" width="31.71" height="2.72" rx="1.07"/><circle class="cls-8" cx="81.17" cy="235.34" r="2.34"/><circle class="cls-8" cx="81.17" cy="241.65" r="2.34"/><rect class="cls-8" x="78.84" y="245.48" width="4.67" height="1.34" rx="0.28"/><rect class="cls-8" x="78.84" y="248" width="4.67" height="1.34" rx="0.28"/><path class="cls-3" d="M52.86,259H50.78a1.42,1.42,0,1,0,0,2.83h2.08a1.42,1.42,0,0,0,0-2.83Z"/><path class="cls-3" d="M46.2,259H44.12a1.42,1.42,0,0,0,0,2.83H46.2a1.42,1.42,0,1,0,0-2.83Z"/><path class="cls-3" d="M57.44,261.8h2.07a1.42,1.42,0,1,0,0-2.83H57.44a1.42,1.42,0,1,0,0,2.83Z"/><path class="cls-3" d="M52.86,262.94H50.78a1.42,1.42,0,1,0,0,2.83h2.08a1.42,1.42,0,0,0,0-2.83Z"/><path class="cls-3" d="M46.2,262.94H44.12a1.42,1.42,0,0,0,0,2.83H46.2a1.42,1.42,0,1,0,0-2.83Z"/><path class="cls-3" d="M59.51,262.94H57.44a1.42,1.42,0,1,0,0,2.83h2.07a1.42,1.42,0,1,0,0-2.83Z"/><path class="cls-3" d="M77.89,259H75.81a1.42,1.42,0,1,0,0,2.83h2.08a1.42,1.42,0,0,0,0-2.83Z"/><path class="cls-3" d="M71.23,259H69.15a1.42,1.42,0,0,0,0,2.83h2.08a1.42,1.42,0,1,0,0-2.83Z"/><path class="cls-3" d="M82.47,261.8h2.07a1.42,1.42,0,1,0,0-2.83H82.47a1.42,1.42,0,1,0,0,2.83Z"/><path class="cls-3" d="M77.89,262.94H75.81a1.42,1.42,0,1,0,0,2.83h2.08a1.42,1.42,0,0,0,0-2.83Z"/><path class="cls-3" d="M71.23,262.94H69.15a1.42,1.42,0,0,0,0,2.83h2.08a1.42,1.42,0,1,0,0-2.83Z"/><path class="cls-3" d="M84.54,262.94H82.47a1.42,1.42,0,1,0,0,2.83h2.07a1.42,1.42,0,1,0,0-2.83Z"/><path class="cls-3" d="M52.86,269.24H50.78a1.42,1.42,0,1,0,0,2.83h2.08a1.42,1.42,0,0,0,0-2.83Z"/><path class="cls-3" d="M46.2,269.24H44.12a1.42,1.42,0,0,0,0,2.83H46.2a1.42,1.42,0,1,0,0-2.83Z"/><path class="cls-3" d="M57.44,272.07h2.07a1.42,1.42,0,1,0,0-2.83H57.44a1.42,1.42,0,1,0,0,2.83Z"/><path class="cls-3" d="M52.86,273.2H50.78a1.42,1.42,0,1,0,0,2.83h2.08a1.42,1.42,0,0,0,0-2.83Z"/><path class="cls-3" d="M46.2,273.2H44.12a1.42,1.42,0,0,0,0,2.83H46.2a1.42,1.42,0,1,0,0-2.83Z"/><path class="cls-3" d="M59.51,273.2H57.44a1.42,1.42,0,1,0,0,2.83h2.07a1.42,1.42,0,1,0,0-2.83Z"/><path class="cls-3" d="M77.89,269.24H75.81a1.42,1.42,0,1,0,0,2.83h2.08a1.42,1.42,0,0,0,0-2.83Z"/><path class="cls-3" d="M71.23,269.24H69.15a1.42,1.42,0,0,0,0,2.83h2.08a1.42,1.42,0,1,0,0-2.83Z"/><path class="cls-3" d="M82.47,272.07h2.07a1.42,1.42,0,1,0,0-2.83H82.47a1.42,1.42,0,1,0,0,2.83Z"/><path class="cls-3" d="M77.89,273.2H75.81a1.42,1.42,0,1,0,0,2.83h2.08a1.42,1.42,0,0,0,0-2.83Z"/><path class="cls-3" d="M71.23,273.2H69.15a1.42,1.42,0,0,0,0,2.83h2.08a1.42,1.42,0,1,0,0-2.83Z"/><path class="cls-3" d="M84.54,273.2H82.47a1.42,1.42,0,1,0,0,2.83h2.07a1.42,1.42,0,1,0,0-2.83Z"/><circle class="cls-9" cx="105.15" cy="236.04" r="6.38" transform="translate(-136.11 143.48) rotate(-45)"/><path class="cls-3" d="M105.15,242.89A6.86,6.86,0,1,1,112,236,6.86,6.86,0,0,1,105.15,242.89Zm0-12.76a5.91,5.91,0,1,0,5.91,5.91A5.92,5.92,0,0,0,105.15,230.13Z"/><path class="cls-1" d="M105.65,236a.5.5,0,0,1-.5.5h0a.5.5,0,0,1-.5-.5v-3.73a.5.5,0,0,1,.5-.5h0a.5.5,0,0,1,.5.5Z"/><circle class="cls-9" cx="158.59" cy="236.04" r="6.38" transform="translate(-120.45 181.27) rotate(-45)"/><path class="cls-3" d="M158.59,242.89a6.86,6.86,0,1,1,6.86-6.85A6.86,6.86,0,0,1,158.59,242.89Zm0-12.76A5.91,5.91,0,1,0,164.5,236,5.92,5.92,0,0,0,158.59,230.13Z"/><path class="cls-1" d="M159.09,236a.5.5,0,0,1-.5.5h0a.5.5,0,0,1-.5-.5v-3.73a.5.5,0,0,1,.5-.5h0a.5.5,0,0,1,.5.5Z"/><circle class="cls-9" cx="122.76" cy="236.04" r="6.38" transform="translate(-132.6 161.37) rotate(-46.22)"/><path class="cls-3" d="M117.05,239.83a6.86,6.86,0,1,1,9.51,1.92A6.86,6.86,0,0,1,117.05,239.83Zm10.64-7.06A5.91,5.91,0,1,0,126,241,5.92,5.92,0,0,0,127.69,232.77Z"/><path class="cls-1" d="M123.11,236.41a.51.51,0,0,1-.7-.14h0a.51.51,0,0,1,.14-.7l3.11-2.06a.5.5,0,0,1,.69.14h0a.5.5,0,0,1-.14.7Z"/><circle class="cls-9" cx="140.6" cy="236.04" r="6.38" transform="translate(-88.12 83.82) rotate(-25.57)"/><path class="cls-3" d="M146.29,239.86a6.86,6.86,0,1,1-1.87-9.52A6.85,6.85,0,0,1,146.29,239.86Zm-10.6-7.12a5.91,5.91,0,1,0,8.2-1.61A5.93,5.93,0,0,0,135.69,232.74Z"/><path class="cls-1" d="M140.81,235.57a.51.51,0,0,1,.14.7h0a.51.51,0,0,1-.7.14l-3.09-2.08a.5.5,0,0,1-.14-.69h0a.5.5,0,0,1,.7-.14Z"/><path class="cls-10" d="M163.8,256.16H100.64c-.65,0-1.17.33-1.17.73v2.88c0,.4.52.72,1.17.72H163.8c.65,0,1.17-.32,1.17-.72v-2.88C165,256.49,164.45,256.16,163.8,256.16Z"/><path class="cls-10" d="M163.8,248.26H100.64c-.65,0-1.17.32-1.17.72v2.89c0,.4.52.72,1.17.72H163.8c.65,0,1.17-.32,1.17-.72V249C165,248.58,164.45,248.26,163.8,248.26Z"/><path class="cls-10" d="M163.8,264.07H100.64c-.65,0-1.17.32-1.17.72v2.88c0,.4.52.73,1.17.73H163.8c.65,0,1.17-.33,1.17-.73v-2.88C165,264.39,164.45,264.07,163.8,264.07Z"/><path class="cls-11" d="M608.4,290.9s-1.44-8,1.54-11.83,9.73-2.1,11-3.42a7.78,7.78,0,0,0,1.77-2.55v2l2.88-2-.45,2.32h3.2l-.88,1.11,2.22,1-1.34,1.33a6.76,6.76,0,0,1,1.34,2.32l.32,1.22s-.9-1.11-1.66-1.11.1,1.55,0,2.21a7.19,7.19,0,0,0,0,1.55s-.44-1.77-1.54-1.77-3.09,1.88-3.09,1.88-8.29,0-9.18,3.43S612,300.73,612,300.73A20.71,20.71,0,0,1,608.4,290.9Z"/><path class="cls-7" d="M612.4,306.25l-11.3,3.32s-4.75,1.33-6.08,3.87-4.09,17.46-4.09,17.46a27.17,27.17,0,0,0,5.12,1c3.1.33,5.62.77,5.62.77l1.87,37.77h32.09V330.63l9-.93s-4-18.82-6.48-19.44-15.31-4-15.31-4S615.55,305.33,612.4,306.25Z"/><path class="cls-12" d="M625.08,281c1.48.79,1.71,2.84,2.62,6.19,1.14,4.2.63,9.78.14,13.7s-5.05,3-5.05,3-.16,4.26-.41,6.21c-.29,2.37-3.33,6.07-3.33,6.07s-5.4-3.59-6.17-7.2a49.15,49.15,0,0,1-.88-6.06v-4.65s-4.9-2.21-3.92-5.65,3.43,0,3.43,0,.49-6.86,2.94-10.3S622.72,279.69,625.08,281Z"/><path class="cls-13" d="M619.05,296.69h7.63s-1.76,2.77-3.81,2.46S619.05,296.69,619.05,296.69Z"/><path class="cls-14" d="M661.64,330.52s3.36.29,5.26-.92,3.46-3.86,3.25-4.75-6.36-.47-7.94,0A3.75,3.75,0,0,0,659.9,329C660.22,330.73,661.64,330.52,661.64,330.52Z"/><path class="cls-15" d="M668.92,327.51a.52.52,0,0,1-.74.07l-4.51-3.74a.55.55,0,0,1-.07-.75l5.67-6.81a.53.53,0,0,1,.75-.07l4.5,3.75a.53.53,0,0,1,.07.74Z"/><rect class="cls-16" x="664.84" y="321.84" width="9.92" height="1.28" transform="translate(-6.84 630.35) rotate(-50.17)"/><rect class="cls-17" x="667.2" y="319.66" width="4.48" height="1.08" transform="translate(-5.46 628.72) rotate(-50.13)"/><path class="cls-12" d="M669.93,322.49c-.85.36-.63,2.73-.63,2.73s-.74-1.84-1.52-1.32.21,2.11.49,2.59c-.26-.44-1.12-1.8-1.65-1.54-.34.17-.15,1,.09,1.78-.22-.36-.5-.62-.88-.51-1,.26,0,3.2,0,3.2l-3.23.85a4.89,4.89,0,0,0,.93-1.14c.57-1,.12-4.15.47-4.61s3.08-.65,2.85-1.45-2.28-.6-4.69.2-4,4.84-4,4.84-12.47,13.25-13,12.45-1.8-10.74-1.8-10.74l-7.65.79v5.75s2.72,11.46,5.78,13.47c.73.49.69,0,3.17-1.49s9.29-8.06,13.17-12.93c1.73-2.17,3.93-4.36,3.93-4.36l.34-.26a16.78,16.78,0,0,0,4.28-.53,20.58,20.58,0,0,0,2-.84c.42-.1.52-.84.94-1.1s.47-.79.84-.84.48-1.32.48-1.32S670.77,322.12,669.93,322.49Z"/><polygon class="cls-2" points="635.63 370.44 628.39 426.03 621.28 474.42 613.22 474.42 618.17 420.66 618.17 370.44 635.63 370.44"/><polygon class="cls-2" points="603.54 370.44 600.5 416.5 585.14 473.2 592.89 472.97 613.22 413.57 619.08 370.44 603.54 370.44"/><path class="cls-18" d="M617.13,399.92v-4.34h-56.2v4.34h2.51l2,22.69v3.57h46.68V422H612l2.35-22.06Zm-34.8,0h4.95V422h-4ZM580.12,422H576l-1.66-22.06h4.89Zm10.28-22.06h4.92L594.43,422h-4Zm8,0h4.7L601.82,422h-4.27Zm-27.23,0L572.87,422h-4.4l-1.91-22.06ZM608.87,422h-3.93l1.32-22.06h5Z"/><path class="cls-3" d="M589,426.18v-30.6h-28.1v4.34h2.51l2,22.69v3.57Zm-1.75-26.26V422h-4l-.91-22.06Zm-8.06,0,.9,22.06H576l-1.66-22.06Zm-8,0L572.87,422h-4.4l-1.91-22.06Z"/><rect class="cls-7" x="560.93" y="398.94" width="56.21" height="1.34"/><rect class="cls-7" x="565.4" y="424.76" width="46.68" height="1.41"/><path class="cls-2" d="M579,396.13v-7.29a2.59,2.59,0,0,1,2.62-2.55h17.34a2.6,2.6,0,0,1,2.62,2.55v7.29H604v-7.29a4.84,4.84,0,0,0-5-4.61H581.59a4.85,4.85,0,0,0-5,4.61v7.29Z"/><path class="cls-12" d="M591.28,331.05s-2.67,9.07-3,10.21.23,2.41,0,3,.58,28.4-.11,30a78.45,78.45,0,0,0-2.87,9.73,6,6,0,0,0,.21,3.19c.36.77,4.11,1.07,6,.81.32-.05,2.43-.13,2.8-1.48.13-.45-2-.21-2-.21a6.43,6.43,0,0,1,0-.9c0-.53.38-3,.81-3.06s.11,1.9.55,1.9h1.78a21.45,21.45,0,0,1-.4-3.46c0-2.52-1.26-5.61-1.26-6.64s2.86-29.32,3.43-30.58,4.14-11,4.14-11Z"/><path class="cls-13" d="M585.42,471.07s-.78-.31-1.63,1.3-.75,6.24-.75,6.24h16.85s.66-3-.94-3.78a34.91,34.91,0,0,1-4.05-2.46,2.3,2.3,0,0,0-3-2.05c-2.82.57-2.54,2.05-2.54,2.05a6.57,6.57,0,0,1-2.35,0A5.94,5.94,0,0,1,585.42,471.07Z"/><rect class="cls-1" x="583.03" y="477.27" width="16.99" height="1.34"/><path class="cls-1" d="M594.9,472.37a5.23,5.23,0,0,0-2.43.52,4.27,4.27,0,0,0-1.77,1.27.54.54,0,0,0,0,.7c.3.31,1-.2,1.38-.44a10.3,10.3,0,0,1,2.78-1.22,2.36,2.36,0,0,1,1.14-.08A6,6,0,0,0,594.9,472.37Z"/><path class="cls-1" d="M596.52,473.38a5.29,5.29,0,0,0-2.43.51,4.31,4.31,0,0,0-1.78,1.28.52.52,0,0,0,0,.69c.31.31,1-.2,1.39-.43a10.12,10.12,0,0,1,2.78-1.23,2.41,2.41,0,0,1,1.15-.08A5.6,5.6,0,0,0,596.52,473.38Z"/><path class="cls-13" d="M613.89,471.07s-.79-.31-1.64,1.3-.75,6.24-.75,6.24h16.86s.66-3-1-3.78a34.44,34.44,0,0,1-4-2.46,2.3,2.3,0,0,0-3-2.05c-2.82.57-2.54,2.05-2.54,2.05a6.58,6.58,0,0,1-2.35,0A5.94,5.94,0,0,1,613.89,471.07Z"/><rect class="cls-1" x="611.5" y="477.27" width="16.99" height="1.34"/><path class="cls-1" d="M623.37,472.37a5.23,5.23,0,0,0-2.43.52,4.26,4.26,0,0,0-1.78,1.27.54.54,0,0,0,0,.7c.31.31,1-.2,1.39-.44a10.3,10.3,0,0,1,2.78-1.22,2.36,2.36,0,0,1,1.14-.08A6,6,0,0,0,623.37,472.37Z"/><path class="cls-1" d="M625,473.38a5.27,5.27,0,0,0-2.43.51,4.31,4.31,0,0,0-1.78,1.28.52.52,0,0,0,0,.69c.31.31,1-.2,1.39-.43A10,10,0,0,1,625,474.2a2.37,2.37,0,0,1,1.14-.08A5.5,5.5,0,0,0,625,473.38Z"/><path class="cls-1" d="M669.82,256.86a6.22,6.22,0,0,0-2.56-5,3,3,0,0,1-1.24-2.43v-2.34h-5.11v2.34a3,3,0,0,1-1.23,2.43,6.22,6.22,0,0,0-2.56,5c0,.16,0,.31,0,.47h0v17.52a1.05,1.05,0,0,0,1.06,1.06h10.58a1.06,1.06,0,0,0,1.06-1.06V257.33h0C669.81,257.17,669.82,257,669.82,256.86Z"/><rect class="cls-2" x="660.28" y="244.96" width="6.37" height="3.21" rx="0.45"/><circle class="cls-3" cx="663.47" cy="258.69" r="2.29"/><rect class="cls-4" x="659.3" y="262.85" width="8.34" height="8.34" rx="0.57"/><path id="Layer" class="cls-4" d="M718.69,547.36q-19.4,0-42.5-1.4c-79.6-5.1-182.7-22.6-290.4-49.5s-206.9-59.8-279.6-92.7c-35.4-16.1-62.5-31.3-80.7-45.2-19.2-14.7-27.7-27.6-25-38.1,5.1-20.7,50.7-25.2,88-25.3l.1,3c-51.3.2-81.6,8.3-85.2,23-4.7,18.6,33.3,47.7,104.1,79.8,72.5,32.9,171.6,65.8,279,92.6s210.4,44.3,289.9,49.4c77.6,4.9,124.7-2.9,129.4-21.6,3.8-15.5-21.6-38.3-71.7-64.2l1.4-2.7c36.4,18.9,78.6,45.9,73.2,67.6-2.6,10.6-16.1,18-40,22-13.7,2.2-30.4,3.3-50,3.3Z"/><path id="Layer-2" data-name="Layer" class="cls-4" d="M815.89,171.79c16.8.16,27.72,2.93,32.68,8.29,6.56,7,1.55,17.67-14.69,31.66q-4.14,3.36-8.64,6.73-4.32,3.36-9,6.61l-9.33,6.29q-4.83,3.15-9.85,6.07c-10.19,6.18-21.76,12.8-34.38,19.63-66.33,35.57-160.32,76.35-265,114.63s-207.48,69.51-289.54,88.05c-40.08,9.11-72.91,14.64-98,16.6l-4.14.21-4.32.22c-1.38.07-2.77.11-4.15.11s-2.76.11-4.14.11h0c-17.8,0-29.2-2.82-34.38-8.25-10-10.84,6.73-29.82,49.92-56.49l3.63,2.38C72.53,439.37,55.08,458,63.55,467.13c5.35,5.75,21.25,7.81,46,6s57.19-7.37,96.92-16.37c81.72-18.44,184.16-49.67,288.68-87.84C599.45,330.71,693.26,290,759.25,254.58c12.61-6.83,24.19-13.34,34.21-19.41l9.67-6.08q4.67-3,9.16-6.18,4.66-3.14,9-6.5t8.47-6.62c14.68-12.58,19.69-22.34,14.33-28.09-3.83-4.11-12.84-6.32-26.5-6.61Z"/><path class="cls-19" d="M765.19,307.93a4,4,0,0,1-4,4h0a4,4,0,0,1-4-4V300a4,4,0,0,1,4-4h0a4,4,0,0,1,4,4Z"/><path class="cls-20" d="M757.25,302.13s-.1,1.49,3,1.82a5.73,5.73,0,0,0,4.86-1.82l-.29-3.47h-7.55Z"/><path class="cls-19" d="M770,289.44c0,6.65-4.23,13.42-9.24,13.42-3.33,0-7.31-4.07-8.88-7.63-.79-1.79,0-3.56,0-5.79,0-2.48-.14-6.51.83-8.43,1.63-3.21,5.1-3.61,8.23-3.61C765.92,277.4,770,282.79,770,289.44Z"/><path class="cls-21" d="M760.73,275.77s-7.22-1.8-9.23,3.74a16.35,16.35,0,0,0,0,10.62,7.64,7.64,0,0,1,4.17-5.23,35.79,35.79,0,0,0,7.62-5.54s.87,6.74,2.47,7.78a4.28,4.28,0,0,1,1.74,3s.75-2.09,1.6-1,.15,5.09-.73,5.39-.77,3.56-.77,3.56,5.13-3,5-11.28-4.15-10.61-6.19-11.53S760.73,275.77,760.73,275.77Z"/><path class="cls-1" d="M757.25,306.44a78,78,0,0,1-7.54,3.31c-1.46.33-7.73-.17-8.57,3.64s-2.33,8.94-2.33,8.94l7.62,1.65s.88,7.12,1.6,8.11,5.86,25.64,5.86,25.64h21.6V322.8l7.94-.67s-2.44-10.58-3.33-11.91c-1.87-2.78-6.25-2.75-8.19-2.22s-6.82-1.56-6.82-1.56-1.18,3-3.92,3.29S757.25,306.44,757.25,306.44Z"/><rect class="cls-13" x="762.48" y="319.33" width="11.26" height="5.6"/><path class="cls-19" d="M739.86,322.56s-2,11.7-2.51,13.57-8,26.67-9.6,28.54c-.8.93-3.58,2.66-5.06,4.26-.89,1-2.33,1.68-3,2.36-.45.47.4.57.16.62-.8.18-.16.82,1.1.68.62-.07,1.38-.5,1.6-.46.67.14,7.14-4.13,7.44-2.93s-.83,3.73,0,3.87,2.3-5.07,2.3-6.4,9.2-22.14,10.13-23.87a6.86,6.86,0,0,0,.93-2.93l3.2-14.94-.12-.95S741.57,321.78,739.86,322.56Z"/><path class="cls-19" d="M775.49,322.8s-.16,12.92,1.77,14.74,19.28,7.79,20.24,8.86,3.38,4.43,4.1,5.57,3.19,5,3.68,4.59-1.46-3.45-1.46-3.45,3.67,4.75,4.15,4.62-1.92-3.8-1.82-4.18,2.76,4.23,3.25,3.79-1.57-4.41-1.57-4.41,2.94,2.44,3.51,2.07-2.86-3.84-2.86-3.84l-3.53-4s3.16,2.23,3.53,1.9-1.72-2.33-2.82-3.14-3.9-2.75-5.24-2.75-17.19-9.25-17.11-9.49-.41-11.56-.41-11.56Z"/><path class="cls-22" d="M775.49,353.62s5.32,7.32,6.17,15.83-2.38,39.72-2.38,39.72l-3.79,37.74h-4.73s-2.29-28.94-2.65-42-2.08-37.73-2.92-37.45-7.94,36.32-7.94,36.32l-13,43.13-5.4.85s7.56-54.48,9.88-68.95,5.2-21.08,5.2-21.08Z"/><polygon class="cls-23" points="752.43 332.08 770.76 330.29 755.55 334.83 758.39 337.37 752.43 338.52 754.71 337.37 752.43 332.08"/><path class="cls-24" d="M744.21,446.91s.56,2.84,0,4.25-4.55.85-5.4,1.14-7.57,2.05-9.64,1.13c-2.39-1.05,1.75-2.55,3.85-3.26a33.27,33.27,0,0,0,5.79-3.26Z"/><path class="cls-24" d="M770.76,446.91a15.69,15.69,0,0,0-.53,2,5.15,5.15,0,0,0,.53,1.94,2.26,2.26,0,0,0,1.92,2c1.6.25,6.33.59,6.24-.42s-1.52-2.62-1.85-2.95a26.73,26.73,0,0,1-1.58-2.6Z"/><rect class="cls-25" x="665.59" y="371.33" width="169.95" height="6.44"/><rect class="cls-26" x="670.74" y="377.77" width="158.36" height="82.91"/><rect class="cls-27" x="670.74" y="377.77" width="158.36" height="5.05"/><rect class="cls-26" x="679.19" y="327.34" width="41.38" height="30.47"/><rect class="cls-28" x="696.69" y="339.48" width="6.37" height="31.85"/><rect class="cls-28" x="690.85" y="369.99" width="18.48" height="1.34"/><rect class="cls-25" x="679.19" y="327.34" width="41.38" height="1.47"/><rect class="cls-29" x="670.74" y="457.41" width="158.36" height="3.77"/><path class="cls-26" d="M799.64,371.33s.31-3.88,2.6-5.79c.58-.5,2.31-.44,3.15-.65,1.7-.43,6.93,1.81,9.69,3.61,2.46,1.6,2.52,2.83,2.52,2.83Z"/><path class="cls-28" d="M808.48,368.65a28,28,0,0,0-5.18-2.47h0l5-.87s-.61-.27-.94-.39-1.9-.34-1.9-.34l-7.15.35h0a2.24,2.24,0,0,0-.55.05c-3.21.88-3.79,6.34-3.79,6.34h17.2S810.94,370.25,808.48,368.65Z"/><polygon class="cls-25" points="805.84 366.69 806.69 367.09 807.6 366.94 806.89 366.49 805.84 366.69"/><polygon class="cls-25" points="807.24 366.39 808.09 366.79 809 366.64 808.29 366.19 807.24 366.39"/><path class="cls-30" d="M803.58,360.78l.66.78-6.66,1.2a2.39,2.39,0,0,1,1.84-1.81C801,360.67,803,360.31,803.58,360.78Z"/><path class="cls-31" d="M801.13,365.32s-.52-3.47-1.32-3.91-.87-.32-.87-.32a8.47,8.47,0,0,1,1.25-.43c1-.22,3.39-.47,3.39-.47s.85.15,1.21,1.42a23.44,23.44,0,0,1,.59,3.08Z"/><polygon class="cls-25" points="808.62 366.09 809.47 366.49 810.61 366.34 809.67 365.89 808.62 366.09"/><polygon class="cls-25" points="807.71 367.59 808.56 367.99 809.48 367.84 808.76 367.39 807.71 367.59"/><polygon class="cls-25" points="809.11 367.29 809.96 367.69 810.88 367.54 810.16 367.09 809.11 367.29"/><polygon class="cls-25" points="810.49 366.99 811.34 367.39 812.41 367.23 811.54 366.79 810.49 366.99"/><polygon class="cls-25" points="809.51 368.49 810.36 368.89 811.28 368.74 810.56 368.29 809.51 368.49"/><polygon class="cls-25" points="810.91 368.19 811.76 368.59 812.68 368.44 811.96 367.99 810.91 368.19"/><polygon class="cls-25" points="812.29 367.89 813.14 368.29 814.07 368.13 813.34 367.69 812.29 367.89"/><polygon class="cls-28" points="810.9 369.39 811.75 369.79 812.67 369.64 811.95 369.19 810.9 369.39"/><polygon class="cls-32" points="812.3 369.09 813.15 369.49 814.07 369.34 813.35 368.89 812.3 369.09"/><polygon class="cls-33" points="813.68 368.79 814.53 369.19 815.45 369.04 814.73 368.59 813.68 368.79"/><path class="cls-13" d="M755.49,296h7.8s-1.45,2.6-3.9,2.65S755.49,296,755.49,296Z"/><circle class="cls-34" cx="133.91" cy="471.72" r="16.27"/><ellipse class="cls-34" cx="134.18" cy="471.72" rx="9.83" ry="16.27"/><line class="cls-34" x1="117.64" y1="471.72" x2="150.18" y2="471.72"/><line class="cls-34" x1="119.31" y1="478.9" x2="148.5" y2="478.9"/><line class="cls-34" x1="119.89" y1="463.47" x2="147.93" y2="463.47"/><polygon class="cls-34" points="141.74 490.53 137.03 478.59 148.76 484.11 145.32 485.15 150.98 491.46 148.61 493.61 142.91 487.37 141.74 490.53"/><line class="cls-34" x1="134.39" y1="455.26" x2="134.39" y2="487.76"/><rect class="cls-13" x="383.66" y="382.77" width="22.13" height="37.5" rx="9.61" transform="translate(-61.49 71.53) rotate(-9.61)"/><path class="cls-1" d="M404.35,418.72l-13,2.21a4.4,4.4,0,0,1-5.06-3.59l-4.73-28a4.24,4.24,0,0,1,3.59-5.06l13-2.2a4.37,4.37,0,0,1,5.05,3.59l4.74,28A4.39,4.39,0,0,1,404.35,418.72Zm-19.08-33.49a3.34,3.34,0,0,0-2.83,4l4.73,28a3.46,3.46,0,0,0,4,2.83l13-2.21a3.45,3.45,0,0,0,2.83-4l-4.74-28a3.45,3.45,0,0,0-4-2.82Z"/><rect class="cls-1" x="389.08" y="385.72" width="6.06" height="0.93" transform="translate(-58.97 70.88) rotate(-9.61)"/><path class="cls-1" d="M397.52,417.74a2.63,2.63,0,1,1,2.16-3A2.63,2.63,0,0,1,397.52,417.74Zm-.72-4.27a1.7,1.7,0,1,0,2,1.39A1.71,1.71,0,0,0,396.8,413.47Z"/><path class="cls-1" d="M405.59,410.54l-17.89,3-4.14-24.43,17.89-3Zm-17.13,1.95,16.05-2.72-3.82-22.59-16.05,2.72Z"/><rect class="cls-1" x="387.4" y="392.07" width="7.65" height="0.9" transform="translate(-60.04 70.82) rotate(-9.61)"/><rect class="cls-1" x="387.9" y="393.98" width="11.25" height="2.7" transform="translate(-60.48 71.25) rotate(-9.61)"/><rect class="cls-1" x="388.95" y="398.77" width="6.75" height="5.85" transform="translate(-61.55 71.13) rotate(-9.61)"/><path class="cls-1" d="M91.81,401.43h-6.2V389.76H81.68v-6.05h3.93V381.1c0-4.17,2.53-6.76,6.6-6.76a35.36,35.36,0,0,1,3.61.18l.65.09v5.48H93.32c-1.37,0-1.51.44-1.51,1.46v2.16h4.61l-.78,6.05H91.81Zm-4.7-1.5h3.2V388.26h4l.39-3.05h-4.4v-3.66c0-1.27.31-3,3-3H95V376c-.65-.06-1.66-.11-2.76-.11-3.19,0-5.1,2-5.1,5.26v4.11H83.18v3.05h3.93Z"/><path class="cls-1" d="M827.59,214.07a2.7,2.7,0,0,1-.47,0c-1.93-.46-3.38-3.61-3.38-6.11,0-4,2.07-8.25,5.41-8.25s5.75,4.33,5.85,4.52l.28.49-.4.41a30.47,30.47,0,0,0-5.06,7.3A2.52,2.52,0,0,1,827.59,214.07Zm1.56-12.91c-2.34,0-3.91,3.49-3.91,6.75,0,2.18,1.25,4.41,2.23,4.65.35.08.69-.21,1-.85a32.72,32.72,0,0,1,4.93-7.26C832.61,203.23,830.89,201.16,829.15,201.16Z"/><path class="cls-1" d="M841.14,214.07a2.52,2.52,0,0,1-2.23-1.69,30.81,30.81,0,0,0-5.06-7.3l-.41-.4.28-.5c.11-.19,2.58-4.52,5.86-4.52s5.41,4.28,5.41,8.25c0,2.5-1.45,5.65-3.39,6.11A2.47,2.47,0,0,1,841.14,214.07Zm-5.82-9.62a32.72,32.72,0,0,1,4.93,7.26c.32.64.66.93,1,.85,1-.24,2.23-2.47,2.23-4.65,0-3.26-1.57-6.75-3.91-6.75C837.84,201.16,836.12,203.23,835.32,204.45Z"/><path class="cls-13" d="M87.11,399.93h3.2V388.26h4l.39-3.05h-4.4v-3.66c0-1.27.31-3,3-3H95V376c-.65-.06-1.66-.11-2.76-.11-3.19,0-5.1,2-5.1,5.26v4.11H83.18v3.05h3.93Z"/><path class="cls-1" d="M516.12,528.14a14.55,14.55,0,0,1-7.05-4.24l-2.21-2.38,3,1.18a9.12,9.12,0,0,0,5.25.43,5.66,5.66,0,0,1-2.32-4.26l-.06-1.26.23.11a5.66,5.66,0,0,1-.56-4.24l.33-1.29.53.51a5.71,5.71,0,0,1,1.52-5.16l.77-.77.45,1a13.13,13.13,0,0,0,7.14,6.78l.06-.28a5.65,5.65,0,0,1,10.2-1.63,9.15,9.15,0,0,0,2.65-.35l1.9-.55-1.05,1.67a5.9,5.9,0,0,1-.73.92l.12,0,2.56-.42-1.94,1.72a10.48,10.48,0,0,1-2.86,1.81l-.06.26a15.13,15.13,0,0,1-6.15,8.6A14,14,0,0,1,516.12,528.14Zm-3.75-3.34a13.17,13.17,0,0,0,20.2-7.51c0-.19.09-.39.14-.59l.08-.39.38-.14c.23-.09.47-.19.69-.3l-.44-.06-3.47-.48,3.37-1a4.36,4.36,0,0,0,.6-.23c-.33,0-.65,0-1,0l-.41,0-.2-.36a4.15,4.15,0,0,0-7.65.92,4.43,4.43,0,0,0-.13.94l0,1-.95-.3a14.68,14.68,0,0,1-8.36-6.81,4.35,4.35,0,0,0-.4,1,4.14,4.14,0,0,0,.9,3.8l1.74,2-2.51-.73a5.81,5.81,0,0,1-1.2-.52,4.16,4.16,0,0,0,2.32,3.66l2.86,1.4-3.18,0a5.93,5.93,0,0,1-1.19-.12,4.13,4.13,0,0,0,2.78,2.61l2,.57-1.93.84A10.54,10.54,0,0,1,512.37,524.8Z"/><path class="cls-13" d="M512.34,524.75a13.15,13.15,0,0,0,20.2-7.5c.05-.2.09-.39.14-.59l.09-.39.37-.15c.24-.09.47-.19.7-.3l-.44-.05-3.48-.48,3.37-1a3.92,3.92,0,0,0,.6-.23c-.32,0-.65,0-1,0l-.41,0-.2-.37a4.14,4.14,0,0,0-7.64.93,3.82,3.82,0,0,0-.14.94l0,1-1-.3a14.62,14.62,0,0,1-8.35-6.81,4,4,0,0,0-.41,1,4.12,4.12,0,0,0,.91,3.79l1.73,2-2.51-.74a5.48,5.48,0,0,1-1.2-.51,4.17,4.17,0,0,0,2.32,3.66l2.86,1.39-3.18,0a5.92,5.92,0,0,1-1.19-.11,4.15,4.15,0,0,0,2.79,2.6l2,.57-1.94.84A10.42,10.42,0,0,1,512.34,524.75Z"/></g><g id="Layer_3" data-name="Layer 3"><circle class="cls-35" cx="132.54" cy="43.96" r="10.14"/><ellipse class="cls-15" cx="539.15" cy="240.77" rx="5.6" ry="6"/><ellipse class="cls-4" cx="500.1" cy="6" rx="5.6" ry="6"/><circle class="cls-35" cx="743.84" cy="99.33" r="4.05"/></g></g></svg>