<?xml version="1.0" encoding="UTF-8"?><svg id="Layer_2" xmlns="http://www.w3.org/2000/svg" viewBox="0 0 812.69 644.59"><defs><style>.cls-1{stroke-dasharray:0 0 20.82 20.82;}.cls-1,.cls-2,.cls-3{stroke:#fff;}.cls-1,.cls-3{stroke-width:9px;}.cls-1,.cls-3,.cls-4,.cls-5{fill:none;stroke-linecap:round;stroke-linejoin:round;}.cls-6{fill:#f6cfbe;}.cls-7,.cls-8,.cls-9{fill:#fff;}.cls-10,.cls-11{fill:#f2cd64;}.cls-12{fill:#fe5e5a;}.cls-13{fill:#92edf0;}.cls-14,.cls-15{fill:#b5b5b5;}.cls-16{fill:#84d6d9;}.cls-17{fill:#bef6f7;}.cls-18{fill:#d0f1f2;}.cls-19{fill:#0ea2bd;}.cls-20{fill:#252842;}.cls-21{fill:#434661;}.cls-22{fill:#444;}.cls-23{fill:#1a1c2e;}.cls-24{fill:#292b3b;}.cls-25{fill:#7a7a79;}.cls-8{fill-rule:evenodd;}.cls-8,.cls-9{stroke:#0ea2bd;}.cls-8,.cls-9,.cls-2,.cls-11{stroke-miterlimit:10;}.cls-2{fill:#3d7e9c;}.cls-15{opacity:.14;}.cls-4{stroke-width:2.37px;}.cls-4,.cls-5{stroke:#292b3b;}.cls-5{stroke-width:2.39px;}.cls-11{stroke:#585b7a;stroke-width:6px;}</style></defs><g id="Layer_2-2"><circle class="cls-15" cx="566.68" cy="236.91" r="236.91"/><g><path class="cls-18" d="m585.18,524.26c-37.84,0-69.75,25.38-79.64,60.04h159.28c-9.89-34.66-41.8-60.04-79.64-60.04Z"/><path class="cls-18" d="m698.94,498.54c-54.05,0-99.62,36.25-113.76,85.76h227.51c-14.13-49.51-59.71-85.76-113.76-85.76Z"/></g><g><path class="cls-18" d="m109.85,73.36c-37.84,0-69.75,25.38-79.64,60.04h159.28c-9.89-34.66-41.8-60.04-79.64-60.04Z"/><path class="cls-18" d="m327.12,73.36c-37.84,0-69.75,25.38-79.64,60.04h159.28c-9.89-34.66-41.8-60.04-79.64-60.04Z"/><path class="cls-18" d="m223.61,47.64c-54.05,0-99.62,36.25-113.76,85.76h227.51c-14.13-49.51-59.71-85.76-113.76-85.76Z"/></g><g><path class="cls-7" d="m92.63,124.79c-23.37,0-43.08,15.68-49.19,37.09h98.39c-6.11-21.41-25.82-37.09-49.19-37.09Z"/><path class="cls-7" d="m226.84,124.79c-23.37,0-43.08,15.68-49.19,37.09h98.39c-6.11-21.41-25.82-37.09-49.19-37.09Z"/><path class="cls-7" d="m162.9,108.9c-33.39,0-61.54,22.39-70.27,52.97h140.54c-8.73-30.58-36.88-52.97-70.27-52.97Z"/></g><g><path class="cls-16" d="m576.72,183.97c-17.92,0-33.03,12.02-37.72,28.43h75.43c-4.69-16.42-19.8-28.43-37.72-28.43Z"/><path class="cls-16" d="m679.62,183.97c-17.92,0-33.03,12.02-37.72,28.43h75.43c-4.69-16.42-19.8-28.43-37.72-28.43Z"/><path class="cls-16" d="m630.6,171.79c-25.6,0-47.18,17.17-53.87,40.61h107.75c-6.69-23.45-28.28-40.61-53.87-40.61Z"/></g><path class="cls-16" d="m669.45,513.63c3.8-12.09,5.86-24.96,5.86-38.31,0-58.24-39.02-107.36-92.35-122.65,3.78-9.15,5.87-19.17,5.87-29.68,0-42.98-34.84-77.82-77.82-77.82-7.39,0-14.53,1.03-21.3,2.95-28.77-46.29-80.08-77.12-138.59-77.12-75.67,0-139.29,51.54-157.7,121.43-87.7,2.7-157.96,74.64-157.96,162.99,0,20.51,3.8,40.13,10.71,58.21h623.3Z"/><g><line class="cls-11" x1="456.69" y1="243.94" x2="456.69" y2="144.42"/><path class="cls-10" d="m453.8,163.32c6.97,0,10.78-1.42,13.85-2.56,2.56-.95,4.4-1.64,8.72-1.64s6.17.69,8.72,1.64c3.07,1.14,6.88,2.56,13.85,2.56s10.78-1.42,13.85-2.56c2.56-.95,4.4-1.64,8.72-1.64s6.17.69,8.73,1.64c3.07,1.14,6.88,2.56,13.85,2.56s10.78-1.42,13.85-2.56c2.56-.95,4.4-1.64,8.73-1.64l-3.67-7.14,3.67-7.56c-6.97,0-10.78,1.42-13.85,2.56-2.56.95-4.4,1.64-8.73,1.64s-6.17-.69-8.73-1.64c-3.07-1.14-6.88-2.56-13.85-2.56s-10.78,1.42-13.85,2.56c-2.56.95-4.4,1.64-8.72,1.64s-6.17-.69-8.72-1.64c-3.07-1.14-6.88-2.56-13.85-2.56s-10.78,1.42-13.85,2.56c-2.56.95-4.4,1.64-8.72,1.64v14.7Z"/><circle class="cls-10" cx="456.69" cy="243.94" r="2.62"/><circle class="cls-10" cx="456.69" cy="144.32" r="1.9"/></g><rect class="cls-14" x="112.41" y="605.32" width="625.93" height="39.26" rx="19.63" ry="19.63"/><g><path class="cls-19" d="m236.9,305.29c-21.55,0-39.72,14.45-45.35,34.19h90.7c-5.63-19.74-23.8-34.19-45.35-34.19Z"/><path class="cls-19" d="m360.61,305.29c-21.55,0-39.72,14.45-45.35,34.19h90.7c-5.63-19.74-23.8-34.19-45.35-34.19Z"/><path class="cls-19" d="m301.67,290.64c-30.78,0-56.73,20.64-64.78,48.83h129.55c-8.05-28.19-34-48.83-64.78-48.83Z"/></g><g><path class="cls-7" d="m666.9,201.9c-9.35,0-17.23,6.27-19.68,14.83h39.36c-2.44-8.56-10.33-14.83-19.68-14.83Z"/><path class="cls-7" d="m720.58,201.9c-9.35,0-17.23,6.27-19.68,14.83h39.36c-2.44-8.56-10.33-14.83-19.68-14.83Z"/><path class="cls-7" d="m695.01,195.55c-13.35,0-24.62,8.96-28.11,21.19h56.22c-3.49-12.23-14.75-21.19-28.11-21.19Z"/></g><g><path class="cls-19" d="m396.38,464.42c-69.03,0-127.24,46.3-145.29,109.53h290.59c-18.05-63.24-76.26-109.53-145.29-109.53Z"/><path class="cls-19" d="m207.54,417.5c-98.6,0-181.76,66.13-207.54,156.46h415.07c-25.78-90.33-108.93-156.46-207.54-156.46Z"/></g><g><polygon class="cls-14" points="603.71 614.35 191.46 614.35 289.01 445.37 328.9 376.29 383.86 281.09 397.58 257.33 437.55 249.17 446.17 247.41 467.9 298 519.01 417.06 603.71 614.35"/><polygon class="cls-25" points="315.12 352.44 163.91 614.35 466.33 614.35 315.12 352.44"/><polygon class="cls-14" points="226.71 439.22 125.6 614.35 327.82 614.35 283.48 421.26 226.71 439.22"/><polygon class="cls-25" points="685.09 614.35 226.71 614.35 299.05 489.06 346.53 406.83 407.31 301.53 407.34 301.5 437.55 249.17 455.9 217.39 493 281.66 564.3 405.14 685.09 614.35"/><polygon class="cls-14" points="616.02 425.35 520.79 388.13 506.9 614.35 725.15 614.35 616.02 425.35"/></g><g><rect class="cls-22" x="350.92" y="564.1" width="316.33" height="50.95" transform="translate(1018.18 1179.14) rotate(180)"/><rect class="cls-25" x="350.92" y="513.14" width="272.18" height="50.95" transform="translate(974.02 1077.24) rotate(180)"/><rect class="cls-14" x="350.92" y="462.19" width="232.9" height="50.95" transform="translate(934.75 975.33) rotate(180)"/></g><g><path class="cls-3" d="m52.61,580.75c.96-4.95,113.76-181.06,113.76-181.06l77.34-30.19,71.42-136.11,19.42,23.94,33.96-61.14,41.17-8.82"/><circle class="cls-2" cx="52.61" cy="580.75" r="7.13" transform="translate(-522.76 485.93) rotate(-75.47)"/><circle class="cls-2" cx="166.01" cy="399.62" r="7.13" transform="translate(-261.07 469.38) rotate(-76.72)"/><circle class="cls-2" cx="243.01" cy="369.17" r="7.13" transform="translate(-172.12 520.86) rotate(-76.72)"/><circle class="cls-2" cx="315.11" cy="233.37" r="7.13" transform="translate(15.58 486.44) rotate(-76.72)"/><circle class="cls-2" cx="334.25" cy="256.39" r="7.13"/><circle class="cls-2" cx="369.56" cy="196.9" r="7.13" transform="translate(-47.22 156.41) rotate(-22.5)"/><circle class="cls-2" cx="409.66" cy="187.36" r="7.13"/></g><g><rect class="cls-16" x="178.63" y="581.45" width="231.04" height="33.6"/><rect class="cls-13" x="210.87" y="547.85" width="198.79" height="33.6"/><rect class="cls-18" x="239.56" y="514.25" width="170.1" height="33.6"/></g><polygon class="cls-7" points="493 281.66 479.16 309.26 456.7 286.8 442.31 319.26 416.79 286.8 407.34 301.5 407.31 301.53 383.86 281.09 397.58 257.33 437.55 249.17 455.9 217.39 493 281.66"/><g><rect class="cls-13" x="550.3" y="242.66" width="40.86" height="138.33" transform="translate(-79.26 333.61) rotate(-30.57)"/><polygon class="cls-13" points="517.26 221.31 503.94 274.14 569.96 235.15 517.26 221.31"/></g><g><rect class="cls-18" x="641.5" y="322.41" width="48.64" height="164.67" transform="translate(-113.31 394.89) rotate(-30.57)"/><polygon class="cls-18" points="602.17 297 586.32 359.89 664.9 313.47 602.17 297"/></g><g><path class="cls-19" d="m449.29,341.41c-13.14,0-24.22,8.81-27.66,20.85h55.32c-3.44-12.04-14.52-20.85-27.66-20.85Z"/><path class="cls-19" d="m524.74,341.41c-13.14,0-24.22,8.81-27.66,20.85h55.32c-3.44-12.04-14.52-20.85-27.66-20.85Z"/><path class="cls-19" d="m488.79,332.47c-18.77,0-34.6,12.59-39.51,29.78h79.01c-4.91-17.19-20.74-29.78-39.51-29.78Z"/></g><g><g><line class="cls-3" x1="304.35" y1="504.25" x2="306.19" y2="501.06"/><line class="cls-1" x1="309.83" y1="494.75" x2="402.74" y2="333.83"/><line class="cls-3" x1="404.56" y1="330.67" x2="406.4" y2="327.49"/></g><g><line class="cls-3" x1="398.7" y1="323.63" x2="410.34" y2="319.26"/><line class="cls-3" x1="414.71" y1="330.9" x2="410.34" y2="319.26"/></g></g><g><g><path class="cls-6" d="m266.58,442.34s2.19-8.89,4.29-9.86c2.09-.97.96,7.73-2.94,11.66l-1.35-1.8Z"/><path class="cls-24" d="m265.59,440.38c1.25.93,2.44,1.85,3.48,2.91-16.28,18.9-38.73,22.47-39.73-8.46-.15-4.73.62-3.9,3.82-3.82.18-.62.15-.63,0,0,3.2.08,3.27.84,3.12,4.71-.96,25.33,17.8,17.21,29.31,4.65Z"/></g><g><path class="cls-6" d="m184.2,464.29s-7.92,3.64-8.45,5.77c-.53,2.13,7.4-.48,10.38-4.83l-1.93-.94Z"/><path class="cls-24" d="m183.15,464.03c1,1.32,2.08,2.6,3.13,3.82,18.84-15.03,20.83-16.13,40.72-27.94,3.04-1.81,1.25-2.57-.64-5.18.36-.25.36-.24,0,0-1.88-2.61-4.19-1.12-5.29.11-7.24,8.09-26.55,17.91-37.92,29.19Z"/><rect class="cls-24" x="151.09" y="466.68" width="31.27" height="23.84" transform="translate(394.66 25.94) rotate(45.93)"/><path class="cls-4" d="m170.76,467.67l3.55-3.43c.76-.74,1.97-.72,2.71.04l4.36,4.5c.74.76.72,1.97-.04,2.71l-4.29,4.16"/></g><path class="cls-6" d="m182.55,573.69c-.11-.03-.21-.07-.32-.13-.83-.43-1.15-1.45-.72-2.28l5.6-10.8c.43-.83,1.45-1.15,2.28-.72.83.43,1.15,1.45.72,2.28l-5.6,10.8c-.38.73-1.21,1.06-1.96.85Z"/><path class="cls-23" d="m181.13,570.95s-2.2,3.89-1.23,4.3c.97.4,15.34,4.98,15.62,4.33.95-2.21-10.3-7.71-11.53-7.81-1.23-.1-2.56-1.39-2.87-.82Z"/><path class="cls-6" d="m319.35,507.72c-.05.1-.1.2-.17.3-.54.76-1.6.94-2.36.4l-9.91-7.05c-.76-.54-.94-1.6-.4-2.36.54-.76,1.6-.94,2.36-.4l9.91,7.05c.67.47.89,1.34.57,2.06Z"/><path class="cls-24" d="m314.87,501.33c-.85,1.61-1.91,3.09-3,4.55-29.19-22.33-55.66-38.3-90.26-15.64-1.06-1.64-2.12-3.29-3.17-4.93-2.63-4.11-.73-9.56,3.84-11.27,34.81-12.97,64.14,6.01,92.59,27.29Z"/><path class="cls-20" d="m188.84,567.64c-1.71-.75-3.41-1.54-5.04-2.46,16.58-24.32,31.49-64.01,32.89-93.91,4.87.36,9.73.81,14.59,1.28-5.55,29.39-27.57,69.83-42.45,95.08Z"/><path class="cls-23" d="m315.86,508.54s2.9,3.41,3.61,2.63c.71-.77,9.96-12.68,9.45-13.17-1.75-1.65-10.79,7.01-11.31,8.13-.52,1.12-2.19,1.92-1.76,2.41Z"/><path class="cls-24" d="m234.03,481.73c-2.54-1.61-8.62-1.54-11.24-2.79-3.85-1.83-5.93-2.02-10-2.78,2.61-12.72,6.31-25.78,8.45-38.35.44-2.65.7-4.22,1.66-6.05,1.3-2.46,3.11-3.93,5.12-4.45,2.46-.65,5.21.13,7.66,2.26.35.28.71.62,1.04,1.04,1.35,1.68,2.26,4.54,1.35,9.28-2.28,11.84-3.23,29.15-4.03,41.84Z"/><path class="cls-17" d="m236.71,430.61l-2.19,7.82-2.74,9.82-1.83-10.22-1.93-10.72c2.46-.65,5.21.13,7.66,2.26.35.28.71.62,1.04,1.04Z"/><path class="cls-6" d="m230.4,418.36c.06,5.12,3.67,9.22,6.8,9.19,3.13-.04,4.58-4.2,4.53-9.32-.06-5.12-2.62-7.69-5.75-7.66s-5.63,2.67-5.57,7.78Z"/><path class="cls-6" d="m228.11,420.15c.01,1.19,1.21,2.7,2.08,2.69.86,0,1.07-.98,1.05-2.17s-.73-2.3-1.59-2.29c-.86,0-1.56.57-1.54,1.77Z"/><path class="cls-6" d="m231.28,419.3l5.32.78c-.11.73-1.24,7.63-2.14,10.12-.39.74-1.77.78-3.09.09-1.19-.62-1.91-1.62-1.77-2.35h0c.54-1.49,1.31-6.09,1.68-8.64Z"/><path class="cls-23" d="m241.02,423.48s-.07,0-.21-.02c-1.06-.07-5.91-.33-7.21.92-1.46,1.41,2.33.58,3.71-.04s2.15.07,3.05.33c.91.26,1.87-.47.65-1.19Z"/><path class="cls-23" d="m229.62,415.11s1.04-3.29,3.59-4.5c2.55-1.21,7.49-1.07,8.61,3.46,0,0,.5,3.29-3.51,3.56-4.01.27-3.18-1.79-5.24.06-2.06,1.85-3.73.28-4.12.71l.67-3.28Z"/><polygon class="cls-12" points="234.52 438.43 231.77 448.25 229.94 438.04 231.59 432.07 233.41 432.52 234.52 438.43"/></g><path class="cls-21" d="m478.19,376.28c-1.27,0-2.31,1.03-2.31,2.31v22.61h-33.12v-22.61c0-1.27-1.03-2.31-2.31-2.31s-2.31,1.03-2.31,2.31v239.96c0,1.27,1.03,2.31,2.31,2.31s2.31-1.03,2.31-2.31v-19.92h33.12v19.92c0,1.27,1.03,2.31,2.31,2.31s2.31-1.03,2.31-2.31v-239.96c0-1.27-1.03-2.31-2.31-2.31Zm-35.43,121.11v-19.02h33.12v19.02h-33.12Zm33.12,5.03v19.02h-33.12v-19.02h33.12Zm-33.12-29.08v-19.02h33.12v19.02h-33.12Zm0,53.13h33.12v19.02h-33.12v-19.02Zm33.12-77.18h-33.12v-19.02h33.12v19.02Zm-33.12,101.23h33.12v19.02h-33.12v-19.02Zm33.12-144.3v19.02h-33.12v-19.02h33.12Zm-33.12,187.37v-19.02h33.12v19.02h-33.12Z"/><g><path class="cls-6" d="m430.48,332.19s.21-9.2-1.57-10.69-2.97,7.25-.22,12.08l1.79-1.39Z"/><path class="cls-24" d="m431.35,330.92c-1.36.4-2.68.84-4.01,1.3,7.95,22.37,10.16,29.07,26.92,45.96,2.56,2.58,3.35,2.19,5.28-.26.57.15.54.19,0,0,1.92-2.45,1.46-3.05-1.3-5.58-18.05-16.53-16.25-20.06-26.89-41.43Z"/><path class="cls-6" d="m511.1,501.19c.08-.08.15-.17.21-.27.5-.8.26-1.84-.54-2.34l-10.36-6.48c-.8-.5-1.85-.26-2.34.54-.5.8-.26,1.84.54,2.34l10.36,6.48c.7.44,1.59.31,2.13-.27Z"/><path class="cls-23" d="m510.93,498.09s3.89,2.25,3.26,3.09-10.74,12.14-11.31,11.72c-1.95-1.43,4.98-11.93,5.99-12.65s1.51-2.51,2.06-2.17Z"/><path class="cls-6" d="m459.2,518.94c.11,0,.23-.01.34-.03.92-.19,1.51-1.09,1.33-2l-2.44-11.98c-.19-.92-1.09-1.51-2-1.33-.92.19-1.51,1.09-1.33,2l2.44,11.98c.16.81.87,1.36,1.66,1.36Z"/><path class="cls-24" d="m455.46,511.97c1.81-.05,3.62-.23,5.41-.5-5.39-28.79-9.46-67.44,4.94-94.35-4.37-2.15-8.77-4.24-13.18-6.32-10.53,23.45-1.56,76.4,2.82,101.17Z"/><path class="cls-24" d="m503.63,499.98c1.2-1.46,2.35-2.94,3.42-4.5-32.84-22.02-44.08-42.79-37.27-83.08-4.91-.84-9.84-1.54-14.77-2.22,1.22,46.91,12.4,62.31,48.62,89.8Z"/><path class="cls-23" d="m461.33,516.68s1.05,4.37,0,4.49-16.2.58-16.29-.12c-.3-2.4,12.08-4.61,13.29-4.37,1.21.24,2.86-.63,2.99,0Z"/><path class="cls-24" d="m448.7,420.59c2.87-.96,8.79.58,11.64,0,4.2-.86,6.27-.54,10.43-.29.53-13.04.08-26.67,1.03-39.46.21-2.69.34-4.29-.16-6.3-.67-2.71-2.09-4.58-3.92-5.57-2.24-1.23-5.11-1.13-8.02.35-.41.19-.84.44-1.26.76-1.72,1.32-3.31,3.89-3.56,8.73-.64,12.1-3.9,29.21-6.18,41.79Z"/><path class="cls-17" d="m458.45,370.07l.25,8.16.3,10.24,4.26-9.52,4.47-9.99c-2.24-1.23-5.11-1.13-8.02.35-.41.19-.84.44-1.26.76Z"/><path class="cls-6" d="m467.1,361.06c-2.8,4.31-8.08,5.85-10.71,4.14-2.63-1.71-1.63-6.03,1.17-10.34s6.37-5.12,9-3.4c2.63,1.71,3.34,5.3.54,9.61Z"/><path class="cls-6" d="m468.08,363.81c-.65,1-2.48,1.64-3.21,1.17s-.38-1.4.27-2.41,1.85-1.56,2.58-1.09c.73.47,1.01,1.32.36,2.33Z"/><path class="cls-6" d="m466.48,360.35l-5.37-.52c-.07.74-.64,7.74-.36,10.39.2.81,1.54,1.19,2.99.83,1.31-.32,2.26-1.11,2.29-1.86h0c-.16-1.58.19-6.26.44-8.83Z"/><path class="cls-23" d="m464.48,362.54c-.79-.86-1.54-.08-3.45.99-1.9,1.07-5.32.79-5.55-3.67-.15-2.84-1.75,1.8-1.76,1.81-.32,2.33.31,3.74,1.87,4.76,2.16,1.4,5.6,1.2,8.65-.62.49-1.14.77-2.68.23-3.27Z"/><path class="cls-23" d="m469.51,358.72s.89-3.35-.63-5.76-5.79-4.94-9.17-1.7c0,0-2.19,2.52,1.07,4.91,3.26,2.39,3.66.19,4.42,2.87s3.01,2.24,3.11,2.82l1.2-3.14Z"/><polygon class="cls-12" points="458.69 378.23 458.99 388.47 463.25 378.95 463.08 372.73 461.21 372.73 458.69 378.23"/><rect class="cls-24" x="494.14" y="424.85" width="31.42" height="23.96" transform="translate(1138.25 673.21) rotate(160.02)"/><polyline class="cls-5" points="511.01 425.18 508.66 418.7 499.12 422.17 501.83 429.62"/><path class="cls-6" d="m501.87,415.31s1.24,9.12,3.23,10.31c1.99,1.19,1.79-7.62-1.69-11.97l-1.54,1.66Z"/><path class="cls-24" d="m501.21,416.7c1.28-.6,2.52-1.25,3.75-1.92-11.38-20.83-14.61-27.11-33.83-41.15-2.94-2.15-3.66-1.63-5.17,1.09-.58-.06-.56-.11,0,0-1.51,2.72-.96,3.24,2.16,5.3,20.43,13.48,19.21,17.24,33.08,36.67Z"/></g><path class="cls-7" d="m73.6,399.32c6.11,0,11.06-4.95,11.06-11.06,0,6.11,4.95,11.06,11.06,11.06-6.11,0-11.06,4.95-11.06,11.06,0-6.11-4.95-11.06-11.06-11.06Z"/><path class="cls-7" d="m706.7,530.35c6.11,0,11.06-4.95,11.06-11.06,0,6.11,4.95,11.06,11.06,11.06-6.11,0-11.06,4.95-11.06,11.06,0-6.11-4.95-11.06-11.06-11.06Z"/><path class="cls-7" d="m377.83,419.23c6.11,0,11.06-4.95,11.06-11.06,0,6.11,4.95,11.06,11.06,11.06-6.11,0-11.06,4.95-11.06,11.06,0-6.11-4.95-11.06-11.06-11.06Z"/><path class="cls-7" d="m33.08,511.99c4.3,0,7.78-3.48,7.78-7.78,0,4.3,3.48,7.78,7.78,7.78-4.3,0-7.78,3.48-7.78,7.78,0-4.3-3.48-7.78-7.78-7.78Z"/><path class="cls-7" d="m478.13,189.77c4.3,0,7.78-3.48,7.78-7.78,0,4.3,3.48,7.78,7.78,7.78-4.3,0-7.78,3.48-7.78,7.78,0-4.3-3.48-7.78-7.78-7.78Z"/><path class="cls-7" d="m401.88,391.54c4.3,0,7.78-3.48,7.78-7.78,0,4.3,3.48,7.78,7.78,7.78-4.3,0-7.78,3.48-7.78,7.78,0-4.3-3.48-7.78-7.78-7.78Z"/><g><rect class="cls-16" x="735.62" y="454.49" width="32.92" height="111.47" transform="translate(-154.96 453.42) rotate(-30.57)"/><polygon class="cls-16" points="709 437.29 698.27 479.86 751.46 448.44 709 437.29"/></g><path class="cls-7" d="m247.25,262.13c6.11,0,11.06-4.95,11.06-11.06,0,6.11,4.95,11.06,11.06,11.06-6.11,0-11.06,4.95-11.06,11.06,0-6.11-4.95-11.06-11.06-11.06Z"/></g><g id="Layer_3"><g><circle class="cls-9" cx="388.62" cy="219.37" r="11.39"/><ellipse class="cls-9" cx="388.8" cy="219.37" rx="6.88" ry="11.39"/><line class="cls-9" x1="377.23" y1="219.37" x2="400" y2="219.37"/><line class="cls-9" x1="378.4" y1="224.4" x2="398.83" y2="224.4"/><line class="cls-9" x1="378.8" y1="213.6" x2="398.43" y2="213.6"/><polygon class="cls-9" points="394.1 232.54 390.8 224.18 399.02 228.05 396.61 228.78 400.56 233.19 398.91 234.69 394.92 230.32 394.1 232.54"/><line class="cls-9" x1="388.95" y1="207.85" x2="388.95" y2="230.6"/></g><g><path class="cls-19" d="m314.84,295.41h-6.2v-11.67h-3.93v-6.05h3.93v-2.6c0-4.17,2.53-6.76,6.6-6.76,1.8,0,3.25.14,3.61.19l.65.09v5.48h-3.16c-1.36,0-1.51.45-1.51,1.47v2.15h4.61l-.78,6.05h-3.83v11.67Zm-4.7-1.5h3.2v-11.67h4.01l.39-3.05h-4.4v-3.65c0-1.27.31-2.96,3.01-2.96h1.66v-2.64c-.66-.05-1.66-.11-2.76-.11-3.19,0-5.1,1.97-5.1,5.26v4.1h-3.93v3.05h3.93v11.67Z"/><path class="cls-7" d="m310.14,293.91h3.2v-11.67h4.01l.39-3.05h-4.4v-3.65c0-1.27.31-2.96,3.01-2.96h1.66v-2.64c-.66-.05-1.66-.11-2.76-.11-3.19,0-5.1,1.97-5.1,5.26v4.1h-3.93v3.05h3.93v11.67Z"/></g><g><path class="cls-19" d="m206.03,360.15c-2.71-.71-5.15-2.18-7.06-4.24l-2.2-2.39,3.03,1.18c1.73.68,3.53.81,5.25.43-1.35-.98-2.23-2.53-2.32-4.26l-.07-1.26.24.11c-.72-1.25-.95-2.77-.57-4.23l.34-1.29.53.51c-.18-.85-.17-1.74.06-2.61.25-.96.76-1.85,1.46-2.55l.76-.77.45.99c1.42,3.11,3.99,5.54,7.14,6.79.02-.09.04-.19.07-.28.79-3.01,3.88-4.81,6.88-4.03,1.36.36,2.55,1.22,3.31,2.39.9.02,1.79-.1,2.66-.35l1.9-.55-1.06,1.67c-.21.33-.45.64-.72.92.04,0,.08-.01.12-.02l2.56-.42-1.94,1.72c-.86.76-1.82,1.37-2.85,1.82-.02.09-.04.17-.07.26-.9,3.44-3.14,6.57-6.15,8.6-2.42,1.62-6.41,3.27-11.75,1.87Zm-3.75-3.35c1.25.86,2.65,1.51,4.13,1.9,6.26,1.64,13.98-1.43,16.06-9.4.05-.2.1-.39.14-.59l.09-.39.37-.14c.24-.09.47-.19.7-.3-.15-.01-.29-.03-.44-.05l-3.48-.48,3.37-.98c.21-.06.41-.14.6-.23-.32.01-.65,0-.98-.02l-.41-.03-.2-.36c-.54-1-1.49-1.74-2.59-2.03-2.21-.58-4.47.75-5.05,2.96-.08.31-.13.63-.14.94l-.03.99-.95-.3c-3.55-1.12-6.54-3.57-8.36-6.81-.18.31-.32.65-.41,1-.35,1.34-.01,2.76.91,3.8l1.73,1.95-2.51-.74c-.42-.12-.82-.3-1.2-.51.02,1.53.9,2.96,2.32,3.66l2.86,1.4-3.18.03c-.4,0-.8-.03-1.19-.11.44,1.25,1.46,2.23,2.78,2.61l2.03.57-1.93.84c-1.62.7-3.34.98-5.06.84Z"/><path class="cls-7" d="m202.25,356.76c1.25.86,2.65,1.51,4.13,1.9,6.26,1.64,13.98-1.43,16.06-9.4.05-.2.1-.39.14-.59l.09-.39.37-.14c.24-.09.47-.19.7-.3-.15-.01-.29-.03-.44-.05l-3.48-.48,3.37-.98c.21-.06.41-.14.6-.23-.32.01-.65,0-.98-.02l-.41-.03-.2-.36c-.54-1-1.49-1.74-2.59-2.03-2.21-.58-4.47.75-5.05,2.96-.08.31-.13.63-.14.94l-.03.99-.95-.3c-3.55-1.12-6.54-3.57-8.36-6.81-.18.31-.32.65-.41,1-.35,1.34-.01,2.76.91,3.8l1.73,1.95-2.51-.74c-.42-.12-.82-.3-1.2-.51.02,1.53.9,2.96,2.32,3.66l2.86,1.4-3.18.03c-.4,0-.8-.03-1.19-.11.44,1.25,1.46,2.23,2.78,2.61l2.03.57-1.93.84c-1.62.7-3.34.98-5.06.84Z"/></g><path class="cls-9" d="m84.71,473.17c-.15,2.02.03,4.58,2.05,4.58.71,0,1.35-.19,1.91-.57.56-.37,1.05-1.07,1.47-2.09l.79-8.51c-.56-.12-1.11-.23-1.68-.23-1.37,0-2.41.57-3.13,1.71-.72,1.14-1.19,2.84-1.41,5.11m19.93-1.96c-.11,2.76-.99,5.15-2.6,7.16-1.62,2.02-4.04,3.02-7.24,3.03-2.1,0-3.76-1.15-4.41-3.28-1.06,2.09-2.69,3.2-4.93,3.2-1.96,0-3.46-.75-4.5-2.23-1.04-1.49-1.42-3.46-1.15-5.92.35-3.15,1.31-5.68,2.89-7.57,1.58-1.9,3.51-2.85,5.77-2.85,1.59,0,2.87.17,3.84.49.96.33,2.03.83,3.19,1.51l-.06.07h.1l-1.01,10.66c-.06,1.09.01,1.84.23,2.25.22.4.51.61.88.61,1.48,0,2.66-.68,3.54-2.02.89-1.35,1.39-3.06,1.49-5.11.21-4.26-.67-7.58-2.63-9.96-1.96-2.38-4.99-3.57-9.08-3.57s-7.13,1.28-9.47,3.84c-2.34,2.56-3.61,6.05-3.81,10.47-.23,4.3.72,7.71,2.85,10.2,2.12,2.5,5.18,3.75,9.15,3.75,2.04,0,4.69-.48,6.53-1.23l.75,3.12c-1.95,1.16-5.05,1.68-7.36,1.68-5.31,0-9.4-1.56-12.27-4.69-2.87-3.13-4.19-7.41-3.97-12.84.23-5.39,1.93-9.66,5.09-12.82,3.16-3.16,7.36-4.74,12.59-4.74s9.08,1.5,11.81,4.48c2.74,2.99,4,7.08,3.78,12.28Z"/><path class="cls-8" d="m275.62,378.22c-.1-.34-.14-.67-.14-1.01l-10.21-2.49c-.44.93-1.26,1.65-2.35,1.96-1.99.58-4.1-.54-4.68-2.5-.6-1.97.55-4.02,2.55-4.6,1.1-.31,2.22-.12,3.12.44l6.93-6.96c-.22-.31-.38-.65-.49-1.04-.59-1.96.55-4.02,2.55-4.59,2-.58,4.1.54,4.69,2.5.58,1.96-.55,4.02-2.55,4.6-1.1.31-2.22.12-3.13-.45l-6.92,6.94c.21.32.39.66.49,1.05.11.39.16.81.14,1.21l10.21,2.49c.41-.79,1.13-1.43,2.07-1.7,1.8-.52,3.66.49,4.19,2.25.54,1.75-.49,3.59-2.28,4.12-1.78.51-3.68-.5-4.2-2.25"/><path class="cls-8" d="m130.01,389.27c2.88-.96,6.3.62,7.93,3.78,3.39,6.58,4.01,4.26,6.02,6.39l-5.9,3c.12.13.21.28.29.44.52,1.02.11,2.25-.9,2.77s-2.26.12-2.78-.9c-.08-.16-.14-.32-.18-.49l-5.9,3c-.54-2.88,1.7-2.01-1.63-8.63-1.6-3.18-.87-6.88,1.6-8.64-.18-.1-.33-.24-.43-.44-.25-.48-.06-1.07.44-1.32s1.07-.06,1.32.43c.1.2.13.4.1.6"/><path class="cls-8" d="m306.45,209.59l-.04-.03c-.15-.17-.37-.26-.6-.26h-4.08l.23-.42c.2-.4.36-.81.45-1.24.17-.78.12-1.56-.12-2.34-.06-.26-.22-.5-.45-.65-.17-.12-.35-.18-.54-.19-.18,0-.36.03-.51.12-.18.1-.29.27-.36.46l-.6,1.71-2.54,2.67v5.83l2.57,1.16h0s.03.01.04.01h4.78c.22,0,.44-.09.6-.25.17-.15.26-.37.26-.6v-.18c0-.12-.03-.24-.08-.35l-.14-.32.34-.08c.45-.1.65-.35.65-.83v-.17c0-.19-.06-.38-.19-.54l-.18-.24.28-.21c.19-.14.35-.34.35-.59v-.17c0-.21-.05-.42-.18-.59l-.15-.19.18-.18c.15-.17.24-.38.24-.61v-.17c0-.22-.08-.42-.22-.59m-13.02,0s-.08.03-.08.08v5.82s.04.08.08.08h2.9s.08-.04.08-.08v-5.82c0-.05-.04-.08-.08-.08h-2.9Z"/><path class="cls-9" d="m409.66,157.54c1.49-2.98,2.98-4.48,5.97-4.48,3.27,0,5.96,2.69,5.96,5.96,0,5.97-3.53,9.82-11.93,14.55-7.6-4.62-11.93-8.58-11.93-14.55,0-3.27,2.66-5.96,5.96-5.96,2.98,0,4.48,1.49,5.96,4.48"/></g></svg>