<?xml version="1.0" encoding="UTF-8"?><svg id="Layer_2" xmlns="http://www.w3.org/2000/svg" xmlns:xlink="http://www.w3.org/1999/xlink" viewBox="0 0 645.13 529.54"><defs><style>.cls-1{fill:none;}.cls-2{clip-path:url(#clippath);}.cls-3{fill:#fa8c91;}.cls-4{fill:#f7a509;}.cls-5{fill:#f7aa18;}.cls-6{fill:#f4ca96;}.cls-7{fill:#fac45f;}.cls-8{fill:#f9c155;}.cls-9{fill:#f8dcba;}.cls-10{fill:#eca043;}.cls-11{fill:#f1b770;}.cls-12{fill:#f8535b;}.cls-13{fill:#f6cfbe;}.cls-14{fill:#fbd386;}.cls-15{fill:#ebccb9;}.cls-16{fill:#f3cbb6;}.cls-17{fill:#fff;}.cls-18{fill:#ffc4c2;}.cls-19{fill:#fcb3b7;}.cls-20{fill:#fbf9f6;}.cls-21{fill:#fcbcbf;}.cls-22{fill:#e2ecef;}.cls-23,.cls-24{fill:#ff6584;}.cls-25{fill:#fed4ce;}.cls-26{fill:#febeb5;}.cls-27{fill:#7f8391;}.cls-28{fill:#a0616a;}.cls-29{fill:#9ed9db;}.cls-30{fill:#b5b5b5;}.cls-31{fill:#b8ced7;}.cls-32{fill:#b8697f;}.cls-33{fill:#9d9ea9;}.cls-34{fill:#336982;}.cls-35{fill:#8dc2c4;}.cls-36{fill:#84d6d9;}.cls-37{fill:#a6c2cd;}.cls-38{fill:#d7f1f2;}.cls-39{fill:#d8b19c;}.cls-40{fill:#bcf0f2;}.cls-41{fill:#ca8e9f;}.cls-42{fill:#d2e0e6;}.cls-43{fill:#cedee4;}.cls-44{fill:#d0f1f2;}.cls-45{fill:#dbdddd;}.cls-46{fill:#dff1f2;}.cls-47{fill:#e0ad8d;}.cls-48{fill:#e0eaee;}.cls-49{fill:#0ea2bd;}.cls-50{fill:#42475c;}.cls-51{fill:#373c54;}.cls-52{fill:#444;}.cls-53{fill:#3e445b;}.cls-54{fill:#3f435e;}.cls-55{fill:#3e809e;}.cls-56{fill:#1a1c2e;}.cls-57{fill:#6f728a;}.cls-58{fill:#88aebc;}.cls-59{fill:#9b9eaa;}.cls-60{fill:#626576;}.cls-61{fill:#292b3b;}.cls-62{fill:#2d334a;}.cls-63{fill:#383e56;}.cls-64{fill:#3b3e54;}.cls-65{fill:#5a5e80;}.cls-66{fill:#585c85;}.cls-67{fill:#5e617d;}.cls-68{fill:#7a7a79;}.cls-69{opacity:.3;}.cls-24{opacity:0;}</style><clipPath id="clippath"><rect class="cls-1" x="229.28" y="229.16" width="80.9" height="39.36"/></clipPath></defs><g id="Layer_1-2"><rect class="cls-24" width="645.13" height="529.54"/><g><g><path class="cls-49" d="m340.37,64.83c-19.84,0-53.59-7.59-55.02-7.91-.91-.21-1.56-1.02-1.56-1.95s.65-1.74,1.56-1.95c1.43-.32,35.18-7.91,55.02-7.91,14.09,0,37.93,2.08,37.93,9.86s-23.84,9.86-37.93,9.86Zm-44.81-9.86c11.66,2.31,31.68,5.86,44.81,5.86,20.84,0,33.06-3.79,33.92-5.86-.86-2.08-13.07-5.86-33.92-5.86-13.13,0-33.15,3.55-44.81,5.86Z"/><path class="cls-49" d="m340.37,84.62c-19.84,0-53.59-7.59-55.02-7.91-.91-.21-1.56-1.02-1.56-1.95s.65-1.74,1.56-1.95c1.43-.32,35.18-7.91,55.02-7.91,14.09,0,37.93,2.08,37.93,9.86,0,7.78-23.84,9.86-37.93,9.86Zm-44.81-9.86c11.66,2.31,31.68,5.86,44.81,5.86,20.85,0,33.06-3.79,33.92-5.86-.86-2.08-13.07-5.86-33.92-5.86-13.13,0-33.15,3.55-44.81,5.86Z"/><path class="cls-49" d="m285.79,76.76c-.11,0-.23,0-.35-.03-15.65-2.73-23.58-6.73-23.58-11.91s7.9-9.17,23.47-11.89c1.08-.19,2.12.54,2.31,1.63.19,1.09-.54,2.12-1.63,2.31-14.79,2.59-20.16,6.17-20.16,7.95s5.4,5.38,20.26,7.97c1.09.19,1.82,1.22,1.63,2.31-.17.97-1.01,1.66-1.97,1.66Z"/><path class="cls-49" d="m285.79,56.89c-.11,0-.23,0-.35-.03-15.65-2.73-23.58-6.73-23.58-11.91,0-1.1.9-2,2-2s2,.9,2,2c0,1.79,5.4,5.38,20.26,7.97,1.09.19,1.82,1.23,1.63,2.31-.17.97-1.01,1.66-1.97,1.66Z"/><path class="cls-49" d="m340.37,104.48c-19.84,0-53.59-7.59-55.02-7.91-.91-.21-1.56-1.02-1.56-1.95s.65-1.74,1.56-1.95c1.43-.32,35.18-7.91,55.02-7.91,14.09,0,37.93,2.08,37.93,9.86s-23.84,9.86-37.93,9.86Zm-44.81-9.86c11.66,2.31,31.68,5.86,44.81,5.86,20.85,0,33.06-3.79,33.92-5.86-.86-2.08-13.08-5.86-33.92-5.86-13.13,0-33.15,3.55-44.81,5.86Zm78.75.05h0,0Z"/><path class="cls-49" d="m285.79,96.62c-.11,0-.23,0-.35-.03-15.65-2.73-23.58-6.73-23.58-11.91s7.9-9.17,23.47-11.89c1.08-.19,2.12.54,2.31,1.63.19,1.09-.54,2.12-1.63,2.31-14.79,2.59-20.16,6.17-20.16,7.95s5.4,5.38,20.26,7.97c1.09.19,1.82,1.23,1.63,2.31-.17.97-1.01,1.66-1.97,1.66Z"/><path class="cls-49" d="m263.86,106.55c-1.1,0-2-.9-2-2,0-5.17,7.9-9.17,23.47-11.89,1.08-.19,2.12.54,2.31,1.63.19,1.09-.54,2.12-1.63,2.31-14.79,2.59-20.16,6.17-20.16,7.95,0,1.1-.9,2-2,2Z"/></g><g><path class="cls-49" d="m340.37,124.64c-19.84,0-53.59-7.59-55.02-7.91-.91-.21-1.56-1.02-1.56-1.95s.65-1.74,1.56-1.95c1.43-.32,35.18-7.91,55.02-7.91,14.09,0,37.93,2.08,37.93,9.86s-23.84,9.86-37.93,9.86Zm-44.81-9.86c11.66,2.31,31.68,5.86,44.81,5.86,20.84,0,33.06-3.79,33.92-5.86-.86-2.08-13.07-5.86-33.92-5.86-13.13,0-33.15,3.55-44.81,5.86Z"/><path class="cls-49" d="m340.37,144.43c-19.84,0-53.59-7.59-55.02-7.91-.91-.21-1.56-1.02-1.56-1.95s.65-1.74,1.56-1.95c1.43-.32,35.18-7.91,55.02-7.91,14.09,0,37.93,2.08,37.93,9.86,0,7.78-23.84,9.86-37.93,9.86Zm-44.81-9.86c11.66,2.31,31.68,5.86,44.81,5.86,20.84,0,33.06-3.79,33.92-5.86-.86-2.08-13.07-5.86-33.92-5.86-13.13,0-33.15,3.55-44.81,5.86Z"/><path class="cls-49" d="m285.79,136.57c-.11,0-.23,0-.35-.03-15.65-2.73-23.58-6.73-23.58-11.91s7.9-9.17,23.47-11.89c1.08-.19,2.12.54,2.31,1.63.19,1.09-.54,2.12-1.63,2.31-14.79,2.59-20.16,6.17-20.16,7.95s5.4,5.38,20.26,7.97c1.09.19,1.82,1.23,1.63,2.31-.17.97-1.01,1.66-1.97,1.66Z"/><path class="cls-49" d="m285.79,116.7c-.11,0-.23,0-.35-.03-15.65-2.73-23.58-6.73-23.58-11.91,0-1.1.9-2,2-2s2,.9,2,2c0,1.79,5.4,5.38,20.26,7.97,1.09.19,1.82,1.23,1.63,2.31-.17.97-1.01,1.66-1.97,1.66Z"/><path class="cls-49" d="m340.37,164.3c-19.84,0-53.59-7.59-55.02-7.91-.91-.21-1.56-1.02-1.56-1.95s.65-1.74,1.56-1.95c1.43-.32,35.18-7.91,55.02-7.91,14.09,0,37.93,2.08,37.93,9.86s-23.84,9.86-37.93,9.86Zm-44.81-9.86c11.66,2.31,31.68,5.86,44.81,5.86,20.85,0,33.06-3.79,33.92-5.86-.86-2.08-13.07-5.86-33.92-5.86-13.13,0-33.15,3.55-44.81,5.86Z"/><path class="cls-49" d="m285.79,156.43c-.11,0-.23,0-.35-.03-15.65-2.73-23.58-6.73-23.58-11.91s7.9-9.17,23.47-11.89c1.08-.19,2.12.54,2.31,1.63.19,1.09-.54,2.12-1.63,2.31-14.79,2.59-20.16,6.17-20.16,7.95s5.4,5.38,20.26,7.97c1.09.19,1.82,1.22,1.63,2.31-.17.97-1.01,1.66-1.97,1.66Z"/><path class="cls-49" d="m263.86,166.36c-1.1,0-2-.9-2-2,0-5.17,7.9-9.17,23.47-11.89,1.08-.19,2.12.54,2.31,1.63.19,1.09-.54,2.12-1.63,2.31-14.79,2.59-20.16,6.17-20.16,7.95,0,1.1-.9,2-2,2Z"/></g><g><g class="cls-69"><path class="cls-45" d="m533.89,278.69l-20.57-91.6s-3,6.35-9.61,20.32l-25.12,16.98-16.08,40.96-31.69,27.89-23.31-18.09-35.97-14.48-31.38-5.94-36.73-41.79-20.65-3.5-18.52-14.6-10.52,9.28-18.28,2.97-8.81,14.84-22.64,16.61-20.35,30.32-12.74-2.49-9.5,4.34-26.55,27.48-11.58-2.85s-28.93,23.5-54.91,45.24c-8.65,7.24-1.78,20.32,1.44,30.15,5.46,16.63,9.64,34.24,15.54,49.67h476.68c-5.52-22.64-28.13-141.71-28.13-141.71Z"/></g><g><path class="cls-40" d="m240.89,318.97c.33.37.66.75.95,1.14,1.19,1.52,2.15,3.14,2.89,4.84.4.91.73,1.84,1,2.79.54,1.89.81,3.84.83,5.78.01.99-.04,1.98-.16,2.96-.23,1.86-.69,3.7-1.38,5.46-.36.91-.78,1.82-1.27,2.68-.93,1.68-2.1,3.25-3.5,4.68-.34.36-.7.7-1.07,1.03s-.75.66-1.14.95c-1.52,1.19-3.14,2.15-4.84,2.89-.91.4-1.84.73-2.79,1-1.89.54-3.84.81-5.78.83-.99.01-1.98-.04-2.96-.16-1.86-.23-3.7-.69-5.46-1.38-.91-.36-1.82-.78-2.68-1.27-1.68-.93-3.25-2.1-4.68-3.5-.36-.34-.7-.7-1.03-1.07-.33-.37-.65-.75-.95-1.14-1.19-1.52-2.15-3.14-2.89-4.84-.4-.91-.73-1.84-1-2.79-.54-1.89-.81-3.84-.83-5.78-.01-.99.04-1.98.16-2.96.23-1.86.69-3.7,1.38-5.46.36-.91.78-1.82,1.27-2.68.93-1.68,2.1-3.25,3.5-4.68.34-.36.7-.7,1.07-1.03.37-.33.75-.65,1.14-.95,1.52-1.19,3.14-2.15,4.84-2.89.91-.4,1.84-.73,2.79-1,1.89-.54,3.84-.81,5.78-.83.99-.01,1.98.04,2.96.16,1.86.23,3.7.69,5.46,1.38.91.36,1.82.78,2.68,1.27,1.68.93,3.25,2.1,4.68,3.5.36.34.7.7,1.03,1.07Z"/><path class="cls-29" d="m230.96,329.86l11-3.92,2.77-.99c.4.91.73,1.84,1,2.79l-2.77.99-11.17,3.99,14.77.81c.01.99-.04,1.98-.16,2.96l-2.93-.16-11.66-.63,10.55,5,2.66,1.26c-.36.91-.78,1.82-1.27,2.68l-2.65-1.26-10.72-5.08,9.87,11.01c-.34.36-.7.7-1.07,1.03s-.75.66-1.14.95l-9.75-10.88,3.93,11,.98,2.77c-.91.4-1.84.73-2.79,1l-.99-2.77-3.98-11.17-.65,11.84-.16,2.93c-.99.01-1.98-.04-2.96-.16l.16-2.93.64-11.66-5,10.55-1.26,2.66c-.91-.36-1.82-.78-2.68-1.27l1.26-2.65,5.08-10.72-11.01,9.87c-.36-.34-.7-.7-1.03-1.07-.33-.37-.65-.75-.95-1.14l10.88-9.75-11,3.93-2.77.98c-.4-.91-.73-1.84-1-2.79l2.77-.99,11.17-3.98-11.84-.65-2.93-.16c-.01-.99.04-1.98.16-2.96l14.59.8-10.55-5-2.65-1.26c.36-.91.78-1.82,1.27-2.68l2.65,1.26,10.72,5.08-9.87-11.01c.34-.36.7-.7,1.07-1.03.37-.33.75-.65,1.14-.95l9.75,10.88-3.93-11-.98-2.77c.91-.4,1.84-.73,2.79-1l.99,2.77,3.99,11.17.65-11.84.16-2.93c.99-.01,1.98.04,2.96.16l-.16,2.93-.64,11.66,5-10.55,1.26-2.66c.91.36,1.82.78,2.68,1.27l-1.26,2.66-5.08,10.71,11.01-9.87c.36.34.7.7,1.03,1.07.33.37.66.75.95,1.14l-10.88,9.75Z"/><circle class="cls-35" cx="224.35" cy="333.8" r="19.28" transform="translate(-39.45 30.21) rotate(-7.08)"/><circle class="cls-29" cx="224.35" cy="333.8" r="18.2"/><path class="cls-35" d="m224.22,344.99l-.79,3.28-4.16-1.01.76-3.13c-2.91-.89-5.58-2.38-7.09-3.91l3.47-4.54c1.67,1.62,4.09,2.99,6.37,3.54,1.98.48,2.79.24,2.96-.47.63-2.6-11.31-3.27-9.44-10.98.81-3.34,3.91-5.56,8.92-5.06l.78-3.22,4.16,1.01-.76,3.16c2.14.74,4.13,1.81,5.58,3.16l-3.32,4.54c-1.79-1.53-3.59-2.49-5.39-2.93-2.04-.49-2.83-.06-3,.65-.6,2.48,11.33,3.18,9.49,10.8-.77,3.19-3.75,5.41-8.52,5.1Z"/></g><g><path class="cls-40" d="m150.45,286.3c.5-.03.99-.05,1.48-.04,1.93,0,3.8.26,5.59.74.96.25,1.9.57,2.81.95,1.82.75,3.51,1.75,5.05,2.93.78.61,1.53,1.26,2.22,1.96,1.32,1.33,2.47,2.83,3.43,4.47.5.85.94,1.74,1.31,2.66.74,1.77,1.25,3.66,1.5,5.64.07.48.11.98.14,1.48.03.5.05.99.04,1.48,0,1.93-.26,3.8-.74,5.59-.25.96-.57,1.9-.95,2.81-.75,1.82-1.75,3.51-2.93,5.05-.61.78-1.26,1.53-1.96,2.22-1.33,1.32-2.83,2.47-4.47,3.43-.85.5-1.74.94-2.66,1.31-1.77.74-3.66,1.25-5.64,1.5-.48.07-.98.11-1.48.14-.5.03-.99.05-1.48.04-1.93,0-3.8-.26-5.59-.74-.96-.25-1.9-.57-2.81-.95-1.82-.75-3.51-1.75-5.05-2.93-.78-.61-1.53-1.26-2.22-1.96-1.32-1.33-2.47-2.83-3.43-4.47-.5-.85-.94-1.74-1.31-2.66-.74-1.77-1.25-3.66-1.5-5.64-.07-.48-.11-.98-.14-1.48-.03-.5-.05-.99-.04-1.48,0-1.93.26-3.8.74-5.59.25-.96.57-1.9.95-2.81.75-1.82,1.75-3.51,2.93-5.05.61-.78,1.26-1.53,1.96-2.22,1.33-1.32,2.83-2.47,4.47-3.43.85-.5,1.74-.94,2.66-1.31,1.77-.74,3.66-1.25,5.64-1.5.48-.07.98-.11,1.48-.14Z"/><path class="cls-29" d="m152.84,300.84l3.75-11.06.94-2.79c.96.25,1.9.57,2.81.95l-.94,2.79-3.8,11.23,9.8-11.09c.78.61,1.53,1.26,2.22,1.96l-1.95,2.2-7.73,8.75,10.47-5.17,2.64-1.31c.5.85.94,1.74,1.31,2.66l-2.63,1.3-10.63,5.26,14.76-.91c.07.48.11.98.14,1.48.03.5.05.99.04,1.48l-14.58.9,11.06,3.75,2.78.95c-.25.96-.57,1.9-.95,2.81l-2.79-.94-11.23-3.81,8.88,7.85,2.2,1.95c-.61.78-1.26,1.53-1.96,2.22l-2.2-1.94-8.75-7.73,5.17,10.47,1.31,2.64c-.85.5-1.74.94-2.66,1.31l-1.3-2.63-5.26-10.63.91,14.76c-.48.07-.98.11-1.48.14-.5.03-.99.05-1.48.04l-.9-14.58-3.75,11.06-.95,2.78c-.96-.25-1.9-.57-2.81-.95l.94-2.79,3.81-11.23-7.85,8.88-1.95,2.2c-.78-.61-1.53-1.26-2.22-1.96l9.67-10.95-10.47,5.17-2.64,1.3c-.5-.85-.94-1.74-1.31-2.66l2.63-1.3,10.63-5.26-14.76.91c-.07-.48-.11-.98-.14-1.48-.03-.5-.05-.99-.04-1.48l14.58-.9-11.06-3.75-2.78-.95c.25-.96.57-1.9.95-2.81l2.79.94,11.23,3.8-8.88-7.85-2.2-1.95c.61-.78,1.26-1.53,1.96-2.22l2.2,1.95,8.75,7.73-5.17-10.47-1.31-2.64c.85-.5,1.74-.94,2.66-1.31l1.31,2.64,5.25,10.63-.91-14.76c.48-.07.98-.11,1.48-.14.5-.03.99-.05,1.48-.04l.9,14.58Z"/><circle class="cls-35" cx="151.82" cy="308.47" r="19.28" transform="translate(-151.05 145.77) rotate(-35.55)"/><circle class="cls-29" cx="151.82" cy="308.47" r="18.2" transform="translate(-160.33 452.58) rotate(-88.58)"/><path class="cls-35" d="m160.52,315.52l2.08,2.66-3.37,2.64-1.99-2.54c-2.51,1.73-5.33,2.9-7.46,3.14l-1.4-5.54c2.31-.3,4.88-1.35,6.73-2.8,1.6-1.25,1.92-2.04,1.47-2.61-1.65-2.11-9.58,6.84-14.47.6-2.12-2.7-1.93-6.51,1.56-10.14l-2.04-2.61,3.37-2.64,2,2.56c1.9-1.22,3.98-2.11,5.94-2.41l1.5,5.42c-2.31.45-4.18,1.27-5.64,2.41-1.65,1.29-1.8,2.18-1.35,2.76,1.57,2.01,9.52-6.91,14.36-.74,2.02,2.58,1.92,6.3-1.29,9.84Z"/></g><g><path class="cls-40" d="m146.67,334.4c-.04.5-.1.99-.18,1.47-.3,1.91-.83,3.72-1.57,5.42-.39.91-.85,1.79-1.36,2.63-1.02,1.68-2.25,3.21-3.66,4.56-.72.68-1.48,1.32-2.28,1.9-1.52,1.1-3.17,2.02-4.94,2.72-.91.36-1.86.67-2.83.9-1.86.46-3.81.69-5.8.64-.49,0-.98-.03-1.48-.08s-.99-.1-1.47-.18c-1.91-.3-3.72-.83-5.42-1.57-.91-.39-1.79-.85-2.63-1.36-1.68-1.02-3.21-2.25-4.56-3.66-.68-.72-1.32-1.47-1.9-2.28-1.1-1.52-2.02-3.17-2.72-4.94-.36-.91-.67-1.86-.9-2.83-.46-1.86-.69-3.81-.64-5.8,0-.49.03-.98.08-1.48.04-.5.1-.99.18-1.47.3-1.91.83-3.72,1.57-5.42.39-.91.85-1.79,1.36-2.63,1.02-1.68,2.25-3.21,3.66-4.56.72-.68,1.47-1.32,2.28-1.9,1.52-1.1,3.17-2.02,4.94-2.72.91-.36,1.86-.67,2.83-.9,1.86-.46,3.81-.69,5.8-.64.49,0,.98.03,1.48.08.5.04.99.1,1.47.18,1.91.3,3.72.83,5.42,1.57.91.39,1.79.85,2.63,1.36,1.68,1.02,3.21,2.25,4.56,3.66.68.72,1.32,1.47,1.9,2.28,1.1,1.52,2.02,3.17,2.72,4.94.36.91.67,1.86.9,2.83.46,1.86.69,3.81.64,5.8,0,.49-.03.98-.08,1.48Z"/><path class="cls-29" d="m131.93,334.57l10.37,5.36,2.61,1.35c-.39.91-.85,1.79-1.36,2.63l-2.61-1.35-10.54-5.44,9.49,11.35c-.72.68-1.48,1.32-2.28,1.9l-1.89-2.25-7.49-8.95,3.55,11.12.9,2.8c-.91.36-1.86.67-2.83.9l-.89-2.79-3.6-11.3-1.31,14.73c-.49,0-.98-.03-1.48-.08s-.99-.1-1.47-.18l1.3-14.55-5.36,10.38-1.35,2.61c-.91-.39-1.79-.85-2.63-1.36l1.35-2.62,5.45-10.53-9.09,7.61-2.25,1.89c-.68-.72-1.32-1.47-1.9-2.28l2.25-1.89,8.96-7.49-11.12,3.55-2.8.9c-.36-.91-.67-1.86-.9-2.83l2.79-.89,11.3-3.6-14.73-1.31c0-.49.03-.98.08-1.48.04-.5.1-.99.18-1.47l14.55,1.3-10.38-5.36-2.61-1.35c.39-.91.85-1.79,1.36-2.63l2.62,1.35,10.53,5.45-7.61-9.09-1.88-2.25c.72-.68,1.47-1.32,2.28-1.9l9.37,11.2-3.55-11.12-.89-2.8c.91-.36,1.86-.67,2.83-.9l.89,2.79,3.6,11.3,1.31-14.73c.49,0,.98.03,1.48.08.5.04.99.1,1.47.18l-1.3,14.55,5.36-10.38,1.35-2.61c.91.39,1.79.85,2.63,1.36l-1.35,2.61-5.44,10.54,9.09-7.61,2.25-1.89c.68.72,1.32,1.47,1.9,2.28l-2.25,1.89-8.96,7.49,11.12-3.55,2.81-.9c.36.91.67,1.86.9,2.83l-2.8.9-11.29,3.6,14.73,1.31c0,.49-.03.98-.08,1.48s-.1.99-.18,1.47l-14.55-1.3Z"/><circle class="cls-35" cx="124.54" cy="332.43" r="19.28"/><circle class="cls-29" cx="124.54" cy="332.43" r="18.2"/><path class="cls-35" d="m116.27,339.97l-2.94,1.66-2.11-3.73,2.81-1.58c-1.33-2.74-2.07-5.71-1.99-7.85l5.69-.56c-.05,2.33.61,5.03,1.76,7.07,1,1.77,1.73,2.2,2.36,1.84,2.33-1.31-5.33-10.5,1.58-14.39,2.99-1.69,6.73-.94,9.79,3.06l2.88-1.63,2.11,3.73-2.83,1.6c.92,2.06,1.49,4.25,1.5,6.24l-5.59.67c-.1-2.35-.62-4.32-1.54-5.94-1.03-1.83-1.89-2.11-2.52-1.75-2.22,1.25,5.41,10.45-1.42,14.3-2.86,1.61-6.51.95-9.54-2.75Z"/></g><g><path class="cls-44" d="m517.26,118.85c-6.83,0-12.6,4.58-14.38,10.84h28.77c-1.79-6.26-7.55-10.84-14.38-10.84Z"/><path class="cls-44" d="m556.5,118.85c-6.83,0-12.6,4.58-14.38,10.84h28.77c-1.79-6.26-7.55-10.84-14.38-10.84Z"/><path class="cls-44" d="m537.81,114.2c-9.76,0-17.99,6.55-20.55,15.49h41.09c-2.55-8.94-10.78-15.49-20.55-15.49Z"/></g><g><path class="cls-45" d="m438.34,116.85c-11.22,0-20.69,7.53-23.63,17.81h47.25c-2.93-10.28-12.4-17.81-23.63-17.81Z"/><path class="cls-45" d="m502.8,116.85c-11.22,0-20.69,7.53-23.63,17.81h47.25c-2.93-10.28-12.4-17.81-23.63-17.81Z"/><path class="cls-45" d="m472.09,109.22c-16.03,0-29.55,10.75-33.75,25.44h67.49c-4.19-14.69-17.71-25.44-33.75-25.44Z"/></g><path class="cls-30" d="m491.36,391.14H149.65c-6.31,0-11.43-4.5-11.43-10.05s5.12-10.05,11.43-10.05h341.71c6.32,0,11.43,4.5,11.43,10.05s-5.12,10.05-11.43,10.05Z"/><g><path class="cls-17" d="m408.52,129.61c-5.25,0-9.68,3.52-11.06,8.34h22.11c-1.37-4.81-5.8-8.34-11.06-8.34Z"/><path class="cls-17" d="m438.68,129.61c-5.25,0-9.68,3.52-11.06,8.34h22.11c-1.37-4.81-5.8-8.34-11.06-8.34Z"/><path class="cls-17" d="m424.31,126.04c-7.5,0-13.83,5.03-15.79,11.91h31.59c-1.96-6.87-8.29-11.91-15.79-11.91Z"/></g><path class="cls-17" d="m444.22,208.7c1.65,0,2.99-1.34,2.99-2.99,0,1.65,1.34,2.99,2.99,2.99-1.65,0-2.99,1.34-2.99,2.99,0-1.65-1.34-2.99-2.99-2.99Z"/><path class="cls-17" d="m328.81,194.85c2.96,0,5.36-2.4,5.36-5.36,0,2.96,2.4,5.36,5.36,5.36-2.96,0-5.36,2.4-5.36,5.36,0-2.96-2.4-5.36-5.36-5.36Z"/><path class="cls-17" d="m231.04,267.6c2.96,0,5.36-2.4,5.36-5.36,0,2.96,2.4,5.36,5.36,5.36-2.96,0-5.36,2.4-5.36,5.36,0-2.96-2.4-5.36-5.36-5.36Z"/><path class="cls-17" d="m339.02,210.41c1.65,0,2.99-1.34,2.99-2.99,0,1.65,1.34,2.99,2.99,2.99-1.65,0-2.99,1.34-2.99,2.99,0-1.65-1.34-2.99-2.99-2.99Z"/><path class="cls-17" d="m86.05,349.72c1.65,0,2.99-1.34,2.99-2.99,0,1.65,1.34,2.99,2.99,2.99-1.65,0-2.99,1.34-2.99,2.99,0-1.65-1.34-2.99-2.99-2.99Z"/><polygon class="cls-67" points="114.37 298.7 109.62 294.42 121.08 281.68 130.69 285.15 154.58 263.11 170.18 252.95 179.22 256.12 195.32 228.59 215.14 214.33 227 196.72 247.77 192.97 262.68 177.86 285.96 195.6 310.63 199.39 347.99 243.67 375.28 248.25 413.63 262.99 430.45 276.28 452.32 257.58 467.26 216.87 496.57 198.28 514.6 164.43 520.25 167.44 501.43 202.78 472.52 221.11 457.75 261.35 430.61 284.56 410.43 268.61 373.59 254.46 344.61 249.59 343.86 248.69 307.29 205.36 283.38 201.68 263.28 186.36 250.9 198.91 230.8 202.54 219.8 218.86 200.16 232.99 182.08 263.91 171.03 260.03 158.52 268.18 132.17 292.49 122.95 289.16 114.37 298.7"/><polygon class="cls-67" points="519.45 160.78 510.58 167.48 520.33 171.86 519.45 160.78"/><g><g><polygon class="cls-49" points="212.1 288.94 212.1 176.85 424.59 176.85 435.51 165.93 201.18 165.93 201.18 299.85 201.2 299.85 212.12 288.94 212.1 288.94"/><polygon class="cls-55" points="435.52 165.93 435.51 165.93 424.59 176.85 424.6 176.85 424.6 288.94 212.12 288.94 201.2 299.85 435.52 299.85 435.52 165.93"/></g><path class="cls-34" d="m208.74,173.49v118.8h219.23v-118.8h-219.23Zm215.87,115.45h-212.51v-112.09h212.51v112.09Z"/></g><g><circle class="cls-66" cx="169.54" cy="255.97" r="2.72" transform="translate(-106.37 390.64) rotate(-82.5)"/><circle class="cls-18" cx="169.54" cy="255.97" r="1.37" transform="translate(-110.33 382.21) rotate(-80.76)"/></g><g><circle class="cls-66" cx="262.89" cy="182.49" r="2.72"/><circle class="cls-18" cx="262.89" cy="182.49" r="1.37"/></g><g><circle class="cls-66" cx="308.68" cy="202.84" r="2.72"/><circle class="cls-18" cx="308.68" cy="202.84" r="1.37"/></g><g><circle class="cls-66" cx="469.66" cy="219.21" r="2.72"/><circle class="cls-18" cx="469.66" cy="219.21" r="1.37"/></g><g><circle class="cls-66" cx="374.51" cy="251.29" r="2.72"/><circle class="cls-18" cx="374.51" cy="251.29" r="1.37"/></g><g><path class="cls-44" d="m127.56,342.95c-17.72,0-32.67,11.89-37.3,28.12h74.6c-4.63-16.23-19.58-28.12-37.3-28.12Z"/><path class="cls-44" d="m229.32,342.95c-17.72,0-32.67,11.89-37.3,28.12h74.6c-4.63-16.23-19.58-28.12-37.3-28.12Z"/><path class="cls-44" d="m180.84,330.91c-25.31,0-46.66,16.98-53.28,40.17h106.56c-6.62-23.19-27.97-40.17-53.28-40.17Z"/></g><g><path class="cls-45" d="m249.47,364.19c-7.72,0-14.23,5.18-16.25,12.25h32.5c-2.02-7.07-8.53-12.25-16.25-12.25Z"/><path class="cls-45" d="m293.81,364.19c-7.72,0-14.23,5.18-16.25,12.25h32.5c-2.02-7.07-8.53-12.25-16.25-12.25Z"/><path class="cls-45" d="m272.69,358.94c-11.03,0-20.33,7.4-23.21,17.5h46.43c-2.88-10.1-12.18-17.5-23.21-17.5Z"/></g><g><path class="cls-17" d="m491.58,366.05c.08.01.16.01.24,0,.67-.05,1.17-.63,1.12-1.29l-.61-8.69c-.05-.67-.63-1.17-1.29-1.12-.67.05-1.17.63-1.12,1.29l.61,8.69c.04.58.49,1.04,1.05,1.12Z"/><path class="cls-61" d="m493.13,363.93s.73,3.12-.02,3.2-11.54.36-11.6-.14c-.21-1.71,8.62-3.25,9.48-3.07.86.18,2.04-.44,2.13.01Z"/><path class="cls-13" d="m461.59,244.68s-.54-6.22-1.85-7.09-1.47,5.11.75,8.16l1.1-1.07Z"/><path class="cls-68" d="m462.2,243.99c-.92.43-1.82.81-2.71,1.21,6,14.42,13.77,19.71,29.05,18.78,2.34-.14,2.55-.94,2.24-2.87.28-.22.29-.2,0,0-.31-1.93-.84-2.25-3.21-2.11-15.52.92-17.13-1.94-25.37-15.01Z"/><path class="cls-17" d="m470.66,363.29c.08.01.16.01.24,0,.67-.05,1.17-.63,1.12-1.29l-.61-8.69c-.05-.67-.63-1.17-1.29-1.12-.67.05-1.17.63-1.12,1.29l.61,8.69c.04.58.49,1.04,1.05,1.12Z"/><path class="cls-68" d="m468.66,358.02c1.28.14,2.58.17,3.87.15-1.13-20.83-.41-48.5,12.26-66.17-2.89-1.92-5.8-3.81-8.72-5.69-9.61,15.58-8.21,53.8-7.42,71.7Z"/><path class="cls-68" d="m489.79,360.22c1.32-.21,2.64-.45,3.94-.79-7.07-19.85-10.18-50.04-5.72-70.99-3.44-.63-6.89-1.21-10.34-1.76-1.49,21.36,6.41,53.36,12.12,73.54Z"/><path class="cls-52" d="m472.4,361.64s1.53,2.81.83,3.09-11.04,3.38-11.23,2.91c-.65-1.59,7.46-5.4,8.34-5.45s1.85-.96,2.06-.55Z"/><g><path class="cls-52" d="m472.84,291.19c1.77,0,4.01.19,6.83.68,4.15.73,6.46,1.68,8.03,2.55,5.77-10.15,8-18.81,8.65-26.96.14-1.72.14-3.25.06-4.6-.1-1.72-.97-3.14-2.2-4.05-1.66-1.22-3.98-1.5-6-.34l-.75.44c-.07.04-.15.09-.22.13-1.81,1.14-2.86,3.16-2.83,5.31.08,4.49-2.21,12.13-11.58,26.83Z"/><path class="cls-17" d="m487.24,259.05l.28,5.91.17,3.63,2.67-4.01,3.84-5.76c-1.66-1.22-3.98-1.5-6-.34l-.75.44c-.07.04-.15.09-.22.13Z"/></g><path class="cls-13" d="m494.59,252.45c-1.81,3.18-5.5,4.5-7.44,3.39-1.95-1.11-1.41-4.22.4-7.4,1.81-3.18,4.31-3.91,6.26-2.8,1.95,1.11,2.6,3.62.79,6.81Z"/><path class="cls-13" d="m495.4,254.36c-.42.74-1.7,1.27-2.23.96-.54-.31-.33-.98.09-1.72.42-.74,1.25-1.19,1.79-.88.54.31.77.9.35,1.64Z"/><path class="cls-56" d="m496.21,250.68s.49-2.42-.69-4.07c-1.18-1.64-4.32-3.27-6.59-.82,0,0-1.45,1.88.97,3.44,2.42,1.56,2.61-.02,3.26,1.86.65,1.87,2.24,1.47,2.33,1.87l.72-2.29Z"/><path class="cls-13" d="m493.99,252.49l-3.75-.87c-.12.51-1.17,5.41-1.22,7.3.06.59.98.98,2.04.87.95-.1,1.7-.58,1.79-1.1h0c.03-1.13.72-4.4,1.13-6.19Z"/><path class="cls-56" d="m492.79,253.61c-.6-.58-1.1,0-2.41.85-1.31.84-3.75.79-4.1-2.37-.23-2.02-1.17,1.36-1.17,1.36-.13,1.67.38,2.65,1.53,3.3,1.59.91,4.03.62,6.12-.8.3-.83.44-1.94.03-2.33Z"/><path class="cls-56" d="m486.17,251.97s.05.02.13.06c.69.32,3.82,1.84,4.2,3.08.43,1.39-1.66-.45-2.31-1.32-.65-.87-1.37-.7-2.03-.85-.66-.15-1-.94,0-.97Z"/><g><polygon class="cls-44" points="483.97 249.8 486.67 245.58 477.26 238.59 473.69 244.16 483.97 249.8"/><polygon class="cls-44" points="486.67 245.58 483.97 249.8 486.4 252.3 489.96 246.74 486.67 245.58"/><polygon class="cls-38" points="472.79 246.05 478.6 236.99 457.7 221.92 450.37 233.35 472.79 246.05"/><polygon class="cls-46" points="450.47 236.08 460.22 220.86 425.1 195.54 412.8 214.74 450.47 236.08"/><path class="cls-65" d="m413.59,218l14.89-23.22c.59-.91.32-2.13-.59-2.72l-.22-.14c-2.02-1.29-4.7-.71-6,1.31l-12.32,19.22c-1.29,2.02-.71,4.7,1.31,6l.22.14c.91.59,2.13.32,2.72-.59Z"/><rect class="cls-65" x="444.67" y="226.19" width="18.85" height="2.97" transform="translate(17.35 487.08) rotate(-57.34)"/><path class="cls-65" d="m474.44,246.23l5.01-7.81c.36-.56.2-1.31-.37-1.67l-1.48-.95-6.31,9.85,1.48.95c.56.36,1.31.2,1.67-.37Z"/></g><path class="cls-13" d="m479.22,254.99s4.16-5.07,3.81-6.68c-.34-1.61-4.85,2.76-5.43,6.68h1.61Z"/><polygon class="cls-23" points="487.52 264.95 487.7 268.58 490.37 264.57 490.64 260.58 489.57 260.44 487.52 264.95"/><path class="cls-68" d="m495.28,261.39c-2.76-1.06-2.82.1-4.54,2.41-11.46,15.38-15.09,3.8-10.58-8.75-1.02-.37-2.02-.81-2.91-1.45-7.07,18.35,7.44,32.49,18.13,12.2,1.05-2,1.16-3.93-.11-4.41Z"/></g><g><rect class="cls-36" x="456.53" y="366.94" width="38.33" height="8.63" transform="translate(951.4 742.51) rotate(-180)"/><rect class="cls-49" x="449.31" y="375.57" width="45.55" height="8.63" transform="translate(944.18 759.78) rotate(-180)"/></g><rect class="cls-23" x="151.49" y="293.75" width="7.5" height="69.31"/><rect class="cls-49" x="133.62" y="268.15" width="7.5" height="94.91"/><rect class="cls-52" x="168.08" y="319.1" width="7.63" height="43.95"/><rect class="cls-13" x="115.76" y="323.73" width="7.5" height="39.33"/><rect class="cls-28" x="185.54" y="290.03" width="7.5" height="73.03"/></g><g><g><g><rect class="cls-20" x="225.68" y="225.8" width="88.11" height="46.42"/><g class="cls-2"><g><g><rect class="cls-39" x="225.94" y="227.1" width="85.52" height=".2"/><rect class="cls-39" x="225.94" y="229.06" width="85.52" height=".2"/><rect class="cls-39" x="225.94" y="231.03" width="85.52" height=".2"/><rect class="cls-39" x="225.94" y="233" width="85.52" height=".2"/><rect class="cls-39" x="225.94" y="234.97" width="85.52" height=".2"/><rect class="cls-39" x="225.94" y="236.94" width="85.52" height=".2"/><rect class="cls-39" x="225.94" y="238.9" width="85.52" height=".2"/><rect class="cls-39" x="225.94" y="240.87" width="85.52" height=".2"/><rect class="cls-39" x="225.94" y="242.84" width="85.52" height=".2"/><rect class="cls-39" x="225.94" y="244.81" width="85.52" height=".2"/><rect class="cls-39" x="225.94" y="246.78" width="85.52" height=".2"/><rect class="cls-39" x="225.94" y="248.74" width="85.52" height=".2"/><rect class="cls-39" x="225.94" y="250.71" width="85.52" height=".2"/><rect class="cls-39" x="225.94" y="252.68" width="85.52" height=".2"/><rect class="cls-39" x="225.94" y="254.65" width="85.52" height=".2"/><rect class="cls-39" x="225.94" y="256.62" width="85.52" height=".2"/><rect class="cls-39" x="225.94" y="258.58" width="85.52" height=".2"/><rect class="cls-39" x="225.94" y="260.55" width="85.52" height=".2"/><rect class="cls-39" x="225.94" y="262.52" width="85.52" height=".2"/><rect class="cls-39" x="225.94" y="264.49" width="85.52" height=".2"/><rect class="cls-39" x="225.94" y="266.46" width="85.52" height=".2"/><rect class="cls-39" x="225.94" y="268.42" width="85.52" height=".2"/></g><g><rect class="cls-39" x="229.24" y="223.97" width=".2" height="47.21"/><rect class="cls-39" x="231.2" y="223.97" width=".2" height="47.21"/><rect class="cls-39" x="233.17" y="223.97" width=".2" height="47.21"/><rect class="cls-39" x="235.14" y="223.97" width=".2" height="47.21"/><rect class="cls-39" x="237.11" y="223.97" width=".2" height="47.21"/><rect class="cls-39" x="239.08" y="223.97" width=".2" height="47.21"/><rect class="cls-39" x="241.04" y="223.97" width=".2" height="47.21"/><rect class="cls-39" x="243.01" y="223.97" width=".2" height="47.21"/><rect class="cls-39" x="244.98" y="223.97" width=".2" height="47.21"/><rect class="cls-39" x="246.95" y="223.97" width=".2" height="47.21"/><rect class="cls-39" x="248.92" y="223.97" width=".2" height="47.21"/><rect class="cls-39" x="250.88" y="223.97" width=".2" height="47.21"/><rect class="cls-39" x="252.85" y="223.97" width=".2" height="47.21"/><rect class="cls-39" x="254.82" y="223.97" width=".2" height="47.21"/><rect class="cls-39" x="256.79" y="223.97" width=".2" height="47.21"/><rect class="cls-39" x="258.76" y="223.97" width=".2" height="47.21"/><rect class="cls-39" x="260.72" y="223.97" width=".2" height="47.21"/><rect class="cls-39" x="262.69" y="223.97" width=".2" height="47.21"/><rect class="cls-39" x="264.66" y="223.97" width=".2" height="47.21"/><rect class="cls-39" x="266.63" y="223.97" width=".2" height="47.21"/><rect class="cls-39" x="268.6" y="223.97" width=".2" height="47.21"/><rect class="cls-39" x="270.56" y="223.97" width=".2" height="47.21"/></g><g><rect class="cls-39" x="272.69" y="223.97" width=".2" height="47.21"/><rect class="cls-39" x="274.66" y="223.97" width=".2" height="47.21"/><rect class="cls-39" x="276.63" y="223.97" width=".2" height="47.21"/><rect class="cls-39" x="278.6" y="223.97" width=".2" height="47.21"/><rect class="cls-39" x="280.56" y="223.97" width=".2" height="47.21"/><rect class="cls-39" x="282.53" y="223.97" width=".2" height="47.21"/><rect class="cls-39" x="284.5" y="223.97" width=".2" height="47.21"/><rect class="cls-39" x="286.47" y="223.97" width=".2" height="47.21"/><rect class="cls-39" x="288.44" y="223.97" width=".2" height="47.21"/><rect class="cls-39" x="290.4" y="223.97" width=".2" height="47.21"/><rect class="cls-39" x="292.37" y="223.97" width=".2" height="47.21"/><rect class="cls-39" x="294.34" y="223.97" width=".2" height="47.21"/><rect class="cls-39" x="296.31" y="223.97" width=".2" height="47.21"/><rect class="cls-39" x="298.28" y="223.97" width=".2" height="47.21"/><rect class="cls-39" x="300.24" y="223.97" width=".2" height="47.21"/><rect class="cls-39" x="302.21" y="223.97" width=".2" height="47.21"/><rect class="cls-39" x="304.18" y="223.97" width=".2" height="47.21"/><rect class="cls-39" x="306.15" y="223.97" width=".2" height="47.21"/><rect class="cls-39" x="308.11" y="223.97" width=".2" height="47.21"/><rect class="cls-39" x="310.08" y="223.97" width=".2" height="47.21"/><rect class="cls-39" x="312.05" y="223.97" width=".2" height="47.21"/><rect class="cls-39" x="314.02" y="223.97" width=".2" height="47.21"/></g></g></g></g><polygon class="cls-23" points="280.72 242.66 246.92 242.66 229.08 232.58 229.48 231.88 247.13 241.86 280.61 241.86 294.33 237.88 310 229.98 310.36 230.69 294.62 238.62 280.72 242.66"/><polygon class="cls-28" points="280.62 256.07 246.67 251.82 229.38 254.37 229.29 253.78 246.67 251.21 246.71 251.22 280.62 255.48 310.15 251.76 310.22 252.36 280.62 256.07"/><polygon class="cls-68" points="229.28 250.23 229.28 250.03 247.23 250.03 280.7 248.55 310.16 241.59 310.21 241.79 280.73 248.75 247.24 250.23 229.28 250.23"/><polygon class="cls-36" points="247.8 250.5 229.26 249.42 229.3 248.62 247.79 249.7 296.38 245.87 310.1 242.67 310.28 243.45 296.5 246.66 247.8 250.5"/><path class="cls-12" d="m246.62,242.26c0-.22.18-.41.41-.41s.41.18.41.41-.18.41-.41.41-.41-.18-.41-.41Z"/><path class="cls-58" d="m247.23,250.1c0-.22.18-.41.41-.41s.41.18.41.41-.18.41-.41.41-.41-.18-.41-.41Z"/><path class="cls-32" d="m246.21,251.52c0-.22.18-.41.41-.41s.41.18.41.41-.18.41-.41.41-.41-.18-.41-.41Z"/><path class="cls-58" d="m280.3,247.46c0-.22.18-.41.41-.41s.41.18.41.41-.18.41-.41.41-.41-.18-.41-.41Z"/><path class="cls-26" d="m280.3,248.68c0-.22.18-.41.41-.41s.41.18.41.41-.18.41-.41.41-.41-.18-.41-.41Z"/><path class="cls-12" d="m280.3,242.26c0-.22.18-.41.41-.41s.41.18.41.41-.18.41-.41.41-.41-.18-.41-.41Z"/><path class="cls-12" d="m294.07,238.25c0-.22.18-.41.41-.41s.41.18.41.41-.18.41-.41.41-.41-.18-.41-.41Z"/><g><rect class="cls-19" x="246.39" y="240.82" width="2.81" height=".32"/><rect class="cls-19" x="246.39" y="240.14" width="4.4" height=".32"/></g><g><rect class="cls-19" x="278.51" y="240.82" width="2.81" height=".32"/><rect class="cls-19" x="278.51" y="240.14" width="4.4" height=".32"/></g><g><rect class="cls-19" x="295.36" y="239.05" width="2.81" height=".32"/><rect class="cls-19" x="295.36" y="238.37" width="4.4" height=".32"/></g><g><rect class="cls-31" x="246.62" y="248.67" width="2.81" height=".32"/><rect class="cls-31" x="246.62" y="247.99" width="4.4" height=".32"/></g><g><rect class="cls-31" x="280.11" y="246.09" width="2.81" height=".32"/><rect class="cls-31" x="280.11" y="245.41" width="4.4" height=".32"/></g><g><rect class="cls-32" x="246.38" y="253.85" width="2.81" height=".32"/><rect class="cls-32" x="246.38" y="253.17" width="4.4" height=".32"/></g></g><g><path class="cls-25" d="m368.8,365.13c-6.16,0-11.36,4.13-12.97,9.78h25.94c-1.61-5.65-6.81-9.78-12.97-9.78Z"/><path class="cls-25" d="m432.02,360.5c-9.08,0-16.73,6.09-19.11,14.4h38.21c-2.37-8.32-10.03-14.4-19.11-14.4Z"/><path class="cls-25" d="m372.72,374.91c2.93-10.14,14.54-17.71,28.42-17.71s25.49,7.57,28.42,17.71h-56.83Z"/></g><g><path class="cls-27" d="m233.95,183.95c4.12,0,7.59,2.76,8.67,6.54h-17.34c1.08-3.77,4.55-6.54,8.67-6.54Z"/><path class="cls-27" d="m191.69,180.86c6.07,0,11.18,4.07,12.77,9.63h-25.54c1.59-5.56,6.7-9.63,12.77-9.63Z"/><path class="cls-27" d="m231.33,190.49c-1.96-6.78-9.72-11.84-18.99-11.84s-17.04,5.06-18.99,11.84h37.99Z"/></g><g><path class="cls-9" d="m306.86,209.56c-.11-.26-.21-.53-.3-.79-.36-1.04-.58-2.1-.66-3.15-.05-.56-.05-1.13-.02-1.69.06-1.12.27-2.22.62-3.27.18-.54.39-1.06.64-1.57.47-.96,1.06-1.87,1.76-2.69.36-.43.76-.84,1.18-1.21.81-.73,1.73-1.37,2.75-1.88.25-.13.5-.25.77-.36.26-.11.53-.21.79-.3,1.04-.36,2.1-.58,3.15-.66.56-.05,1.13-.05,1.69-.02,1.12.06,2.22.27,3.27.62.54.18,1.06.39,1.57.64.96.47,1.87,1.06,2.69,1.76.43.36.84.76,1.21,1.18.73.81,1.37,1.73,1.88,2.75.13.25.25.5.36.77.11.26.21.53.3.79.36,1.04.58,2.1.66,3.15.05.56.05,1.13.02,1.69-.06,1.12-.27,2.22-.62,3.27-.18.54-.39,1.06-.64,1.57-.47.96-1.06,1.87-1.76,2.69-.36.43-.76.84-1.18,1.21-.81.73-1.73,1.37-2.75,1.88-.25.13-.5.25-.77.36-.26.11-.53.21-.79.3-1.04.36-2.1.58-3.15.66-.56.05-1.13.05-1.69.02-1.12-.06-2.22-.27-3.27-.62-.54-.18-1.06-.39-1.57-.64-.96-.47-1.87-1.06-2.69-1.76-.43-.36-.84-.76-1.21-1.18-.73-.81-1.37-1.73-1.88-2.75-.13-.25-.25-.5-.36-.77Z"/><path class="cls-6" d="m314.23,205.52l-6.66.08-1.68.02c-.05-.56-.05-1.13-.02-1.69l1.68-.02,6.76-.09-7.82-3.17c.18-.54.39-1.06.64-1.57l1.55.63,6.17,2.5-4.77-4.65-1.2-1.17c.36-.43.76-.84,1.18-1.21l1.2,1.17,4.84,4.72-3.29-7.77c.25-.13.5-.25.77-.36.26-.11.53-.21.79-.3l3.25,7.67-.08-6.66-.02-1.68c.56-.05,1.13-.05,1.69-.02l.02,1.68.08,6.76,2.54-6.27.63-1.55c.54.18,1.06.39,1.57.64l-.63,1.55-2.5,6.17,4.65-4.77,1.17-1.2c.43.36.84.76,1.21,1.18l-1.17,1.2-4.72,4.84,7.77-3.29c.13.25.25.5.36.77.11.26.21.53.3.79l-7.67,3.25,6.66-.08,1.68-.02c.05.56.05,1.13.02,1.69l-1.68.02-6.76.08,6.27,2.54,1.55.63c-.18.54-.39,1.06-.64,1.57l-7.72-3.13,4.77,4.65,1.2,1.17c-.36.43-.76.84-1.18,1.21l-1.2-1.17-4.84-4.72,3.29,7.77c-.25.13-.5.25-.77.36-.26.11-.53.21-.79.3l-3.25-7.67.08,6.66.02,1.68c-.56.05-1.13.05-1.69.02l-.02-1.68-.09-6.76-2.54,6.27-.63,1.55c-.54-.18-1.06-.39-1.57-.64l.63-1.55,2.5-6.17-4.65,4.77-1.17,1.2c-.43-.36-.84-.76-1.21-1.18l1.17-1.2,4.72-4.84-7.77,3.29c-.13-.25-.25-.5-.36-.77-.11-.26-.21-.53-.3-.79l7.67-3.25Z"/><circle class="cls-11" cx="318.52" cy="204.62" r="11" transform="translate(39.77 460.78) rotate(-75.3)"/><circle class="cls-9" cx="318.52" cy="204.62" r="10.38"/><path class="cls-11" d="m320.66,198.6l1.03-1.62,2.06,1.31-.99,1.55c1.41,1.02,2.57,2.32,3.1,3.42l-2.71,1.81c-.6-1.19-1.65-2.37-2.78-3.09-.98-.62-1.46-.64-1.68-.29-.82,1.29,5.5,3.86,3.07,7.67-1.05,1.65-3.14,2.28-5.75,1.08l-1.02,1.59-2.06-1.31,1-1.56c-1.02-.79-1.89-1.74-2.43-2.74l2.63-1.84c.68,1.15,1.47,2.01,2.37,2.58,1.01.64,1.52.56,1.74.21.78-1.23-5.53-3.81-3.12-7.58,1.01-1.58,3.02-2.23,5.54-1.18Z"/></g><g><path class="cls-9" d="m277.17,352.26c-.26.12-.52.23-.78.33-1.03.4-2.08.65-3.12.76-.56.07-1.13.09-1.69.08-1.12-.02-2.23-.2-3.29-.51-.54-.16-1.07-.35-1.59-.58-.98-.44-1.9-.99-2.75-1.67-.44-.35-.86-.73-1.25-1.14-.76-.79-1.42-1.69-1.96-2.69-.14-.24-.26-.5-.38-.76s-.23-.52-.33-.78c-.4-1.03-.65-2.08-.76-3.12-.07-.56-.09-1.13-.08-1.69.02-1.12.2-2.23.51-3.29.16-.54.35-1.07.58-1.59.44-.98.99-1.9,1.67-2.75.35-.44.73-.86,1.14-1.25.79-.76,1.69-1.42,2.69-1.96.24-.14.5-.26.76-.38.26-.12.52-.23.78-.33,1.03-.4,2.08-.65,3.12-.76.56-.07,1.13-.09,1.69-.08,1.12.02,2.23.2,3.29.51.54.16,1.07.35,1.59.58.98.44,1.9.99,2.75,1.67.44.35.86.73,1.25,1.14.76.79,1.42,1.69,1.96,2.69.14.24.26.5.38.76.12.26.23.52.33.78.4,1.03.65,2.08.76,3.12.07.56.09,1.13.08,1.69-.02,1.12-.2,2.23-.51,3.29-.16.54-.35,1.07-.58,1.59-.44.98-.99,1.9-1.67,2.75-.35.44-.73.86-1.14,1.25-.79.76-1.69,1.42-2.69,1.96-.24.14-.5.26-.76.38Z"/><path class="cls-6" d="m272.89,345.02l.3,6.65.07,1.68c-.56.07-1.13.09-1.69.08l-.07-1.68-.3-6.76-2.91,7.92c-.54-.16-1.07-.35-1.59-.58l.58-1.57,2.3-6.25-4.49,4.92-1.13,1.24c-.44-.35-.86-.73-1.25-1.14l1.13-1.23,4.56-4.99-7.66,3.54c-.14-.24-.26-.5-.38-.76s-.23-.52-.33-.78l7.56-3.5-6.65.3-1.67.07c-.07-.56-.09-1.13-.08-1.69l1.68-.08,6.76-.3-6.35-2.33-1.57-.58c.16-.54.35-1.07.58-1.59l1.57.58,6.25,2.3-4.92-4.49-1.24-1.13c.35-.44.73-.86,1.14-1.25l1.23,1.13,4.99,4.56-3.54-7.66c.24-.14.5-.26.76-.38.26-.12.52-.23.78-.33l3.5,7.56-.3-6.65-.07-1.67c.56-.07,1.13-.09,1.69-.08l.08,1.68.3,6.75,2.33-6.35.58-1.57c.54.16,1.07.35,1.59.58l-2.88,7.82,4.49-4.92,1.13-1.24c.44.35.86.73,1.25,1.14l-1.13,1.23-4.56,4.99,7.66-3.54c.14.24.26.5.38.76.12.26.23.52.33.78l-7.56,3.5,6.65-.3,1.67-.07c.07.56.09,1.13.08,1.69l-1.68.07-6.76.3,6.35,2.33,1.57.58c-.16.54-.35,1.07-.58,1.59l-1.57-.58-6.25-2.3,4.92,4.49,1.24,1.13c-.35.44-.73.86-1.14,1.25l-1.24-1.13-4.99-4.56,3.54,7.66c-.24.14-.5.26-.76.38-.26.12-.52.23-.78.33l-3.5-7.56Z"/><circle class="cls-11" cx="271.85" cy="340.76" r="11" transform="translate(-158.15 269.22) rotate(-41.97)"/><circle class="cls-9" cx="271.85" cy="340.76" r="10.38" transform="translate(-101.28 115.38) rotate(-20.29)"/><path class="cls-11" d="m265.77,338.81l-1.65-.98,1.25-2.1,1.58.94c.97-1.44,2.23-2.65,3.32-3.21l1.89,2.65c-1.16.64-2.32,1.73-3,2.88-.59,1-.6,1.48-.24,1.69,1.31.78,3.68-5.62,7.57-3.31,1.68,1,2.38,3.06,1.27,5.71l1.62.96-1.25,2.1-1.6-.95c-.76,1.04-1.68,1.95-2.66,2.51l-1.92-2.57c1.13-.72,1.96-1.54,2.5-2.45.61-1.03.51-1.53.15-1.75-1.25-.74-3.63,5.65-7.48,3.36-1.61-.95-2.32-2.95-1.35-5.5Z"/></g><g><path class="cls-9" d="m338.14,211.3c-.41-.04-.81-.09-1.2-.16-1.55-.25-3.02-.69-4.4-1.3-.74-.32-1.45-.7-2.14-1.12-1.37-.84-2.6-1.85-3.69-3-.55-.59-1.07-1.21-1.54-1.86-.89-1.24-1.63-2.59-2.19-4.03-.29-.74-.54-1.52-.72-2.31-.37-1.52-.54-3.1-.49-4.73,0-.4.03-.8.07-1.21.04-.41.09-.81.16-1.2.25-1.55.69-3.02,1.3-4.4.32-.74.7-1.45,1.12-2.14.84-1.37,1.85-2.6,3-3.69.59-.55,1.21-1.07,1.86-1.54,1.24-.89,2.59-1.63,4.03-2.19.74-.29,1.52-.54,2.31-.72,1.52-.37,3.1-.54,4.73-.49.4,0,.8.03,1.21.07.41.04.81.09,1.2.16,1.55.25,3.02.69,4.4,1.3.74.32,1.45.7,2.14,1.12,1.37.84,2.6,1.85,3.69,3,.55.59,1.07,1.21,1.54,1.86.89,1.24,1.63,2.59,2.19,4.03.29.74.54,1.52.72,2.31.37,1.52.54,3.1.49,4.73,0,.4-.03.8-.07,1.21-.04.41-.09.81-.16,1.2-.25,1.55-.69,3.02-1.3,4.4-.32.74-.7,1.45-1.12,2.14-.84,1.37-1.85,2.6-3,3.69-.59.55-1.21,1.07-1.86,1.54-1.24.89-2.59,1.63-4.03,2.19-.74.29-1.52.54-2.31.72-1.52.37-3.1.54-4.73.49-.4,0-.8-.03-1.21-.07Z"/><path class="cls-6" d="m338.06,199.31l-4.41,8.42-1.11,2.12c-.74-.32-1.45-.7-2.14-1.12l1.11-2.12,4.47-8.55-9.28,7.67c-.55-.59-1.07-1.21-1.54-1.86l1.84-1.52,7.32-6.06-9.07,2.84-2.28.72c-.29-.74-.54-1.52-.72-2.31l2.28-.71,9.21-2.88-11.98-1.13c0-.4.03-.8.07-1.21.04-.41.09-.81.16-1.2l11.84,1.12-8.42-4.41-2.12-1.11c.32-.74.7-1.45,1.12-2.14l2.12,1.11,8.55,4.48-6.15-7.43-1.52-1.84c.59-.55,1.21-1.07,1.86-1.54l1.52,1.84,6.06,7.32-2.84-9.07-.72-2.28c.74-.29,1.52-.54,2.31-.72l.71,2.28,2.88,9.21,1.13-11.98c.4,0,.8.03,1.21.07.41.04.81.09,1.2.16l-1.12,11.84,4.41-8.42,1.11-2.12c.74.32,1.45.7,2.14,1.12l-1.11,2.12-4.48,8.54,7.43-6.15,1.84-1.52c.55.59,1.07,1.21,1.54,1.86l-9.16,7.58,9.07-2.84,2.28-.71c.29.74.54,1.52.72,2.31l-2.28.71-9.21,2.88,11.98,1.13c0,.4-.03.8-.07,1.21-.04.41-.09.81-.16,1.2l-11.84-1.12,8.42,4.41,2.12,1.11c-.32.74-.7,1.45-1.12,2.14l-2.12-1.11-8.55-4.47,6.15,7.43,1.52,1.84c-.59.55-1.21,1.07-1.86,1.54l-1.52-1.84-6.06-7.32,2.84,9.07.72,2.29c-.74.29-1.52.54-2.31.72l-.72-2.28-2.88-9.21-1.13,11.98c-.4,0-.8-.03-1.21-.07-.41-.04-.81-.09-1.2-.16l1.12-11.84Z"/><circle class="cls-11" cx="339.84" cy="193.3" r="15.69"/><circle class="cls-9" cx="339.84" cy="193.3" r="14.81"/><path class="cls-11" d="m333.74,186.54l-1.34-2.4,3.05-1.7,1.28,2.29c2.23-1.07,4.65-1.66,6.4-1.58l.43,4.63c-1.9-.05-4.1.47-5.76,1.4-1.45.81-1.8,1.4-1.51,1.92,1.06,1.9,8.57-4.29,11.71,1.35,1.36,2.44.73,5.48-2.53,7.95l1.31,2.36-3.05,1.7-1.29-2.31c-1.68.74-3.47,1.2-5.08,1.19l-.52-4.55c1.91-.07,3.52-.49,4.84-1.22,1.49-.83,1.73-1.53,1.44-2.05-1.01-1.81-8.53,4.36-11.63-1.22-1.3-2.33-.75-5.3,2.28-7.75Z"/></g><g><ellipse class="cls-11" cx="390.62" cy="286.38" rx="41.05" ry="7.89" transform="translate(-32.48 522.15) rotate(-65.37)"/><ellipse class="cls-10" cx="398.2" cy="269.01" rx="6.71" ry="1.82" transform="translate(-68.74 155.47) rotate(-20.37)"/><path class="cls-10" d="m402.19,262.32c-2.26.84-4.28,1.02-4.51.41-.23-.61,1.42-1.79,3.68-2.63,2.26-.84,4.28-1.02,4.51-.41.23.61-1.42,1.79-3.68,2.63Z"/><path class="cls-10" d="m394.4,280.4c-3.48,1.29-6.58,1.57-6.93.63s2.18-2.76,5.66-4.05c3.48-1.29,6.58-1.57,6.93-.63.35.94-2.18,2.76-5.66,4.05Z"/><path class="cls-10" d="m390.56,289.61c-3.48,1.29-6.58,1.57-6.93.63-.35-.94,2.18-2.76,5.66-4.05,3.48-1.29,6.58-1.57,6.93-.63s-2.18,2.76-5.66,4.05Z"/><ellipse class="cls-10" cx="385.09" cy="298.46" rx="6.71" ry="1.82" transform="translate(-79.82 152.74) rotate(-20.37)"/></g><g><path class="cls-36" d="m367.72,331.23s-11.04-.33-13.14-6.95c-2.11-6.62,1.95-11.32,1.13-12.24-.83-.93-3.64-4.32-.09-7.61,1.54-1.42-3.92-4.9-2.05-11.01,0,0,1.55-5.34,5.78-4.13,0,0-.02-4.82,4.52-6.96,4.54-2.14,7.6-1.14,7.6-1.14,0,0,1.23-3.38,6.56-2.72,5.33.66,5.65,6.36,4.66,8.02,0,0,3.55-.36,4.62,4.74,1.07,5.09-2.72,7.28-2.72,7.28,0,0,2.06.3,3.02,4.04.96,3.74-1.73,6.5-3.55,8.36s-1.52,3.59-1.64,7.14c-.12,3.55-3.69,14.44-14.69,13.18Z"/><path class="cls-22" d="m383.3,305.27l-1.63,2.71-.2.34-.22.33-.44.65-.87,1.31-.22.33-.23.32-.47.63-.93,1.25c-.32.41-.66.8-.99,1.2-.34.39-.65.8-1.02,1.17l-1.06,1.12c-.36.37-.74.7-1.11,1.05-.19.17-.36.36-.56.51l-.59.48-.58.47-.61.43c-.2.14-.4.29-.61.42l-.63.37c-.24.15-.48.28-.73.4l.03-1.54c.02-.95.02-1.91.07-2.86.1-1.81.21-3.63.37-5.45.02-.01.04-.03.06-.04.32-.22.63-.44.93-.67.3-.23.6-.46.89-.69.29-.23.58-.47.86-.71,1.12-.96,2.18-1.96,3.2-2.99.5-.53,1-1.04,1.47-1.58l.71-.81.69-.82c.46-.54.89-1.12,1.33-1.67.43-.56.84-1.14,1.26-1.71l-.18-.17c-.57.41-1.13.84-1.7,1.24-.58.39-1.14.8-1.74,1.17l-.88.56-.89.53c-.59.36-1.2.68-1.79,1.02-1.17.62-2.36,1.19-3.56,1.7.01-.09.03-.19.04-.28.38-2.51.84-5.02,1.45-7.49.01,0,.02,0,.03,0,.28-.05.55-.11.82-.18.53-.13,1.03-.3,1.52-.49.98-.37,1.88-.84,2.74-1.35l.64-.39c.21-.13.41-.28.61-.42.41-.27.79-.58,1.18-.88.38-.3.74-.63,1.11-.94l1.05-.99-.14-.2-1.28.62c-.44.18-.86.38-1.3.54-.44.16-.87.33-1.31.45-.22.07-.44.14-.66.2l-.66.17c-.88.2-1.76.35-2.62.39-.27.01-.53.02-.79.02.03-.09.05-.18.08-.27.29-.91.6-1.82.9-2.73l.52-1.34.26-.67c.09-.22.19-.44.29-.66.75-1.77,1.61-3.52,2.7-5.1l-.18-.16c-1.35,1.44-2.47,3.07-3.5,4.75-.13.21-.27.42-.39.63l-.36.64-.73,1.29c-.45.88-.9,1.76-1.33,2.65-.22.46-.44.93-.65,1.4-.33-.84-.65-1.69-.92-2.55-.29-.96-.56-1.93-.74-2.93-.18-.99-.29-2-.26-3.02l-.24-.04c-.25,1.01-.37,2.07-.41,3.12-.04,1.06,0,2.11.09,3.17.09,1.05.23,2.1.41,3.15.09.52.19,1.04.3,1.56.08.4.17.78.27,1.18-.76,1.99-1.44,4.01-2.07,6.05-.16.5-.31,1.01-.46,1.51-.06-.07-.12-.13-.18-.2-.92-1.05-1.81-2.14-2.63-3.28-.83-1.14-1.63-2.31-2.35-3.54-.75-1.21-1.4-2.48-2.04-3.77l-.23.08c.34,1.4.71,2.81,1.19,4.19.46,1.39.99,2.75,1.58,4.1.59,1.35,1.24,2.68,1.96,3.98.36.65.73,1.3,1.12,1.94.16.25.31.5.47.75-.46,1.93-.87,3.87-1.27,5.82-.19.98-.34,1.96-.51,2.94l-.13.8c-.36-.2-.7-.41-1.04-.65-.63-.45-1.21-.98-1.74-1.58l-.39-.46-.36-.49c-.06-.08-.12-.17-.18-.25l-.16-.26-.32-.53-.23.08.13.62.07.32c.03.1.06.21.09.31l.18.63.23.61c.33.81.75,1.62,1.27,2.37.52.75,1.13,1.45,1.8,2.08.06.06.13.12.2.18l-.65,5.1,7.13.24-.08-3.58c.3-.15.58-.31.87-.47.48-.32.99-.62,1.43-.99l.67-.53c.21-.18.42-.38.63-.56l.62-.57.58-.6.57-.6c.2-.2.36-.42.54-.62.35-.42.71-.83,1.04-1.27l.96-1.31c.33-.43.6-.89.9-1.34.29-.45.59-.9.86-1.36l.79-1.4.39-.7.2-.35.18-.36.71-1.43.36-.71.18-.36.16-.36,1.28-2.91-.22-.11Z"/></g><g><g><rect class="cls-47" x="343.61" y="280.22" width="6.31" height="29.38"/><rect class="cls-47" x="372.07" y="280.22" width="6.31" height="29.38"/><polygon class="cls-15" points="378.31 280.22 343.62 280.22 349.93 273.9 372 273.9 378.31 280.22"/></g><polygon class="cls-15" points="401.87 379.12 320.12 379.12 325.25 298.7 396.74 298.7 401.87 379.12"/></g><g><rect class="cls-36" x="315.92" y="333.72" width="44.13" height="36.23" rx="16.35" ry="16.35"/><rect class="cls-37" x="335.4" y="333.72" width="5.15" height="36.23"/><polygon class="cls-48" points="337.98 338.86 329.27 329.22 346.69 329.22 337.98 338.86"/><polygon class="cls-17" points="337.98 338.86 346.69 329.22 346.69 341.78 337.98 338.86"/><polygon class="cls-17" points="337.98 338.86 329.27 329.22 329.27 341.78 337.98 338.86"/><circle class="cls-57" cx="337.98" cy="342.17" r=".65"/><circle class="cls-57" cx="337.98" cy="346.55" r=".65"/></g><g><rect class="cls-28" x="294.51" y="348.76" width="44.13" height="36.23" rx="16.35" ry="16.35"/><rect class="cls-41" x="314" y="348.76" width="5.15" height="36.23"/><polygon class="cls-48" points="316.58 353.9 307.87 344.26 325.29 344.26 316.58 353.9"/><polygon class="cls-17" points="316.58 353.9 325.29 344.26 325.29 356.82 316.58 353.9"/><polygon class="cls-17" points="316.58 353.9 307.87 344.26 307.87 356.82 316.58 353.9"/><circle class="cls-57" cx="316.58" cy="357.21" r=".65"/><circle class="cls-57" cx="316.58" cy="361.59" r=".65"/></g><g><g><path class="cls-50" d="m417.33,332.22v.06l-.03,7.45-.15,31.54-.04,7.69c0,1.66-1.36,3-3.02,2.99l-15.66-.07c-1.66,0-3-1.36-2.99-3.02l.22-46.67c.02-4.76,3.12-8.8,7.39-10.23,1.1-.37,2.27-.57,3.5-.56,1.22,0,2.39.21,3.49.59,4.25,1.47,7.3,5.5,7.3,10.24Z"/><rect class="cls-50" x="403.07" y="304.35" width="6.98" height="26.54" transform="translate(1.5 -1.91) rotate(.27)"/></g><polygon class="cls-32" points="417.3 339.72 417.15 371.26 401.94 371.26 401.94 339.72 417.3 339.72"/></g><g><g><rect class="cls-33" x="413.68" y="347.03" width="22.09" height="37.13"/><path class="cls-60" d="m413.16,347.03h23.13c0,1.22-.99,2.21-2.21,2.21h-18.72c-1.22,0-2.21-.99-2.21-2.21h0Z"/><path class="cls-60" d="m413.16,382.33h23.13c0,1.22-.99,2.21-2.21,2.21h-18.72c-1.22,0-2.21-.99-2.21-2.21h0Z" transform="translate(849.46 766.86) rotate(-180)"/></g><g><path class="cls-64" d="m424.66,362.21s1.51-1.13,1.7-1.23c.44-.22,1.48-.92,1.76-1.25,0,0-.49,1.07-.67,1.25s-1.08.91-1.08.91l-1.14.69-.56-.37Z"/><path class="cls-64" d="m423.76,362.02s-.67-.91-.69-1.18c-.02-.27.02-1.86-.06-2.04,0,0,.55,1.22.56,1.61,0,.39.62,1.04.76,1.35.14.31.11.53.11.53l-.68-.27Z"/><path class="cls-64" d="m426.02,358.96c-.18-.25-.53-.31-.78-.13l-.03.02h-.01s-.01.02-.01.02c-.01.01-.03.03-.04.04l-.02.02-.02.02-.02.02-.02.02s-.08.09-.11.13c-.07.08-.12.16-.18.24-.06.08-.11.16-.16.24-.05.08-.1.17-.15.26-.02.05-.05.09-.07.15,0,.01-.01.03-.02.05h0s0,.02,0,.02v.02s-.03.07-.03.07c-.02.05-.03.09-.05.14-.01.05-.03.1-.04.14-.03.1-.05.19-.06.29-.02.1-.03.2-.04.3,0,.1-.01.2-.02.3,0,.1,0,.2,0,.29.01.19.03.38.07.57.06.37.16.72.26,1.06.05.17.22.29.41.25.19-.03.32-.22.29-.41h0c-.06-.34-.12-.68-.14-1-.02-.32-.01-.63.05-.93.03-.15.07-.29.12-.43.01-.04.03-.07.04-.1.01-.03.03-.07.05-.1l.02-.05h0s0-.02,0-.02h0s0-.02,0-.02c.01-.02.03-.05.05-.08.04-.06.08-.12.13-.19.05-.06.09-.12.14-.18.05-.06.1-.12.15-.17.02-.02.05-.05.07-.06h0s0-.01,0-.01c0,0,0,0,0,0h0s0,0,0,0c0,0,0,0,0,0h0s0,0,0,0c.25-.18.31-.53.13-.78Z"/><path class="cls-64" d="m426.13,362.78s1.97-1.1,2.2-1.41c.67-.93,2-1.12,2-1.12,0,0-.5-.27-1.15,0-.66.27-1.01.87-1.66,1.01-.65.14-2.86.65-2.95,1.33-.09.67,1.56.2,1.56.2Z"/><path class="cls-64" d="m423.58,362.58s-1.73-.41-1.91-1.41-1.2-1.89-1.2-1.89c0,0,.44,0,.94.44.5.43.79,1.4,1.05,1.54s1.8.73,2.09,1.05c.29.31.17.71.17.71l-1.15-.43Z"/><g><path class="cls-23" d="m427.56,362.02c-.59,0-1.17.09-1.71.26-.73.23-1.51.23-2.23,0-.54-.17-1.12-.26-1.71-.26-3.48,0-6.29,2.82-6.29,6.66s3.14,7.23,6.61,7.23h5.02c3.48,0,6.61-3.4,6.61-7.23s-2.82-6.66-6.29-6.66Z"/><g><g><path class="cls-3" d="m421.69,374.07c-.16,0-.32-.03-.48-.09-1.03-.38-1.98-1.1-2.66-2.01-.35-.46-.62-.96-.8-1.49-.2-.56-.3-1.14-.3-1.71,0-1.2.36-2.28,1.03-3.12.69-.86,1.7-1.45,2.92-1.71.74-.16,1.48.32,1.63,1.06.16.74-.32,1.48-1.06,1.63-.6.13-1.06.38-1.35.74-.28.35-.43.82-.43,1.4,0,.52.2,1.07.56,1.55.37.49.87.87,1.41,1.07.71.26,1.08,1.06.81,1.77-.21.56-.73.9-1.29.9Z"/><path class="cls-21" d="m420.12,365.63c.15.36.76.59.76.59,0,0,.28-.59.13-.96-.15-.36-.42-.46-.67-.36s-.37.36-.23.73Z"/><path class="cls-21" d="m419.04,366.95c.34.2.97,0,.97,0,0,0-.14-.64-.48-.84-.34-.2-.62-.11-.75.12-.13.23-.07.52.27.71Z"/><path class="cls-21" d="m419.1,370.94c.38-.09.71-.66.71-.66,0,0-.54-.37-.92-.28s-.53.34-.47.6c.06.26.3.43.68.34Z"/><path class="cls-21" d="m420.39,372.21c.27-.28.23-.94.23-.94,0,0-.66-.01-.93.27-.27.28-.25.58-.06.76s.48.19.76-.09Z"/><path class="cls-21" d="m421.88,372.81c.14-.37-.15-.95-.15-.95,0,0-.61.24-.76.6-.14.37-.01.63.24.72.25.1.52,0,.67-.37Z"/></g><g><path class="cls-3" d="m427.74,374.07c.16,0,.32-.03.48-.09,1.03-.38,1.98-1.1,2.66-2.01.35-.46.62-.96.8-1.49.2-.56.3-1.14.3-1.71,0-1.2-.36-2.28-1.03-3.12-.69-.86-1.7-1.45-2.92-1.71-.74-.16-1.48.32-1.63,1.06-.16.74.32,1.48,1.06,1.63.6.13,1.06.38,1.35.74.28.35.43.82.43,1.4,0,.52-.2,1.07-.56,1.55-.37.49-.87.87-1.41,1.07-.71.26-1.08,1.06-.81,1.77.21.56.73.9,1.29.9Z"/><path class="cls-21" d="m428.45,365.37c-.15.36-.76.59-.76.59,0,0-.28-.59-.13-.96.15-.36.42-.46.67-.36.25.1.37.36.23.73Z"/><path class="cls-21" d="m429.96,366.54c-.33.22-.96.06-.96.06,0,0,.1-.65.42-.87.33-.22.61-.15.76.07s.11.51-.22.73Z"/><path class="cls-21" d="m430.76,368.51c-.39.07-.91-.33-.91-.33,0,0,.35-.55.74-.62.39-.07.62.11.66.38s-.11.51-.5.58Z"/><path class="cls-21" d="m430.33,370.94c-.38-.09-.71-.66-.71-.66,0,0,.54-.37.92-.28s.53.34.47.6c-.06.26-.3.43-.68.34Z"/><path class="cls-21" d="m429.04,372.21c-.27-.28-.23-.94-.23-.94,0,0,.66-.01.93.27.27.28.25.58.06.76-.19.18-.48.19-.76-.09Z"/><path class="cls-21" d="m427.55,372.81c-.14-.37.15-.95.15-.95,0,0,.61.24.76.6.14.37.01.63-.24.72-.25.1-.52,0-.67-.37Z"/></g><path class="cls-3" d="m426.26,367.2c-.14.03-.28.07-.4.1-.73.18-1.5.18-2.23,0-.13-.03-.26-.06-.4-.1-1.51-.35-2.3.55-2.3,1.63s1.19,2.27,2.42,2.27h2.81c1.23,0,2.42-1.19,2.42-2.27s-.79-1.99-2.3-1.63Z"/></g></g></g><rect class="cls-42" x="417.84" y="351.28" width="13.79" height=".62"/><rect class="cls-42" x="417.84" y="352.99" width="13.79" height=".62"/><rect class="cls-42" x="417.84" y="354.7" width="13.79" height=".62"/></g><g><path class="cls-50" d="m360.59,353.21l-2.39-.19c.1-1.32.08-5.12-1.22-6.87l1.92-1.44c2.08,2.78,1.74,7.92,1.69,8.49Z"/><g><polygon class="cls-50" points="359.01 382.01 359.01 382.96 359.01 383.94 359.54 383.41 360.04 383.91 360.54 383.41 361.07 383.94 361.07 382.96 361.07 382.01 359.01 382.01"/><path class="cls-3" d="m364.99,356.07l-.1-.86c-.29-2.46-2.37-4.31-4.85-4.31h0c-2.48,0-4.56,1.85-4.85,4.31l-.1.86c-.41,3.45-2.16,6.6-4.85,8.8-1.6,1.31-2.73,3.36-2.73,6.22,0,5.46,6.27,12.53,9.94,12.53,1.1,0,1.95-.47,2.59-1.26.64.8,1.49,1.26,2.59,1.26,3.68,0,9.94-7.08,9.94-12.53,0-2.85-1.13-4.91-2.73-6.22-2.69-2.2-4.45-5.34-4.85-8.8Z"/><path class="cls-26" d="m361.63,369.92c-.62,0-1.19.38-1.59.99-.41-.61-.97-.99-1.59-.99-1.23,0-2.62.85-2.62,2.68s2.1,4.21,3.34,4.21c.37,0,.65-.16.87-.42.22.27.5.42.87.42,1.23,0,3.34-2.38,3.34-4.21s-1.38-2.68-2.62-2.68Z"/><path class="cls-63" d="m362.64,372.97c.31.38.25.94-.13,1.24-.38.31-.94.25-1.24-.13-.31-.38-.29-1.77-.29-1.77,0,0,1.36.28,1.67.66Z"/><path class="cls-63" d="m357.44,372.97c-.31.38-.25.94.13,1.24.38.31.94.25,1.24-.13.31-.38.29-1.77.29-1.77,0,0-1.36.28-1.67.66Z"/></g><path class="cls-50" d="m354.87,346.31c2.54-.9,4.19.84,4.19.84,0,0-.2,2.38-2.73,3.28-2.54.9-6.46-.03-6.46-.03,0,0,2.47-3.18,5.01-4.08Z"/></g><g><path class="cls-17" d="m389.25,342.61v-3.68c0-.22.15-.4.36-.45.65-.18,1.13-.79,1.09-1.51-.04-.79-.76-1.39-1.55-1.39h-10.29c-.8,0-1.51.59-1.55,1.39-.04.72.43,1.33,1.09,1.51.21.06.36.24.36.45v3.68c0,.95-.12,1.89-.37,2.81l-2.8,10.44c-.27.99-.4,2.02-.4,3.05v22.3c0,.84.68,1.51,1.51,1.51h14.62c.84,0,1.51-.68,1.51-1.51v-22.3c0-1.03-.14-2.05-.4-3.05l-2.8-10.44c-.25-.92-.37-1.86-.37-2.81Z"/><path class="cls-37" d="m390.07,347.07h-12.12l-2.36,8.79c-.27.99-.4,2.02-.4,3.05v22.3c0,.84.68,1.51,1.51,1.51h14.62c.84,0,1.51-.68,1.51-1.51v-22.3c0-1.03-.14-2.05-.4-3.05l-2.36-8.79Z"/><path class="cls-53" d="m389.62,338.48c.65-.18,1.13-.79,1.09-1.51-.04-.79-.76-1.39-1.55-1.39h-10.29c-.8,0-1.51.59-1.55,1.39-.04.72.43,1.33,1.09,1.51.2.05.34.21.36.41h10.51c.02-.2.16-.36.36-.41Z"/><rect class="cls-54" x="380.33" y="362.73" width="12.5" height="13.66"/></g><g><path class="cls-14" d="m343.4,369v2.41l-33.19-2.41,18.68-4.04c.43.58,1.28.97,2.24.97,1.41,0,2.56-.84,2.56-1.87,0-.05,0-.09,0-.14l5.55-1.2,4.16,6.28Z"/><path class="cls-7" d="m343.4,369v18.66h-33.19v-3.88c.36.1.71.08,1.04-.06.94-.43,1.23-1.81.64-3.1-.38-.83-1.02-1.41-1.68-1.6v-10.01h33.19Z"/><ellipse class="cls-5" cx="333.8" cy="373.28" rx="2.56" ry="1.87"/><ellipse class="cls-5" cx="331.7" cy="382.55" rx="2.54" ry="3.47" transform="translate(-129.88 174.44) rotate(-24.8)"/><path class="cls-5" d="m316.7,374.03c.45-.62,1.5-.61,2.34,0,.84.62,1.16,1.62.7,2.23-.45.62-1.5.61-2.34,0-.84-.62-1.16-1.62-.7-2.23Z"/><path class="cls-5" d="m338.06,376.86c-.43.1-.88-.3-1.01-.88-.13-.58.11-1.14.54-1.23.43-.1.88.3,1.01.88s-.11,1.14-.54,1.23Z"/><path class="cls-5" d="m311.83,372.4c-.05-.36.32-.71.82-.77.5-.06.93.18.98.55.05.36-.32.71-.82.77-.5.06-.93-.18-.98-.55Z"/><path class="cls-7" d="m337.23,365.73c.08-.43.63-.69,1.22-.57.59.11,1,.56.91.99-.08.43-.63.69-1.22.57-.59-.11-1-.56-.91-.99Z"/><path class="cls-5" d="m319.48,384.48c-.32-.42-.12-1.12.45-1.56.57-.44,1.3-.46,1.62-.05.32.42.12,1.12-.45,1.56-.57.44-1.3.46-1.62.05Z"/></g><g><path class="cls-4" d="m416.3,377.4c-.77,2.09-3.94,8.92-12.47,8.92-2.82,0-5.38-.53-7.51-1.44-2.82-1.21-4.9-3.09-5.85-5.32-.3-.72-.9-1.28-1.64-1.51-.83-.26-1.36-.72-1.36-1.25s.53-.99,1.36-1.25c.75-.23,1.34-.79,1.64-1.51,1.66-3.91,6.81-6.76,13.36-6.76,2.05,0,3.79.39,5.25,1.01,4.69,1.98,6.64,6.32,7.22,7.91.14.39.14.82,0,1.2Z"/><path class="cls-8" d="m409.29,370.43c0,6.42-5.31,11.94-12.97,14.46-2.82-1.21-4.9-3.09-5.85-5.32-.3-.72-.9-1.28-1.64-1.51-.83-.26-1.36-.72-1.36-1.25s.53-.99,1.36-1.25c.75-.23,1.34-.79,1.64-1.51,1.66-3.91,6.81-6.76,13.36-6.76,2.05,0,3.79.39,5.25,1.01.13.7.2,1.41.2,2.14Z"/></g><path class="cls-17" d="m376.59,315.63c2.78,0,5.03-2.25,5.03-5.03,0,2.78,2.25,5.03,5.03,5.03-2.78,0-5.03,2.25-5.03,5.03,0-2.78-2.25-5.03-5.03-5.03Z"/><path class="cls-17" d="m343.63,190.83c2.78,0,5.03-2.25,5.03-5.03,0,2.78,2.25,5.03,5.03,5.03-2.78,0-5.03,2.25-5.03,5.03,0-2.78-2.25-5.03-5.03-5.03Z"/><path class="cls-17" d="m254.64,358.73c2.78,0,5.03-2.25,5.03-5.03,0,2.78,2.25,5.03,5.03,5.03-2.78,0-5.03,2.25-5.03,5.03,0-2.78-2.25-5.03-5.03-5.03Z"/><path class="cls-17" d="m363.73,329.37c1.54,0,2.79-1.25,2.79-2.79,0,1.54,1.25,2.79,2.79,2.79-1.54,0-2.79,1.25-2.79,2.79,0-1.54-1.25-2.79-2.79-2.79Z"/><path class="cls-17" d="m311.21,201.38c1.54,0,2.79-1.25,2.79-2.79,0,1.54,1.25,2.79,2.79,2.79-1.54,0-2.79,1.25-2.79,2.79,0-1.54-1.25-2.79-2.79-2.79Z"/><path class="cls-17" d="m182.45,298.7c1.54,0,2.79-1.25,2.79-2.79,0,1.54,1.25,2.79,2.79,2.79-1.54,0-2.79,1.25-2.79,2.79,0-1.54-1.25-2.79-2.79-2.79Z"/><g><path class="cls-43" d="m165.8,154.07c2.46,0,4.54,1.65,5.18,3.91h-10.37c.64-2.26,2.72-3.91,5.18-3.91Z"/><path class="cls-43" d="m140.54,152.22c3.63,0,6.69,2.43,7.63,5.76h-15.27c.95-3.32,4.01-5.76,7.63-5.76Z"/><path class="cls-43" d="m164.23,157.97c-1.17-4.05-5.81-7.08-11.36-7.08s-10.18,3.03-11.36,7.08h22.71Z"/></g><g><path class="cls-16" d="m178.07,375.9s-.71,2.41-.28,2.55,10.34.57,11.05.14c.71-.43-1.42-1.13-1.42-1.13,0,0-4.68-1.28-7.37-1.56,0,0-1.98-.14-1.98,0Z"/><path class="cls-16" d="m181.91,343.1c.73-1.04,1.45-1.5,2.49-1.35,1.15.17,1.93,1.26,1.72,2.4l-5.87,31.87c-.09.5-.57.84-1.07.77-.51-.08-.86-.54-.8-1.05l.16-1.39c1.47-22.19,1.09-27.44,3.37-31.25Z"/><path class="cls-16" d="m182.84,314.26c1.36-3.63,3.46-3.97,4.84-3.71.1,0,.19,0,.29,0,1.16.09,2.01,1.13,1.88,2.28l-3.67,32.2c-.06.51-.51.88-1.02.84-.17-.01-.33-.07-.46-.16-1.1-.48-1.86-1.53-1.96-2.75-.5-6.36-1.67-23.96.1-28.68Z"/><path class="cls-64" d="m183.98,376.37c-1.03.45-2.73.75-4.67.75-.62,0-1.21-.03-1.77-.09-.13.87-.19,1.9.24,1.94.75.09,11.53.41,11.6-.09.12-.99-2.77-1.93-5.4-2.52Z"/><path class="cls-16" d="m139.2,330.37s-1.46-2.04-1.84-1.79c-.37.25-6.8,7.81-6.9,8.63-.1.82,1.77-.42,1.77-.42,0,0,3.88-2.91,5.76-4.86,0,0,1.33-1.48,1.22-1.57Z"/><path class="cls-16" d="m169.45,341.98c.82.97,1.08,1.78.67,2.75-.46,1.07-1.71,1.54-2.76,1.05l-29.32-13.81c-.46-.22-.67-.76-.47-1.23s.74-.69,1.22-.51l1.3.51c21.08,7.09,26.26,8.05,29.36,11.24Z"/><path class="cls-16" d="m176.44,313.99c2.35-3.09,4.45-2.81,5.7-2.17.09.02.19.05.28.08,1.08.42,1.6,1.66,1.14,2.72l-12.78,29.78c-.2.47-.74.7-1.22.51-.16-.06-.29-.16-.39-.29-.91-.78-1.34-2-1.08-3.2,1.36-6.23,5.29-23.43,8.34-27.44Z"/><path class="cls-64" d="m135.2,334.74c.28-1.09,1.09-2.62,2.28-4.14.38-.49.77-.94,1.16-1.34-.61-.64-1.38-1.31-1.68-1.01-.53.54-7.41,8.84-7.06,9.2.7.71,3.22-1,5.3-2.71Z"/><path class="cls-51" d="m181.56,312.55s-2.18,5.19.34,29.17c0,0-3.86,1.35-3.98,29.92l3.98.65s4.97-28.77,5.48-32.67c.51-3.9,3.38-24.22,2.47-26.79l-8.29-.28Z"/><path class="cls-51" d="m143.23,330.89l-1.18,3.58s24.83,12.69,26.52,12.38c1.69-.32,3.19-2.14,4.4-5.13,1.21-2.99,13.21-28.74,13.21-28.74h-10.4s-5.69,9.78-7.76,26.65c0,0-7.55-4.68-24.79-8.73Z"/><path class="cls-62" d="m181.57,277.28s3.32-4.05-.26-7.19c-3.58-3.14-7.96-.64-8.37,2.53-.45,3.52,1.64,5.16,3.21,5.79s4.03.19,5.43-1.13Z"/><path class="cls-59" d="m189.49,312.98s3-.34,2.98-.92l-2.98-13.06-1.77-10.72-1.55,8.97,3.31,15.72Z"/><path class="cls-16" d="m221.25,268.61c-.08-.76.2-1.52.75-2.04,1.43-1.35,4.21-3.8,5.41-3.68,1.66.17-2.25,5.15-6.12,6.15l-.05-.43Z"/><path class="cls-59" d="m221.26,267.03c-4.46.88-13.84,4.25-16.26,5.82-2.01,1.3-1.19,2.5-1.17,2.56.21.7,1.47,1.26,2.28.95l15.89-7.28-.74-2.04Z"/><path class="cls-59" d="m184.25,276.21c-2.51.92-1.46,2.95-1.45,3.01.06.8,1.43,1.54,2.39,1.4l21.33-4.41c.35-.04.3-.62.27-.97,0-.12-.05-.22-.11-.32-.33-.76-1.27-1.3-2.11-1.37-4.37-.37-17.07,1.46-20.33,2.66Z"/><path class="cls-32" d="m175.47,314.7c-.4.13-.21-8.13.75-14.04-.22-5.12,1.16-17.35,2.33-21.05,1.47-4.65,3.79-7.2,7.66-5.34,1.22.59,2.37,4.01,2.89,7.65.51,3.64,1.24,2.91-.77,8.25-.71,1.9,1.08,14.76,1.97,18.16.25.98.63,4.3,1.11,5.33-.71.51-1.38.88-2.16,1.16-5.34,1.94-8.44-1.86-13.78-.13Z"/><path class="cls-62" d="m184.42,272.47s-5.21-.74-6.26-4.27c-1.41-4.73,3.69-9.19,7.31-6.89,2.45,1.55,2.77,3.11,2.59,3.69-.18.57-3.65,7.48-3.65,7.48Z"/><path class="cls-16" d="m182.06,268.03l3.95-.28c.04.54.31,5.69.06,7.62-.16.59-1.15.84-2.21.55-.95-.26-1.63-.86-1.64-1.41h0c.15-1.16-.02-4.59-.15-6.48Z"/><path class="cls-16" d="m182.71,268.67c1.29,2.9,4.36,4.35,6.13,3.56,1.77-.79,1.57-3.52.28-6.42-1.29-2.9-3.39-3.73-5.16-2.94-1.77.79-2.55,2.91-1.25,5.81Z"/><path class="cls-62" d="m186.14,262.02s.18,4.25-3.28,6.5c-1.78,1.16-3.12-1.76-3.12-1.76l1.25-3.35s1.28-1.6,2.5-1.75c.1-.01,2.64.36,2.64.36Z"/><path class="cls-62" d="m188.06,264.03s-3.67-.45-4.45-1.51c-.77-1.07,1-1.32,1-1.32,0,0,2.44.31,3.44,2.83Z"/><path class="cls-16" d="m181.48,270.13c.47.64,1.69.98,2.15.65.46-.34.2-.94-.27-1.57-.47-.64-1.28-.96-1.74-.62-.46.34-.62.91-.15,1.54Z"/><path class="cls-59" d="m180.67,274.86s1.44,2.27,4.57,2.89c0,0-3.39,30.15-2.42,33.78,0,0-6.44.09-7.82.54,0,0,.86-19.96,1.42-23.69.56-3.73,1.88-10.81,4.25-13.51Z"/><path class="cls-59" d="m178.73,277.98c1.99-1.65,3.25.24,3.3.28.66.45.66,1.97.07,2.7l-13.97,15.71c-.2.27-.68-.06-.97-.25-.1-.07-.17-.15-.22-.25-.5-.65-.53-1.71-.19-2.46,1.76-3.86,9.38-13.59,11.97-15.73Z"/><path class="cls-16" d="m180.47,306.64c-.44.63-.56,1.42-.33,2.15.59,1.87,1.83,5.37,2.94,5.84,1.53.65.53-5.6-2.36-8.35l-.25.36Z"/><path class="cls-59" d="m179.9,308.11c-3.83-2.45-11.33-9.02-13.01-11.36-1.39-1.94-.19-2.76-.15-2.81.45-.58,1.83-.64,2.47-.05l12.13,12.58-1.44,1.63Z"/></g></g></g></g></svg>