<?xml version="1.0" encoding="UTF-8"?><svg id="Layer_2" xmlns="http://www.w3.org/2000/svg" xmlns:xlink="http://www.w3.org/1999/xlink" viewBox="0 0 645.13 529.54"><defs><style>.cls-1{fill:none;}.cls-2{clip-path:url(#clippath);}.cls-3{fill:#f3f6f9;}.cls-4{fill:#f9cccc;}.cls-5{fill:#f9cece;}.cls-6{fill:#f9cfcf;}.cls-7{fill:#f9cdcd;}.cls-8{fill:#f9cbcb;}.cls-9{fill:#f9d0d0;}.cls-10{fill:#f7bdbd;}.cls-11{fill:#f7bcbc;}.cls-12{fill:#f7bfbf;}.cls-13{fill:#f7bbbb;}.cls-14{fill:#f7b7b7;}.cls-15{fill:#f7b8b8;}.cls-16{fill:#f7b9b9;}.cls-17{fill:#f7baba;}.cls-18{fill:#f8c7c7;}.cls-19{fill:#f8c5c5;}.cls-20{fill:#f8c0c0;}.cls-21{fill:#f8c6c6;}.cls-22{fill:#f8c4c4;}.cls-23{fill:#f8c1c1;}.cls-24{fill:#f8c2c2;}.cls-25{fill:#fad7d7;}.cls-26{fill:#fad8d8;}.cls-27{fill:#fad3d3;}.cls-28{fill:#f9fafc;}.cls-29{fill:#f7bebe;}.cls-30{fill:#f9caca;}.cls-31{fill:#f9c9c9;}.cls-32{fill:#fad2d2;}.cls-33{fill:#fad5d5;}.cls-34{fill:#fad1d1;}.cls-35{fill:#fad4d4;}.cls-36{fill:#fad9d9;}.cls-37{fill:#fad6d6;}.cls-38{fill:#f8c3c3;}.cls-39{fill:#6a6d8a;}.cls-40{fill:#f5aaaa;}.cls-41{fill:#f5a7a7;}.cls-42{fill:#f5aeae;}.cls-43{fill:#f5acac;}.cls-44{fill:#f5adad;}.cls-45{fill:#f6afaf;}.cls-46{fill:#f6b2b2;}.cls-47{fill:#f6b3b3;}.cls-48{fill:#f6b0b0;}.cls-49{fill:#f6b1b1;}.cls-50{fill:#f6b6b6;}.cls-51{fill:#f6cfbe;}.cls-52{fill:#f6b5b5;}.cls-53{fill:#f6b4b4;}.cls-54{fill:#fef5f5;}.cls-55{fill:#fef7f7;}.cls-56{fill:#fef4f4;}.cls-57{fill:#fef3f3;}.cls-58{fill:#fff;}.cls-59{fill:#ff9f9c;}.cls-60{fill:#f5a9a9;}.cls-61{fill:#f5abab;}.cls-62{fill:#f5a8a8;}.cls-63{fill:#fbdfdf;}.cls-64{fill:#fef6f6;}.cls-65{fill:#fbdcdc;}.cls-66{fill:#fbdddd;}.cls-67{fill:#fbdbdb;}.cls-68{fill:#fbdede;}.cls-69{fill:#fbdada;}.cls-70{fill:#fbe0e0;}.cls-71{fill:#fbe1e1;}.cls-72{fill:#fce6e6;}.cls-73{fill:#fce7e7;}.cls-74{fill:#fceaea;}.cls-75{fill:#fce8e8;}.cls-76{fill:#fce2e2;}.cls-77{fill:#fce9e9;}.cls-78{fill:#fce3e3;}.cls-79{fill:#fce5e5;}.cls-80{fill:#fce4e4;}.cls-81{fill:#fdf2f2;}.cls-82,.cls-83{fill:#ff6584;}.cls-84{fill:#fdf0f0;}.cls-85{fill:#fdeeee;}.cls-86{fill:#fdeded;}.cls-87{fill:#fdf1f1;}.cls-88{fill:#fdefef;}.cls-89{fill:#fdecec;}.cls-90{fill:#fdebeb;}.cls-91{fill:#a0616a;}.cls-92{fill:#92edf0;}.cls-93{fill:#b5b5b5;}.cls-94{fill:#84d6d9;}.cls-95{fill:#dbdddd;}.cls-96{fill:#0ea2bd;}.cls-97{fill:#444;}.cls-98{fill:#1a1c2e;}.cls-99{fill:#7a7a79;}.cls-100{opacity:.5;}.cls-83{opacity:0;}</style><clipPath id="clippath"><circle class="cls-1" cx="367.76" cy="251.95" r="42.27"/></clipPath></defs><g id="Layer_1-2"><rect class="cls-83" width="645.13" height="529.54"/><g><g><g class="cls-100"><path class="cls-95" d="m516.8,239.13c-17.73-10.9-38.46-17.37-60.68-17.86-1.38-20.19-18.19-36.14-38.73-36.14-10.71,0-20.41,4.34-27.43,11.35-24.27-17.52-54.07-27.85-86.29-27.85-70.36,0-129.22,49.23-144.02,115.12-1.93-.41-3.94-.62-5.99-.62-16.06,0-29.08,13.02-29.08,29.08,0,2,.2,3.94.58,5.83-27.02,6.94-48.07,28.75-53.94,56.18-1.07,5.02-1.64,10.23-1.64,15.57,0,13.88,3.82,26.86,10.45,37.96h459.67c21.61-21.91,34.96-51.99,34.96-85.2,0-43.74-23.15-82.07-57.87-103.41Z"/></g><path class="cls-96" d="m536.64,422.54c-.49,0-.98-.18-1.37-.54-.81-.76-.85-2.02-.09-2.83,9.18-9.79,16.45-21.01,21.62-33.35,5.75-13.71,8.66-28.27,8.66-43.28,0-9.92-1.29-19.75-3.84-29.22-2.47-9.19-6.13-18.04-10.86-26.32-9.34-16.33-22.75-30.18-38.78-40.04-16.84-10.35-36.23-16.06-56.07-16.5l-6.57-.15c-1.03-.02-1.88-.83-1.95-1.86l-.45-6.56c-.51-7.47-3.81-14.41-9.29-19.56-5.51-5.17-12.7-8.01-20.26-8.01s-15.34,3.08-20.93,8.66l-4.33,4.33c-.69.69-1.79.78-2.58.21l-4.97-3.59c-11.53-8.32-24.2-14.79-37.65-19.21-13.91-4.57-28.46-6.89-43.25-6.89-16.14,0-31.95,2.75-46.98,8.18-14.53,5.24-28.01,12.85-40.07,22.62-11.96,9.69-22.16,21.2-30.32,34.22-8.31,13.26-14.25,27.69-17.67,42.92l-1.56,6.92c-.24,1.07-1.29,1.74-2.36,1.52l-6.95-1.45c-1.35-.28-2.73-.43-4.11-.43-10.96,0-19.88,8.92-19.88,19.88,0,1.34.13,2.69.4,3.99l1.36,6.7c.21,1.04-.43,2.07-1.46,2.34l-6.63,1.7c-11.62,2.99-22.19,9.17-30.56,17.87-8.39,8.73-14.16,19.56-16.67,31.32-.95,4.46-1.44,9.05-1.44,13.65,0,9.96,2.32,19.88,6.71,28.76h180.52c1.1,0,2,.9,2,2s-.9,2-2,2H84.26c-.75,0-1.43-.42-1.78-1.08-5.04-9.72-7.7-20.68-7.7-31.68,0-4.88.51-9.75,1.53-14.48,2.67-12.49,8.79-23.99,17.7-33.26,8.89-9.24,20.11-15.8,32.45-18.97l4.79-1.23-.98-4.84c-.32-1.57-.48-3.18-.48-4.79,0-13.17,10.71-23.88,23.88-23.88,1.65,0,3.31.17,4.93.51l5.02,1.05,1.12-5c3.52-15.66,9.64-30.52,18.19-44.16,8.39-13.39,18.89-25.24,31.19-35.2,12.41-10.05,26.28-17.88,41.23-23.28,15.47-5.58,31.74-8.41,48.34-8.41,15.21,0,30.19,2.39,44.5,7.09,13.84,4.55,26.88,11.2,38.74,19.77l3.59,2.59,3.13-3.13c6.35-6.34,14.79-9.83,23.76-9.83s16.74,3.23,22.99,9.09c6.22,5.84,9.97,13.72,10.55,22.2l.32,4.74,4.75.11c20.55.46,40.63,6.37,58.07,17.09,16.61,10.21,30.49,24.55,40.16,41.46,4.9,8.58,8.69,17.75,11.25,27.27,2.64,9.81,3.98,19.99,3.98,30.26,0,15.54-3.02,30.62-8.97,44.83-5.36,12.78-12.89,24.4-22.39,34.54-.39.42-.93.63-1.46.63Z"/><g><path class="cls-51" d="m459.93,324.02s-4.47-2.29-5.63-1.77c-1.15.52,2.86,3.18,5.89,2.97l-.26-1.21Z"/><path class="cls-58" d="m459.76,323.68c-.34.8-.71,1.47-1.12,2.33,14.05,6.8,18.5,7.66,32.83.79,3.23-1.55.67-4.59-3.11-2.64-12.99,6.69-15.31,4.51-28.6-.48Z"/></g><path class="cls-92" d="m213.17,189.28c-4.27,0-8.38.67-12.24,1.9-10.13-8.95-23.44-14.39-38.02-14.39s-29.17,5.97-39.46,15.7c-4.84-2.07-10.18-3.22-15.78-3.22-18.37,0-33.87,12.32-38.67,29.15h182.84c-4.8-16.83-20.3-29.15-38.67-29.15Z"/><path class="cls-95" d="m479.66,121.75c-2.78,0-5.47.43-7.98,1.24-6.6-5.84-15.28-9.38-24.79-9.38s-19.02,3.89-25.73,10.24c-3.16-1.35-6.63-2.1-10.29-2.1-11.98,0-22.08,8.03-25.21,19.01h119.21c-3.13-10.97-13.23-19.01-25.21-19.01Z"/><path class="cls-92" d="m530.91,212.65c-2.46,0-4.82.38-7.04,1.09-5.83-5.15-13.48-8.28-21.87-8.28s-16.78,3.43-22.7,9.03c-2.79-1.19-5.85-1.85-9.08-1.85-10.57,0-19.48,7.09-22.24,16.77h105.18c-2.76-9.68-11.68-16.77-22.24-16.77Z"/><g><path class="cls-3" d="m535.88,225.38c-4.94,0-9.11,3.31-10.4,7.84h20.8c-1.29-4.53-5.46-7.84-10.4-7.84Z"/><path class="cls-3" d="m564.26,225.38c-4.94,0-9.11,3.31-10.4,7.84h20.8c-1.29-4.53-5.46-7.84-10.4-7.84Z"/><path class="cls-3" d="m550.74,222.02c-7.06,0-13.01,4.73-14.86,11.2h29.71c-1.85-6.47-7.8-11.2-14.86-11.2Z"/></g><g><path class="cls-99" d="m430.86,377.42c-8.71,0-16.05,5.84-18.33,13.82h36.65c-2.28-7.98-9.62-13.82-18.33-13.82Z"/><path class="cls-99" d="m407.04,371.5c-12.44,0-22.93,8.34-26.18,19.74h52.36c-3.25-11.39-13.74-19.74-26.18-19.74Z"/></g><g><path class="cls-95" d="m156.16,216.41c-5.77,0-10.63,3.87-12.14,9.15h24.29c-1.51-5.29-6.37-9.15-12.14-9.15Z"/><path class="cls-95" d="m189.29,216.41c-5.77,0-10.63,3.87-12.14,9.15h24.29c-1.51-5.29-6.37-9.15-12.14-9.15Z"/><path class="cls-95" d="m173.51,212.49c-8.24,0-15.19,5.53-17.34,13.08h34.69c-2.15-7.55-9.1-13.08-17.34-13.08Z"/></g><g><path class="cls-58" d="m489.41,407c-2.05,0-3.73-1.67-3.73-3.73s1.67-3.73,3.73-3.73,3.73,1.67,3.73,3.73-1.67,3.73-3.73,3.73Zm0-5.05c-.73,0-1.33.59-1.33,1.33s.6,1.33,1.33,1.33,1.33-.6,1.33-1.33-.6-1.33-1.33-1.33Z"/><path class="cls-58" d="m504.55,407c-2.05,0-3.73-1.67-3.73-3.73s1.67-3.73,3.73-3.73,3.73,1.67,3.73,3.73-1.67,3.73-3.73,3.73Zm0-5.05c-.73,0-1.33.59-1.33,1.33s.6,1.33,1.33,1.33,1.33-.6,1.33-1.33-.6-1.33-1.33-1.33Z"/><path class="cls-58" d="m519.68,407c-2.05,0-3.73-1.67-3.73-3.73s1.67-3.73,3.73-3.73,3.73,1.67,3.73,3.73-1.67,3.73-3.73,3.73Zm0-5.05c-.73,0-1.33.59-1.33,1.33s.6,1.33,1.33,1.33,1.33-.6,1.33-1.33-.6-1.33-1.33-1.33Z"/><rect class="cls-58" x="507.07" y="402.07" width="10.08" height="2.4"/><rect class="cls-58" x="491.94" y="402.07" width="10.08" height="2.4"/></g><rect class="cls-99" x="196.42" y="390.03" width="269.45" height="17.95" rx="8.97" ry="8.97"/><g><path class="cls-95" d="m406.47,402.88c-4.55,0-8.23,3.69-8.23,8.23h16.47c0-4.55-3.69-8.23-8.23-8.23Z"/><path class="cls-95" d="m420.47,402.88c-4.55,0-8.23,3.69-8.23,8.23h16.47c0-4.55-3.69-8.23-8.23-8.23Z"/><path class="cls-95" d="m434.46,402.88c-4.55,0-8.23,3.69-8.23,8.23h16.47c0-4.55-3.69-8.23-8.23-8.23Z"/></g><g><path class="cls-58" d="m158.25,403.86c-4.55,0-8.23,3.69-8.23,8.23h16.47c0-4.55-3.69-8.23-8.23-8.23Z"/><path class="cls-58" d="m172.25,403.86c-4.55,0-8.23,3.69-8.23,8.23h16.47c0-4.55-3.69-8.23-8.23-8.23Z"/><path class="cls-58" d="m186.24,403.86c-4.55,0-8.23,3.69-8.23,8.23h16.47c0-4.55-3.69-8.23-8.23-8.23Z"/></g><g><path class="cls-96" d="m342.52,440.42c-19.84,0-53.59-7.59-55.02-7.91-.91-.21-1.56-1.02-1.56-1.95s.65-1.74,1.56-1.95c1.43-.32,35.18-7.91,55.02-7.91,14.09,0,37.93,2.08,37.93,9.86s-23.84,9.86-37.93,9.86Zm-44.81-9.86c11.66,2.31,31.68,5.86,44.81,5.86,20.85,0,33.06-3.79,33.92-5.86-.86-2.08-13.07-5.86-33.92-5.86-13.13,0-33.15,3.55-44.81,5.86Z"/><path class="cls-96" d="m342.52,460.21c-19.84,0-53.59-7.59-55.02-7.91-.91-.21-1.56-1.02-1.56-1.95s.65-1.74,1.56-1.95c1.43-.32,35.18-7.91,55.02-7.91,14.09,0,37.93,2.08,37.93,9.86s-23.84,9.86-37.93,9.86Zm-44.81-9.86c11.66,2.31,31.68,5.86,44.81,5.86,20.85,0,33.06-3.79,33.92-5.86-.86-2.08-13.07-5.86-33.92-5.86-13.13,0-33.15,3.55-44.81,5.86Zm78.75.05h0,0Z"/><path class="cls-96" d="m287.94,452.35c-.11,0-.23,0-.35-.03-15.65-2.73-23.58-6.73-23.58-11.91s7.9-9.17,23.47-11.89c1.09-.19,2.12.54,2.31,1.63.19,1.09-.54,2.12-1.63,2.31-14.79,2.59-20.16,6.17-20.16,7.95s5.4,5.38,20.26,7.97c1.09.19,1.82,1.23,1.63,2.31-.17.97-1.01,1.66-1.97,1.66Z"/><path class="cls-96" d="m287.94,432.49c-.11,0-.23,0-.35-.03-15.65-2.73-23.58-6.73-23.58-11.91,0-1.1.9-2,2-2s2,.9,2,2c0,1.79,5.4,5.38,20.26,7.97,1.09.19,1.82,1.22,1.63,2.31-.17.97-1.01,1.66-1.97,1.66Z"/><path class="cls-96" d="m342.52,480.08c-19.84,0-53.59-7.59-55.02-7.91-.91-.21-1.56-1.02-1.56-1.95s.65-1.74,1.56-1.95c1.43-.32,35.18-7.91,55.02-7.91,14.09,0,37.93,2.08,37.93,9.86s-23.84,9.86-37.93,9.86Zm-44.81-9.86c11.66,2.31,31.68,5.86,44.81,5.86,20.84,0,33.06-3.79,33.92-5.86-.86-2.08-13.07-5.86-33.92-5.86-13.13,0-33.15,3.55-44.81,5.86Z"/><path class="cls-96" d="m287.94,472.22c-.11,0-.23,0-.35-.03-15.65-2.73-23.58-6.73-23.58-11.91s7.9-9.17,23.47-11.89c1.09-.19,2.12.54,2.31,1.63.19,1.09-.54,2.12-1.63,2.31-14.79,2.59-20.16,6.17-20.16,7.95s5.4,5.38,20.26,7.97c1.09.19,1.82,1.23,1.63,2.31-.17.97-1.01,1.66-1.97,1.66Z"/><path class="cls-96" d="m266.02,482.14c-1.1,0-2-.9-2-2,0-5.17,7.9-9.17,23.47-11.89,1.09-.19,2.12.54,2.31,1.63.19,1.09-.54,2.12-1.63,2.31-14.79,2.59-20.16,6.17-20.16,7.95,0,1.1-.9,2-2,2Z"/></g><path class="cls-58" d="m336.42,377.2c-6.61,0-12.41,3.48-15.67,8.71-3.25-5.23-9.05-8.71-15.67-8.71s-12.41,3.48-15.67,8.71c-3.25-5.23-9.05-8.71-15.67-8.71-10.18,0-18.44,8.25-18.44,18.44h99.53c0-10.18-8.25-18.44-18.44-18.44Z"/><g><g><path class="cls-58" d="m390.01,396.81l-.53-.25s1.13-2.33,3.15-5.26c1.87-2.71,4.91-6.52,8.81-9.34l.34.47c-3.83,2.76-6.83,6.53-8.67,9.19-2,2.89-3.1,5.16-3.11,5.18Z"/><path class="cls-58" d="m403.03,382.48c.26-.54.03-1.19-.51-1.45-.54-.26-1.19-.03-1.45.51-.26.54-.03,1.19.51,1.45.54.26,1.19.03,1.45-.51Z"/><path class="cls-58" d="m399.48,380.21c.26-.54.03-1.19-.51-1.45-.54-.26-1.19-.03-1.45.51-.26.54-.03,1.19.51,1.45.54.26,1.19.03,1.45-.51Z"/><path class="cls-58" d="m401.37,389.66c.26-.54.03-1.19-.51-1.45-.54-.26-1.19-.03-1.45.51-.26.54-.03,1.19.51,1.45.54.26,1.19.03,1.45-.51Z"/><path class="cls-58" d="m397.75,385.91l-.55-.21s1.05-2.8,1.02-5.37h.59c.02,2.68-1.02,5.46-1.06,5.58Z"/><path class="cls-58" d="m395.17,388.76l-.09-.58c.09-.01,2.16-.33,4.91.5l-.17.56c-2.63-.8-4.63-.49-4.65-.48Z"/></g><g><path class="cls-58" d="m393.11,393.41c-2.5,0-4.6,1.67-5.26,3.96h10.51c-.65-2.29-2.76-3.96-5.26-3.96Z"/><path class="cls-58" d="m386.28,391.71c-3.57,0-6.58,2.39-7.51,5.66h15.02c-.93-3.27-3.94-5.66-7.51-5.66Z"/></g></g><g><g><rect class="cls-97" x="364.12" y="192.11" width="7.27" height="5.53" rx="2.77" ry="2.77"/><rect class="cls-97" x="365.74" y="196.22" width="4.05" height="10.09"/><rect class="cls-99" x="393.14" y="204.33" width="4.11" height="3.13" rx="1.56" ry="1.56" transform="translate(185.6 -187.35) rotate(34.42)"/><rect class="cls-99" x="392.01" y="206.02" width="2.29" height="5.7" transform="translate(186.92 -185.67) rotate(34.42)"/><path class="cls-97" d="m367.76,200.89c-5.01,0-9.09-4.08-9.09-9.09s4.08-9.09,9.09-9.09,9.09,4.08,9.09,9.09-4.08,9.09-9.09,9.09Zm0-17c-4.36,0-7.91,3.55-7.91,7.91s3.55,7.91,7.91,7.91,7.91-3.55,7.91-7.91-3.55-7.91-7.91-7.91Z"/><circle class="cls-99" cx="367.76" cy="251.95" r="49.16"/><circle class="cls-97" cx="367.76" cy="251.95" r="46.99"/><circle class="cls-99" cx="367.76" cy="251.95" r="44.21"/><g class="cls-2"><polygon class="cls-55" points="327.89 209.68 325.48 210.96 325.48 209.68 327.89 209.68"/><polygon class="cls-64" points="330.95 209.68 325.48 212.58 325.48 210.96 327.89 209.68 330.95 209.68"/><polygon class="cls-54" points="334.01 209.68 325.48 214.21 325.48 212.58 330.95 209.68 334.01 209.68"/><polygon class="cls-56" points="337.07 209.68 325.48 215.83 325.48 214.21 334.01 209.68 337.07 209.68"/><polygon class="cls-57" points="340.12 209.68 325.48 217.46 325.48 215.83 337.07 209.68 340.12 209.68"/><polygon class="cls-81" points="343.18 209.68 325.48 219.08 325.48 217.46 340.12 209.68 343.18 209.68"/><polygon class="cls-87" points="346.24 209.68 325.48 220.71 325.48 219.08 343.18 209.68 346.24 209.68"/><polygon class="cls-84" points="349.3 209.68 325.48 222.33 325.48 220.71 346.24 209.68 349.3 209.68"/><polygon class="cls-88" points="352.35 209.68 325.48 223.96 325.48 222.33 349.3 209.68 352.35 209.68"/><polygon class="cls-85" points="355.41 209.68 325.48 225.59 325.48 223.96 352.35 209.68 355.41 209.68"/><polygon class="cls-86" points="358.47 209.68 325.48 227.21 325.48 225.59 355.41 209.68 358.47 209.68"/><polygon class="cls-89" points="361.53 209.68 325.48 228.84 325.48 227.21 358.47 209.68 361.53 209.68"/><polygon class="cls-90" points="364.59 209.68 325.48 230.46 325.48 228.84 361.53 209.68 364.59 209.68"/><polygon class="cls-74" points="367.64 209.68 325.48 232.09 325.48 230.46 364.59 209.68 367.64 209.68"/><polygon class="cls-77" points="370.7 209.68 325.48 233.71 325.48 232.09 367.64 209.68 370.7 209.68"/><polygon class="cls-75" points="373.76 209.68 325.48 235.34 325.48 233.71 370.7 209.68 373.76 209.68"/><polygon class="cls-73" points="376.82 209.68 325.48 236.96 325.48 235.34 373.76 209.68 376.82 209.68"/><polygon class="cls-72" points="379.87 209.68 325.48 238.59 325.48 236.96 376.82 209.68 379.87 209.68"/><polygon class="cls-79" points="382.93 209.68 325.48 240.21 325.48 238.59 379.87 209.68 382.93 209.68"/><polygon class="cls-80" points="385.99 209.68 325.48 241.84 325.48 240.21 382.93 209.68 385.99 209.68"/><polygon class="cls-78" points="389.05 209.68 325.48 243.46 325.48 241.84 385.99 209.68 389.05 209.68"/><polygon class="cls-76" points="392.1 209.68 325.48 245.09 325.48 243.46 389.05 209.68 392.1 209.68"/><polygon class="cls-71" points="395.16 209.68 325.48 246.71 325.48 245.09 392.1 209.68 395.16 209.68"/><polygon class="cls-70" points="398.22 209.68 325.48 248.34 325.48 246.71 395.16 209.68 398.22 209.68"/><polygon class="cls-63" points="401.28 209.68 325.48 249.96 325.48 248.34 398.22 209.68 401.28 209.68"/><polygon class="cls-68" points="401.78 209.68 402.35 210.73 325.48 251.59 325.48 249.96 401.28 209.68 401.78 209.68"/><polygon class="cls-66" points="402.35 210.73 403.02 212 325.48 253.21 325.48 251.59 402.35 210.73"/><polygon class="cls-65" points="403.02 212 403.69 213.27 325.48 254.84 325.48 253.21 403.02 212"/><polygon class="cls-67" points="403.69 213.27 404.37 214.54 325.48 256.46 325.48 254.84 403.69 213.27"/><polygon class="cls-69" points="404.37 214.54 405.04 215.8 325.48 258.09 325.48 256.46 404.37 214.54"/><polygon class="cls-36" points="405.04 215.8 405.71 217.07 325.48 259.72 325.48 258.09 405.04 215.8"/><polygon class="cls-26" points="405.71 217.07 406.39 218.34 325.48 261.34 325.48 259.72 405.71 217.07"/><polygon class="cls-25" points="406.39 218.34 407.06 219.61 325.48 262.97 325.48 261.34 406.39 218.34"/><polygon class="cls-37" points="407.06 219.61 407.73 220.87 325.48 264.59 325.48 262.97 407.06 219.61"/><polygon class="cls-33" points="407.73 220.87 408.41 222.14 325.48 266.22 325.48 264.59 407.73 220.87"/><polygon class="cls-35" points="408.41 222.14 409.08 223.41 325.48 267.84 325.48 266.22 408.41 222.14"/><polygon class="cls-27" points="409.08 223.41 409.76 224.67 325.48 269.47 325.48 267.84 409.08 223.41"/><polygon class="cls-32" points="409.76 224.67 410.03 225.2 410.03 226.15 325.48 271.09 325.48 269.47 409.76 224.67"/><polygon class="cls-34" points="410.03 227.78 325.48 272.72 325.48 271.09 410.03 226.15 410.03 227.78"/><polygon class="cls-9" points="410.03 229.4 325.48 274.34 325.48 272.72 410.03 227.78 410.03 229.4"/><polygon class="cls-6" points="410.03 231.03 325.48 275.97 325.48 274.34 410.03 229.4 410.03 231.03"/><polygon class="cls-5" points="410.03 232.65 325.48 277.59 325.48 275.97 410.03 231.03 410.03 232.65"/><polygon class="cls-7" points="410.03 234.28 325.7 279.11 325.48 278.71 325.48 277.59 410.03 232.65 410.03 234.28"/><polygon class="cls-4" points="410.03 235.9 326.37 280.37 325.7 279.11 410.03 234.28 410.03 235.9"/><polygon class="cls-8" points="410.03 237.53 327.04 281.64 326.37 280.37 410.03 235.9 410.03 237.53"/><polygon class="cls-30" points="410.03 239.15 327.72 282.91 327.04 281.64 410.03 237.53 410.03 239.15"/><polygon class="cls-31" points="410.03 240.78 328.39 284.17 327.72 282.91 410.03 239.15 410.03 240.78"/><polygon class="cls-18" points="410.03 242.4 329.06 285.44 328.39 284.17 410.03 240.78 410.03 242.4"/><polygon class="cls-21" points="410.03 244.03 329.74 286.71 329.06 285.44 410.03 242.4 410.03 244.03"/><polygon class="cls-19" points="410.03 245.66 330.41 287.98 329.74 286.71 410.03 244.03 410.03 245.66"/><polygon class="cls-22" points="410.03 247.28 331.08 289.24 330.41 287.98 410.03 245.66 410.03 247.28"/><polygon class="cls-38" points="410.03 248.91 331.76 290.51 331.08 289.24 410.03 247.28 410.03 248.91"/><polygon class="cls-24" points="410.03 250.53 332.43 291.78 331.76 290.51 410.03 248.91 410.03 250.53"/><polygon class="cls-23" points="410.03 252.16 333.11 293.05 332.43 291.78 410.03 250.53 410.03 252.16"/><polygon class="cls-20" points="410.03 253.78 333.94 294.23 333.73 294.23 333.11 293.05 410.03 252.16 410.03 253.78"/><polygon class="cls-12" points="410.03 255.41 337 294.23 333.94 294.23 410.03 253.78 410.03 255.41"/><polygon class="cls-29" points="410.03 257.03 340.06 294.23 337 294.23 410.03 255.41 410.03 257.03"/><polygon class="cls-10" points="410.03 258.66 343.12 294.23 340.06 294.23 410.03 257.03 410.03 258.66"/><polygon class="cls-11" points="410.03 260.28 346.17 294.23 343.12 294.23 410.03 258.66 410.03 260.28"/><polygon class="cls-13" points="410.03 261.91 349.23 294.23 346.17 294.23 410.03 260.28 410.03 261.91"/><polygon class="cls-17" points="410.03 263.53 352.29 294.23 349.23 294.23 410.03 261.91 410.03 263.53"/><polygon class="cls-16" points="410.03 265.16 355.35 294.23 352.29 294.23 410.03 263.53 410.03 265.16"/><polygon class="cls-15" points="410.03 266.78 358.4 294.23 355.35 294.23 410.03 265.16 410.03 266.78"/><polygon class="cls-14" points="410.03 268.41 361.46 294.23 358.4 294.23 410.03 266.78 410.03 268.41"/><polygon class="cls-50" points="410.03 270.03 364.52 294.23 361.46 294.23 410.03 268.41 410.03 270.03"/><polygon class="cls-52" points="410.03 271.66 367.58 294.23 364.52 294.23 410.03 270.03 410.03 271.66"/><polygon class="cls-53" points="410.03 273.28 370.64 294.23 367.58 294.23 410.03 271.66 410.03 273.28"/><polygon class="cls-47" points="410.03 274.91 373.69 294.23 370.64 294.23 410.03 273.28 410.03 274.91"/><polygon class="cls-46" points="410.03 276.54 376.75 294.23 373.69 294.23 410.03 274.91 410.03 276.54"/><polygon class="cls-49" points="410.03 278.16 379.81 294.23 376.75 294.23 410.03 276.54 410.03 278.16"/><polygon class="cls-48" points="410.03 279.79 382.87 294.23 379.81 294.23 410.03 278.16 410.03 279.79"/><polygon class="cls-45" points="410.03 281.41 385.92 294.23 382.87 294.23 410.03 279.79 410.03 281.41"/><polygon class="cls-42" points="410.03 283.04 388.98 294.23 385.92 294.23 410.03 281.41 410.03 283.04"/><polygon class="cls-44" points="410.03 284.66 392.04 294.23 388.98 294.23 410.03 283.04 410.03 284.66"/><polygon class="cls-43" points="410.03 286.29 395.1 294.23 392.04 294.23 410.03 284.66 410.03 286.29"/><polygon class="cls-61" points="410.03 287.91 398.15 294.23 395.1 294.23 410.03 286.29 410.03 287.91"/><polygon class="cls-40" points="410.03 289.54 401.21 294.23 398.15 294.23 410.03 287.91 410.03 289.54"/><polygon class="cls-60" points="410.03 291.16 404.27 294.23 401.21 294.23 410.03 289.54 410.03 291.16"/><polygon class="cls-62" points="410.03 292.79 407.33 294.23 404.27 294.23 410.03 291.16 410.03 292.79"/><polygon class="cls-41" points="407.33 294.23 410.03 292.79 410.03 294.23 407.33 294.23"/></g><g><path class="cls-93" d="m384.09,262.5c-4.23-3.88-11.01-1.54-16.64-2.65-6.95-1.38-11.55-7.94-14.61-14.33-3.06-6.39-5.56-13.44-11.06-17.91-1.8-1.46-3.84-2.55-6.01-3.31-6.42,7.41-10.3,17.08-10.3,27.66,0,23.35,18.93,42.27,42.27,42.27,10.37,0,19.86-3.73,27.22-9.93-3.21-3.38-5.61-7.52-6.85-12.01-.95-3.46-1.39-7.37-4.03-9.79Z"/><path class="cls-95" d="m410.03,251.95c0-23.35-18.93-42.27-42.27-42.27-12.77,0-24.22,5.66-31.97,14.62,2.17.76,4.2,1.85,6.01,3.31,5.5,4.46,8,11.52,11.06,17.91,3.06,6.39,7.66,12.95,14.61,14.33,5.63,1.12,12.41-1.23,16.64,2.65,2.64,2.42,3.09,6.33,4.03,9.79,1.23,4.49,3.64,8.63,6.85,12.01,9.21-7.75,15.06-19.37,15.06-32.35Z"/></g></g><circle class="cls-97" cx="367.76" cy="251.95" r="2.46"/><rect class="cls-97" x="363.78" y="217.15" width="1.58" height="34.77" transform="translate(-36.61 70.3) rotate(-10.49)"/><polygon class="cls-97" points="360.74 213.85 359.45 218.43 363.58 217.66 360.74 213.85"/><rect class="cls-97" x="358.52" y="247.88" width="1.58" height="22.21" transform="translate(387.28 701.02) rotate(-129.4)"/><polygon class="cls-97" points="348.14 268.22 352.77 267.14 350.1 263.89 348.14 268.22"/></g><g><path class="cls-28" d="m454.07,133.15c-4.8,0-8.84,3.22-10.1,7.61h20.19c-1.25-4.39-5.3-7.61-10.1-7.61Z"/><path class="cls-28" d="m481.61,133.15c-4.8,0-8.84,3.22-10.1,7.61h20.19c-1.25-4.39-5.3-7.61-10.1-7.61Z"/><path class="cls-28" d="m468.49,129.89c-6.85,0-12.63,4.59-14.42,10.87h28.84c-1.79-6.28-7.57-10.87-14.42-10.87Z"/></g><g><path class="cls-58" d="m224.99,312.12c-1.55,0-2.8-1.25-2.8-2.8v-20.24c0-1.55,1.25-2.8,2.8-2.8s2.8,1.25,2.8,2.8v20.24c0,1.55-1.25,2.8-2.8,2.8Z"/><path class="cls-58" d="m251.64,312.69c-1.55,0-2.8-1.25-2.8-2.8v-6.33h-47.35v6.33c0,1.55-1.25,2.8-2.8,2.8s-2.8-1.25-2.8-2.8v-9.13c0-1.55,1.25-2.8,2.8-2.8h52.95c1.55,0,2.8,1.25,2.8,2.8v9.13c0,1.55-1.25,2.8-2.8,2.8Z"/></g><ellipse class="cls-94" cx="224.99" cy="314.55" rx="11.18" ry="6.11"/><ellipse class="cls-94" cx="198.69" cy="314.55" rx="11.18" ry="6.11"/><ellipse class="cls-94" cx="251.64" cy="314.55" rx="11.18" ry="6.11"/><g><path class="cls-58" d="m302.79,283.65c-1.55,0-2.8-1.25-2.8-2.8v-15.19h-72.2v15.19c0,1.55-1.25,2.8-2.8,2.8s-2.8-1.25-2.8-2.8v-17.99c0-1.55,1.25-2.8,2.8-2.8h77.8c1.55,0,2.8,1.25,2.8,2.8v17.99c0,1.55-1.25,2.8-2.8,2.8Z"/><path class="cls-58" d="m263.89,265.66c-1.55,0-2.8-1.25-2.8-2.8v-21.98c0-1.55,1.25-2.8,2.8-2.8s2.8,1.25,2.8,2.8v21.98c0,1.55-1.25,2.8-2.8,2.8Z"/></g><rect class="cls-99" x="233.61" y="231.27" width="60.55" height="19.21"/><g><rect class="cls-96" x="191.29" y="272.68" width="67.4" height="19.21"/><rect class="cls-96" x="270.01" y="272.73" width="67.4" height="19.21" transform="translate(11.85 -12.23) rotate(2.35)"/></g><g><rect class="cls-93" x="401.13" y="245.52" width="19.21" height="19.21"/><g><polyline class="cls-93" points="404.08 252.67 410.42 259.02 425.36 244.09"/><path class="cls-58" d="m410.42,262.62c-.92,0-1.84-.35-2.55-1.05l-6.35-6.35c-1.41-1.41-1.41-3.69,0-5.09,1.4-1.41,3.69-1.41,5.09,0l3.8,3.8,12.39-12.39c1.4-1.41,3.69-1.41,5.09,0,1.41,1.41,1.41,3.69,0,5.09l-14.93,14.93c-.7.7-1.62,1.05-2.55,1.05Z"/></g></g><path class="cls-58" d="m379.72,355.13h-33.31c-1.55,0-2.8-1.25-2.8-2.8v-27.95c0-1.55,1.25-2.8,2.8-2.8h33.31c1.55,0,2.8,1.25,2.8,2.8s-1.25,2.8-2.8,2.8h-30.51v22.35h30.51c1.55,0,2.8,1.25,2.8,2.8s-1.25,2.8-2.8,2.8Z"/><rect class="cls-94" x="357.26" y="342.24" width="139.97" height="19.21"/><g><path class="cls-51" d="m315.07,398.75c-.07-.01-.13-.03-.2-.05-.52-.2-.78-.79-.58-1.31l2.61-6.81c.2-.52.79-.78,1.31-.58.52.2.78.79.58,1.31l-2.61,6.81c-.18.46-.65.72-1.11.64Z"/><path class="cls-97" d="m313.78,397.59s-.63,2.61,0,2.68c.63.07,9.67.35,9.72-.07.18-1.43-7.21-2.75-7.93-2.61s-1.7-.38-1.79,0Z"/><path class="cls-51" d="m304.16,398.75c-.07-.01-.13-.03-.2-.05-.52-.2-.78-.79-.58-1.31l2.61-6.81c.2-.52.79-.78,1.31-.58.52.2.78.79.58,1.31l-2.61,6.81c-.18.46-.65.72-1.11.64Z"/><path class="cls-97" d="m302.87,397.59s-.63,2.61,0,2.68c.63.07,9.67.35,9.72-.07.18-1.43-7.21-2.75-7.93-2.61-.72.14-1.7-.38-1.79,0Z"/><path class="cls-51" d="m327.25,297.75c-.35-.5-.44-1.13-.26-1.7.48-1.48,1.47-4.24,2.35-4.61,1.21-.51.4,4.43-1.9,6.6l-.2-.28Z"/><path class="cls-58" d="m326.56,296.97c.98-.07,1.81-.41,2.72-.58,2.51,15.03-.59,25.56-17.94,20.07-3.92-1.24-1.13-4.68,2.79-3.14,13.45,5.28,13.38-5.89,12.43-16.35Z"/><path class="cls-51" d="m298.55,296.09c.28-.54.29-1.18.03-1.72-.67-1.4-2.02-4.01-2.94-4.26-1.27-.35.19,4.45,2.76,6.29l.16-.31Z"/><path class="cls-58" d="m298.96,296.27c-.86-.43-1.52-1.03-2.3-1.56-8.4,13.61-5.36,23.82,11.65,21.74,3.84-.47,2.21-4.63-1.99-3.74-14.38,3.03-11.79-7.19-7.37-16.44Z"/><path class="cls-97" d="m315.5,340.39l1.87,13.72.93,6.86.46,3.43.23,1.73.03.22v.11s.02.08.02.08v.13s.02.08.02.11v.1c0,.07,0,.11,0,.16,0,.05,0,.1,0,.14v.12s-.02.1-.02.1c-.02.14-.04.25-.06.35-.08.41-.17.73-.27,1.05-.19.62-.39,1.19-.59,1.76-.2.56-.42,1.12-.63,1.67-.43,1.1-.87,2.18-1.32,3.25-.9,2.15-1.82,4.28-2.76,6.4-.94,2.12-1.89,4.23-2.86,6.33-.49,1.05-.97,2.1-1.47,3.15l-.75,1.58-.39.79-.2.4c-.07.14-.14.27-.24.44l-2.68-1.45c.04-.08.1-.21.15-.33l.17-.38.33-.78.66-1.58c.43-1.06.86-2.13,1.29-3.2.85-2.14,1.68-4.28,2.5-6.43.81-2.15,1.61-4.3,2.38-6.45.38-1.08.75-2.15,1.11-3.23.18-.54.35-1.07.51-1.6.16-.53.31-1.06.43-1.55.06-.24.11-.48.13-.64,0-.03,0-.07,0-.07,0-.01,0,0,0,.09v.04s0,.06,0,.06c0,.02,0,.05,0,.07v.04s0-.01,0-.01l-.02-.1-.04-.21-.34-1.68-.69-3.39-1.39-6.78-2.78-13.56,6.3-1.08Z"/><path class="cls-97" d="m320.71,340.06l3.21,13.47,1.6,6.74.8,3.37.4,1.7.05.22.03.11.02.08.03.13s.01.08.02.11v.09c.02.07.02.11.03.16,0,.05,0,.1,0,.14v.12s0,.1,0,.1c0,.14-.01.25-.02.36-.04.42-.1.74-.16,1.07-.12.64-.27,1.23-.41,1.81-.15.58-.3,1.15-.46,1.72-.32,1.13-.65,2.25-.99,3.37-.68,2.23-1.39,4.44-2.12,6.64-.73,2.2-1.47,4.39-2.23,6.58-.38,1.09-.76,2.19-1.15,3.28l-.6,1.64-.31.83-.16.42c-.06.15-.11.28-.19.46l-2.81-1.18c.03-.09.08-.22.12-.34l.13-.39.25-.81.5-1.64c.33-1.1.65-2.2.96-3.31.63-2.21,1.25-4.43,1.85-6.64.6-2.22,1.18-4.44,1.73-6.66.27-1.11.54-2.22.78-3.32.12-.55.24-1.1.35-1.64.11-.54.2-1.08.27-1.58.03-.24.06-.49.06-.65,0-.04,0-.07,0-.07,0-.01,0,0,0,.09v.04s.01.05.01.05c0,.02,0,.05.01.07v.04s0-.01,0-.01l-.03-.1-.06-.2-.5-1.64-1.02-3.3-2.05-6.61-4.11-13.22,6.16-1.69Z"/><path class="cls-58" d="m304.98,326.93c.04.41.09.82.14,1.23.12.96.28,1.94.46,2.94.08.4.16.81.24,1.22.18.86.39,1.74.63,2.64.1.39.22.79.33,1.2.17.61.37,1.23.57,1.87.13.39.26.78.39,1.18.38,1.1.8,2.23,1.27,3.38.59-.23,1.29-.46,2.18-.66,1.2-.27,2.74-.49,4.77-.58.09,0,.19,0,.28-.01,2.26-.08,4.06,0,5.47.19-.53-1.13-1.02-2.22-1.47-3.25-.17-.39-.34-.78-.5-1.16-.19-.43-.37-.86-.54-1.28-.07-.17-.14-.35-.21-.52-.09-.22-.18-.44-.27-.66-.31-.78-.6-1.52-.87-2.24-.15-.41-.3-.8-.43-1.19-.23-.64-.44-1.27-.64-1.86-.13-.43-.26-.83-.39-1.23-.08-.28-.17-.56-.24-.83-1.25-4.4-1.43-7.31-1.13-9.35.28-1.86-.44-3.72-1.93-4.86l-.58-.45c-2.69-2.07-6.64-.59-7.28,2.75-.21,1.12-.38,2.39-.46,3.83-.13,2.47-.09,5.01.18,7.69Z"/><path class="cls-98" d="m312.93,302.49s2.1,1.17,1.37,2.5c-.73,1.33-2.41-1.37-2.41-1.37,0,0,.13-1.83,1.04-1.13Z"/><path class="cls-51" d="m308.26,307.49c1.06,2.76,3.84,4.26,5.53,3.61,1.69-.65,1.64-3.2.58-5.95-1.06-2.76-2.97-3.64-4.65-2.99-1.69.65-2.51,2.58-1.45,5.34Z"/><path class="cls-51" d="m308.34,307.51l3.09-.3c.04.42.37,4.45.21,5.97-.11.47-.88.68-1.72.48-.75-.18-1.3-.64-1.32-1.07h0c.09-.91-.11-3.6-.26-5.08Z"/><path class="cls-98" d="m315.31,308.22c-.13-.08-.28-.09-.43-.06-.35.08-1.18.26-1.24.28-.59.17-1.24.05-1.5.99-.31,1.13.44.53,1.06-.09.62-.61,1.1-.26,1.65-.3.47-.04.86-.57.46-.81Z"/><path class="cls-98" d="m307.18,305.89s-.1-1.99,1.04-3.16c1.14-1.17,3.84-2.08,5.36.14,0,0,.93,1.68-1.19,2.63-2.12.95-2.08-.33-2.83,1.09s-1.96.9-2.09,1.21l-.3-1.91Z"/><path class="cls-51" d="m307.24,308.71c.25.64,1.2,1.22,1.66,1.04.46-.18.38-.74.13-1.39-.25-.64-.85-1.1-1.32-.92-.46.18-.73.62-.48,1.27Z"/><path class="cls-97" d="m309.99,314.16c.55,7.74-.04,7.58-1.97,14.85.37.95.82,1.87,1.31,2.77.84-.62,1.7-1.22,2.52-1.86.45-6.65.81-8.88-.7-15.75-.38-.04-.77-.02-1.15-.01Z"/></g><g><path class="cls-51" d="m230.89,346.07c.5-.36,1.13-.46,1.72-.28,1.5.46,4.3,1.42,4.69,2.3.53,1.22-4.47.48-6.69-1.81l.28-.2Z"/><path class="cls-58" d="m232.65,345.35c-.3.9-.44,1.76-.73,2.74-11.78-3.41-14.31-11.92-14.23-23.51.02-2.62,3.68-1.93,3.98,1.21,1.04,10.77-.78,15.27,10.99,19.56Z"/><path class="cls-51" d="m234.89,396.81c-.07-.01-.13-.03-.2-.05-.53-.2-.79-.79-.59-1.32l2.63-6.87c.2-.53.79-.79,1.32-.59.53.2.79.79.59,1.32l-2.63,6.87c-.18.46-.65.72-1.12.64Z"/><path class="cls-97" d="m233.59,395.63s-.63,2.63,0,2.71c.63.07,9.76.35,9.81-.07.18-1.44-7.27-2.78-8.01-2.63-.73.15-1.72-.38-1.8,0Z"/><path class="cls-51" d="m195.13,395.34c-.05-.04-.11-.09-.15-.14-.38-.41-.36-1.06.05-1.45l5.4-5c.41-.38,1.06-.36,1.45.05.38.41.36,1.06-.05,1.45l-5.4,5c-.36.34-.9.36-1.29.08Z"/><path class="cls-97" d="m194.48,393.71s-1.73,2.08-1.2,2.43c.54.35,8.6,4.63,8.83,4.27.8-1.22-5.3-5.71-6.02-5.9s-1.37-1.1-1.62-.8Z"/><path class="cls-97" d="m216.72,350.2l1,13.07.47,6.53.11,1.62c.03.43.05.87.08,1.28-.04.05-.08.1-.13.16-.28.33-.63.7-.99,1.06-.72.72-1.51,1.44-2.31,2.16-.8.71-1.61,1.42-2.44,2.12-1.65,1.41-3.32,2.8-5,4.19l-5.06,4.19c-.84.7-1.68,1.41-2.52,2.14-.42.36-.84.73-1.26,1.11-.42.39-.83.77-1.27,1.24l2.21,2.14c.33-.31.73-.65,1.14-.98.41-.33.83-.66,1.25-.99.85-.66,1.72-1.31,2.59-1.96l5.26-3.9c1.76-1.3,3.52-2.61,5.27-3.95.88-.67,1.75-1.35,2.62-2.04.87-.7,1.74-1.41,2.6-2.18.43-.39.87-.79,1.32-1.27.23-.24.46-.5.72-.86.13-.19.27-.4.44-.76.08-.2.18-.43.23-.85,0-.06.01-.11.01-.17v-.12s0-.06,0-.06v-.11c.02-.61.03-1.14.04-1.71l.02-1.65.03-6.57v-13.13s-6.43.25-6.43.25Zm1.83,22.24s-.02.03-.03.04c.05-.1.05-.08.03-.04Z"/><path class="cls-97" d="m247.34,364.67v-.08s-.03-.1-.03-.1l-.02-.1s-.02-.08-.03-.12c-.02-.09-.04-.16-.09-.29-.02-.06-.04-.11-.07-.17-.02-.06-.04-.09-.07-.14-.02-.04-.05-.09-.07-.13l-.06-.1c-.04-.06-.08-.13-.11-.17-.03-.04-.07-.1-.1-.13l-.09-.11c-.11-.13-.21-.23-.29-.31-.18-.17-.33-.31-.47-.43-.15-.12-.29-.24-.42-.35-.27-.22-.54-.41-.8-.6-1.04-.76-2.07-1.43-3.1-2.09-2.06-1.32-4.12-2.58-6.19-3.82-4.15-2.48-8.31-4.88-12.51-7.26l-2.98,5.72c4.28,2.07,8.58,4.19,12.81,6.36,2.12,1.09,4.22,2.19,6.28,3.33,1.02.57,2.04,1.15,2.98,1.74.23.15.46.29.67.44.04.02.07.05.1.07-.07.46-.17.97-.28,1.48-.12.55-.26,1.12-.4,1.68-.29,1.13-.6,2.27-.93,3.41-.65,2.28-1.35,4.56-2.06,6.84-.71,2.28-1.43,4.56-2.16,6.85l-1.09,3.44-.54,1.73-.26.89-.13.46c-.04.17-.08.31-.13.55l3.01.64c.02-.05.06-.19.1-.32l.13-.4.29-.82.62-1.67,1.26-3.36c.85-2.24,1.69-4.49,2.53-6.75.83-2.26,1.66-4.52,2.45-6.81.39-1.15.78-2.3,1.15-3.47.18-.59.36-1.18.53-1.79.17-.61.33-1.23.46-1.93.03-.18.06-.36.09-.56.03-.2.05-.42.06-.7,0-.15,0-.3-.03-.53Zm-4.62.52s0,.04,0,.09h0c0-.09,0-.09,0-.09Z"/><path class="cls-58" d="m211.69,336.38c.04.41.09.83.14,1.25.12.97.28,1.96.47,2.97.08.41.16.82.25,1.23.19.87.4,1.76.64,2.66.11.4.22.8.34,1.21.18.62.37,1.25.58,1.88.13.39.26.79.4,1.19.38,1.11.81,2.25,1.28,3.41.6-.23,1.31-.47,2.2-.67,1.21-.28,2.76-.49,4.82-.58.09,0,.19,0,.28-.01,2.29-.08,4.09,0,5.52.2-.53-1.14-1.02-2.24-1.48-3.28-.17-.4-.34-.79-.51-1.17-.19-.44-.37-.87-.54-1.29-.07-.18-.15-.35-.22-.52-.09-.22-.18-.44-.27-.66-.32-.78-.61-1.54-.88-2.26-.15-.41-.3-.81-.44-1.2-.23-.65-.44-1.28-.64-1.88-.14-.43-.27-.84-.39-1.25-.09-.28-.17-.56-.24-.83-1.26-4.44-1.44-7.37-1.14-9.43.28-1.87-.45-3.75-1.95-4.9l-.59-.45c-2.72-2.09-6.7-.6-7.35,2.77-.22,1.13-.38,2.41-.46,3.87-.13,2.49-.09,5.06.18,7.76Z"/><g><rect class="cls-99" x="221.2" y="328.05" width="19.21" height="19.21"/><path class="cls-58" d="m230.49,345.15c-.95,0-1.87-.38-2.55-1.05l-6.35-6.35c-1.41-1.41-1.41-3.69,0-5.09,1.4-1.41,3.69-1.41,5.09,0l3.8,3.8,12.39-12.39c1.4-1.41,3.68-1.41,5.09,0,1.41,1.41,1.41,3.69,0,5.09l-14.93,14.93c-.68.67-1.59,1.05-2.55,1.05Z"/></g><path class="cls-98" d="m219.7,311.71s2.12,1.18,1.39,2.52c-.73,1.34-2.44-1.38-2.44-1.38,0,0,.13-1.84,1.05-1.14Z"/><path class="cls-51" d="m214.99,316.76c1.07,2.78,3.88,4.29,5.58,3.64,1.7-.65,1.65-3.22.58-6.01-1.07-2.78-2.99-3.67-4.69-3.02-1.7.65-2.54,2.6-1.47,5.38Z"/><path class="cls-51" d="m215.07,316.78l3.12-.3c.04.43.37,4.49.21,6.02-.11.47-.89.69-1.74.48-.76-.18-1.31-.65-1.33-1.08h0c.09-.92-.11-3.63-.26-5.12Z"/><path class="cls-98" d="m216.3,317.91c.55-.39.88.14,1.83.98.95.84,2.92,1.09,3.59-1.41.28-1.06.53-.17.67.55.1.53.11,1.08-.05,1.59-.24.8-.72,1.28-1.48,1.57-1.13.44-2.62.17-3.95-.7-.71-.46-1.11-1.31-.89-2.12.05-.2.14-.36.27-.45Z"/><path class="cls-98" d="m221.83,317.4s-.04.01-.12.03c-.59.17-3.3,1.02-3.76,1.96-.51,1.07,1.39-.16,2.02-.78.63-.62,1.19-.4,1.74-.44.55-.04.92-.64.12-.78Z"/><path class="cls-98" d="m213.9,315.14s-.1-2.01,1.05-3.19c1.15-1.18,3.88-2.1,5.41.14,0,0,.94,1.69-1.2,2.65-2.14.96-2.1-.33-2.85,1.1-.75,1.43-1.98.91-2.11,1.22l-.3-1.93Z"/><path class="cls-51" d="m213.97,317.99c.25.65,1.21,1.23,1.68,1.05s.38-.75.14-1.4-.86-1.11-1.33-.93c-.47.18-.73.63-.48,1.28Z"/><path class="cls-97" d="m217.66,325.26c.14.31.27.65.38.99.11.34.2.68.27,1.03.14.69.2,1.38.12,2.02-.08.64-.3,1.22-.65,1.66l-.03.04-.05.06-.09.13-.18.26c-.06.09-.12.18-.17.27l-.16.27c-.11.18-.2.37-.29.55-.05.09-.09.19-.14.28l-.12.29c-.31.77-.55,1.57-.69,2.39-.04.2-.06.41-.09.62-.02.21-.05.42-.06.63,0,.21-.02.42-.03.63v.64c.06.85.19,1.71.45,2.56.27.85.65,1.68,1.15,2.45l2.81.74-.03-2.84c-.38-.43-.71-.91-.98-1.46-.26-.55-.46-1.15-.59-1.77l-.08-.48c-.02-.16-.03-.32-.05-.48-.02-.16-.02-.33-.03-.49,0-.16-.02-.33,0-.49,0-.66.09-1.33.25-1.97l.06-.24c.02-.08.05-.16.07-.24.05-.16.09-.32.16-.47l.09-.23c.03-.08.06-.15.1-.23l.11-.22.05-.11.03-.06.04-.08c.23-.4.39-.84.48-1.28.09-.44.13-.87.11-1.3-.03-.85-.23-1.64-.5-2.38-.14-.37-.3-.73-.47-1.08-.18-.35-.36-.68-.59-1.02l-.67.39Z"/><path class="cls-51" d="m221.81,338.12c0-.61.3-1.18.79-1.55,1.26-.94,3.69-2.63,4.63-2.42,1.3.29-2.26,3.88-5.42,4.31v-.35Z"/><path class="cls-58" d="m222.18,336.76c.48.85,1.16,1.59,1.68,2.4-15.58,9.16-22.44-2.27-11.65-15.04,2.44-2.88,4.73.88,1.93,3.76-9.59,9.87-2.25,14.09,8.03,8.87Z"/></g><g><rect class="cls-99" x="270.75" y="349.86" width="19.21" height="19.21"/><path class="cls-58" d="m280.05,366.96c-.92,0-1.84-.35-2.55-1.05l-6.35-6.35c-1.41-1.41-1.41-3.69,0-5.09,1.4-1.41,3.69-1.41,5.09,0l3.8,3.8,12.39-12.39c1.4-1.41,3.69-1.41,5.09,0,1.41,1.41,1.41,3.69,0,5.09l-14.93,14.93c-.7.7-1.62,1.05-2.55,1.05Z"/></g><g><rect class="cls-93" x="270.75" y="320.31" width="19.21" height="19.21"/><g><polyline class="cls-93" points="273.7 327.46 280.05 333.81 294.98 318.87"/><path class="cls-58" d="m280.05,337.41c-.92,0-1.84-.35-2.55-1.05l-6.35-6.35c-1.41-1.41-1.41-3.69,0-5.09,1.4-1.41,3.69-1.41,5.09,0l3.8,3.8,12.39-12.39c1.4-1.41,3.69-1.41,5.09,0,1.41,1.41,1.41,3.69,0,5.09l-14.93,14.93c-.7.7-1.62,1.05-2.55,1.05Z"/></g></g><polygon class="cls-91" points="266.87 304.83 264.49 302.45 259.99 306.94 255.49 302.45 253.12 304.83 257.61 309.32 253.12 313.82 255.49 316.2 259.99 311.7 264.49 316.2 266.87 313.82 262.37 309.32 266.87 304.83"/><polygon class="cls-91" points="461.41 281.07 459.03 278.69 454.54 283.19 450.04 278.69 447.66 281.07 452.16 285.57 447.66 290.07 450.04 292.45 454.54 287.95 459.03 292.45 461.41 290.07 456.91 285.57 461.41 281.07"/><path class="cls-51" d="m403.92,344.86c.06,0,.13-.03.19-.05.51-.19.76-.75.58-1.25l-2.44-6.59c-.19-.51-.75-.76-1.26-.58-.51.19-.76.75-.58,1.25l2.44,6.59c.16.44.62.7,1.06.63Z"/><path class="cls-97" d="m404.93,343.39s.98,2.39.4,2.55c-.59.16-9.15,1.76-9.26,1.36-.38-1.34,6.45-3.68,7.16-3.65.71.03,1.57-.61,1.7-.26Z"/><path class="cls-97" d="m392.62,317.68c0-.09,0-.17.01-.26,0-.02,0-.05,0-.09v-.1c.02-.06.04-.13.05-.19v-.05s.03-.06.04-.09c.02-.07.04-.13.07-.2l.04-.1.04-.08s.05-.1.08-.15c.06-.11.1-.16.15-.24l.08-.1.06-.08c.18-.22.31-.32.44-.43.12-.1.23-.18.33-.24.39-.26.69-.4.98-.55.58-.27,1.11-.48,1.64-.68.53-.19,1.04-.37,1.56-.54,1.03-.34,2.05-.65,3.08-.94,2.04-.59,4.08-1.13,6.12-1.65,2.04-.52,4.08-1.02,6.13-1.5,2.05-.48,4.08-.95,6.15-1.41l1.1,5.9c-2.03.32-4.09.66-6.13,1-2.04.35-4.09.71-6.12,1.1-2.03.38-4.06.79-6.06,1.23-1,.22-1.99.45-2.96.71-.48.13-.96.26-1.42.4-.36.11-.71.22-1.03.34,0,.04.02.09.02.13.17.93.42,1.92.68,2.91.52,1.98,1.1,3.96,1.7,5.95.6,1.98,1.23,3.97,1.87,5.94.32.99.64,1.98.97,2.96l.5,1.47.25.73c.08.24.17.49.25.7l-2.64,1.11c-.12-.27-.22-.51-.33-.76l-.31-.73-.6-1.46c-.39-.97-.78-1.95-1.17-2.92-.77-1.95-1.52-3.91-2.26-5.87-.73-1.97-1.45-3.95-2.12-5.97-.33-1.02-.66-2.03-.94-3.14-.07-.28-.14-.56-.2-.88-.03-.16-.06-.32-.08-.51-.01-.08-.02-.2-.03-.3,0-.05,0-.12,0-.18v-.1s0-.06,0-.11Z"/><rect class="cls-94" x="357.26" y="314.78" width="100.55" height="19.21"/><g><path class="cls-51" d="m433.51,311.05s-2.61,4.3-2.18,5.5,3.39-2.62,3.41-5.67l-1.23.17Z"/><path class="cls-51" d="m424.81,349.32c.05-.04.1-.09.14-.14.35-.41.3-1.03-.11-1.38l-5.35-4.55c-.41-.35-1.03-.3-1.38.11-.35.41-.3,1.03.11,1.38l5.35,4.55c.36.31.88.31,1.23.03Z"/><path class="cls-97" d="m424.97,347.54s2.03,1.6,1.59,2.03c-.43.43-7.12,6.01-7.41,5.72-.99-.98,3.82-6.37,4.46-6.69.63-.32,1.07-1.3,1.35-1.06Z"/><path class="cls-97" d="m420.67,307.61c-1.58,1.52-3.12,3.03-4.66,4.56-1.54,1.53-3.08,3.07-4.6,4.62-1.52,1.56-3.03,3.13-4.52,4.74-.74.81-1.48,1.63-2.21,2.47-.36.42-.73.85-1.09,1.3-.36.45-.72.91-1.08,1.43-.09.13-.18.27-.27.41-.09.15-.19.3-.28.48-.1.18-.2.37-.31.66l-.02.05-.02.06-.04.12s-.03.1-.04.15l-.02.08-.02.1-.02.1s-.01.06-.02.11c-.01.08-.02.17-.02.25,0,.1,0,.22,0,.33,0,.02,0,.06,0,.1l.02.11c.01.07.03.14.04.21.01.04.01.05.02.07l.02.05.04.11c.02.06.04.11.07.17.02.06.04.09.06.14.02.05.04.08.06.12.08.15.14.25.21.35.13.19.24.34.35.48.22.27.43.5.63.73.41.44.81.84,1.22,1.23.4.39.81.77,1.22,1.14,1.63,1.49,3.27,2.91,4.93,4.31,1.66,1.4,3.33,2.78,5.01,4.15.84.68,1.68,1.37,2.53,2.04l1.28,1.01.65.51c.22.17.43.33.68.52l1.8-2.31c-.18-.15-.38-.33-.58-.5l-.6-.53-1.19-1.08c-.79-.72-1.59-1.45-2.37-2.18-1.58-1.46-3.14-2.93-4.69-4.41-1.54-1.48-3.08-2.98-4.54-4.5-.36-.38-.72-.76-1.07-1.14-.35-.38-.69-.76-.99-1.13-.15-.18-.29-.37-.4-.52-.05-.08-.1-.15-.11-.18,0-.01-.01-.03,0,0v.03s.04.04.04.04c.01.03.02.04.03.08,0,.02.01.04.02.06l.02.08c.01.05.03.11.03.16v.08s.02.07.02.07c0,.07,0,.16,0,.23,0,.05,0,.1-.01.15v.06s-.02.05-.02.05l-.02.07s-.01.04-.01.05c0,0,0,.02,0,.03h0s0,.02,0,.02c0,.03.01-.01.05-.06.04-.06.09-.13.15-.21.06-.08.12-.16.19-.25.28-.35.6-.72.94-1.09.34-.37.7-.75,1.06-1.12.73-.74,1.48-1.48,2.24-2.22,1.53-1.47,3.1-2.91,4.69-4.35,1.59-1.43,3.19-2.86,4.81-4.27,1.61-1.41,3.24-2.82,4.86-4.2l-4.12-4.57Z"/><path class="cls-51" d="m401.05,275.56s-4.59-2.07-5.72-1.49,3.02,3.04,6.04,2.69l-.32-1.2Z"/><g><path class="cls-58" d="m424.58,284.66h.03s0,0,0,0h-.01s-.06.02-.06.02l-.14.03-.15.03-.17.03c-.22.04-.46.06-.7.08-.49.04-.99.04-1.51.02-1.03-.04-2.08-.2-3.12-.42-2.1-.45-4.18-1.19-6.19-2.09-2.02-.91-3.99-1.98-5.9-3.17-1.91-1.19-3.76-2.49-5.56-3.86l-1.35,1.66c1.76,1.51,3.59,2.97,5.5,4.32,1.91,1.36,3.91,2.61,6.01,3.71,2.1,1.1,4.32,2.05,6.68,2.7,1.18.32,2.39.58,3.66.71.63.07,1.27.1,1.93.09.33,0,.67-.02,1.01-.06l.26-.03.27-.04c.09-.02.19-.03.28-.05l.15-.03.09-.02h.05s.08-.03.08-.03l-1.14-3.6Z"/><path class="cls-58" d="m431.05,298.11c-.1.38-.2.77-.31,1.16-.25.9-.53,1.81-.85,2.74-.13.37-.26.75-.4,1.13-.3.8-.62,1.6-.97,2.42-.15.36-.32.73-.48,1.1-.25.56-.52,1.12-.8,1.7-.17.35-.35.71-.54,1.07-.52,1-1.08,2.01-1.68,3.04-.53-.3-1.17-.62-1.98-.94-1.11-.43-2.54-.85-4.47-1.22-.09-.02-.18-.03-.26-.05-2.15-.39-3.87-.56-5.24-.58.66-1.01,1.28-1.97,1.85-2.89.22-.35.43-.69.64-1.03.24-.39.47-.77.69-1.14.09-.16.19-.31.28-.47.12-.2.23-.39.35-.59.41-.7.78-1.37,1.14-2.01.2-.37.39-.72.58-1.07.31-.58.6-1.14.86-1.68.19-.39.37-.76.54-1.12.12-.26.24-.51.35-.75,1.8-4.02,2.38-6.76,2.37-8.75,0-1.81.94-3.48,2.52-4.36l.62-.34c2.86-1.6,6.41.36,6.56,3.63.05,1.09.03,2.33-.1,3.72-.22,2.37-.61,4.79-1.24,7.3Z"/><path class="cls-58" d="m433.07,311.02v-.02s.04-.1.04-.1l.06-.2c.08-.27.15-.55.23-.83.15-.56.29-1.13.43-1.7.28-1.14.55-2.28.82-3.43.53-2.29,1.05-4.6,1.55-6.9l.19-.86.04-.18s-.07-.09-.1-.13c-.17-.22-.35-.44-.53-.66-.73-.89-1.49-1.79-2.25-2.69-1.53-1.79-3.08-3.57-4.63-5.34l2.91-2.43c1.47,1.86,2.93,3.73,4.38,5.62.72.95,1.44,1.89,2.15,2.87.18.25.36.49.54.76.09.13.18.27.28.41l.07.12s.05.08.08.14l.05.08.05.1s.05.1.07.16c0,0,.02.04.03.07.01.03.02.06.03.09.01.03.02.06.03.09,0,0,.04.15.05.26.01.12.01.24,0,.35,0,.08-.01.08-.01.08h0s-.01.07-.01.07v.06s-.02.04-.02.04l-.03.12-.06.22-.12.44-.23.86c-.63,2.29-1.26,4.57-1.92,6.85-.33,1.14-.66,2.28-1.01,3.42-.17.57-.35,1.14-.53,1.71-.09.29-.19.58-.29.87l-.08.22-.04.11-.05.12-.05.12v.03s-.03.04-.03.04l-.03.07-.03.07-.04.08c-.03.06-.07.12-.1.18l-1.89-1.46Z"/></g><path class="cls-98" d="m426.88,273.71s-2.16.82-1.66,2.19c.51,1.37,2.49-.97,2.49-.97,0,0,.13-1.76-.84-1.22Z"/><path class="cls-51" d="m430.63,279.13c-1.39,2.48-4.25,3.52-5.77,2.67-1.52-.85-1.12-3.27.28-5.75,1.39-2.48,3.33-3.05,4.85-2.2,1.52.85,2.04,2.8.64,5.29Z"/><path class="cls-51" d="m430.56,279.14l-2.9-.72c-.1.4-.97,4.19-1.03,5.66.04.46.75.77,1.57.7.74-.07,1.32-.43,1.4-.84h0c.04-.88.61-3.41.95-4.8Z"/><path class="cls-98" d="m429.24,280.04c-.47-.44-.85,0-1.87.67-1.01.66-2.91.63-3.2-1.83-.12-1.04-.48-.23-.71.43-.17.48-.25,1-.17,1.51.11.78.51,1.3,1.18,1.68,1.01.57,2.45.52,3.83-.12.73-.34,1.23-1.08,1.13-1.88-.02-.2-.08-.36-.19-.46Z"/><path class="cls-98" d="m424.09,278.79s.04.02.1.05c.54.25,2.97,1.41,3.28,2.37.34,1.08-1.29-.34-1.8-1.01s-1.06-.54-1.58-.66c-.51-.12-.78-.73,0-.75Z"/><path class="cls-98" d="m431.88,277.75s.37-1.88-.55-3.16-3.37-2.52-5.13-.61c0,0-1.12,1.47.77,2.67s2.03-.02,2.54,1.43c.51,1.45,1.74,1.13,1.82,1.45l.55-1.78Z"/><path class="cls-51" d="m431.43,280.44c-.32.58-1.31.99-1.73.76s-.26-.76.06-1.34.97-.93,1.39-.69c.42.23.61.7.28,1.27Z"/><path class="cls-97" d="m426.74,286.48c-.15.23-.3.5-.43.76-.13.26-.25.53-.34.8-.19.54-.32,1.09-.33,1.62-.01.53.09,1.02.33,1.42l.02.04.03.06.06.12.12.23c.04.08.07.16.1.23l.1.24c.07.16.11.32.17.48.03.08.05.16.08.24l.06.25c.16.66.26,1.33.27,2.01.01.17,0,.34,0,.51,0,.17,0,.34-.03.51-.02.17-.03.34-.05.51l-.09.51c-.14.68-.35,1.37-.65,2.02-.32.65-.72,1.28-1.22,1.85l-2.36.26.36-2.29c.36-.3.68-.66.97-1.06.28-.41.5-.87.69-1.37l.12-.37c.04-.13.07-.26.1-.39.04-.13.06-.26.08-.39.02-.13.05-.26.06-.4.07-.54.08-1.08.03-1.62l-.02-.2c0-.07-.02-.13-.03-.2-.02-.13-.04-.27-.07-.4l-.05-.2c-.01-.07-.03-.13-.05-.19l-.06-.19-.03-.1-.02-.05-.02-.07c-.14-.35-.21-.73-.24-1.09-.02-.37,0-.72.06-1.06.12-.68.38-1.3.69-1.87.15-.28.33-.56.51-.82.19-.26.37-.51.6-.76l.49.4Z"/><polygon class="cls-1" points="440.26 281.89 440.25 281.91 440.25 281.92 440.25 281.92 440.25 281.91 440.25 281.91 440.26 281.89"/></g><g><path class="cls-93" d="m233.88,192.76c-3.89,0-7.17,2.61-8.19,6.17h16.38c-1.02-3.56-4.3-6.17-8.19-6.17Z"/><path class="cls-93" d="m256.23,192.76c-3.89,0-7.17,2.61-8.19,6.17h16.38c-1.02-3.56-4.3-6.17-8.19-6.17Z"/><path class="cls-93" d="m245.58,190.11c-5.56,0-10.25,3.73-11.7,8.82h23.4c-1.45-5.09-6.14-8.82-11.7-8.82Z"/></g><g><rect class="cls-96" x="254.76" y="208.55" width="19.21" height="19.21"/><g><polyline class="cls-96" points="257.7 215.7 264.05 222.05 278.98 207.12"/><path class="cls-58" d="m264.05,225.65c-.92,0-1.84-.35-2.55-1.05l-6.35-6.35c-1.41-1.41-1.41-3.69,0-5.09,1.4-1.41,3.69-1.41,5.09,0l3.8,3.8,12.39-12.39c1.4-1.41,3.69-1.41,5.09,0,1.41,1.41,1.41,3.69,0,5.09l-14.93,14.93c-.7.7-1.62,1.05-2.55,1.05Z"/></g></g><path class="cls-58" d="m336.74,262.86c1.51,0,2.74-1.23,2.74-2.74,0,1.51,1.23,2.74,2.74,2.74-1.51,0-2.74,1.23-2.74,2.74,0-1.51-1.23-2.74-2.74-2.74Z"/><path class="cls-58" d="m497.83,289.73c1.51,0,2.74-1.23,2.74-2.74,0,1.51,1.23,2.74,2.74,2.74-1.51,0-2.74,1.23-2.74,2.74,0-1.51-1.23-2.74-2.74-2.74Z"/><path class="cls-58" d="m337.3,364.57c1.51,0,2.74-1.23,2.74-2.74,0,1.51,1.23,2.74,2.74,2.74-1.51,0-2.74,1.23-2.74,2.74,0-1.51-1.23-2.74-2.74-2.74Z"/><path class="cls-58" d="m383.07,236.91c2.64,0,4.79-2.14,4.79-4.79,0,2.64,2.14,4.79,4.79,4.79-2.64,0-4.79,2.14-4.79,4.79,0-2.64-2.14-4.79-4.79-4.79Z"/><path class="cls-58" d="m480.74,305.32c2.64,0,4.79-2.14,4.79-4.79,0,2.64,2.14,4.79,4.79,4.79-2.64,0-4.79,2.14-4.79,4.79,0-2.64-2.14-4.79-4.79-4.79Z"/><g><path class="cls-51" d="m494.92,387.02c.06-.02.13-.05.19-.08.49-.27.67-.88.4-1.38l-3.5-6.4c-.27-.49-.89-.67-1.38-.4-.49.27-.67.88-.4,1.38l3.5,6.4c.24.43.74.62,1.19.48Z"/><path class="cls-97" d="m495.74,385.36s1.37,2.31.79,2.56c-.58.25-9.14,3.18-9.31,2.79-.59-1.31,6.08-4.75,6.81-4.83.74-.07,1.52-.86,1.71-.53Z"/><path class="cls-97" d="m508.56,352.17c-2.09.65-4.2,1.32-6.3,2-2.1.68-4.19,1.38-6.27,2.1-2.08.72-4.15,1.45-6.19,2.23-1.02.39-2.03.78-3.01,1.2-.49.21-.97.42-1.44.64-.46.22-.92.44-1.29.65-.18.1-.35.22-.4.25-.01,0,0,0,0-.02.03-.03.06-.06.14-.2l.03-.05s.03-.05.04-.07c.03-.05.04-.09.08-.18.01-.04.03-.08.04-.12l.02-.06.02-.08c.01-.06.02-.11.03-.17v-.1s.02-.07.02-.1v-.05s0-.04,0-.04c0-.02,0-.04,0-.06,0-.02,0-.01,0-.01h0s0,0,0,.02c0,.03,0,.05.02.09.01.08.04.18.07.28.06.21.13.44.21.68.33.95.74,1.96,1.16,2.96.85,2,1.77,4,2.71,6,.94,2,1.9,3.99,2.88,5.97.49.99.98,1.98,1.48,2.97l.75,1.47.38.73c.12.24.26.49.37.7l-2.61,1.57c-.17-.27-.31-.5-.46-.75l-.43-.72-.85-1.44c-.56-.96-1.12-1.93-1.68-2.9-1.11-1.93-2.21-3.88-3.28-5.84-1.08-1.96-2.14-3.93-3.15-5.96-.51-1.02-1-2.04-1.47-3.16-.12-.29-.23-.57-.34-.89-.06-.16-.11-.33-.16-.52-.03-.09-.05-.21-.08-.31-.01-.05-.03-.12-.04-.19l-.02-.1s-.01-.06-.02-.11c-.01-.09-.02-.18-.03-.27,0-.02,0-.06,0-.09v-.1c0-.07,0-.14,0-.21v-.05s.02-.1.02-.1c.01-.07.02-.15.04-.22l.03-.11.03-.09c.02-.06.04-.11.06-.17.05-.12.08-.19.12-.27l.06-.12.06-.09c.16-.26.28-.39.4-.53.11-.12.22-.22.31-.31.37-.33.66-.53.95-.73.57-.38,1.09-.68,1.62-.96.52-.29,1.04-.55,1.56-.81,1.03-.52,2.06-1,3.09-1.46,2.06-.94,4.12-1.82,6.19-2.68,2.07-.86,4.14-1.7,6.22-2.52,2.08-.82,4.15-1.63,6.26-2.43l2.07,6.05Z"/><path class="cls-51" d="m543.68,398.8c.06-.03.11-.07.17-.12.42-.37.47-1.01.1-1.43l-4.8-5.5c-.37-.42-1.01-.47-1.43-.1-.42.37-.47,1.01-.1,1.43l4.8,5.5c.32.37.85.45,1.26.22Z"/><path class="cls-97" d="m544.44,397.59s.63,2.61,0,2.68c-.63.07-9.67.35-9.72-.07-.18-1.43,7.21-2.75,7.93-2.61s1.7-.38,1.79,0Z"/><path class="cls-97" d="m539.78,396.57c.91-.65,1.81-1.32,2.66-2.06-12.73-12.23-26.37-33.69-30.88-51.07-2.81.81-5.61,1.68-8.41,2.55,6.88,16.57,24.78,37.59,36.63,50.58Z"/><path class="cls-58" d="m512.01,341.56c-.25-.7-.51-1.43-.79-2.11-.18-.45-.38-.92-.57-1.34-.42-.96-.91-1.89-1.41-2.79-.24-.42-.49-.82-.74-1.2-.62-.94-1.25-1.85-2.01-2.66-.33-.35-.68-.69-1.03-1.02-2.28-2.18-5.14-4.16-7.86-5.5-1.59-.79-3.24-1.6-4.65-1.92-4.23-.95-6.18,1.05-6.32,4.97-.06,1.59,1.71,3.83,4.32,4.89,2.87,1.16,6.14,3.45,7.92,6.44.11.18.28.49.39.73.16.35.36.72.51,1.12.22.56.42,1.16.6,1.77.11.37.22.77.33,1.18.19.73.36,1.53.53,2.29.05.21.1.45.15.68.04.18.07.36.11.54.06.25.11.5.17.75.38.09.77.14,1.16.14,2.72.03,5.11-1.99,7.83-2.11.89-.04,1.78.13,2.67.06.12,0,.24-.02.36-.04-.41-1.18-.79-2.36-1.2-3.55-.15-.43-.3-.89-.45-1.32Z"/><path class="cls-98" d="m478.67,321.74s-.25,2.39,1.25,2.56c1.51.17.27-2.76.27-2.76,0,0-1.57-.94-1.52.21Z"/><path class="cls-51" d="m485.45,320.8c1.65,2.45,1.28,5.59-.22,6.6s-3.56-.5-5.2-2.95c-1.65-2.45-1.27-4.52.23-5.52s3.55-.58,5.2,1.88Z"/><path class="cls-51" d="m485.42,320.87l-2.02,2.35c.32.28,3.43,2.86,4.76,3.6.45.18,1.07-.33,1.38-1.13.28-.72.22-1.43-.12-1.69h0c-.8-.45-2.88-2.16-4.01-3.13Z"/><path class="cls-98" d="m485.64,322.52c-.63.23-.39.79-.25,2.04.14,1.25-.78,2.99-3.19,2.11-1.02-.37-.44.34.07.86.37.38.81.7,1.32.87.78.26,1.45.14,2.11-.31,1-.67,1.63-2.03,1.68-3.6.03-.84-.43-1.64-1.22-1.93-.19-.07-.37-.09-.52-.04Z"/><path class="cls-98" d="m484.75,319s-1.57-1.22-3.18-.96c-1.61.26-3.91,1.95-2.97,4.47,0,0,.84,1.73,2.84.54,2-1.19.93-1.89,2.51-1.69,1.59.2,1.86-1.09,2.19-1.01l-1.39-1.34Z"/><path class="cls-51" d="m487.03,320.67c.38.57.31,1.68-.11,1.96-.41.28-.83-.12-1.21-.69-.38-.57-.41-1.33,0-1.61.41-.28.93-.24,1.31.33Z"/><path class="cls-51" d="m461.31,332.37s-4.79-1.51-5.84-.8c-1.05.71,3.35,2.66,6.3,1.95l-.46-1.15Z"/><path class="cls-97" d="m488.59,330.02c.14.31.27.65.38.99.11.34.2.68.27,1.03.14.69.2,1.38.12,2.02-.08.64-.3,1.22-.65,1.66l-.03.04-.05.06-.09.13-.18.26c-.06.09-.12.18-.17.27l-.16.27c-.11.18-.2.37-.29.55-.05.09-.09.19-.14.28l-.12.29c-.31.77-.55,1.57-.69,2.39-.04.2-.06.41-.09.62-.02.21-.05.42-.06.63,0,.21-.02.42-.03.63v.64c.06.85.19,1.71.45,2.56.27.85.65,1.68,1.15,2.45l2.81.74-.03-2.84c-.38-.43-.71-.91-.98-1.46-.26-.55-.46-1.15-.59-1.77l-.08-.48c-.02-.16-.03-.32-.05-.48-.02-.16-.02-.33-.03-.49,0-.16-.02-.33,0-.49,0-.66.09-1.33.25-1.97l.06-.24c.02-.08.05-.16.07-.24.05-.16.09-.32.16-.47l.09-.23c.03-.08.06-.15.1-.23l.11-.22.05-.11.03-.06.04-.08c.23-.4.39-.84.48-1.28.09-.44.13-.87.11-1.3-.03-.85-.23-1.64-.5-2.38-.14-.37-.3-.73-.47-1.08-.18-.35-.36-.68-.59-1.02l-.67.39Z"/><path class="cls-58" d="m461.09,332.06c-.2.85-.45,1.57-.71,2.48,14.98,4.36,19.53,4.47,32.5-4.7,2.93-2.07-.1-4.64-3.51-2.08-11.69,8.77-14.34,7-28.28,4.3Z"/></g><g><polygon class="cls-51" points="275.15 165.81 261.44 180.33 296.61 207.62 310.44 191.53 275.15 165.81"/><path class="cls-51" d="m320.37,185.09c-7.94-3.44-24.76-4.75-25.23-4.42l-7.61,20.32c1.04,2.73,4.61,6.28,7.97,8.48,3.45,2.26,7.44,3.57,11.55,3.85l7.68.52,5.95-6.67,4.38-7.76,3.21-11.93-7.9-2.39Z"/><path class="cls-51" d="m337.97,203.3l-13.96-8.78c-1.64-1.03-2.13-3.2-1.1-4.84h0c1.03-1.64,3.2-2.13,4.84-1.1l13.96,8.78c1.64,1.03,2.13,3.2,1.1,4.84h0c-1.03,1.64-3.2,2.13-4.84,1.1Z"/><path class="cls-51" d="m324.03,220.41l-7.61-14.63c-.89-1.72-.23-3.84,1.49-4.73h0c1.72-.89,3.84-.23,4.73,1.49l7.61,14.63c.89,1.72.23,3.84-1.49,4.73h0c-1.72.89-3.84.23-4.73-1.49Z"/><path class="cls-51" d="m315.61,221.61l-6.31-12.13c-.89-1.72-.23-3.84,1.49-4.73h0c1.72-.89,3.84-.23,4.73,1.49l6.31,12.13c.89,1.72.23,3.84-1.49,4.73h0c-1.72.89-3.84.23-4.73-1.49Z"/><path class="cls-51" d="m319.03,223.86l-4.9.03c-1.68.01-3.05-1.34-3.06-3.02h0c0-1.54,1.14-2.85,2.67-3.03l4.9-.6c1.8-.22,3.4,1.18,3.41,3v.57c.01,1.68-1.34,3.05-3.02,3.06Z"/><path class="cls-51" d="m347.41,210.8l-9.32-7.43c-1.52-1.21-1.77-3.42-.56-4.93h0c1.21-1.52,3.42-1.77,4.93-.56l9.32,7.43c1.52,1.21,1.77,3.42.56,4.93h0c-1.21,1.52-3.42,1.77-4.93.56Z"/><path class="cls-51" d="m327.66,218.11l4.02-4.83h0c1.35-1.42,3.62-1.41,4.96.03h0c1.28,1.38,1.2,3.53-.18,4.8l-5.74,5.33c-.89.82-2.29.74-3.06-.2h0c-1.24-1.49-1.24-3.65,0-5.14Z"/><path class="cls-51" d="m312.25,216.43l3.07,3.26h0c.89,1.08.69,2.68-.44,3.5h0c-1.08.78-2.6.54-3.38-.54l-3.27-4.52c-.51-.7-.32-1.68.4-2.15h0c1.16-.75,2.69-.56,3.63.44Z"/><path class="cls-51" d="m331.11,209.33l-12.64-10.6c-1.49-1.25-1.68-3.46-.43-4.95h0c1.25-1.49,3.46-1.68,4.95-.43l12.64,10.6c1.49,1.25,1.68,3.46.43,4.95h0c-1.25,1.49-3.46,1.68-4.95.43Z"/><path class="cls-51" d="m330.9,215.54l-.88-8.2c-.21-1.93,1.19-3.66,3.12-3.86h0c1.93-.21,3.66,1.19,3.86,3.12l.88,8.2c.21,1.93-1.19,3.66-3.12,3.86h0c-1.93.21-3.66-1.19-3.86-3.12Z"/><path class="cls-51" d="m318.19,218.21l7.65-3.08c1.8-.72,3.84.15,4.57,1.94h0c.72,1.8-.15,3.84-1.94,4.57l-7.65,3.08c-1.8.72-3.84-.15-4.57-1.94h0c-.72-1.8.15-3.84,1.94-4.57Z"/><path class="cls-51" d="m336.57,186.92l-18.6,6.33c-.94.32-1.96-.21-2.24-1.17l-1.25-4.33c-.27-.92.27-1.89,1.19-2.16l21.96-6.34c.92-.27,1.89.27,2.16,1.19l.06.2c.76,2.63-.68,5.39-3.27,6.27Z"/><polygon class="cls-96" points="285.14 171.89 272.11 190.92 155.54 108.64 201.43 108.35 285.14 171.89"/><path class="cls-51" d="m352.82,215.1l-5.08-4.07h0c-1.5-1.37-1.53-3.72-.07-5.13h0c1.4-1.35,3.63-1.31,4.98.09l5.63,5.83c.87.9.81,2.35-.14,3.17h0c-1.52,1.31-3.75,1.36-5.32.1Z"/></g><g><path class="cls-99" d="m180.59,214.89l-17.87,4.59,2.18,8.5,5.82-1.49-.78-3.04,4.03-1.03-1.09,7.02c2.42-.35,4.9-.33,7.31.09l1.52-10.3-1.11-4.33Z"/><path class="cls-93" d="m172.88,229.43l-1.57,10.1,7.7-1.98,1.18-8.04c-2.41-.42-4.89-.44-7.31-.09Z"/><path class="cls-99" d="m192.18,219.77l-1.07.28-.38-2.1,8.08-2.08-1.36-5.31-13.87,3.56,2.21,12.95,6.06-1.55c2.54-.65,3.32-.22,3.54.68.28,1.07-.74,1.94-2.32,2.35-1.76.45-3.91.5-5.97-.09l-.47,2.59c1.1.2,2.2.3,3.31.19,3.86-.37,7.01-3.1,10.37-5.04.74-.43,1.5-.81,2.27-1.17-.04-.27-.09-.53-.16-.8-.95-3.7-4.06-6.05-10.24-4.46Z"/><path class="cls-93" d="m189.93,231.23c-1.11.11-2.21,0-3.31-.19l-.58,3.21c2.56.68,5.85.5,8.72-.23,6.21-1.6,8.32-5.46,7.82-8.99-.78.35-1.54.74-2.27,1.17-3.36,1.94-6.51,4.66-10.37,5.04Z"/><path class="cls-99" d="m208,219.94c3.16-.81,5.01-3.51,4.05-7.24-.95-3.7-3.88-5.2-7.04-4.39-3.16.81-5,3.54-4.05,7.24.96,3.73,3.88,5.2,7.04,4.39Zm-2.16-8.41c.66-.17,1.47.26,1.98,2.26.51,2,.01,2.76-.65,2.93-.66.17-1.47-.26-1.98-2.26-.51-2-.01-2.76.65-2.93Z"/><path class="cls-99" d="m222.84,214.22c-3.16.81-5,3.54-4.05,7.24.16.6.37,1.14.62,1.63.02,0,.03,0,.05,0,1.47.3,2.95.73,4.44.61,1.9-.15,3.63-1.17,5.13-2.35.38-.3.75-.62,1.1-.94,0-.57-.08-1.17-.25-1.8-.95-3.7-3.88-5.2-7.04-4.39Zm2.16,8.41c-.66.17-1.47-.26-1.98-2.26-.51-2-.01-2.76.65-2.93.66-.17,1.47.26,1.98,2.26.51,2,.01,2.76-.65,2.93Z"/><path class="cls-93" d="m223.89,223.71c-1.5.12-2.97-.31-4.44-.61-.02,0-.03,0-.05,0,1.3,2.51,3.77,3.45,6.42,2.76,2.63-.67,4.34-2.65,4.3-5.44-.36.32-.72.64-1.1.94-1.5,1.19-3.23,2.2-5.13,2.35Z"/><path class="cls-93" d="m211.09,222.71l-2.64,7.28,5.04-1.29,2.21-6.1c-1.54-.09-3.08-.05-4.61.11Z"/><path class="cls-99" d="m217.34,205.46l-6.26,17.26c1.53-.16,3.08-.2,4.61-.11l6.69-18.44-5.04,1.29Z"/></g><path class="cls-91" d="m124.97,356.15c-1.53-5.12.25-8.75,5.16-10.22,4.91-1.47,8.39.59,9.92,5.71l4.89,16.36c1.53,5.12-.25,8.75-5.16,10.22-4.91,1.47-8.39-.59-9.92-5.71l-4.89-16.36Zm9.98,15.23c.66,2.2,1.86,2.85,3.5,2.36s2.28-1.69,1.63-3.89l-5.11-17.07c-.66-2.21-1.93-2.83-3.5-2.37s-2.28,1.69-1.62,3.9l5.11,17.07Zm14.92-30.97l4.62-1.38-4.74,55.67-4.62,1.38,4.74-55.67Zm5.23,26.57c-1.53-5.12.25-8.75,5.16-10.22,4.91-1.47,8.39.59,9.92,5.71l4.89,16.36c1.53,5.12-.25,8.75-5.16,10.22s-8.39-.59-9.92-5.71l-4.89-16.36Zm9.98,15.23c.66,2.2,1.86,2.85,3.5,2.36s2.28-1.69,1.63-3.89l-5.11-17.07c-.66-2.21-1.93-2.83-3.5-2.37s-2.28,1.69-1.62,3.9l5.11,17.07Z"/><path class="cls-99" d="m167.63,321.6c1.72-2.71,4.06-3.33,6.66-1.69s3.04,4.03,1.32,6.74l-5.48,8.66c-1.72,2.71-4.06,3.33-6.66,1.69s-3.04-4.03-1.32-6.74l5.48-8.66Zm-2.96,10.51c-.74,1.17-.56,1.97.31,2.51s1.66.37,2.4-.8l5.72-9.03c.74-1.17.52-1.99-.31-2.51s-1.67-.37-2.4.8l-5.72,9.03Zm19.89-5.44l2.45,1.55-27.07,19.77-2.45-1.55,27.07-19.77Zm-9.97,12.83c1.72-2.71,4.06-3.33,6.66-1.69,2.6,1.64,3.04,4.03,1.32,6.74l-5.48,8.66c-1.72,2.71-4.06,3.33-6.66,1.69s-3.04-4.03-1.32-6.74l5.48-8.66Zm-2.96,10.51c-.74,1.17-.56,1.97.31,2.51s1.66.37,2.4-.8l5.72-9.03c.74-1.17.52-1.99-.31-2.51s-1.67-.37-2.4.8l-5.72,9.03Z"/><path class="cls-58" d="m307.12,276.98c.07-1.66,1.13-2.54,3.04-2.46s2.89,1.04,2.82,2.7l-.22,5.31c-.07,1.66-1.13,2.54-3.04,2.46s-2.89-1.04-2.82-2.7l.22-5.31Zm1.71,5.5c-.03.71.32,1.03.95,1.06s1.01-.26,1.04-.97l.23-5.54c.03-.72-.35-1.03-.95-1.06s-1.01.26-1.04.97l-.23,5.54Zm8.95-7.54l1.8.07-8.29,15.84-1.8-.07,8.29-15.84Zm-1.31,8.34c.07-1.66,1.13-2.54,3.04-2.46s2.89,1.04,2.82,2.7l-.22,5.31c-.07,1.66-1.13,2.54-3.03,2.46s-2.89-1.04-2.82-2.7l.22-5.31Zm1.71,5.5c-.03.71.32,1.03.95,1.06s1.01-.26,1.04-.97l.23-5.54c.03-.72-.35-1.03-.95-1.06s-1.01.26-1.04.97l-.23,5.54Z"/><g><rect class="cls-39" x="172.04" y="178.01" width=".8" height="41.13" transform="translate(-88.23 163.71) rotate(-41.41)"/><rect class="cls-39" x="179.08" y="198.17" width="41.13" height=".8" transform="translate(-81.33 217.03) rotate(-48.6)"/><rect class="cls-39" x="185.64" y="183.09" width=".8" height="30.91"/><rect class="cls-39" x="176.29" y="198.14" width="34.25" height=".8" transform="translate(-69.07 287.58) rotate(-64.49)"/><rect class="cls-39" x="178.27" y="181.42" width=".8" height="34.24" transform="translate(-68.08 96.29) rotate(-25.51)"/><g><path class="cls-82" d="m213.24,183.15c-1.48-.93-3.23-1.47-5.11-1.47-2.95,0-5.6,1.33-7.37,3.43-.08-.09-.16-.18-.24-.27-1.76-1.94-4.3-3.16-7.12-3.16s-5.6,1.33-7.37,3.43c-1.77-2.09-4.41-3.43-7.37-3.43s-5.36,1.22-7.12,3.15c-.08.09-.17.18-.24.27-1.77-2.09-4.41-3.43-7.36-3.43-1.88,0-3.63.54-5.11,1.47.83-14.17,12.48-25.43,26.82-25.63.13,0,.26,0,.39,0s.26,0,.39,0c14.33.2,25.98,11.46,26.81,25.63Z"/><path class="cls-59" d="m200.79,180.56c0,1.46-.09,2.89-.26,4.28-1.76-1.94-4.3-3.16-7.12-3.16s-5.6,1.33-7.37,3.43c-1.77-2.09-4.41-3.43-7.37-3.43s-5.36,1.22-7.12,3.15c-.17-1.38-.26-2.81-.26-4.27,0-12.52,6.39-22.72,14.36-23.04.13,0,.26,0,.39,0s.26,0,.39,0c7.97.33,14.36,10.52,14.36,23.04Z"/></g></g></g><g><g><rect class="cls-39" x="450.5" y="155.5" width="1" height="51.41" transform="translate(-7.1 343.62) rotate(-41.41)"/><rect class="cls-39" x="459.3" y="180.7" width="51.41" height="1" transform="translate(28.35 425.2) rotate(-48.6)"/><rect class="cls-39" x="467.5" y="161.85" width="1" height="38.63"/><rect class="cls-39" x="455.81" y="180.67" width="42.81" height="1" transform="translate(108.17 533.81) rotate(-64.49)"/><rect class="cls-39" x="458.28" y="159.76" width="1" height="42.8" transform="translate(-33.3 215.22) rotate(-25.51)"/><g><path class="cls-82" d="m502,161.93c-1.85-1.16-4.04-1.83-6.38-1.83-3.69,0-7,1.67-9.21,4.28-.1-.12-.19-.23-.3-.34-2.2-2.42-5.37-3.95-8.9-3.95s-7,1.67-9.21,4.28c-2.21-2.62-5.51-4.28-9.21-4.28s-6.7,1.52-8.9,3.94c-.1.11-.21.23-.3.34-2.21-2.62-5.51-4.28-9.2-4.28-2.35,0-4.54.67-6.39,1.83,1.04-17.71,15.6-31.79,33.52-32.04.16,0,.32,0,.49,0s.32,0,.49,0c17.91.25,32.47,14.33,33.51,32.04Z"/><path class="cls-59" d="m486.44,158.69c0,1.83-.11,3.62-.32,5.35-2.2-2.42-5.37-3.95-8.9-3.95s-7,1.67-9.21,4.28c-2.21-2.62-5.51-4.28-9.21-4.28s-6.7,1.52-8.9,3.94c-.21-1.73-.32-3.51-.32-5.34,0-15.66,7.99-28.4,17.95-28.8.16,0,.32,0,.49,0s.32,0,.49,0c9.96.41,17.95,13.15,17.95,28.8Z"/></g></g><g><path class="cls-99" d="m446.89,212.12l3.92-2.21c3.99-2.22,5.04-4.1,5.55-6.34.99-4.31-2.16-7.98-7.55-9.21-4.9-1.13-8.67.26-11.04,3l5.11,4.21c.99-1.21,2.46-1.65,3.83-1.34,1.46.34,2.05,1.19,1.8,2.29-.18.78-.61,1.6-2.5,2.7l-9.95,5.7-.19.81c1.64-.48,3.29-.56,4.88.09,2.9,1.2,4.67,4.62,7.77,5.14,2.22.37,4.04-.81,5.84-2.29l.19-.81-7.65-1.76Z"/><path class="cls-93" d="m448.52,216.97c-3.1-.52-4.86-3.95-7.77-5.14-1.58-.65-3.24-.56-4.88-.09l-.89,3.89,18.2,4.18,1.18-5.13c-1.8,1.47-3.62,2.66-5.84,2.29Z"/><path class="cls-99" d="m467.39,207.61l-1.17-.27.68-2.2,8.79,2.02,1.33-5.77-15.08-3.47-4.3,13.52.61.14c.43-.28.87-.53,1.33-.74,2.82-1.27,6.38-.66,8.61,1.48,1.75,1.68,2.66,4.1,4.43,5.75.47.44.98.8,1.52,1.1.4-.68.7-1.43.87-2.2.92-4.02-.9-7.82-7.61-9.37Z"/><path class="cls-93" d="m468.18,212.32c-2.23-2.14-5.79-2.75-8.61-1.48-.46.21-.9.46-1.33.74l5.98,1.37c2.76.63,3.29,1.44,3.07,2.41-.27,1.17-1.67,1.49-3.39,1.1-1.91-.44-4-1.47-5.69-3.05l-3.89,5.05c2.12,1.92,5.37,3.39,8.48,4.1,5.88,1.35,9.63-.49,11.34-3.39-.54-.3-1.06-.66-1.52-1.1-1.77-1.66-2.68-4.07-4.43-5.75Z"/><path class="cls-99" d="m482.49,215.62c3.44.79,6.55-.88,7.49-4.94.92-4.02-1.14-6.92-4.58-7.71-3.44-.79-6.56.92-7.49,4.94-.93,4.05,1.14,6.92,4.58,7.71Zm.03-6.65c.5-2.17,1.36-2.66,2.08-2.49.71.16,1.28.98.78,3.15-.5,2.17-1.36,2.66-2.08,2.49-.71-.16-1.28-.98-.78-3.15Z"/><path class="cls-93" d="m499.58,217.5c-3.44-.79-6.56.92-7.49,4.94-.93,4.05,1.14,6.92,4.58,7.71s6.56-.88,7.49-4.94c.92-4.02-1.14-6.92-4.58-7.71Zm-.03,6.65c-.5,2.17-1.36,2.66-2.08,2.49-.71-.16-1.28-.98-.78-3.15.5-2.17,1.36-2.66,2.08-2.49.71.16,1.28.98.78,3.15Z"/><path class="cls-99" d="m498.66,206.36l-14.07,12.99c3.29-1.18,6.31-3.07,9.55-4.41,1.03-.43,2.11-.79,3.21-1.05l6.79-6.27-5.48-1.26Z"/><path class="cls-93" d="m484.59,219.35l-6.66,6.15,5.48,1.26,13.94-12.87c-1.1.26-2.18.63-3.21,1.05-3.24,1.34-6.26,3.23-9.55,4.41Z"/></g></g></g></g></svg>