<?xml version="1.0" encoding="UTF-8"?><svg id="Layer_2" xmlns="http://www.w3.org/2000/svg" xmlns:xlink="http://www.w3.org/1999/xlink" viewBox="0 0 645.13 529.54"><defs><style>.cls-1{fill:none;}.cls-2{clip-path:url(#clippath);}.cls-3{fill:#fa8c91;}.cls-4{fill:#f7a509;}.cls-5{fill:#f7aa18;}.cls-6{fill:#f4ca96;}.cls-7{fill:#fac45f;}.cls-8{fill:#f9c155;}.cls-9{fill:#f8dcba;}.cls-10{fill:#eca043;}.cls-11{fill:#f1b770;}.cls-12{fill:#f8535b;}.cls-13{fill:#f6cfbe;}.cls-14{fill:#fbd386;}.cls-15{fill:#ebccb9;}.cls-16{fill:#f3cbb6;}.cls-17{fill:#fff;}.cls-18{fill:#ffc4c2;}.cls-19{fill:#fcb3b7;}.cls-20{fill:#fbf9f6;}.cls-21{fill:#fcbcbf;}.cls-22{fill:#e2ecef;}.cls-23,.cls-24{fill:#ff6584;}.cls-25{fill:#fed4ce;}.cls-26{fill:#febeb5;}.cls-27{fill:#7f8391;}.cls-28{fill:#a0616a;}.cls-29{fill:#9ed9db;}.cls-30{fill:#b5b5b5;}.cls-31{fill:#b8ced7;}.cls-32{fill:#b8697f;}.cls-33{fill:#9d9ea9;}.cls-34{fill:#336982;}.cls-35{fill:#8dc2c4;}.cls-36{fill:#84d6d9;}.cls-37{fill:#a6c2cd;}.cls-38{fill:#d7f1f2;}.cls-39{fill:#d8b19c;}.cls-40{fill:#bcf0f2;}.cls-41{fill:#ca8e9f;}.cls-42{fill:#d2e0e6;}.cls-43{fill:#cedee4;}.cls-44{fill:#d0f1f2;}.cls-45{fill:#dbdddd;}.cls-46{fill:#dff1f2;}.cls-47{fill:#e0ad8d;}.cls-48{fill:#e0eaee;}.cls-49{fill:#0ea2bd;}.cls-50{fill:#42475c;}.cls-51{fill:#373c54;}.cls-52{fill:#444;}.cls-53{fill:#3e445b;}.cls-54{fill:#3f435e;}.cls-55{fill:#3e809e;}.cls-56{fill:#1a1c2e;}.cls-57{fill:#6f728a;}.cls-58{fill:#88aebc;}.cls-59{fill:#9b9eaa;}.cls-60{fill:#626576;}.cls-61{fill:#292b3b;}.cls-62{fill:#2d334a;}.cls-63{fill:#383e56;}.cls-64{fill:#3b3e54;}.cls-65{fill:#5a5e80;}.cls-66{fill:#585c85;}.cls-67{fill:#5e617d;}.cls-68{fill:#7a7a79;}.cls-24{opacity:0;}</style><clipPath id="clippath"><rect class="cls-1" x="207.22" y="233.54" width="101.13" height="49.2"/></clipPath></defs><g id="Layer_1-2"><rect class="cls-24" width="645.13" height="529.54"/><g><g><path class="cls-49" d="m346.08,28.11c-24.8,0-66.99-9.49-68.78-9.89-1.14-.26-1.95-1.27-1.95-2.44s.81-2.18,1.95-2.44c1.78-.4,43.98-9.89,68.78-9.89,17.61,0,47.41,2.6,47.41,12.33s-29.8,12.33-47.41,12.33Zm-56.01-12.33c14.58,2.89,39.6,7.33,56.01,7.33,26.05,0,41.33-4.73,42.4-7.33-1.07-2.59-16.34-7.33-42.4-7.33-16.42,0-41.44,4.43-56.01,7.33Z"/><path class="cls-49" d="m346.08,52.86c-24.8,0-66.99-9.49-68.78-9.89-1.14-.26-1.95-1.27-1.95-2.44s.81-2.18,1.95-2.44c1.78-.4,43.98-9.89,68.78-9.89,17.61,0,47.41,2.6,47.42,12.33,0,9.73-29.8,12.33-47.42,12.33Zm-56.01-12.33c14.58,2.89,39.6,7.33,56.01,7.33,26.06,0,41.33-4.73,42.4-7.33-1.07-2.59-16.34-7.33-42.4-7.33-16.42,0-41.44,4.43-56.01,7.33Z"/><path class="cls-49" d="m277.86,43.03c-.14,0-.29-.01-.43-.04-19.56-3.41-29.47-8.42-29.47-14.89s9.87-11.46,29.34-14.87c1.36-.24,2.66.67,2.89,2.03.24,1.36-.67,2.66-2.03,2.89-18.49,3.24-25.2,7.72-25.2,9.94s6.75,6.73,25.33,9.96c1.36.24,2.27,1.53,2.03,2.89-.21,1.22-1.27,2.07-2.46,2.07Z"/><path class="cls-49" d="m277.86,18.2c-.14,0-.29-.01-.43-.04-19.56-3.41-29.47-8.42-29.47-14.89,0-1.38,1.12-2.5,2.5-2.5s2.5,1.12,2.5,2.5c0,2.23,6.75,6.73,25.33,9.96,1.36.24,2.27,1.53,2.03,2.89-.21,1.22-1.27,2.07-2.46,2.07Z"/><path class="cls-49" d="m346.08,77.69c-24.8,0-66.99-9.49-68.78-9.89-1.14-.26-1.95-1.27-1.95-2.44s.81-2.18,1.95-2.44c1.78-.4,43.98-9.89,68.78-9.89,17.61,0,47.42,2.6,47.42,12.33s-29.8,12.33-47.42,12.33Zm-56.01-12.33c14.58,2.89,39.6,7.33,56.01,7.33,26.06,0,41.33-4.73,42.4-7.33-1.07-2.59-16.34-7.33-42.4-7.33-16.42,0-41.44,4.43-56.01,7.33Zm98.44.07h0,0Z"/><path class="cls-49" d="m277.86,67.86c-.14,0-.29-.01-.43-.04-19.56-3.41-29.47-8.42-29.47-14.89s9.87-11.46,29.34-14.87c1.36-.24,2.66.67,2.89,2.03.24,1.36-.67,2.66-2.03,2.89-18.49,3.24-25.2,7.72-25.2,9.94s6.75,6.73,25.33,9.96c1.36.24,2.27,1.53,2.03,2.89-.21,1.22-1.27,2.07-2.46,2.07Z"/><path class="cls-49" d="m250.45,80.26c-1.38,0-2.5-1.12-2.5-2.5,0-6.46,9.87-11.46,29.34-14.87,1.36-.24,2.66.67,2.89,2.03.24,1.36-.67,2.66-2.03,2.89-18.49,3.24-25.2,7.72-25.2,9.94,0,1.38-1.12,2.5-2.5,2.5Z"/></g><g><path class="cls-49" d="m346.08,102.88c-24.8,0-66.99-9.49-68.78-9.89-1.14-.26-1.95-1.27-1.95-2.44s.81-2.18,1.95-2.44c1.78-.4,43.98-9.89,68.78-9.89,17.61,0,47.41,2.6,47.41,12.33s-29.8,12.33-47.41,12.33Zm-56.01-12.33c14.58,2.89,39.6,7.33,56.01,7.33,26.05,0,41.33-4.73,42.4-7.33-1.07-2.59-16.34-7.33-42.4-7.33-16.42,0-41.44,4.43-56.01,7.33Z"/><path class="cls-49" d="m346.08,127.62c-24.8,0-66.99-9.49-68.78-9.89-1.14-.26-1.95-1.27-1.95-2.44s.81-2.18,1.95-2.44c1.78-.4,43.98-9.89,68.78-9.89,17.61,0,47.41,2.6,47.42,12.33,0,9.73-29.8,12.33-47.42,12.33Zm-56.01-12.33c14.58,2.89,39.6,7.33,56.01,7.33,26.05,0,41.33-4.73,42.4-7.33-1.07-2.59-16.34-7.33-42.4-7.33-16.42,0-41.44,4.43-56.01,7.33Z"/><path class="cls-49" d="m277.86,117.79c-.14,0-.29-.01-.43-.04-19.56-3.41-29.47-8.42-29.47-14.89s9.87-11.46,29.34-14.87c1.36-.24,2.66.67,2.89,2.03.24,1.36-.67,2.66-2.03,2.89-18.49,3.24-25.2,7.72-25.2,9.94s6.75,6.73,25.33,9.96c1.36.24,2.27,1.53,2.03,2.89-.21,1.22-1.27,2.07-2.46,2.07Z"/><path class="cls-49" d="m277.86,92.96c-.14,0-.29-.01-.43-.04-19.56-3.41-29.47-8.42-29.47-14.89,0-1.38,1.12-2.5,2.5-2.5s2.5,1.12,2.5,2.5c0,2.23,6.75,6.73,25.33,9.96,1.36.24,2.27,1.53,2.03,2.89-.21,1.22-1.27,2.07-2.46,2.07Z"/><path class="cls-49" d="m346.08,152.45c-24.8,0-66.99-9.49-68.78-9.89-1.14-.26-1.95-1.27-1.95-2.44s.81-2.18,1.95-2.44c1.78-.4,43.98-9.89,68.78-9.89,17.61,0,47.42,2.6,47.42,12.33s-29.8,12.33-47.42,12.33Zm-56.01-12.33c14.58,2.89,39.6,7.33,56.01,7.33,26.06,0,41.33-4.73,42.4-7.33-1.07-2.59-16.34-7.33-42.4-7.33-16.42,0-41.44,4.43-56.01,7.33Z"/><path class="cls-49" d="m277.86,142.62c-.14,0-.29-.01-.43-.04-19.56-3.41-29.47-8.42-29.47-14.89s9.87-11.46,29.34-14.87c1.36-.24,2.66.67,2.89,2.03.24,1.36-.67,2.66-2.03,2.89-18.49,3.24-25.2,7.72-25.2,9.94s6.75,6.73,25.33,9.96c1.36.24,2.27,1.53,2.03,2.89-.21,1.22-1.27,2.07-2.46,2.07Z"/><path class="cls-49" d="m250.45,155.03c-1.38,0-2.5-1.12-2.5-2.5,0-6.46,9.87-11.46,29.34-14.87,1.36-.24,2.66.67,2.89,2.03.24,1.36-.67,2.66-2.03,2.89-18.49,3.24-25.2,7.72-25.2,9.94,0,1.38-1.12,2.5-2.5,2.5Z"/></g><g><path class="cls-45" d="m587.99,295.45l-25.72-114.5s-3.75,7.94-12.01,25.4l-31.4,21.23-20.1,51.2-39.61,34.86-29.13-22.62-44.96-18.1-39.23-7.43-45.91-52.24-25.82-4.38-23.15-18.25-13.16,11.6-22.85,3.71-11.02,18.55-28.3,20.77-25.44,37.9-15.92-3.12-11.88,5.42-33.19,34.34-14.47-3.56s-36.16,29.37-68.64,56.56c-10.82,9.05-2.23,25.4,1.8,37.69,6.82,20.78,12.05,42.8,19.42,62.09h595.85c-6.9-28.3-35.16-177.13-35.16-177.13Z"/><g><path class="cls-40" d="m221.74,345.79c.42.47.82.94,1.19,1.43,1.49,1.9,2.69,3.93,3.61,6.05.5,1.14.91,2.3,1.25,3.49.67,2.37,1.01,4.8,1.04,7.23.01,1.24-.05,2.47-.2,3.7-.28,2.33-.86,4.62-1.73,6.83-.45,1.14-.98,2.27-1.59,3.35-1.17,2.1-2.62,4.07-4.37,5.85-.42.44-.87.87-1.34,1.29s-.94.82-1.43,1.19c-1.9,1.49-3.93,2.69-6.05,3.61-1.14.5-2.3.91-3.49,1.25-2.37.67-4.8,1.01-7.23,1.04-1.24.01-2.47-.05-3.7-.2-2.33-.28-4.62-.86-6.83-1.73-1.14-.45-2.27-.98-3.35-1.59-2.1-1.17-4.07-2.62-5.85-4.37-.44-.42-.87-.87-1.29-1.34-.42-.47-.82-.94-1.19-1.43-1.49-1.9-2.69-3.93-3.61-6.05-.5-1.14-.91-2.3-1.25-3.49-.67-2.37-1.01-4.8-1.04-7.23-.01-1.24.05-2.47.2-3.7.28-2.33.86-4.62,1.73-6.83.45-1.14.98-2.27,1.59-3.35,1.17-2.1,2.62-4.07,4.37-5.85.42-.44.87-.87,1.34-1.29.47-.42.94-.82,1.43-1.19,1.9-1.49,3.93-2.69,6.05-3.61,1.14-.5,2.3-.91,3.49-1.25,2.37-.67,4.8-1.01,7.23-1.04,1.24-.01,2.47.05,3.7.2,2.33.28,4.62.86,6.83,1.73,1.14.45,2.27.98,3.35,1.59,2.1,1.17,4.07,2.62,5.85,4.37.44.42.87.87,1.29,1.34Z"/><path class="cls-29" d="m209.33,359.41l13.74-4.9,3.47-1.24c.5,1.14.91,2.3,1.25,3.49l-3.47,1.24-13.96,4.98,18.47,1.01c.01,1.24-.05,2.47-.2,3.7l-3.67-.2-14.57-.79,13.19,6.25,3.32,1.57c-.45,1.14-.98,2.27-1.59,3.35l-3.31-1.57-13.4-6.35,12.34,13.77c-.42.44-.87.87-1.34,1.29s-.94.82-1.43,1.19l-12.19-13.6,4.91,13.75,1.23,3.46c-1.14.5-2.3.91-3.49,1.25l-1.24-3.46-4.98-13.96-.81,14.8-.2,3.67c-1.24.01-2.47-.05-3.7-.2l.19-3.66.8-14.58-6.25,13.19-1.57,3.32c-1.14-.45-2.27-.98-3.35-1.59l1.57-3.31,6.35-13.4-13.77,12.34c-.44-.42-.87-.87-1.29-1.34-.42-.47-.82-.94-1.19-1.43l13.6-12.19-13.75,4.91-3.46,1.23c-.5-1.14-.91-2.3-1.25-3.49l3.46-1.24,13.96-4.97-14.8-.81-3.66-.21c-.01-1.24.05-2.47.2-3.7l18.23,1-13.19-6.25-3.32-1.58c.45-1.14.98-2.27,1.59-3.35l3.31,1.57,13.4,6.35-12.34-13.77c.42-.44.87-.87,1.34-1.29.47-.42.94-.82,1.43-1.19l12.19,13.6-4.91-13.75-1.23-3.46c1.14-.5,2.3-.91,3.49-1.25l1.24,3.47,4.98,13.96.81-14.8.2-3.67c1.24-.01,2.47.05,3.7.2l-.2,3.67-.8,14.58,6.25-13.19,1.58-3.33c1.14.45,2.27.98,3.35,1.59l-1.57,3.32-6.35,13.39,13.77-12.34c.44.42.87.87,1.29,1.34.42.47.82.94,1.19,1.43l-13.6,12.19Z"/><circle class="cls-35" cx="201.06" cy="364.33" r="24.11" transform="translate(-43.39 27.57) rotate(-7.08)"/><circle class="cls-29" cx="201.06" cy="364.33" r="22.75"/><path class="cls-35" d="m200.89,378.32l-.99,4.1-5.21-1.26.95-3.91c-3.64-1.12-6.98-2.98-8.86-4.88l4.34-5.67c2.09,2.03,5.11,3.74,7.96,4.43,2.47.6,3.48.3,3.7-.59.79-3.25-14.14-4.09-11.8-13.72,1.01-4.17,4.89-6.95,11.15-6.33l.97-4.02,5.21,1.26-.96,3.95c2.67.92,5.16,2.26,6.98,3.96l-4.15,5.68c-2.23-1.91-4.48-3.12-6.73-3.66-2.55-.62-3.54-.07-3.75.81-.75,3.1,14.16,3.98,11.86,13.5-.97,3.99-4.69,6.76-10.65,6.37Z"/></g><g><path class="cls-40" d="m108.69,304.95c.63-.04,1.24-.06,1.86-.05,2.41,0,4.75.33,6.99.92,1.2.31,2.37.71,3.51,1.19,2.27.94,4.39,2.18,6.31,3.67.98.76,1.91,1.58,2.78,2.46,1.65,1.67,3.09,3.54,4.29,5.59.62,1.06,1.18,2.17,1.64,3.33.92,2.21,1.56,4.58,1.87,7.05.09.61.14,1.22.18,1.85.04.63.06,1.24.05,1.86,0,2.41-.33,4.75-.92,6.99-.31,1.2-.71,2.37-1.19,3.51-.94,2.27-2.18,4.39-3.67,6.31-.76.98-1.58,1.91-2.46,2.78-1.67,1.65-3.54,3.09-5.59,4.29-1.06.62-2.17,1.18-3.33,1.64-2.21.92-4.58,1.56-7.05,1.87-.61.09-1.22.14-1.85.18-.63.04-1.24.06-1.86.05-2.41,0-4.75-.33-6.99-.92-1.2-.31-2.37-.71-3.51-1.19-2.27-.94-4.39-2.18-6.31-3.67-.98-.76-1.91-1.58-2.78-2.46-1.65-1.67-3.09-3.54-4.29-5.59-.62-1.06-1.18-2.17-1.64-3.33-.92-2.21-1.56-4.58-1.87-7.05-.09-.61-.14-1.22-.18-1.85-.04-.63-.06-1.24-.05-1.86,0-2.41.33-4.75.92-6.99.31-1.2.71-2.37,1.19-3.51.94-2.27,2.18-4.39,3.67-6.31.76-.98,1.58-1.91,2.46-2.78,1.67-1.65,3.54-3.09,5.59-4.29,1.06-.62,2.17-1.18,3.33-1.64,2.21-.92,4.58-1.56,7.05-1.87.61-.09,1.22-.14,1.85-.18Z"/><path class="cls-29" d="m111.67,323.13l4.68-13.82,1.18-3.48c1.2.31,2.37.71,3.51,1.19l-1.18,3.48-4.75,14.04,12.25-13.86c.98.76,1.91,1.58,2.78,2.46l-2.43,2.75-9.66,10.94,13.08-6.47,3.29-1.63c.62,1.06,1.18,2.17,1.64,3.33l-3.29,1.62-13.29,6.57,18.45-1.14c.09.61.14,1.22.18,1.85.04.63.06,1.24.05,1.86l-18.23,1.12,13.83,4.68,3.48,1.18c-.31,1.2-.71,2.37-1.19,3.51l-3.48-1.17-14.04-4.76,11.11,9.81,2.75,2.43c-.76.98-1.58,1.91-2.46,2.78l-2.75-2.42-10.94-9.67,6.47,13.08,1.63,3.29c-1.06.62-2.17,1.18-3.33,1.64l-1.62-3.29-6.57-13.29,1.14,18.45c-.61.09-1.22.14-1.85.18-.63.04-1.24.06-1.86.05l-1.12-18.23-4.68,13.83-1.18,3.48c-1.2-.31-2.37-.71-3.51-1.19l1.17-3.48,4.76-14.03-9.81,11.11-2.43,2.74c-.98-.76-1.91-1.58-2.78-2.46l12.09-13.68-13.08,6.47-3.3,1.62c-.62-1.06-1.18-2.17-1.64-3.33l3.29-1.62,13.29-6.57-18.45,1.14c-.09-.61-.14-1.22-.18-1.85-.04-.63-.06-1.24-.05-1.86l18.23-1.12-13.83-4.68-3.48-1.18c.31-1.2.71-2.37,1.19-3.51l3.48,1.18,14.04,4.75-11.11-9.81-2.75-2.43c.76-.98,1.58-1.91,2.46-2.78l2.75,2.43,10.94,9.67-6.47-13.08-1.63-3.3c1.06-.62,2.17-1.18,3.33-1.64l1.63,3.29,6.56,13.28-1.14-18.45c.61-.09,1.22-.14,1.85-.18.63-.04,1.24-.06,1.86-.05l1.12,18.23Z"/><circle class="cls-35" cx="110.4" cy="332.67" r="24.11" transform="translate(-172.85 126.2) rotate(-35.55)"/><circle class="cls-29" cx="110.4" cy="332.67" r="22.75" transform="translate(-224.91 434.77) rotate(-88.58)"/><path class="cls-35" d="m121.27,341.47l2.6,3.32-4.22,3.3-2.48-3.17c-3.13,2.16-6.67,3.63-9.33,3.92l-1.75-6.92c2.89-.38,6.11-1.69,8.41-3.49,2-1.57,2.39-2.55,1.83-3.27-2.06-2.63-11.97,8.55-18.09.75-2.65-3.38-2.42-8.14,1.95-12.67l-2.55-3.26,4.22-3.3,2.51,3.2c2.38-1.52,4.98-2.64,7.43-3.02l1.88,6.78c-2.88.57-5.23,1.58-7.05,3.01-2.06,1.62-2.25,2.73-1.69,3.45,1.97,2.51,11.9-8.64,17.95-.92,2.53,3.23,2.4,7.87-1.61,12.31Z"/></g><g><path class="cls-40" d="m103.96,365.08c-.06.62-.13,1.24-.23,1.84-.37,2.38-1.03,4.65-1.96,6.77-.49,1.14-1.06,2.24-1.7,3.29-1.27,2.11-2.82,4.01-4.57,5.69-.9.86-1.84,1.65-2.84,2.38-1.89,1.38-3.97,2.53-6.17,3.4-1.14.45-2.33.84-3.54,1.13-2.33.58-4.76.86-7.26.79-.61,0-1.23-.04-1.85-.1s-1.24-.13-1.84-.23c-2.38-.37-4.65-1.03-6.77-1.96-1.14-.49-2.24-1.06-3.29-1.7-2.11-1.27-4.01-2.82-5.69-4.57-.86-.9-1.65-1.84-2.38-2.84-1.38-1.89-2.53-3.97-3.4-6.17-.45-1.14-.84-2.33-1.13-3.54-.58-2.33-.86-4.76-.79-7.26,0-.61.04-1.23.1-1.85.06-.62.13-1.24.23-1.84.37-2.38,1.03-4.65,1.96-6.77.49-1.14,1.06-2.24,1.7-3.29,1.27-2.11,2.82-4.01,4.57-5.69.9-.86,1.84-1.65,2.84-2.38,1.89-1.38,3.97-2.53,6.17-3.4,1.14-.45,2.33-.84,3.54-1.13,2.33-.58,4.76-.86,7.26-.79.61,0,1.23.04,1.85.1.62.06,1.24.13,1.84.23,2.38.37,4.65,1.03,6.77,1.96,1.14.49,2.24,1.06,3.29,1.7,2.11,1.27,4.01,2.82,5.69,4.57.86.9,1.65,1.84,2.38,2.84,1.38,1.89,2.53,3.97,3.4,6.17.45,1.14.84,2.33,1.13,3.54.58,2.33.86,4.76.79,7.26,0,.61-.04,1.23-.1,1.85Z"/><path class="cls-29" d="m85.54,365.3l12.96,6.7,3.27,1.69c-.49,1.14-1.06,2.24-1.7,3.29l-3.27-1.69-13.17-6.8,11.87,14.19c-.9.86-1.84,1.65-2.84,2.38l-2.36-2.82-9.37-11.19,4.43,13.9,1.12,3.5c-1.14.45-2.33.84-3.54,1.13l-1.11-3.49-4.5-14.13-1.64,18.41c-.61,0-1.23-.04-1.85-.1s-1.24-.13-1.84-.23l1.62-18.19-6.7,12.97-1.69,3.26c-1.14-.49-2.24-1.06-3.29-1.7l1.68-3.27,6.81-13.17-11.37,9.51-2.82,2.36c-.86-.9-1.65-1.84-2.38-2.84l2.81-2.36,11.2-9.37-13.9,4.43-3.5,1.12c-.45-1.14-.84-2.33-1.13-3.54l3.49-1.11,14.13-4.5-18.41-1.64c0-.61.04-1.23.1-1.85.06-.62.13-1.24.23-1.84l18.19,1.62-12.97-6.7-3.26-1.69c.49-1.14,1.06-2.24,1.7-3.29l3.27,1.68,13.16,6.81-9.51-11.37-2.35-2.82c.9-.86,1.84-1.65,2.84-2.38l11.72,14.01-4.43-13.9-1.11-3.5c1.14-.45,2.33-.84,3.54-1.13l1.11,3.49,4.5,14.13,1.64-18.41c.61,0,1.23.04,1.85.1.62.06,1.24.13,1.84.23l-1.62,18.19,6.7-12.97,1.69-3.26c1.14.49,2.24,1.06,3.29,1.7l-1.69,3.27-6.8,13.17,11.37-9.51,2.82-2.36c.86.9,1.65,1.84,2.38,2.84l-2.82,2.36-11.2,9.37,13.9-4.43,3.51-1.12c.45,1.14.84,2.33,1.13,3.54l-3.5,1.12-14.12,4.5,18.41,1.64c0,.61-.04,1.23-.1,1.85s-.13,1.24-.23,1.84l-18.19-1.62Z"/><circle class="cls-35" cx="76.3" cy="362.61" r="24.11"/><circle class="cls-29" cx="76.3" cy="362.61" r="22.75"/><path class="cls-35" d="m65.96,372.04l-3.67,2.07-2.63-4.66,3.51-1.98c-1.67-3.42-2.59-7.13-2.48-9.81l7.11-.7c-.06,2.91.76,6.29,2.19,8.84,1.25,2.22,2.16,2.75,2.96,2.3,2.91-1.64-6.66-13.12,1.97-17.99,3.74-2.11,8.41-1.17,12.23,3.83l3.61-2.03,2.63,4.66-3.54,2c1.15,2.58,1.87,5.32,1.87,7.8l-6.98.84c-.13-2.94-.78-5.4-1.92-7.42-1.29-2.28-2.36-2.64-3.15-2.19-2.78,1.57,6.76,13.07-1.77,17.88-3.57,2.02-8.14,1.19-11.93-3.43Z"/></g><g><path class="cls-44" d="m567.2,95.64c-8.54,0-15.75,5.73-17.98,13.55h35.96c-2.23-7.83-9.44-13.55-17.98-13.55Z"/><path class="cls-44" d="m616.25,95.64c-8.54,0-15.75,5.73-17.98,13.55h35.96c-2.23-7.83-9.44-13.55-17.98-13.55Z"/><path class="cls-44" d="m592.88,89.83c-12.2,0-22.49,8.18-25.68,19.36h51.36c-3.19-11.18-13.48-19.36-25.68-19.36Z"/></g><g><path class="cls-45" d="m468.55,93.15c-14.03,0-25.86,9.41-29.53,22.26h59.06c-3.67-12.85-15.5-22.26-29.53-22.26Z"/><path class="cls-45" d="m549.11,93.15c-14.03,0-25.86,9.41-29.53,22.26h59.06c-3.67-12.85-15.5-22.26-29.53-22.26Z"/><path class="cls-45" d="m510.73,83.61c-20.04,0-36.94,13.44-42.18,31.8h84.36c-5.24-18.36-22.14-31.8-42.18-31.8Z"/></g><path class="cls-30" d="m534.82,436.01H107.68c-7.89,0-14.29-5.63-14.29-12.56s6.4-12.56,14.29-12.56h427.14c7.89,0,14.29,5.63,14.29,12.56s-6.4,12.56-14.29,12.56Z"/><g><path class="cls-17" d="m431.27,109.09c-6.57,0-12.1,4.4-13.82,10.42h27.64c-1.72-6.02-7.25-10.42-13.82-10.42Z"/><path class="cls-17" d="m468.97,109.09c-6.57,0-12.1,4.4-13.82,10.42h27.64c-1.72-6.02-7.25-10.42-13.82-10.42Z"/><path class="cls-17" d="m451.01,104.63c-9.38,0-17.29,6.29-19.74,14.88h39.48c-2.45-8.59-10.36-14.88-19.74-14.88Z"/></g><path class="cls-17" d="m475.89,207.96c2.07,0,3.74-1.67,3.74-3.74,0,2.07,1.67,3.74,3.74,3.74-2.07,0-3.74,1.67-3.74,3.74,0-2.07-1.67-3.74-3.74-3.74Z"/><path class="cls-17" d="m331.63,190.64c3.7,0,6.7-3,6.7-6.7,0,3.7,3,6.7,6.7,6.7-3.7,0-6.7,3-6.7,6.7,0-3.7-3-6.7-6.7-6.7Z"/><path class="cls-17" d="m209.42,281.58c3.7,0,6.7-3,6.7-6.7,0,3.7,3,6.7,6.7,6.7-3.7,0-6.7,3-6.7,6.7,0-3.7-3-6.7-6.7-6.7Z"/><path class="cls-17" d="m344.4,210.09c2.07,0,3.74-1.67,3.74-3.74,0,2.07,1.67,3.74,3.74,3.74-2.07,0-3.74,1.67-3.74,3.74,0-2.07-1.67-3.74-3.74-3.74Z"/><path class="cls-17" d="m28.18,384.23c2.07,0,3.74-1.67,3.74-3.74,0,2.07,1.67,3.74,3.74,3.74-2.07,0-3.74,1.67-3.74,3.74,0-2.07-1.67-3.74-3.74-3.74Z"/><polygon class="cls-67" points="63.59 320.45 57.64 315.1 71.96 299.18 83.98 303.52 113.85 275.97 133.35 263.27 144.65 267.24 164.77 232.82 189.54 215 204.38 192.98 230.33 188.3 248.98 169.4 278.07 191.58 308.91 196.32 355.61 251.67 389.72 257.4 437.66 275.81 458.69 292.43 486.02 269.05 504.7 218.16 541.33 194.93 563.87 152.62 570.93 156.38 547.4 200.55 511.27 223.47 492.81 273.77 458.89 302.78 433.66 282.85 387.6 265.15 351.39 259.07 350.44 257.95 304.73 203.77 274.84 199.18 249.73 180.03 234.25 195.72 209.12 200.25 195.38 220.66 170.82 238.32 148.22 276.97 134.41 272.12 118.78 282.31 85.83 312.7 74.31 308.53 63.59 320.45"/><polygon class="cls-67" points="569.93 148.06 558.85 156.43 571.03 161.91 569.93 148.06"/><g><g><polygon class="cls-49" points="185.74 308.25 185.74 168.14 451.36 168.14 465 154.5 172.1 154.5 172.1 321.89 172.13 321.89 185.77 308.25 185.74 308.25"/><polygon class="cls-55" points="465.02 154.5 465 154.5 451.36 168.14 451.38 168.14 451.38 308.25 185.77 308.25 172.13 321.89 465.02 321.89 465.02 154.5"/></g><path class="cls-34" d="m181.54,163.94v148.5h274.03v-148.5H181.54Zm269.83,144.31H185.74v-140.11h265.64v140.11Z"/></g><g><circle class="cls-66" cx="132.55" cy="267.04" r="3.4" transform="translate(-149.51 363.59) rotate(-82.5)"/><circle class="cls-18" cx="132.55" cy="267.04" r="1.71" transform="translate(-152.31 354.99) rotate(-80.76)"/></g><g><circle class="cls-66" cx="249.23" cy="175.19" r="3.4" transform="translate(-48.07 108.71) rotate(-22.5)"/><circle class="cls-18" cx="249.23" cy="175.19" r="1.71"/></g><g><circle class="cls-66" cx="306.47" cy="200.63" r="3.4"/><circle class="cls-18" cx="306.47" cy="200.63" r="1.71"/></g><g><circle class="cls-66" cx="507.7" cy="221.1" r="3.4"/><circle class="cls-18" cx="507.7" cy="221.1" r="1.71"/></g><g><circle class="cls-66" cx="388.75" cy="261.2" r="3.4"/><circle class="cls-18" cx="388.75" cy="261.2" r="1.71"/></g><g><path class="cls-44" d="m80.07,375.77c-22.15,0-40.83,14.86-46.63,35.15h93.25c-5.79-20.29-24.47-35.15-46.63-35.15Z"/><path class="cls-44" d="m207.28,375.77c-22.15,0-40.83,14.86-46.63,35.15h93.25c-5.79-20.29-24.47-35.15-46.63-35.15Z"/><path class="cls-44" d="m146.67,360.71c-31.64,0-58.33,21.22-66.6,50.21h133.2c-8.27-28.99-34.96-50.21-66.6-50.21Z"/></g><g><path class="cls-45" d="m232.46,402.32c-9.65,0-17.79,6.47-20.31,15.31h40.63c-2.52-8.84-10.66-15.31-20.31-15.31Z"/><path class="cls-45" d="m287.88,402.32c-9.65,0-17.79,6.47-20.31,15.31h40.63c-2.52-8.84-10.66-15.31-20.31-15.31Z"/><path class="cls-45" d="m261.48,395.76c-13.79,0-25.41,9.25-29.02,21.88h58.03c-3.6-12.63-15.23-21.88-29.02-21.88Z"/></g><path class="cls-28" d="m372.15,190.88c0-6.68,3.43-10.39,9.84-10.39s9.84,3.71,9.84,10.39v21.35c0,6.68-3.43,10.39-9.84,10.39s-9.84-3.71-9.84-10.39v-21.35Zm6.5,21.81c0,2.88,1.21,4.08,3.34,4.08s3.34-1.21,3.34-4.08v-22.27c0-2.88-1.3-4.09-3.34-4.09s-3.34,1.21-3.34,4.09v22.27Zm28.96-31.74h6.03l-25.62,64.97h-6.03l25.62-64.97Zm-3.25,33.69c0-6.68,3.43-10.39,9.84-10.39s9.84,3.71,9.84,10.39v21.35c0,6.68-3.43,10.39-9.84,10.39s-9.84-3.71-9.84-10.39v-21.35Zm6.5,21.81c0,2.88,1.21,4.08,3.34,4.08s3.34-1.21,3.34-4.08v-22.27c0-2.88-1.3-4.09-3.34-4.09s-3.34,1.21-3.34,4.09v22.27Z"/><g><path class="cls-17" d="m535.09,404.64c.1.01.2.02.31,0,.83-.06,1.46-.78,1.4-1.62l-.76-10.86c-.06-.83-.78-1.46-1.62-1.4-.83.06-1.46.78-1.4,1.62l.76,10.86c.05.73.61,1.3,1.31,1.39Z"/><path class="cls-61" d="m537.04,401.99s.92,3.9-.02,4-14.43.45-14.5-.18c-.26-2.14,10.77-4.06,11.85-3.84,1.08.22,2.55-.55,2.67.01Z"/><path class="cls-13" d="m497.61,252.93s-.67-7.77-2.31-8.86-1.83,6.38.93,10.2l1.38-1.34Z"/><path class="cls-68" d="m498.37,252.07c-1.15.54-2.28,1.01-3.39,1.51,7.5,18.02,17.21,24.63,36.31,23.47,2.92-.18,3.19-1.17,2.81-3.58.36-.28.36-.25,0,0-.39-2.41-1.05-2.81-4.02-2.63-19.39,1.15-21.41-2.42-31.71-18.77Z"/><path class="cls-17" d="m508.94,401.19c.1.01.2.02.31,0,.83-.06,1.46-.78,1.4-1.62l-.76-10.86c-.06-.83-.78-1.46-1.62-1.4-.83.06-1.46.78-1.4,1.62l.76,10.86c.05.73.61,1.3,1.31,1.39Z"/><path class="cls-68" d="m506.45,394.61c1.6.17,3.22.22,4.84.19-1.41-26.04-.51-60.63,15.33-82.71-3.61-2.4-7.25-4.76-10.9-7.11-12.02,19.47-10.26,67.26-9.27,89.63Z"/><path class="cls-68" d="m532.86,397.36c1.65-.26,3.3-.56,4.92-.98-8.83-24.81-12.72-62.55-7.16-88.74-4.3-.79-8.61-1.51-12.92-2.2-1.87,26.7,8.01,66.7,15.15,91.93Z"/><path class="cls-52" d="m511.12,399.13s1.91,3.52,1.03,3.86-13.8,4.23-14.04,3.64c-.81-1.99,9.33-6.75,10.43-6.82s2.31-1.2,2.58-.69Z"/><g><path class="cls-52" d="m511.66,311.07c2.22,0,5.01.24,8.54.86,5.19.91,8.08,2.1,10.04,3.19,7.21-12.69,10-23.51,10.81-33.7.17-2.14.17-4.06.07-5.75-.13-2.15-1.21-3.93-2.75-5.06-2.07-1.53-4.97-1.88-7.5-.42l-.94.55c-.09.05-.18.11-.27.17-2.26,1.43-3.58,3.95-3.53,6.64.1,5.61-2.77,15.16-14.47,33.54Z"/><path class="cls-17" d="m529.67,270.89l.35,7.38.22,4.54,3.34-5.01,4.8-7.2c-2.07-1.53-4.97-1.88-7.5-.42l-.94.55c-.09.05-.18.11-.27.17Z"/></g><path class="cls-13" d="m538.86,262.64c-2.26,3.98-6.87,5.63-9.3,4.24-2.43-1.38-1.77-5.28.5-9.25,2.26-3.98,5.39-4.88,7.82-3.5,2.43,1.38,3.25,4.53.99,8.51Z"/><path class="cls-13" d="m539.87,265.03c-.53.93-2.12,1.59-2.79,1.21-.67-.38-.41-1.23.12-2.15.53-.93,1.56-1.48,2.23-1.1.67.38.97,1.12.44,2.05Z"/><path class="cls-56" d="m540.88,260.44s.61-3.03-.86-5.08c-1.47-2.06-5.4-4.08-8.24-1.03,0,0-1.82,2.35,1.21,4.31,3.03,1.95,3.26-.02,4.08,2.32s2.8,1.84,2.92,2.34l.9-2.86Z"/><path class="cls-13" d="m538.11,262.69l-4.68-1.09c-.15.64-1.46,6.76-1.53,9.12.08.74,1.22,1.23,2.55,1.08,1.19-.13,2.12-.72,2.24-1.38h0c.04-1.42.9-5.5,1.42-7.74Z"/><path class="cls-56" d="m536.6,264.09c-.75-.72-1.37,0-3.01,1.06-1.63,1.05-4.68.99-5.13-2.97-.28-2.52-1.46,1.7-1.47,1.7-.16,2.09.47,3.31,1.91,4.13,1.99,1.13,5.04.77,7.66-1.01.37-1.04.54-2.43.03-2.92Z"/><path class="cls-56" d="m528.33,262.04s.06.03.17.08c.86.4,4.77,2.3,5.25,3.85.54,1.74-2.08-.56-2.89-1.64-.81-1.08-1.71-.88-2.53-1.07-.82-.19-1.26-1.18,0-1.21Z"/><g><polygon class="cls-44" points="525.58 259.32 528.96 254.06 517.19 245.32 512.73 252.28 525.58 259.32"/><polygon class="cls-44" points="528.96 254.06 525.58 259.33 528.61 262.46 533.07 255.51 528.96 254.06"/><polygon class="cls-38" points="511.61 254.64 518.87 243.32 492.74 224.48 483.58 238.76 511.61 254.64"/><polygon class="cls-46" points="483.7 242.18 495.9 223.16 452 191.51 436.62 215.51 483.7 242.18"/><path class="cls-65" d="m437.6,219.58l18.61-29.03c.73-1.14.4-2.66-.74-3.4l-.27-.18c-2.52-1.62-5.88-.88-7.5,1.64l-15.4,24.03c-1.62,2.52-.88,5.88,1.64,7.5l.27.18c1.14.73,2.66.4,3.4-.74Z"/><rect class="cls-65" x="476.46" y="229.81" width="23.56" height="3.71" transform="translate(29.7 517.67) rotate(-57.34)"/><path class="cls-65" d="m513.67,254.86l6.26-9.76c.45-.7.25-1.64-.46-2.09l-1.85-1.19-7.89,12.31,1.85,1.19c.7.45,1.64.25,2.09-.46Z"/></g><path class="cls-13" d="m519.64,265.82s5.19-6.34,4.76-8.35c-.43-2.02-6.06,3.45-6.78,8.35h2.02Z"/><polygon class="cls-23" points="530.02 278.27 530.24 282.81 533.58 277.8 533.92 272.81 532.58 272.63 530.02 278.27"/><path class="cls-68" d="m539.72,273.82c-3.46-1.33-3.52.13-5.67,3.02-14.32,19.22-18.87,4.75-13.22-10.94-1.28-.47-2.52-1.01-3.64-1.81-8.84,22.93,9.3,40.62,22.66,15.25,1.32-2.5,1.45-4.91-.13-5.52Z"/></g><g><rect class="cls-36" x="491.28" y="405.76" width="47.92" height="10.79" transform="translate(1030.49 822.3) rotate(-180)"/><rect class="cls-49" x="482.26" y="416.55" width="56.94" height="10.79" transform="translate(1021.46 843.88) rotate(-180)"/></g><rect class="cls-23" x="109.98" y="314.26" width="9.37" height="86.64"/><rect class="cls-49" x="87.65" y="282.26" width="9.37" height="118.63"/><rect class="cls-52" x="130.71" y="345.96" width="9.54" height="54.94"/><rect class="cls-13" x="65.31" y="351.74" width="9.37" height="49.16"/><rect class="cls-28" x="152.54" y="309.62" width="9.37" height="91.28"/></g><g><g><g><rect class="cls-20" x="202.72" y="229.32" width="110.13" height="58.03"/><g class="cls-2"><g><g><rect class="cls-39" x="203.04" y="230.95" width="106.9" height=".25"/><rect class="cls-39" x="203.04" y="233.41" width="106.9" height=".25"/><rect class="cls-39" x="203.04" y="235.87" width="106.9" height=".25"/><rect class="cls-39" x="203.04" y="238.33" width="106.9" height=".25"/><rect class="cls-39" x="203.04" y="240.79" width="106.9" height=".25"/><rect class="cls-39" x="203.04" y="243.25" width="106.9" height=".25"/><rect class="cls-39" x="203.04" y="245.71" width="106.9" height=".25"/><rect class="cls-39" x="203.04" y="248.17" width="106.9" height=".25"/><rect class="cls-39" x="203.04" y="250.63" width="106.9" height=".25"/><rect class="cls-39" x="203.04" y="253.09" width="106.9" height=".25"/><rect class="cls-39" x="203.04" y="255.55" width="106.9" height=".25"/><rect class="cls-39" x="203.04" y="258.01" width="106.9" height=".25"/><rect class="cls-39" x="203.04" y="260.47" width="106.9" height=".25"/><rect class="cls-39" x="203.04" y="262.93" width="106.9" height=".25"/><rect class="cls-39" x="203.04" y="265.39" width="106.9" height=".25"/><rect class="cls-39" x="203.04" y="267.85" width="106.9" height=".25"/><rect class="cls-39" x="203.04" y="270.31" width="106.9" height=".25"/><rect class="cls-39" x="203.04" y="272.77" width="106.9" height=".25"/><rect class="cls-39" x="203.04" y="275.23" width="106.9" height=".25"/><rect class="cls-39" x="203.04" y="277.69" width="106.9" height=".25"/><rect class="cls-39" x="203.04" y="280.15" width="106.9" height=".25"/><rect class="cls-39" x="203.04" y="282.61" width="106.9" height=".25"/></g><g><rect class="cls-39" x="207.16" y="227.04" width=".25" height="59.01"/><rect class="cls-39" x="209.62" y="227.04" width=".25" height="59.01"/><rect class="cls-39" x="212.08" y="227.04" width=".25" height="59.01"/><rect class="cls-39" x="214.54" y="227.04" width=".25" height="59.01"/><rect class="cls-39" x="217" y="227.04" width=".25" height="59.01"/><rect class="cls-39" x="219.46" y="227.04" width=".25" height="59.01"/><rect class="cls-39" x="221.92" y="227.04" width=".25" height="59.01"/><rect class="cls-39" x="224.38" y="227.04" width=".25" height="59.01"/><rect class="cls-39" x="226.84" y="227.04" width=".25" height="59.01"/><rect class="cls-39" x="229.3" y="227.04" width=".25" height="59.01"/><rect class="cls-39" x="231.76" y="227.04" width=".25" height="59.01"/><rect class="cls-39" x="234.22" y="227.04" width=".25" height="59.01"/><rect class="cls-39" x="236.68" y="227.04" width=".25" height="59.01"/><rect class="cls-39" x="239.14" y="227.04" width=".25" height="59.01"/><rect class="cls-39" x="241.6" y="227.04" width=".25" height="59.01"/><rect class="cls-39" x="244.06" y="227.04" width=".25" height="59.01"/><rect class="cls-39" x="246.52" y="227.04" width=".25" height="59.01"/><rect class="cls-39" x="248.98" y="227.04" width=".25" height="59.01"/><rect class="cls-39" x="251.44" y="227.04" width=".25" height="59.01"/><rect class="cls-39" x="253.9" y="227.04" width=".25" height="59.01"/><rect class="cls-39" x="256.36" y="227.04" width=".25" height="59.01"/><rect class="cls-39" x="258.82" y="227.04" width=".25" height="59.01"/></g><g><rect class="cls-39" x="261.48" y="227.04" width=".25" height="59.01"/><rect class="cls-39" x="263.94" y="227.04" width=".25" height="59.01"/><rect class="cls-39" x="266.4" y="227.04" width=".25" height="59.01"/><rect class="cls-39" x="268.86" y="227.04" width=".25" height="59.01"/><rect class="cls-39" x="271.32" y="227.04" width=".25" height="59.01"/><rect class="cls-39" x="273.78" y="227.04" width=".25" height="59.01"/><rect class="cls-39" x="276.24" y="227.04" width=".25" height="59.01"/><rect class="cls-39" x="278.7" y="227.04" width=".25" height="59.01"/><rect class="cls-39" x="281.16" y="227.04" width=".25" height="59.01"/><rect class="cls-39" x="283.62" y="227.04" width=".25" height="59.01"/><rect class="cls-39" x="286.08" y="227.04" width=".25" height="59.01"/><rect class="cls-39" x="288.54" y="227.04" width=".25" height="59.01"/><rect class="cls-39" x="291" y="227.04" width=".25" height="59.01"/><rect class="cls-39" x="293.46" y="227.04" width=".25" height="59.01"/><rect class="cls-39" x="295.92" y="227.04" width=".25" height="59.01"/><rect class="cls-39" x="298.38" y="227.04" width=".25" height="59.01"/><rect class="cls-39" x="300.84" y="227.04" width=".25" height="59.01"/><rect class="cls-39" x="303.3" y="227.04" width=".25" height="59.01"/><rect class="cls-39" x="305.76" y="227.04" width=".25" height="59.01"/><rect class="cls-39" x="308.22" y="227.04" width=".25" height="59.01"/><rect class="cls-39" x="310.68" y="227.04" width=".25" height="59.01"/><rect class="cls-39" x="313.14" y="227.04" width=".25" height="59.01"/></g></g></g></g><polygon class="cls-23" points="271.52 250.4 229.26 250.4 206.97 237.81 207.46 236.94 229.53 249.4 271.38 249.4 288.53 244.43 308.12 234.55 308.57 235.44 288.89 245.36 271.52 250.4"/><polygon class="cls-28" points="271.39 267.17 228.96 261.86 207.34 265.04 207.23 264.3 228.96 261.1 229.01 261.1 271.39 266.43 308.3 261.78 308.4 262.53 271.39 267.17"/><polygon class="cls-68" points="207.22 259.87 207.22 259.62 229.66 259.62 271.5 257.77 308.32 249.07 308.38 249.32 271.53 258.02 229.67 259.87 207.22 259.87"/><polygon class="cls-36" points="230.36 260.2 207.19 258.86 207.25 257.86 230.35 259.2 291.09 254.42 308.25 250.42 308.47 251.4 291.24 255.41 230.36 260.2"/><path class="cls-12" d="m228.89,249.9c0-.28.23-.51.51-.51s.51.23.51.51-.23.51-.51.51-.51-.23-.51-.51Z"/><path class="cls-58" d="m229.66,259.7c0-.28.23-.51.51-.51s.51.23.51.51-.23.51-.51.51-.51-.23-.51-.51Z"/><path class="cls-32" d="m228.38,261.48c0-.28.23-.51.51-.51s.51.23.51.51-.23.51-.51.51-.51-.23-.51-.51Z"/><path class="cls-58" d="m271,256.41c0-.28.23-.51.51-.51s.51.23.51.51-.23.51-.51.51-.51-.23-.51-.51Z"/><path class="cls-26" d="m271,257.93c0-.28.23-.51.51-.51s.51.23.51.51-.23.51-.51.51-.51-.23-.51-.51Z"/><path class="cls-12" d="m271,249.9c0-.28.23-.51.51-.51s.51.23.51.51-.23.51-.51.51-.51-.23-.51-.51Z"/><path class="cls-12" d="m288.21,244.9c0-.28.23-.51.51-.51s.51.23.51.51-.23.51-.51.51-.51-.23-.51-.51Z"/><g><rect class="cls-19" x="228.61" y="248.1" width="3.52" height=".4"/><rect class="cls-19" x="228.61" y="247.25" width="5.5" height=".4"/></g><g><rect class="cls-19" x="268.75" y="248.1" width="3.52" height=".4"/><rect class="cls-19" x="268.76" y="247.25" width="5.5" height=".4"/></g><g><rect class="cls-19" x="289.82" y="245.89" width="3.52" height=".4"/><rect class="cls-19" x="289.82" y="245.04" width="5.5" height=".4"/></g><g><rect class="cls-31" x="228.89" y="257.92" width="3.52" height=".4"/><rect class="cls-31" x="228.89" y="257.07" width="5.5" height=".4"/></g><g><rect class="cls-31" x="270.76" y="254.7" width="3.52" height=".4"/><rect class="cls-31" x="270.76" y="253.84" width="5.5" height=".4"/></g><g><rect class="cls-32" x="228.59" y="264.39" width="3.52" height=".4"/><rect class="cls-32" x="228.59" y="263.54" width="5.5" height=".4"/></g></g><g><path class="cls-25" d="m381.62,403.49c-7.7,0-14.2,5.17-16.21,12.22h32.43c-2.01-7.06-8.51-12.22-16.21-12.22Z"/><path class="cls-25" d="m460.64,397.71c-11.35,0-20.92,7.61-23.88,18h47.77c-2.97-10.39-12.54-18-23.88-18Z"/><path class="cls-25" d="m386.52,415.72c3.66-12.67,18.17-22.14,35.52-22.14s31.86,9.47,35.52,22.14h-71.04Z"/></g><g><path class="cls-27" d="m213.06,177.02c5.15,0,9.49,3.45,10.84,8.17h-21.67c1.35-4.72,5.69-8.17,10.84-8.17Z"/><path class="cls-27" d="m160.24,173.15c7.58,0,13.98,5.09,15.96,12.03h-31.93c1.98-6.95,8.38-12.03,15.96-12.03Z"/><path class="cls-27" d="m209.78,185.19c-2.45-8.47-12.15-14.8-23.74-14.8s-21.29,6.33-23.74,14.8h47.49Z"/></g><g><path class="cls-9" d="m304.19,209.03c-.14-.33-.27-.66-.38-.99-.45-1.3-.73-2.62-.83-3.93-.06-.71-.07-1.41-.03-2.11.08-1.4.34-2.77.77-4.09.22-.67.49-1.32.79-1.96.58-1.2,1.32-2.34,2.2-3.37.45-.53.95-1.04,1.48-1.51,1.02-.92,2.17-1.71,3.44-2.35.31-.16.63-.31.96-.45.33-.14.66-.27.99-.38,1.3-.45,2.62-.73,3.93-.83.71-.06,1.41-.07,2.11-.03,1.4.08,2.77.34,4.09.77.67.22,1.32.49,1.96.79,1.2.58,2.34,1.32,3.37,2.2.53.45,1.04.95,1.51,1.48.92,1.02,1.71,2.17,2.35,3.44.16.31.31.63.45.96.14.33.27.66.38.99.45,1.3.73,2.62.83,3.93.06.71.07,1.41.03,2.11-.08,1.4-.34,2.77-.77,4.09-.22.67-.49,1.32-.79,1.96-.58,1.2-1.32,2.34-2.2,3.37-.45.53-.95,1.04-1.48,1.51-1.02.92-2.17,1.71-3.44,2.35-.31.16-.63.31-.96.45-.33.14-.66.27-.99.38-1.3.45-2.62.73-3.93.83-.71.06-1.41.07-2.11.03-1.4-.08-2.77-.34-4.09-.77-.67-.22-1.32-.49-1.96-.79-1.2-.58-2.34-1.32-3.37-2.2-.53-.45-1.04-.95-1.51-1.48-.92-1.02-1.71-2.17-2.35-3.44-.16-.31-.31-.63-.45-.96Z"/><path class="cls-6" d="m313.4,203.98l-8.32.1-2.1.03c-.06-.71-.07-1.41-.03-2.11l2.1-.03,8.45-.11-9.78-3.96c.22-.67.49-1.32.79-1.96l1.94.79,7.72,3.12-5.96-5.81-1.5-1.46c.45-.53.95-1.04,1.48-1.51l1.5,1.46,6.05,5.9-4.11-9.71c.31-.16.63-.31.96-.45.33-.14.66-.27.99-.38l4.06,9.59-.1-8.33-.02-2.09c.71-.06,1.41-.07,2.11-.03l.03,2.1.1,8.45,3.17-7.83.79-1.94c.67.22,1.32.49,1.96.79l-.78,1.94-3.13,7.72,5.81-5.96,1.46-1.5c.53.45,1.04.95,1.51,1.48l-1.46,1.5-5.9,6.05,9.71-4.11c.16.31.31.63.45.96.14.33.27.66.38.99l-9.59,4.06,8.33-.1,2.09-.02c.06.71.07,1.41.03,2.11l-2.1.03-8.45.1,7.83,3.17,1.94.79c-.22.67-.49,1.32-.79,1.96l-9.65-3.91,5.96,5.81,1.5,1.46c-.45.53-.95,1.04-1.48,1.51l-1.5-1.46-6.05-5.9,4.11,9.71c-.31.16-.63.31-.96.45-.33.14-.66.27-.99.38l-4.06-9.59.1,8.33.02,2.09c-.71.06-1.41.07-2.11.03l-.03-2.1-.11-8.45-3.17,7.83-.79,1.94c-.67-.22-1.32-.49-1.96-.79l.79-1.94,3.13-7.72-5.81,5.96-1.47,1.5c-.53-.45-1.04-.95-1.51-1.48l1.46-1.5,5.9-6.05-9.71,4.11c-.16-.31-.31-.63-.45-.96-.14-.33-.27-.66-.38-.99l9.59-4.06Z"/><circle class="cls-11" cx="318.78" cy="202.85" r="13.75" transform="translate(41.66 459.7) rotate(-75.3)"/><circle class="cls-9" cx="318.78" cy="202.85" r="12.97"/><path class="cls-11" d="m321.45,195.33l1.29-2.03,2.58,1.64-1.23,1.94c1.76,1.27,3.21,2.9,3.88,4.27l-3.39,2.26c-.75-1.48-2.07-2.96-3.47-3.86-1.22-.78-1.83-.8-2.11-.37-1.03,1.61,6.87,4.82,3.83,9.59-1.32,2.06-3.92,2.84-7.19,1.35l-1.27,1.99-2.58-1.64,1.25-1.95c-1.27-.99-2.36-2.18-3.03-3.42l3.29-2.3c.85,1.44,1.84,2.51,2.96,3.22,1.26.8,1.9.69,2.18.26.98-1.53-6.91-4.76-3.9-9.48,1.26-1.97,3.78-2.78,6.92-1.47Z"/></g><g><path class="cls-9" d="m267.08,387.41c-.32.15-.65.29-.98.41-1.28.5-2.59.81-3.91.96-.7.08-1.41.11-2.11.1-1.4-.03-2.78-.25-4.11-.64-.68-.2-1.34-.44-1.98-.73-1.22-.54-2.38-1.24-3.44-2.09-.55-.44-1.07-.91-1.56-1.43-.95-.99-1.78-2.11-2.46-3.36-.17-.3-.33-.62-.48-.94s-.29-.65-.41-.98c-.5-1.28-.81-2.59-.96-3.91-.08-.7-.11-1.41-.1-2.11.03-1.4.25-2.78.64-4.11.2-.68.44-1.34.73-1.98.54-1.22,1.24-2.38,2.09-3.44.44-.55.91-1.07,1.43-1.56.99-.95,2.11-1.78,3.36-2.46.3-.17.62-.33.94-.48.32-.15.65-.29.98-.41,1.28-.5,2.59-.81,3.91-.96.7-.08,1.41-.11,2.11-.1,1.4.03,2.78.25,4.11.64.68.2,1.34.44,1.98.73,1.22.54,2.38,1.24,3.44,2.09.55.44,1.07.91,1.56,1.43.95.99,1.78,2.11,2.46,3.36.17.3.33.62.48.94.15.32.29.65.41.98.5,1.28.81,2.59.96,3.91.08.7.11,1.41.1,2.11-.03,1.4-.25,2.78-.64,4.11-.2.68-.44,1.34-.73,1.98-.54,1.22-1.24,2.38-2.09,3.44-.44.55-.91,1.07-1.43,1.56-.99.95-2.11,1.78-3.36,2.46-.3.17-.62.33-.94.48Z"/><path class="cls-6" d="m261.73,378.36l.37,8.31.09,2.1c-.7.08-1.41.11-2.11.1l-.09-2.1-.38-8.45-3.64,9.9c-.68-.2-1.34-.44-1.98-.73l.72-1.97,2.87-7.81-5.62,6.14-1.41,1.55c-.55-.44-1.07-.91-1.56-1.43l1.41-1.54,5.7-6.24-9.57,4.42c-.17-.3-.33-.62-.48-.94s-.29-.65-.41-.98l9.46-4.37-8.32.37-2.09.09c-.08-.7-.11-1.41-.1-2.11l2.09-.1,8.45-.38-7.93-2.92-1.97-.72c.2-.68.44-1.34.73-1.98l1.96.72,7.81,2.87-6.14-5.62-1.55-1.41c.44-.55.91-1.07,1.43-1.56l1.54,1.41,6.24,5.7-4.42-9.57c.3-.17.62-.33.94-.48.32-.15.65-.29.98-.41l4.37,9.46-.37-8.32-.09-2.09c.7-.08,1.41-.11,2.11-.1l.1,2.09.37,8.44,2.92-7.93.73-1.96c.68.2,1.34.44,1.98.73l-3.6,9.77,5.62-6.14,1.42-1.55c.55.44,1.07.91,1.56,1.43l-1.41,1.54-5.7,6.24,9.57-4.42c.17.3.33.62.48.94.15.32.29.65.41.98l-9.46,4.37,8.32-.37,2.09-.09c.08.7.11,1.41.1,2.11l-2.1.09-8.44.38,7.93,2.92,1.97.72c-.2.68-.44,1.34-.73,1.98l-1.97-.72-7.81-2.87,6.14,5.62,1.55,1.42c-.44.55-.91,1.07-1.43,1.56l-1.55-1.41-6.24-5.7,4.42,9.57c-.3.17-.62.33-.94.48-.32.15-.65.29-.98.41l-4.37-9.46Z"/><circle class="cls-11" cx="260.43" cy="373.03" r="13.75" transform="translate(-182.66 269.86) rotate(-41.97)"/><circle class="cls-9" cx="260.43" cy="373.03" r="12.97" transform="translate(-113.17 113.43) rotate(-20.29)"/><path class="cls-11" d="m252.83,370.6l-2.07-1.23,1.56-2.63,1.98,1.17c1.22-1.8,2.79-3.31,4.14-4.02l2.37,3.32c-1.46.8-2.89,2.16-3.75,3.6-.74,1.25-.74,1.85-.3,2.12,1.64.97,4.59-7.02,9.46-4.14,2.11,1.25,2.97,3.83,1.59,7.14l2.03,1.2-1.56,2.63-1.99-1.18c-.95,1.3-2.1,2.43-3.32,3.14l-2.4-3.21c1.41-.9,2.45-1.92,3.12-3.06.76-1.29.63-1.92.19-2.18-1.57-.93-4.54,7.06-9.35,4.21-2.01-1.19-2.9-3.69-1.69-6.87Z"/></g><g><path class="cls-9" d="m343.3,211.21c-.51-.05-1.01-.11-1.5-.2-1.94-.31-3.78-.86-5.5-1.63-.93-.4-1.82-.87-2.67-1.4-1.71-1.04-3.25-2.31-4.61-3.75-.69-.73-1.33-1.51-1.92-2.33-1.11-1.55-2.04-3.24-2.74-5.04-.36-.93-.67-1.9-.9-2.88-.46-1.9-.68-3.88-.61-5.91,0-.5.04-1,.09-1.51.05-.51.11-1.01.2-1.5.31-1.94.86-3.78,1.63-5.5.4-.93.87-1.82,1.4-2.67,1.04-1.71,2.31-3.25,3.75-4.61.73-.69,1.51-1.33,2.33-1.92,1.55-1.11,3.24-2.04,5.04-2.74.93-.36,1.9-.67,2.88-.9,1.9-.46,3.88-.68,5.91-.61.5,0,1,.04,1.51.09.51.05,1.01.11,1.5.2,1.94.31,3.78.86,5.5,1.63.93.4,1.82.87,2.67,1.4,1.71,1.04,3.25,2.31,4.61,3.75.69.73,1.33,1.51,1.92,2.33,1.11,1.55,2.04,3.24,2.74,5.04.36.93.67,1.9.9,2.88.46,1.9.68,3.88.61,5.91,0,.5-.04,1-.09,1.51-.05.51-.11,1.01-.2,1.5-.31,1.94-.86,3.78-1.63,5.5-.4.93-.87,1.82-1.4,2.67-1.04,1.71-2.31,3.25-3.75,4.61-.73.69-1.51,1.33-2.33,1.92-1.55,1.11-3.24,2.04-5.04,2.74-.93.36-1.9.67-2.88.9-1.9.46-3.88.68-5.91.61-.5,0-1-.04-1.51-.09Z"/><path class="cls-6" d="m343.2,196.21l-5.51,10.52-1.39,2.65c-.93-.4-1.82-.87-2.67-1.4l1.39-2.65,5.59-10.69-11.6,9.59c-.69-.73-1.33-1.51-1.92-2.33l2.3-1.91,9.15-7.57-11.33,3.55-2.85.9c-.36-.93-.67-1.9-.9-2.88l2.85-.89,11.52-3.6-14.98-1.42c0-.5.04-1,.09-1.51.05-.51.11-1.01.2-1.5l14.8,1.4-10.53-5.51-2.65-1.39c.4-.93.87-1.82,1.4-2.67l2.65,1.38,10.69,5.6-7.69-9.29-1.91-2.3c.73-.69,1.51-1.33,2.33-1.92l1.91,2.3,7.57,9.15-3.55-11.33-.9-2.85c.93-.36,1.9-.67,2.88-.9l.89,2.85,3.6,11.52,1.42-14.98c.5,0,1,.04,1.51.09.51.05,1.01.11,1.5.2l-1.4,14.8,5.51-10.53,1.39-2.65c.93.4,1.82.87,2.67,1.4l-1.38,2.65-5.6,10.68,9.29-7.69,2.3-1.9c.69.73,1.33,1.51,1.92,2.33l-11.45,9.47,11.33-3.55,2.85-.89c.36.93.67,1.9.9,2.88l-2.85.89-11.52,3.6,14.98,1.42c0,.5-.04,1-.09,1.51-.05.51-.11,1.01-.2,1.5l-14.8-1.4,10.53,5.51,2.65,1.39c-.4.93-.87,1.82-1.4,2.67l-2.65-1.39-10.69-5.59,7.69,9.29,1.91,2.3c-.73.69-1.51,1.33-2.33,1.92l-1.91-2.3-7.57-9.15,3.55,11.33.9,2.86c-.93.36-1.9.67-2.88.9l-.9-2.85-3.6-11.51-1.42,14.98c-.5,0-1-.04-1.51-.09-.51-.05-1.01-.11-1.5-.2l1.4-14.8Z"/><circle class="cls-11" cx="345.43" cy="188.71" r="19.62"/><circle class="cls-9" cx="345.43" cy="188.71" r="18.51"/><path class="cls-11" d="m337.8,180.25l-1.67-3,3.81-2.12,1.59,2.86c2.79-1.34,5.82-2.07,7.99-1.98l.53,5.79c-2.37-.06-5.12.59-7.2,1.75-1.81,1.01-2.25,1.75-1.89,2.4,1.32,2.38,10.71-5.36,14.63,1.69,1.7,3.05.91,6.85-3.17,9.94l1.64,2.94-3.81,2.12-1.61-2.89c-2.1.92-4.33,1.49-6.35,1.49l-.65-5.69c2.39-.09,4.4-.61,6.05-1.53,1.86-1.04,2.16-1.91,1.8-2.56-1.26-2.27-10.66,5.44-14.54-1.52-1.62-2.92-.93-6.63,2.85-9.69Z"/></g><g><ellipse class="cls-11" cx="408.9" cy="305.06" rx="51.32" ry="9.86" transform="translate(-38.8 549.66) rotate(-65.37)"/><ellipse class="cls-10" cx="418.37" cy="283.34" rx="8.39" ry="2.28" transform="translate(-72.47 163.38) rotate(-20.37)"/><path class="cls-10" d="m423.35,274.99c-2.83,1.05-5.35,1.28-5.63.51-.28-.77,1.77-2.24,4.6-3.29,2.83-1.05,5.35-1.28,5.63-.51.28.77-1.77,2.24-4.6,3.29Z"/><path class="cls-10" d="m413.61,297.58c-4.34,1.61-8.22,1.96-8.66.79s2.73-3.44,7.07-5.06,8.22-1.96,8.66-.79c.44,1.18-2.73,3.44-7.07,5.06Z"/><path class="cls-10" d="m408.83,309.09c-4.34,1.61-8.22,1.96-8.66.79-.44-1.18,2.73-3.44,7.07-5.06,4.34-1.61,8.22-1.96,8.66-.79s-2.73,3.44-7.07,5.06Z"/><ellipse class="cls-10" cx="401.98" cy="320.15" rx="8.39" ry="2.28" transform="translate(-86.31 159.98) rotate(-20.37)"/></g><g><path class="cls-36" d="m380.28,361.12s-13.8-.41-16.43-8.69c-2.63-8.28,2.44-14.15,1.41-15.31-1.03-1.16-4.56-5.4-.11-9.51,1.92-1.78-4.9-6.12-2.57-13.76,0,0,1.94-6.68,7.23-5.16,0,0-.03-6.03,5.65-8.71,5.68-2.68,9.5-1.43,9.5-1.43,0,0,1.54-4.22,8.2-3.4,6.67.82,7.07,7.95,5.82,10.03,0,0,4.43-.45,5.78,5.92,1.34,6.36-3.4,9.1-3.4,9.1,0,0,2.58.37,3.78,5.05s-2.17,8.12-4.44,10.45-1.9,4.49-2.05,8.93c-.15,4.44-4.62,18.05-18.36,16.48Z"/><path class="cls-22" d="m399.74,328.67l-2.04,3.38-.25.42-.27.41-.55.82-1.09,1.63-.27.41-.29.39-.59.79-1.17,1.57c-.4.51-.83,1-1.24,1.5-.42.49-.82,1.01-1.27,1.46l-1.32,1.4c-.45.46-.93.88-1.39,1.31-.24.21-.45.44-.7.64l-.73.59-.73.59-.76.53c-.25.18-.5.36-.76.53l-.79.46c-.3.19-.6.35-.91.49l.03-1.93c.03-1.19.03-2.39.08-3.58.12-2.27.27-4.54.46-6.81.03-.02.05-.04.08-.05.4-.28.78-.55,1.16-.84.38-.28.75-.57,1.11-.86.37-.29.72-.59,1.07-.89,1.41-1.2,2.73-2.45,4-3.74.62-.66,1.25-1.3,1.84-1.98l.89-1.01.86-1.03c.58-.67,1.11-1.4,1.66-2.09.54-.7,1.05-1.43,1.57-2.14l-.22-.21c-.71.52-1.41,1.05-2.13,1.55-.73.49-1.43,1-2.17,1.46l-1.1.7-1.11.67c-.73.45-1.5.85-2.24,1.27-1.47.78-2.95,1.49-4.45,2.13.02-.12.03-.24.05-.36.47-3.14,1.05-6.27,1.81-9.36.01,0,.03,0,.04,0,.35-.06.69-.13,1.02-.22.66-.16,1.29-.38,1.9-.61,1.22-.47,2.35-1.05,3.43-1.69l.79-.49c.26-.17.51-.35.77-.52.51-.34.99-.73,1.47-1.1.48-.38.93-.79,1.39-1.17l1.31-1.24-.18-.25-1.59.77c-.55.23-1.07.47-1.62.67-.55.2-1.08.41-1.64.57-.28.08-.55.17-.82.25l-.83.21c-1.1.25-2.2.43-3.28.49-.33.02-.66.02-.98.02.03-.11.06-.22.1-.33.36-1.14.75-2.27,1.13-3.42l.65-1.68.32-.84c.11-.28.24-.55.36-.83.94-2.21,2.01-4.39,3.38-6.37l-.23-.2c-1.69,1.8-3.09,3.84-4.37,5.94-.16.26-.33.52-.49.79l-.46.8-.91,1.61c-.56,1.1-1.13,2.19-1.67,3.31-.28.58-.55,1.17-.81,1.75-.42-1.05-.81-2.11-1.15-3.19-.37-1.2-.7-2.42-.93-3.66-.22-1.24-.36-2.5-.33-3.77l-.3-.04c-.31,1.27-.46,2.58-.51,3.9-.05,1.32.01,2.64.12,3.96.11,1.32.29,2.63.51,3.93.11.65.23,1.3.37,1.96.1.5.21.98.33,1.48-.95,2.49-1.81,5.01-2.59,7.57-.2.63-.39,1.26-.57,1.89-.08-.08-.15-.17-.23-.25-1.15-1.31-2.26-2.68-3.29-4.11-1.04-1.42-2.03-2.89-2.94-4.42-.93-1.52-1.75-3.1-2.55-4.72l-.29.1c.43,1.75.89,3.52,1.48,5.24.57,1.74,1.24,3.44,1.98,5.13.73,1.69,1.55,3.35,2.45,4.98.44.82.92,1.62,1.4,2.43.2.31.39.62.59.93-.58,2.41-1.09,4.84-1.59,7.27-.24,1.22-.42,2.45-.63,3.67l-.17,1c-.45-.25-.88-.51-1.3-.81-.79-.56-1.51-1.22-2.17-1.97l-.49-.58-.45-.62c-.07-.1-.15-.21-.22-.31l-.2-.33-.4-.67-.29.1.16.78.08.4c.03.13.07.26.11.39l.23.78.29.77c.41,1.02.93,2.02,1.58,2.96.65.93,1.42,1.81,2.25,2.6.08.08.16.15.25.22l-.81,6.38,8.91.31-.1-4.48c.37-.19.73-.39,1.08-.59.61-.41,1.24-.78,1.79-1.24l.84-.66c.27-.23.52-.47.79-.7l.78-.71.72-.75.72-.75c.24-.24.45-.52.67-.78.43-.53.89-1.04,1.3-1.58l1.2-1.64c.41-.54.75-1.12,1.12-1.68.36-.57.73-1.13,1.08-1.7l.99-1.75.49-.87.24-.44.22-.45.89-1.79.44-.89.22-.44.2-.46,1.6-3.63-.27-.13Z"/></g><g><g><rect class="cls-47" x="350.13" y="297.35" width="7.89" height="36.73"/><rect class="cls-47" x="385.71" y="297.35" width="7.89" height="36.73"/><polygon class="cls-15" points="393.5 297.35 350.15 297.35 358.04 289.46 385.62 289.46 393.5 297.35"/></g><polygon class="cls-15" points="422.96 420.99 320.77 420.99 327.18 320.46 416.55 320.46 422.96 420.99"/></g><g><rect class="cls-36" x="315.51" y="364.23" width="55.16" height="45.29" rx="16.35" ry="16.35"/><rect class="cls-37" x="339.87" y="364.23" width="6.44" height="45.29"/><polygon class="cls-48" points="343.09 370.66 332.21 358.61 353.98 358.61 343.09 370.66"/><polygon class="cls-17" points="343.09 370.66 353.98 358.61 353.98 374.31 343.09 370.66"/><polygon class="cls-17" points="343.09 370.66 332.21 358.61 332.21 374.31 343.09 370.66"/><circle class="cls-57" cx="343.09" cy="374.79" r=".81"/><circle class="cls-57" cx="343.09" cy="380.27" r=".81"/></g><g><rect class="cls-28" x="288.76" y="383.03" width="55.16" height="45.29" rx="16.35" ry="16.35"/><rect class="cls-41" x="313.12" y="383.03" width="6.44" height="45.29"/><polygon class="cls-48" points="316.34 389.46 305.45 377.41 327.23 377.41 316.34 389.46"/><polygon class="cls-17" points="316.34 389.46 327.23 377.41 327.23 393.11 316.34 389.46"/><polygon class="cls-17" points="316.34 389.46 305.45 377.41 305.45 393.11 316.34 389.46"/><circle class="cls-57" cx="316.34" cy="393.59" r=".81"/><circle class="cls-57" cx="316.34" cy="399.07" r=".81"/></g><g><g><path class="cls-50" d="m442.29,362.35v.07l-.04,9.31-.19,39.42-.05,9.61c0,2.08-1.7,3.75-3.78,3.74l-19.57-.09c-2.08-.01-3.75-1.7-3.74-3.78l.27-58.34c.03-5.96,3.89-11,9.24-12.78,1.37-.46,2.84-.71,4.37-.7,1.53,0,2.99.27,4.36.74,5.31,1.83,9.12,6.88,9.12,12.8Z"/><rect class="cls-50" x="424.46" y="327.52" width="8.73" height="33.17" transform="translate(1.62 -2.02) rotate(.27)"/></g><polygon class="cls-32" points="442.24 371.73 442.06 411.15 423.05 411.15 423.05 371.73 442.24 371.73"/></g><g><g><rect class="cls-33" x="437.73" y="380.87" width="27.61" height="46.42"/><path class="cls-60" d="m437.08,380.87h28.91c0,1.52-1.24,2.76-2.76,2.76h-23.4c-1.52,0-2.76-1.24-2.76-2.76h0Z"/><path class="cls-60" d="m437.08,424.99h28.91c0,1.52-1.24,2.76-2.76,2.76h-23.4c-1.52,0-2.76-1.24-2.76-2.76h0Z" transform="translate(903.06 852.74) rotate(-180)"/></g><g><path class="cls-64" d="m451.44,399.85s1.89-1.42,2.13-1.54c.54-.28,1.84-1.15,2.19-1.56,0,0-.61,1.33-.84,1.56s-1.35,1.13-1.35,1.13l-1.42.86-.7-.46Z"/><path class="cls-64" d="m450.32,399.61s-.84-1.14-.87-1.48c-.03-.34.03-2.32-.07-2.55,0,0,.69,1.53.7,2.01.01.49.78,1.3.95,1.68.17.38.14.67.14.67l-.85-.34Z"/><path class="cls-64" d="m453.15,395.78c-.22-.31-.66-.39-.97-.16l-.03.03h-.02s-.01.03-.01.03c-.02.02-.04.03-.05.05l-.02.02-.02.02-.02.02-.02.02c-.05.06-.1.11-.14.16-.08.1-.16.2-.23.3-.07.1-.13.2-.2.31-.06.1-.12.21-.18.32-.03.06-.06.12-.09.19,0,.02-.02.04-.02.06v.02s-.01.01-.01.01v.02s-.04.09-.04.09c-.02.06-.04.12-.06.18-.02.06-.04.12-.05.18-.03.12-.06.24-.08.37-.02.12-.04.25-.05.37-.01.12-.02.25-.02.37,0,.12,0,.25,0,.37.01.24.04.48.08.71.08.46.2.9.32,1.32.06.22.28.36.51.32.24-.04.41-.28.36-.52h0c-.08-.43-.14-.85-.17-1.25-.03-.4-.02-.79.06-1.16.04-.18.09-.36.15-.54.02-.04.03-.09.05-.13.02-.04.04-.09.06-.13l.03-.06v-.02s0,0,.01,0h0s0-.02,0-.02c.02-.03.04-.06.06-.1.05-.07.1-.15.16-.23.06-.08.12-.16.18-.23.06-.07.12-.15.18-.21.03-.03.06-.06.08-.08h0s0-.01,0-.01c0,0,0,0,0,0h0s0,0,0,0c0,0,0,0,0,0h0s0,0,0,0c.31-.22.39-.66.16-.97Z"/><path class="cls-64" d="m453.28,400.56s2.47-1.38,2.74-1.77c.84-1.17,2.5-1.4,2.5-1.4,0,0-.62-.34-1.44,0-.82.34-1.26,1.09-2.08,1.27-.81.17-3.57.82-3.68,1.66-.11.84,1.95.25,1.95.25Z"/><path class="cls-64" d="m450.1,400.31s-2.16-.51-2.39-1.76-1.5-2.36-1.5-2.36c0,0,.55.01,1.18.55.63.54.98,1.75,1.32,1.92s2.24.92,2.61,1.31c.37.39.21.89.21.89l-1.43-.54Z"/><g><path class="cls-23" d="m455.07,399.61c-.74,0-1.46.11-2.14.32-.91.28-1.88.28-2.79,0-.68-.21-1.4-.32-2.14-.32-4.35,0-7.87,3.53-7.87,8.32s3.92,9.04,8.27,9.04h6.27c4.35,0,8.27-4.25,8.27-9.04s-3.52-8.32-7.87-8.32Z"/><g><g><path class="cls-3" d="m447.74,414.67c-.2,0-.4-.03-.6-.11-1.29-.48-2.47-1.37-3.32-2.51-.43-.58-.77-1.2-1.01-1.86-.25-.7-.38-1.42-.38-2.14,0-1.5.45-2.85,1.29-3.9.86-1.07,2.13-1.81,3.65-2.14.93-.2,1.84.4,2.04,1.33.2.93-.4,1.84-1.33,2.04-.75.16-1.32.47-1.69.93-.35.44-.53,1.03-.53,1.74,0,.65.25,1.33.7,1.94.46.62,1.09,1.09,1.76,1.34.89.33,1.35,1.32,1.02,2.21-.26.69-.91,1.12-1.61,1.12Z"/><path class="cls-21" d="m445.77,404.11c.19.46.95.74.95.74,0,0,.35-.74.17-1.2-.19-.46-.53-.58-.84-.45s-.47.45-.28.91Z"/><path class="cls-21" d="m444.42,405.77c.43.25,1.21,0,1.21,0,0,0-.18-.8-.6-1.05-.43-.25-.77-.13-.94.16-.17.29-.09.65.33.89Z"/><path class="cls-21" d="m444.49,410.76c.48-.11.88-.82.88-.82,0,0-.67-.47-1.15-.36s-.66.43-.58.75c.07.33.37.53.85.42Z"/><path class="cls-21" d="m446.11,412.34c.34-.36.28-1.17.28-1.17,0,0-.82-.02-1.16.34-.34.36-.31.72-.07.95s.61.24.95-.11Z"/><path class="cls-21" d="m447.97,413.09c.18-.46-.18-1.19-.18-1.19,0,0-.76.29-.94.75-.18.46-.02.78.3.91.31.12.65,0,.83-.46Z"/></g><g><path class="cls-3" d="m455.29,414.67c.2,0,.4-.03.6-.11,1.29-.48,2.47-1.37,3.32-2.51.43-.58.77-1.2,1.01-1.86.25-.7.38-1.42.38-2.14,0-1.5-.45-2.85-1.29-3.9-.86-1.07-2.13-1.81-3.65-2.14-.93-.2-1.84.4-2.04,1.33-.2.93.4,1.84,1.33,2.04.75.16,1.32.47,1.69.93.35.44.53,1.03.53,1.74,0,.65-.25,1.33-.7,1.94-.46.62-1.09,1.09-1.76,1.34-.89.33-1.35,1.32-1.02,2.21.26.69.91,1.12,1.61,1.12Z"/><path class="cls-21" d="m456.18,403.8c-.19.46-.95.74-.95.74,0,0-.35-.74-.17-1.2.19-.46.53-.58.84-.45.31.13.47.45.28.91Z"/><path class="cls-21" d="m458.06,405.26c-.41.27-1.2.08-1.2.08,0,0,.12-.81.53-1.08.41-.27.76-.18.95.09s.13.64-.27.91Z"/><path class="cls-21" d="m459.07,407.72c-.48.08-1.13-.42-1.13-.42,0,0,.44-.69.93-.77.48-.08.77.14.83.47s-.14.64-.62.72Z"/><path class="cls-21" d="m458.53,410.76c-.48-.11-.88-.82-.88-.82,0,0,.67-.47,1.15-.36s.66.43.58.75c-.07.33-.37.53-.85.42Z"/><path class="cls-21" d="m456.92,412.34c-.34-.36-.28-1.17-.28-1.17,0,0,.82-.02,1.16.34.34.36.31.72.07.95-.24.23-.61.24-.95-.11Z"/><path class="cls-21" d="m455.06,413.09c-.18-.46.18-1.19.18-1.19,0,0,.76.29.94.75.18.46.02.78-.3.91-.31.12-.65,0-.83-.46Z"/></g><path class="cls-3" d="m453.44,406.08c-.18.04-.35.08-.51.12-.92.23-1.87.23-2.79,0-.16-.04-.33-.08-.51-.12-1.89-.44-2.88.69-2.88,2.04s1.49,2.84,3.02,2.84h3.51c1.54,0,3.02-1.48,3.02-2.84s-.99-2.48-2.88-2.04Z"/></g></g></g><rect class="cls-42" x="442.92" y="386.18" width="17.23" height=".78"/><rect class="cls-42" x="442.92" y="388.32" width="17.23" height=".78"/><rect class="cls-42" x="442.92" y="390.46" width="17.23" height=".78"/></g><g><path class="cls-50" d="m371.36,388.59l-2.99-.24c.13-1.65.1-6.41-1.52-8.59l2.4-1.79c2.6,3.47,2.17,9.9,2.11,10.62Z"/><g><polygon class="cls-50" points="369.39 424.6 369.39 425.78 369.39 427.01 370.05 426.35 370.67 426.97 371.29 426.35 371.95 427.01 371.95 425.78 371.95 424.6 369.39 424.6"/><path class="cls-3" d="m376.86,392.17l-.13-1.08c-.36-3.07-2.97-5.39-6.06-5.39h0c-3.1,0-5.7,2.32-6.06,5.39l-.13,1.08c-.51,4.32-2.7,8.24-6.07,10.99-2,1.64-3.41,4.2-3.41,7.77,0,6.82,7.83,15.67,12.43,15.67,1.38,0,2.43-.58,3.24-1.58.81,1,1.86,1.58,3.24,1.58,4.59,0,12.43-8.85,12.43-15.67,0-3.57-1.41-6.13-3.41-7.77-3.37-2.75-5.56-6.68-6.07-10.99Z"/><path class="cls-26" d="m372.66,409.48c-.78,0-1.48.47-1.99,1.24-.51-.76-1.21-1.24-1.99-1.24-1.54,0-3.27,1.06-3.27,3.35s2.63,5.26,4.17,5.26c.46,0,.82-.2,1.09-.53.27.34.63.53,1.09.53,1.54,0,4.17-2.97,4.17-5.26s-1.73-3.35-3.27-3.35Z"/><path class="cls-63" d="m373.92,413.3c.38.48.31,1.17-.17,1.55-.48.38-1.17.31-1.55-.17-.38-.48-.36-2.21-.36-2.21,0,0,1.7.35,2.08.83Z"/><path class="cls-63" d="m367.42,413.3c-.38.48-.31,1.17.17,1.55.48.38,1.17.31,1.55-.17.38-.48.36-2.21.36-2.21,0,0-1.7.35-2.08.83Z"/></g><path class="cls-50" d="m364.21,379.96c3.17-1.12,5.23,1.04,5.23,1.04,0,0-.24,2.98-3.42,4.1-3.17,1.12-8.08-.04-8.08-.04,0,0,3.09-3.98,6.26-5.1Z"/></g><g><path class="cls-17" d="m407.19,375.35v-4.61c0-.27.19-.5.46-.57.82-.22,1.41-.98,1.36-1.88-.06-.99-.95-1.74-1.94-1.74h-12.86c-.99,0-1.89.74-1.94,1.74-.05.9.54,1.66,1.36,1.88.26.07.46.29.46.57v4.61c0,1.19-.16,2.37-.46,3.51l-3.51,13.06c-.33,1.24-.5,2.52-.5,3.81v27.87c0,1.04.85,1.89,1.89,1.89h18.27c1.04,0,1.89-.85,1.89-1.89v-27.87c0-1.29-.17-2.57-.5-3.81l-3.51-13.06c-.31-1.14-.46-2.33-.46-3.51Z"/><path class="cls-37" d="m408.2,380.92h-15.15l-2.95,10.99c-.33,1.24-.5,2.52-.5,3.81v27.87c0,1.04.85,1.89,1.89,1.89h18.27c1.04,0,1.89-.85,1.89-1.89v-27.87c0-1.29-.17-2.57-.5-3.81l-2.95-10.99Z"/><path class="cls-53" d="m407.64,370.18c.82-.22,1.41-.98,1.36-1.88-.06-.99-.95-1.74-1.94-1.74h-12.86c-.99,0-1.89.74-1.94,1.74-.05.9.54,1.66,1.36,1.88.25.07.42.27.45.51h13.13c.02-.25.2-.45.45-.51Z"/><rect class="cls-54" x="396.03" y="400.49" width="15.62" height="17.07"/></g><g><path class="cls-14" d="m349.87,408.34v3.01l-41.48-3.01,23.35-5.05c.54.72,1.59,1.22,2.8,1.22,1.77,0,3.2-1.05,3.2-2.34,0-.06,0-.12-.01-.18l6.94-1.5,5.2,7.85Z"/><path class="cls-7" d="m349.87,408.34v23.32h-41.48v-4.85c.44.12.89.1,1.3-.08,1.17-.53,1.53-2.27.8-3.88-.47-1.03-1.27-1.76-2.1-2v-12.51h41.48Z"/><ellipse class="cls-5" cx="337.87" cy="413.68" rx="3.19" ry="2.34"/><ellipse class="cls-5" cx="335.25" cy="425.26" rx="3.17" ry="4.34" transform="translate(-147.47 179.87) rotate(-24.8)"/><path class="cls-5" d="m316.5,414.61c.57-.77,1.88-.76,2.93,0,1.05.77,1.44,2.02.88,2.79-.57.77-1.88.76-2.93,0-1.05-.77-1.44-2.02-.88-2.79Z"/><path class="cls-5" d="m343.2,418.16c-.53.12-1.1-.37-1.26-1.11-.16-.73.14-1.42.67-1.54.53-.12,1.1.37,1.26,1.11s-.14,1.42-.67,1.54Z"/><path class="cls-5" d="m310.41,412.58c-.06-.45.4-.88,1.02-.96.62-.08,1.17.23,1.22.68.06.45-.4.88-1.02.96-.62.08-1.17-.23-1.22-.68Z"/><path class="cls-7" d="m342.16,404.25c.1-.54.78-.86,1.52-.71.73.14,1.25.69,1.14,1.23-.1.54-.78.86-1.52.71-.73-.14-1.25-.69-1.14-1.23Z"/><path class="cls-5" d="m319.97,427.69c-.41-.52-.15-1.4.56-1.95.71-.55,1.62-.58,2.03-.06.41.52.15,1.4-.56,1.95-.71.55-1.62.58-2.03.06Z"/></g><g><path class="cls-4" d="m441,418.84c-.96,2.61-4.93,11.15-15.58,11.15-3.53,0-6.73-.66-9.39-1.8-3.53-1.51-6.12-3.87-7.31-6.65-.38-.9-1.12-1.6-2.05-1.89-1.04-.32-1.7-.9-1.7-1.56s.66-1.24,1.7-1.56c.93-.29,1.67-.99,2.05-1.89,2.07-4.89,8.51-8.45,16.7-8.45,2.56,0,4.73.48,6.57,1.26,5.87,2.47,8.3,7.9,9.02,9.89.18.49.17,1.02,0,1.5Z"/><path class="cls-8" d="m432.23,410.12c0,8.02-6.64,14.93-16.21,18.07-3.53-1.51-6.12-3.87-7.31-6.65-.38-.9-1.12-1.6-2.05-1.89-1.04-.32-1.7-.9-1.7-1.56s.66-1.24,1.7-1.56c.93-.29,1.67-.99,2.05-1.89,2.07-4.89,8.51-8.45,16.7-8.45,2.56,0,4.73.48,6.57,1.26.16.87.25,1.77.25,2.68Z"/></g><path class="cls-17" d="m391.35,341.62c3.47,0,6.29-2.81,6.29-6.29,0,3.47,2.81,6.29,6.29,6.29-3.47,0-6.29,2.81-6.29,6.29,0-3.47-2.81-6.29-6.29-6.29Z"/><path class="cls-17" d="m350.16,185.61c3.47,0,6.29-2.81,6.29-6.29,0,3.47,2.81,6.29,6.29,6.29-3.47,0-6.29,2.81-6.29,6.29,0-3.47-2.81-6.29-6.29-6.29Z"/><path class="cls-17" d="m238.92,395.49c3.47,0,6.29-2.81,6.29-6.29,0,3.47,2.81,6.29,6.29,6.29-3.47,0-6.29,2.81-6.29,6.29,0-3.47-2.81-6.29-6.29-6.29Z"/><path class="cls-17" d="m375.28,358.79c1.93,0,3.49-1.56,3.49-3.49,0,1.93,1.56,3.49,3.49,3.49-1.93,0-3.49,1.56-3.49,3.49,0-1.93-1.56-3.49-3.49-3.49Z"/><path class="cls-17" d="m309.63,198.81c1.93,0,3.49-1.56,3.49-3.49,0,1.93,1.56,3.49,3.49,3.49-1.93,0-3.49,1.56-3.49,3.49,0-1.93-1.56-3.49-3.49-3.49Z"/><path class="cls-17" d="m148.68,320.46c1.93,0,3.49-1.56,3.49-3.49,0,1.93,1.56,3.49,3.49,3.49-1.93,0-3.49,1.56-3.49,3.49,0-1.93-1.56-3.49-3.49-3.49Z"/><g><path class="cls-43" d="m127.87,139.66c3.08,0,5.67,2.06,6.48,4.88h-12.96c.8-2.82,3.4-4.88,6.48-4.88Z"/><path class="cls-43" d="m96.29,137.35c4.53,0,8.36,3.04,9.54,7.19h-19.09c1.19-4.15,5.01-7.19,9.54-7.19Z"/><path class="cls-43" d="m125.91,144.55c-1.46-5.06-7.26-8.85-14.19-8.85s-12.73,3.78-14.19,8.85h28.39Z"/></g><g><path class="cls-16" d="m143.21,416.96s-.89,3.01-.35,3.19,12.93.71,13.82.18c.89-.53-1.77-1.42-1.77-1.42,0,0-5.85-1.59-9.21-1.95,0,0-2.48-.18-2.48,0Z"/><path class="cls-16" d="m148.01,375.95c.91-1.3,1.81-1.88,3.12-1.68,1.44.21,2.41,1.58,2.15,3l-7.34,39.84c-.12.63-.71,1.05-1.34.96-.63-.09-1.08-.67-1-1.31l.2-1.74c1.84-27.74,1.36-34.3,4.22-39.07Z"/><path class="cls-16" d="m149.17,339.91c1.7-4.54,4.32-4.96,6.05-4.64.12,0,.24,0,.36,0,1.45.12,2.51,1.41,2.35,2.85l-4.59,40.25c-.07.63-.63,1.1-1.27,1.05-.21-.02-.41-.09-.57-.2-1.37-.6-2.33-1.91-2.45-3.44-.62-7.95-2.09-29.95.12-35.86Z"/><path class="cls-64" d="m150.6,417.54c-1.28.56-3.42.93-5.83.93-.77,0-1.52-.04-2.21-.11-.16,1.09-.23,2.37.3,2.43.94.11,14.42.52,14.5-.11.16-1.23-3.46-2.41-6.75-3.15Z"/><path class="cls-16" d="m94.62,360.04s-1.83-2.55-2.3-2.24c-.47.31-8.51,9.77-8.63,10.79-.13,1.03,2.21-.53,2.21-.53,0,0,4.85-3.63,7.2-6.07,0,0,1.66-1.85,1.52-1.96Z"/><path class="cls-16" d="m132.43,374.55c1.02,1.21,1.36,2.23.83,3.44-.57,1.33-2.14,1.93-3.45,1.31l-36.65-17.26c-.58-.27-.84-.95-.58-1.54s.92-.87,1.52-.64l1.63.64c26.35,8.86,32.82,10.06,36.7,14.05Z"/><path class="cls-16" d="m141.17,339.57c2.93-3.86,5.57-3.51,7.13-2.71.12.03.23.06.35.11,1.35.53,2,2.07,1.43,3.41l-15.97,37.22c-.25.59-.92.87-1.52.64-.2-.08-.36-.2-.49-.36-1.14-.97-1.68-2.5-1.35-4,1.69-7.79,6.62-29.28,10.43-34.31Z"/><path class="cls-64" d="m89.62,365.51c.34-1.36,1.36-3.27,2.85-5.18.47-.61.96-1.17,1.44-1.68-.76-.8-1.73-1.64-2.1-1.26-.66.67-9.27,11.06-8.82,11.5.88.88,4.03-1.25,6.63-3.39Z"/><path class="cls-51" d="m147.57,337.77s-2.72,6.48.43,36.46c0,0-4.82,1.69-4.97,37.4l4.97.82s6.21-35.97,6.85-40.84c.64-4.87,4.23-30.28,3.09-33.49l-10.36-.35Z"/><path class="cls-51" d="m99.65,360.7l-1.47,4.47s31.04,15.87,33.15,15.47c2.12-.4,3.98-2.67,5.49-6.41,1.51-3.74,16.51-35.93,16.51-35.93h-13s-7.11,12.22-9.7,33.31c0,0-9.44-5.85-30.99-10.91Z"/><path class="cls-62" d="m147.58,293.67s4.15-5.06-.33-8.99c-4.48-3.93-9.95-.8-10.46,3.16-.57,4.4,2.05,6.45,4.01,7.24s5.04.24,6.78-1.41Z"/><path class="cls-59" d="m157.48,338.3s3.75-.42,3.73-1.14l-3.73-16.33-2.21-13.4-1.93,11.22,4.14,19.65Z"/><path class="cls-16" d="m197.18,282.84c-.1-.95.25-1.9.94-2.55,1.78-1.69,5.26-4.75,6.76-4.6,2.07.22-2.81,6.44-7.64,7.69l-.06-.54Z"/><path class="cls-59" d="m197.19,280.87c-5.57,1.1-17.3,5.32-20.33,7.27-2.51,1.62-1.49,3.12-1.46,3.2.26.88,1.84,1.58,2.85,1.18l19.87-9.1-.93-2.56Z"/><path class="cls-59" d="m150.93,292.35c-3.13,1.15-1.82,3.68-1.81,3.77.07,1,1.79,1.93,2.99,1.75l26.67-5.51c.44-.05.37-.77.34-1.21-.01-.15-.06-.28-.14-.4-.41-.95-1.59-1.63-2.64-1.72-5.47-.47-21.34,1.83-25.41,3.32Z"/><path class="cls-32" d="m139.96,340.45c-.5.16-.26-10.16.93-17.55-.27-6.4,1.45-21.68,2.91-26.31,1.84-5.81,4.74-9,9.58-6.67,1.52.73,2.97,5.01,3.61,9.57.64,4.55,1.55,3.64-.96,10.32-.89,2.37,1.35,18.45,2.46,22.7.32,1.22.78,5.37,1.39,6.66-.89.63-1.72,1.1-2.7,1.45-6.68,2.42-10.54-2.32-17.23-.16Z"/><path class="cls-62" d="m151.14,287.66s-6.51-.93-7.82-5.34c-1.76-5.92,4.62-11.48,9.14-8.62,3.06,1.94,3.46,3.89,3.24,4.61-.22.72-4.56,9.35-4.56,9.35Z"/><path class="cls-16" d="m148.2,282.12l4.94-.35c.05.68.39,7.11.08,9.53-.2.74-1.44,1.05-2.76.69-1.19-.32-2.04-1.08-2.06-1.76h0c.19-1.45-.02-5.74-.19-8.1Z"/><path class="cls-16" d="m149.01,282.92c1.62,3.62,5.45,5.43,7.67,4.44,2.21-.99,1.97-4.4.35-8.03-1.62-3.62-4.24-4.67-6.45-3.68-2.21.99-3.19,3.63-1.57,7.26Z"/><path class="cls-62" d="m153.29,274.61s.22,5.31-4.09,8.13c-2.22,1.45-3.9-2.2-3.9-2.2l1.56-4.19s1.6-2,3.13-2.18c.13-.02,3.31.45,3.31.45Z"/><path class="cls-62" d="m155.69,277.12s-4.59-.56-5.56-1.89c-.97-1.33,1.25-1.65,1.25-1.65,0,0,3.05.39,4.31,3.54Z"/><path class="cls-16" d="m147.46,284.75c.58.79,2.12,1.23,2.69.81.58-.42.25-1.17-.34-1.97-.58-.79-1.6-1.19-2.17-.77-.58.42-.77,1.14-.19,1.93Z"/><path class="cls-59" d="m146.46,290.65s1.8,2.83,5.71,3.61c0,0-4.24,37.68-3.03,42.22,0,0-8.05.11-9.77.67,0,0,1.08-24.95,1.78-29.61.7-4.66,2.35-13.51,5.31-16.89Z"/><path class="cls-59" d="m144.03,294.55c2.48-2.06,4.06.3,4.13.35.83.56.82,2.46.09,3.38l-17.46,19.63c-.25.34-.85-.07-1.21-.32-.12-.08-.22-.19-.28-.31-.63-.81-.66-2.14-.23-3.07,2.2-4.82,11.73-16.99,14.96-19.67Z"/><path class="cls-16" d="m146.21,330.38c-.55.78-.7,1.78-.41,2.69.74,2.34,2.29,6.71,3.68,7.3,1.91.82.67-7-2.95-10.44l-.31.45Z"/><path class="cls-59" d="m145.5,332.21c-4.79-3.07-14.17-11.27-16.27-14.2-1.74-2.43-.24-3.45-.19-3.51.56-.72,2.29-.8,3.09-.06l15.17,15.73-1.8,2.04Z"/></g></g></g></g></svg>