<?xml version="1.0" encoding="UTF-8"?><svg id="Layer_2" xmlns="http://www.w3.org/2000/svg" xmlns:xlink="http://www.w3.org/1999/xlink" viewBox="0 0 645.13 529.54"><defs><style>.cls-1{fill:none;}.cls-2{clip-path:url(#clippath);}.cls-3{fill:#f3f6f9;}.cls-4{fill:#f9cccc;}.cls-5{fill:#f9cece;}.cls-6{fill:#f9cfcf;}.cls-7{fill:#f9cdcd;}.cls-8{fill:#f9cbcb;}.cls-9{fill:#f9d0d0;}.cls-10{fill:#f7bdbd;}.cls-11{fill:#f7bcbc;}.cls-12{fill:#f7bfbf;}.cls-13{fill:#f7bbbb;}.cls-14{fill:#f7b7b7;}.cls-15{fill:#f7b8b8;}.cls-16{fill:#f7b9b9;}.cls-17{fill:#f7baba;}.cls-18{fill:#f8c7c7;}.cls-19{fill:#f8c5c5;}.cls-20{fill:#f8c0c0;}.cls-21{fill:#f8c6c6;}.cls-22{fill:#f8c4c4;}.cls-23{fill:#f8c1c1;}.cls-24{fill:#f8c2c2;}.cls-25{fill:#fad7d7;}.cls-26{fill:#fad8d8;}.cls-27{fill:#fad3d3;}.cls-28{fill:#f9fafc;}.cls-29{fill:#f7bebe;}.cls-30{fill:#f9caca;}.cls-31{fill:#f9c9c9;}.cls-32{fill:#fad2d2;}.cls-33{fill:#fad5d5;}.cls-34{fill:#fad1d1;}.cls-35{fill:#fad4d4;}.cls-36{fill:#fad9d9;}.cls-37{fill:#fad6d6;}.cls-38{fill:#f8c3c3;}.cls-39,.cls-40{fill:#6a6d8a;}.cls-41{fill:#f5aaaa;}.cls-42{fill:#f5a7a7;}.cls-43{fill:#f5aeae;}.cls-44{fill:#f5acac;}.cls-45{fill:#f5adad;}.cls-46{fill:#f6afaf;}.cls-47{fill:#f6b2b2;}.cls-48{fill:#f6b3b3;}.cls-49{fill:#f6b0b0;}.cls-50{fill:#f6b1b1;}.cls-51{fill:#f6b6b6;}.cls-52{fill:#f6cfbe;}.cls-53{fill:#f6b5b5;}.cls-54{fill:#f6b4b4;}.cls-55{fill:#fef5f5;}.cls-56{fill:#fef7f7;}.cls-57{fill:#fef4f4;}.cls-58{fill:#fef3f3;}.cls-59{fill:#fff;}.cls-60{fill:#ff9f9c;}.cls-61{fill:#f5a9a9;}.cls-62{fill:#f5abab;}.cls-63{fill:#f5a8a8;}.cls-64{fill:#fbdfdf;}.cls-65{fill:#fef6f6;}.cls-66{fill:#fbdcdc;}.cls-67{fill:#fbdddd;}.cls-68{fill:#fbdbdb;}.cls-69{fill:#fbdede;}.cls-70{fill:#fbdada;}.cls-71{fill:#fbe0e0;}.cls-72{fill:#fbe1e1;}.cls-73{fill:#fce6e6;}.cls-74{fill:#fce7e7;}.cls-75{fill:#fceaea;}.cls-76{fill:#fce8e8;}.cls-77{fill:#fce2e2;}.cls-78{fill:#fce9e9;}.cls-79{fill:#fce3e3;}.cls-80{fill:#fce5e5;}.cls-81{fill:#fce4e4;}.cls-82{fill:#fdf2f2;}.cls-83,.cls-84{fill:#ff6584;}.cls-85{fill:#fdf0f0;}.cls-86{fill:#fdeeee;}.cls-87{fill:#fdeded;}.cls-88{fill:#fdf1f1;}.cls-89{fill:#fdefef;}.cls-90{fill:#fdecec;}.cls-91{fill:#fdebeb;}.cls-92{fill:#a0616a;}.cls-93{fill:#92edf0;}.cls-94{fill:#b5b5b5;}.cls-95{fill:#84d6d9;}.cls-96{fill:#dbdddd;}.cls-97{fill:#0ea2bd;}.cls-98{fill:#444;}.cls-99{fill:#1a1c2e;}.cls-100{fill:#7a7a79;}.cls-40{stroke:#000;stroke-miterlimit:10;stroke-width:.25px;}.cls-84{opacity:0;}</style><clipPath id="clippath"><circle class="cls-1" cx="379.24" cy="241.13" r="52.84"/></clipPath></defs><g id="Layer_1-2"><rect class="cls-84" width="645.13" height="529.54"/><g><path class="cls-96" d="m565.54,225.1c-22.16-13.62-48.08-21.71-75.85-22.33-1.72-25.24-22.73-45.18-48.41-45.18-13.39,0-25.51,5.42-34.29,14.19-30.34-21.9-67.59-34.81-107.86-34.81-87.95,0-161.52,61.54-180.02,143.9-2.42-.51-4.92-.78-7.49-.78-20.07,0-36.35,16.27-36.35,36.35,0,2.49.25,4.93.73,7.28-33.77,8.68-60.09,35.93-67.43,70.23-1.34,6.28-2.05,12.79-2.05,19.46,0,17.35,4.77,33.58,13.07,47.45h574.58c27.02-27.38,43.7-64.99,43.7-106.5,0-54.68-28.94-102.59-72.33-129.27Z"/><path class="cls-97" d="m590.34,454.37c-.61,0-1.23-.22-1.71-.68-1.01-.94-1.06-2.53-.11-3.53,11.47-12.23,20.56-26.26,27.03-41.69,7.18-17.14,10.82-35.34,10.82-54.1,0-12.39-1.62-24.68-4.8-36.52-3.09-11.48-7.66-22.55-13.57-32.9-11.67-20.42-28.43-37.72-48.48-50.04-21.05-12.94-45.28-20.07-70.08-20.63l-8.22-.18c-1.29-.03-2.35-1.04-2.44-2.33l-.56-8.2c-.64-9.34-4.76-18.02-11.62-24.45-6.88-6.46-15.88-10.01-25.32-10.01s-19.17,3.85-26.16,10.83l-5.42,5.41c-.87.87-2.24.98-3.23.26l-6.21-4.48c-14.42-10.41-30.25-18.49-47.07-24.01-17.39-5.72-35.58-8.62-54.07-8.62-20.18,0-39.94,3.44-58.73,10.22-18.16,6.55-35.01,16.07-50.09,28.28-14.95,12.11-27.7,26.5-37.89,42.78-10.38,16.57-17.82,34.62-22.09,53.64l-1.94,8.66c-.3,1.33-1.61,2.18-2.95,1.9l-8.68-1.82c-1.69-.35-3.41-.53-5.13-.53-13.7,0-24.85,11.15-24.85,24.85,0,1.68.17,3.36.5,4.99l1.7,8.38c.26,1.3-.54,2.59-1.83,2.92l-8.28,2.13c-14.53,3.73-27.73,11.46-38.2,22.34-10.49,10.91-17.7,24.45-20.84,39.15-1.19,5.57-1.8,11.31-1.8,17.06,0,12.45,2.9,24.85,8.39,35.95h193.66c1.38,0,2.5,1.12,2.5,2.5s-1.12,2.5-2.5,2.5H24.87c-.93,0-1.79-.52-2.22-1.35-6.3-12.15-9.63-25.85-9.63-39.6,0-6.1.64-12.19,1.91-18.11,3.34-15.62,10.99-29.99,22.13-41.57,11.11-11.55,25.14-19.75,40.56-23.72l5.98-1.54-1.23-6.05c-.4-1.96-.6-3.97-.6-5.99,0-16.46,13.39-29.85,29.85-29.85,2.06,0,4.14.21,6.16.64l6.27,1.31,1.4-6.25c4.4-19.58,12.05-38.15,22.73-55.2,10.49-16.74,23.61-31.55,38.98-44.01,15.51-12.56,32.85-22.35,51.54-29.1,19.34-6.98,39.67-10.52,60.43-10.52,19.02,0,37.73,2.98,55.63,8.87,17.3,5.69,33.6,14,48.43,24.71l4.48,3.24,3.91-3.91c7.94-7.92,18.48-12.29,29.7-12.29s20.93,4.04,28.74,11.37c7.78,7.3,12.46,17.15,13.18,27.75l.4,5.92,5.94.13c25.68.58,50.79,7.96,72.59,21.37,20.76,12.76,38.12,30.68,50.2,51.82,6.13,10.72,10.86,22.19,14.06,34.08,3.3,12.26,4.98,24.99,4.98,37.82,0,19.43-3.77,38.28-11.21,56.03-6.7,15.98-16.11,30.5-27.99,43.18-.49.52-1.16.79-1.83.79Z"/><g><path class="cls-52" d="m494.45,331.22s-5.59-2.86-7.03-2.21c-1.44.65,3.57,3.97,7.36,3.72l-.33-1.51Z"/><path class="cls-59" d="m494.24,330.79c-.42,1-.88,1.84-1.4,2.91,17.56,8.5,23.13,9.58,41.04.99,4.04-1.94.84-5.74-3.89-3.3-16.23,8.37-19.14,5.64-35.75-.6Z"/></g><path class="cls-93" d="m186.01,162.79c-5.34,0-10.48.83-15.3,2.37-12.66-11.19-29.3-17.98-47.52-17.98s-36.46,7.46-49.32,19.63c-6.06-2.59-12.72-4.02-19.72-4.02-22.97,0-42.33,15.4-48.34,36.44h228.55c-6-21.04-25.37-36.44-48.34-36.44Z"/><path class="cls-96" d="m519.12,78.38c-3.48,0-6.83.54-9.98,1.55-8.25-7.3-19.1-11.73-30.98-11.73s-23.77,4.87-32.16,12.8c-3.95-1.69-8.29-2.62-12.86-2.62-14.97,0-27.6,10.04-31.52,23.76h149.01c-3.91-13.72-16.54-23.76-31.52-23.76Z"/><path class="cls-93" d="m583.18,192c-3.07,0-6.03.48-8.8,1.37-7.28-6.44-16.85-10.35-27.34-10.35s-20.97,4.29-28.37,11.29c-3.48-1.49-7.32-2.31-11.34-2.31-13.21,0-24.35,8.86-27.81,20.96h131.47c-3.45-12.1-14.59-20.96-27.81-20.96Z"/><g><path class="cls-3" d="m589.4,207.91c-6.18,0-11.39,4.14-13,9.8h26c-1.62-5.66-6.82-9.8-13-9.8Z"/><path class="cls-3" d="m624.87,207.91c-6.18,0-11.39,4.14-13,9.8h26c-1.62-5.66-6.82-9.8-13-9.8Z"/><path class="cls-3" d="m607.97,203.71c-8.82,0-16.26,5.92-18.57,14h37.14c-2.31-8.08-9.75-14-18.57-14Z"/></g><g><path class="cls-100" d="m458.12,397.96c-10.88,0-20.06,7.3-22.91,17.27h45.82c-2.85-9.97-12.02-17.27-22.91-17.27Z"/><path class="cls-100" d="m428.34,390.56c-15.55,0-28.66,10.43-32.72,24.67h65.45c-4.06-14.24-17.18-24.67-32.72-24.67Z"/></g><g><path class="cls-96" d="m114.75,196.7c-7.21,0-13.29,4.84-15.18,11.44h30.36c-1.89-6.61-7.97-11.44-15.18-11.44Z"/><path class="cls-96" d="m156.16,196.7c-7.21,0-13.29,4.84-15.18,11.44h30.36c-1.89-6.61-7.97-11.44-15.18-11.44Z"/><path class="cls-96" d="m136.43,191.8c-10.3,0-18.99,6.91-21.68,16.34h43.36c-2.69-9.44-11.38-16.34-21.68-16.34Z"/></g><g><path class="cls-59" d="m531.31,434.94c-2.57,0-4.66-2.09-4.66-4.66s2.09-4.66,4.66-4.66,4.66,2.09,4.66,4.66-2.09,4.66-4.66,4.66Zm0-6.32c-.91,0-1.66.74-1.66,1.66s.74,1.66,1.66,1.66,1.66-.74,1.66-1.66-.74-1.66-1.66-1.66Z"/><path class="cls-59" d="m550.22,434.94c-2.57,0-4.66-2.09-4.66-4.66s2.09-4.66,4.66-4.66,4.66,2.09,4.66,4.66-2.09,4.66-4.66,4.66Zm0-6.32c-.91,0-1.66.74-1.66,1.66s.74,1.66,1.66,1.66,1.66-.74,1.66-1.66-.74-1.66-1.66-1.66Z"/><path class="cls-59" d="m569.14,434.94c-2.57,0-4.66-2.09-4.66-4.66s2.09-4.66,4.66-4.66,4.66,2.09,4.66,4.66-2.09,4.66-4.66,4.66Zm0-6.32c-.91,0-1.66.74-1.66,1.66s.74,1.66,1.66,1.66,1.66-.74,1.66-1.66-.74-1.66-1.66-1.66Z"/><rect class="cls-59" x="553.38" y="428.78" width="12.6" height="3"/><rect class="cls-59" x="534.47" y="428.78" width="12.6" height="3"/></g><rect class="cls-100" x="165.07" y="413.73" width="336.81" height="22.44" rx="11.22" ry="11.22"/><g><path class="cls-96" d="m427.63,429.79c-5.68,0-10.29,4.61-10.29,10.29h20.58c0-5.68-4.61-10.29-10.29-10.29Z"/><path class="cls-96" d="m445.12,429.79c-5.68,0-10.29,4.61-10.29,10.29h20.58c0-5.68-4.61-10.29-10.29-10.29Z"/><path class="cls-96" d="m462.61,429.79c-5.68,0-10.29,4.61-10.29,10.29h20.58c0-5.68-4.61-10.29-10.29-10.29Z"/></g><g><path class="cls-59" d="m117.36,431.02c-5.68,0-10.29,4.61-10.29,10.29h20.58c0-5.68-4.61-10.29-10.29-10.29Z"/><path class="cls-59" d="m134.85,431.02c-5.68,0-10.29,4.61-10.29,10.29h20.58c0-5.68-4.61-10.29-10.29-10.29Z"/><path class="cls-59" d="m152.34,431.02c-5.68,0-10.29,4.61-10.29,10.29h20.58c0-5.68-4.61-10.29-10.29-10.29Z"/></g><g><path class="cls-97" d="m315.69,476.71c-24.8,0-66.99-9.49-68.78-9.89-1.14-.26-1.95-1.27-1.95-2.44s.81-2.18,1.95-2.44c1.78-.4,43.98-9.89,68.78-9.89,17.61,0,47.41,2.6,47.41,12.33s-29.8,12.33-47.41,12.33Zm-56.01-12.33c14.58,2.89,39.6,7.33,56.01,7.33,26.06,0,41.33-4.73,42.4-7.33-1.07-2.59-16.34-7.33-42.4-7.33-16.42,0-41.44,4.43-56.01,7.33Z"/><path class="cls-97" d="m315.69,501.46c-24.8,0-66.99-9.49-68.78-9.89-1.14-.26-1.95-1.27-1.95-2.44s.81-2.18,1.95-2.44c1.78-.4,43.98-9.89,68.78-9.89,17.61,0,47.41,2.6,47.41,12.33s-29.8,12.33-47.41,12.33Zm-56.01-12.33c14.58,2.89,39.6,7.33,56.01,7.33,26.06,0,41.33-4.73,42.4-7.33-1.07-2.59-16.34-7.33-42.4-7.33-16.42,0-41.44,4.43-56.01,7.33Zm98.44.07h0,0Z"/><path class="cls-97" d="m247.47,491.63c-.14,0-.29-.01-.43-.04-19.56-3.41-29.47-8.42-29.47-14.89s9.87-11.46,29.34-14.87c1.36-.24,2.65.67,2.89,2.03.24,1.36-.67,2.66-2.03,2.89-18.49,3.24-25.2,7.72-25.2,9.94s6.75,6.73,25.33,9.96c1.36.24,2.27,1.53,2.03,2.89-.21,1.22-1.27,2.07-2.46,2.07Z"/><path class="cls-97" d="m247.47,466.8c-.14,0-.29-.01-.43-.04-19.56-3.41-29.47-8.42-29.47-14.89,0-1.38,1.12-2.5,2.5-2.5s2.5,1.12,2.5,2.5c0,2.23,6.75,6.73,25.33,9.96,1.36.24,2.27,1.53,2.03,2.89-.21,1.22-1.27,2.07-2.46,2.07Z"/><path class="cls-97" d="m315.69,526.29c-24.8,0-66.99-9.48-68.78-9.89-1.14-.26-1.95-1.27-1.95-2.44s.81-2.18,1.95-2.44c1.78-.4,43.98-9.89,68.78-9.89,17.61,0,47.41,2.6,47.41,12.33s-29.8,12.33-47.41,12.33Zm-56.01-12.33c14.58,2.89,39.6,7.33,56.01,7.33,26.05,0,41.33-4.73,42.4-7.33-1.07-2.59-16.34-7.33-42.4-7.33-16.42,0-41.44,4.43-56.01,7.33Z"/><path class="cls-97" d="m247.47,516.46c-.14,0-.29-.01-.43-.04-19.56-3.41-29.47-8.42-29.47-14.89s9.87-11.46,29.34-14.87c1.36-.24,2.65.67,2.89,2.03.24,1.36-.67,2.66-2.03,2.89-18.49,3.24-25.2,7.72-25.2,9.94s6.75,6.73,25.33,9.96c1.36.24,2.27,1.53,2.03,2.89-.21,1.22-1.27,2.07-2.46,2.07Z"/><path class="cls-97" d="m220.06,528.86c-1.38,0-2.5-1.12-2.5-2.5,0-6.46,9.87-11.46,29.34-14.87,1.36-.24,2.65.67,2.89,2.03.24,1.36-.67,2.66-2.03,2.89-18.49,3.24-25.2,7.72-25.2,9.94,0,1.38-1.12,2.5-2.5,2.5Z"/></g><path class="cls-59" d="m340.07,397.69c-8.27,0-15.52,4.35-19.58,10.89-4.07-6.54-11.32-10.89-19.58-10.89s-15.52,4.35-19.58,10.89c-4.07-6.54-11.32-10.89-19.58-10.89-12.73,0-23.05,10.32-23.05,23.05h124.42c0-12.73-10.32-23.05-23.04-23.05Z"/><g><g><path class="cls-59" d="m407.05,422.2l-.66-.32s1.41-2.91,3.94-6.57c2.34-3.38,6.14-8.16,11.02-11.67l.43.59c-4.79,3.46-8.54,8.16-10.84,11.49-2.5,3.62-3.87,6.45-3.89,6.47Z"/><path class="cls-59" d="m423.33,404.28c.32-.68.03-1.49-.64-1.81-.68-.32-1.49-.03-1.81.64-.32.68-.03,1.49.64,1.81.68.32,1.49.03,1.81-.64Z"/><path class="cls-59" d="m418.89,401.45c.32-.68.03-1.49-.64-1.81-.68-.32-1.49-.03-1.81.64-.32.68-.03,1.49.64,1.81.68.32,1.49.03,1.81-.64Z"/><path class="cls-59" d="m421.25,413.26c.32-.68.03-1.49-.64-1.81-.68-.32-1.49-.03-1.81.64-.32.68-.03,1.49.64,1.81.68.32,1.49.03,1.81-.64Z"/><path class="cls-59" d="m416.73,408.58l-.68-.26s1.31-3.5,1.28-6.71h.73c.03,3.35-1.27,6.82-1.33,6.97Z"/><path class="cls-59" d="m413.5,412.13l-.12-.72c.11-.02,2.69-.42,6.14.63l-.21.7c-3.28-1-5.78-.61-5.81-.6Z"/></g><g><path class="cls-59" d="m410.93,417.95c-3.12,0-5.75,2.09-6.57,4.95h13.14c-.82-2.86-3.45-4.95-6.57-4.95Z"/><path class="cls-59" d="m402.39,415.83c-4.46,0-8.22,2.99-9.39,7.08h18.77c-1.17-4.08-4.93-7.08-9.39-7.08Z"/></g></g><g><g><rect class="cls-98" x="374.69" y="166.32" width="9.09" height="6.92" rx="3.46" ry="3.46"/><rect class="cls-98" x="376.71" y="171.46" width="5.06" height="12.62"/><rect class="cls-100" x="410.96" y="181.6" width="5.14" height="3.91" rx="1.95" ry="1.95" transform="translate(176.18 -201.63) rotate(34.42)"/><rect class="cls-100" x="409.55" y="183.71" width="2.86" height="7.13" transform="translate(177.84 -199.53) rotate(34.42)"/><path class="cls-98" d="m379.24,177.3c-6.27,0-11.36-5.1-11.36-11.36s5.1-11.36,11.36-11.36,11.36,5.1,11.36,11.36-5.1,11.36-11.36,11.36Zm0-21.25c-5.45,0-9.89,4.44-9.89,9.89s4.44,9.89,9.89,9.89,9.89-4.44,9.89-9.89-4.44-9.89-9.89-9.89Z"/><circle class="cls-100" cx="379.24" cy="241.13" r="61.45"/><circle class="cls-98" cx="379.24" cy="241.13" r="58.74"/><circle class="cls-100" cx="379.24" cy="241.13" r="55.27"/><g class="cls-2"><polygon class="cls-56" points="329.41 188.29 326.4 189.89 326.4 188.29 329.41 188.29"/><polygon class="cls-65" points="333.23 188.29 326.4 191.92 326.4 189.89 329.41 188.29 333.23 188.29"/><polygon class="cls-55" points="337.05 188.29 326.4 193.95 326.4 191.92 333.23 188.29 337.05 188.29"/><polygon class="cls-57" points="340.87 188.29 326.4 195.98 326.4 193.95 337.05 188.29 340.87 188.29"/><polygon class="cls-58" points="344.7 188.29 326.4 198.01 326.4 195.98 340.87 188.29 344.7 188.29"/><polygon class="cls-82" points="348.52 188.29 326.4 200.04 326.4 198.01 344.7 188.29 348.52 188.29"/><polygon class="cls-88" points="352.34 188.29 326.4 202.08 326.4 200.04 348.52 188.29 352.34 188.29"/><polygon class="cls-85" points="356.16 188.29 326.4 204.11 326.4 202.08 352.34 188.29 356.16 188.29"/><polygon class="cls-89" points="359.98 188.29 326.4 206.14 326.4 204.11 356.16 188.29 359.98 188.29"/><polygon class="cls-86" points="363.81 188.29 326.4 208.17 326.4 206.14 359.98 188.29 363.81 188.29"/><polygon class="cls-87" points="367.63 188.29 326.4 210.2 326.4 208.17 363.81 188.29 367.63 188.29"/><polygon class="cls-90" points="371.45 188.29 326.4 212.23 326.4 210.2 367.63 188.29 371.45 188.29"/><polygon class="cls-91" points="375.27 188.29 326.4 214.27 326.4 212.23 371.45 188.29 375.27 188.29"/><polygon class="cls-75" points="379.1 188.29 326.4 216.3 326.4 214.27 375.27 188.29 379.1 188.29"/><polygon class="cls-78" points="382.92 188.29 326.4 218.33 326.4 216.3 379.1 188.29 382.92 188.29"/><polygon class="cls-76" points="386.74 188.29 326.4 220.36 326.4 218.33 382.92 188.29 386.74 188.29"/><polygon class="cls-74" points="390.56 188.29 326.4 222.39 326.4 220.36 386.74 188.29 390.56 188.29"/><polygon class="cls-73" points="394.38 188.29 326.4 224.42 326.4 222.39 390.56 188.29 394.38 188.29"/><polygon class="cls-80" points="398.21 188.29 326.4 226.45 326.4 224.42 394.38 188.29 398.21 188.29"/><polygon class="cls-81" points="402.03 188.29 326.4 228.49 326.4 226.45 398.21 188.29 402.03 188.29"/><polygon class="cls-79" points="405.85 188.29 326.4 230.52 326.4 228.49 402.03 188.29 405.85 188.29"/><polygon class="cls-77" points="409.67 188.29 326.4 232.55 326.4 230.52 405.85 188.29 409.67 188.29"/><polygon class="cls-72" points="413.49 188.29 326.4 234.58 326.4 232.55 409.67 188.29 413.49 188.29"/><polygon class="cls-71" points="417.32 188.29 326.4 236.61 326.4 234.58 413.49 188.29 417.32 188.29"/><polygon class="cls-64" points="421.14 188.29 326.4 238.64 326.4 236.61 417.32 188.29 421.14 188.29"/><polygon class="cls-69" points="421.77 188.29 422.47 189.61 326.4 240.68 326.4 238.64 421.14 188.29 421.77 188.29"/><polygon class="cls-67" points="422.47 189.61 423.32 191.19 326.4 242.71 326.4 240.68 422.47 189.61"/><polygon class="cls-66" points="423.32 191.19 424.16 192.78 326.4 244.74 326.4 242.71 423.32 191.19"/><polygon class="cls-68" points="424.16 192.78 425 194.36 326.4 246.77 326.4 244.74 424.16 192.78"/><polygon class="cls-70" points="425 194.36 425.84 195.94 326.4 248.8 326.4 246.77 425 194.36"/><polygon class="cls-36" points="425.84 195.94 426.68 197.53 326.4 250.83 326.4 248.8 425.84 195.94"/><polygon class="cls-26" points="426.68 197.53 427.53 199.11 326.4 252.87 326.4 250.83 426.68 197.53"/><polygon class="cls-25" points="427.53 199.11 428.37 200.7 326.4 254.9 326.4 252.87 427.53 199.11"/><polygon class="cls-37" points="428.37 200.7 429.21 202.28 326.4 256.93 326.4 254.9 428.37 200.7"/><polygon class="cls-33" points="429.21 202.28 430.05 203.86 326.4 258.96 326.4 256.93 429.21 202.28"/><polygon class="cls-35" points="430.05 203.86 430.89 205.45 326.4 260.99 326.4 258.96 430.05 203.86"/><polygon class="cls-27" points="430.89 205.45 431.74 207.03 326.4 263.02 326.4 260.99 430.89 205.45"/><polygon class="cls-32" points="431.74 207.03 432.08 207.68 432.08 208.88 326.4 265.05 326.4 263.02 431.74 207.03"/><polygon class="cls-34" points="432.08 210.91 326.4 267.09 326.4 265.05 432.08 208.88 432.08 210.91"/><polygon class="cls-9" points="432.08 212.94 326.4 269.12 326.4 267.09 432.08 210.91 432.08 212.94"/><polygon class="cls-6" points="432.08 214.97 326.4 271.15 326.4 269.12 432.08 212.94 432.08 214.97"/><polygon class="cls-5" points="432.08 217.01 326.4 273.18 326.4 271.15 432.08 214.97 432.08 217.01"/><polygon class="cls-7" points="432.08 219.04 326.66 275.07 326.4 274.57 326.4 273.18 432.08 217.01 432.08 219.04"/><polygon class="cls-4" points="432.08 221.07 327.5 276.66 326.66 275.07 432.08 219.04 432.08 221.07"/><polygon class="cls-8" points="432.08 223.1 328.35 278.24 327.5 276.66 432.08 221.07 432.08 223.1"/><polygon class="cls-30" points="432.08 225.13 329.19 279.82 328.35 278.24 432.08 223.1 432.08 225.13"/><polygon class="cls-31" points="432.08 227.16 330.03 281.41 329.19 279.82 432.08 225.13 432.08 227.16"/><polygon class="cls-18" points="432.08 229.2 330.87 282.99 330.03 281.41 432.08 227.16 432.08 229.2"/><polygon class="cls-21" points="432.08 231.23 331.71 284.58 330.87 282.99 432.08 229.2 432.08 231.23"/><polygon class="cls-19" points="432.08 233.26 332.56 286.16 331.71 284.58 432.08 231.23 432.08 233.26"/><polygon class="cls-22" points="432.08 235.29 333.4 287.74 332.56 286.16 432.08 233.26 432.08 235.29"/><polygon class="cls-38" points="432.08 237.32 334.24 289.33 333.4 287.74 432.08 235.29 432.08 237.32"/><polygon class="cls-24" points="432.08 239.35 335.08 290.91 334.24 289.33 432.08 237.32 432.08 239.35"/><polygon class="cls-23" points="432.08 241.38 335.92 292.5 335.08 290.91 432.08 239.35 432.08 241.38"/><polygon class="cls-20" points="432.08 243.42 336.97 293.97 336.71 293.97 335.92 292.5 432.08 241.38 432.08 243.42"/><polygon class="cls-12" points="432.08 245.45 340.79 293.97 336.97 293.97 432.08 243.42 432.08 245.45"/><polygon class="cls-29" points="432.08 247.48 344.61 293.97 340.79 293.97 432.08 245.45 432.08 247.48"/><polygon class="cls-10" points="432.08 249.51 348.44 293.97 344.61 293.97 432.08 247.48 432.08 249.51"/><polygon class="cls-11" points="432.08 251.54 352.26 293.97 348.44 293.97 432.08 249.51 432.08 251.54"/><polygon class="cls-13" points="432.08 253.57 356.08 293.97 352.26 293.97 432.08 251.54 432.08 253.57"/><polygon class="cls-17" points="432.08 255.61 359.9 293.97 356.08 293.97 432.08 253.57 432.08 255.61"/><polygon class="cls-16" points="432.08 257.64 363.73 293.97 359.9 293.97 432.08 255.61 432.08 257.64"/><polygon class="cls-15" points="432.08 259.67 367.55 293.97 363.73 293.97 432.08 257.64 432.08 259.67"/><polygon class="cls-14" points="432.08 261.7 371.37 293.97 367.55 293.97 432.08 259.67 432.08 261.7"/><polygon class="cls-51" points="432.08 263.73 375.19 293.97 371.37 293.97 432.08 261.7 432.08 263.73"/><polygon class="cls-53" points="432.08 265.76 379.01 293.97 375.19 293.97 432.08 263.73 432.08 265.76"/><polygon class="cls-54" points="432.08 267.79 382.84 293.97 379.01 293.97 432.08 265.76 432.08 267.79"/><polygon class="cls-48" points="432.08 269.83 386.66 293.97 382.84 293.97 432.08 267.79 432.08 269.83"/><polygon class="cls-47" points="432.08 271.86 390.48 293.97 386.66 293.97 432.08 269.83 432.08 271.86"/><polygon class="cls-50" points="432.08 273.89 394.3 293.97 390.48 293.97 432.08 271.86 432.08 273.89"/><polygon class="cls-49" points="432.08 275.92 398.12 293.97 394.3 293.97 432.08 273.89 432.08 275.92"/><polygon class="cls-46" points="432.08 277.95 401.95 293.97 398.12 293.97 432.08 275.92 432.08 277.95"/><polygon class="cls-43" points="432.08 279.98 405.77 293.97 401.95 293.97 432.08 277.95 432.08 279.98"/><polygon class="cls-45" points="432.08 282.02 409.59 293.97 405.77 293.97 432.08 279.98 432.08 282.02"/><polygon class="cls-44" points="432.08 284.05 413.41 293.97 409.59 293.97 432.08 282.02 432.08 284.05"/><polygon class="cls-62" points="432.08 286.08 417.23 293.97 413.41 293.97 432.08 284.05 432.08 286.08"/><polygon class="cls-41" points="432.08 288.11 421.06 293.97 417.23 293.97 432.08 286.08 432.08 288.11"/><polygon class="cls-61" points="432.08 290.14 424.88 293.97 421.06 293.97 432.08 288.11 432.08 290.14"/><polygon class="cls-63" points="432.08 292.17 428.7 293.97 424.88 293.97 432.08 290.14 432.08 292.17"/><polygon class="cls-42" points="428.7 293.97 432.08 292.17 432.08 293.97 428.7 293.97"/></g><g><path class="cls-94" d="m399.66,254.31c-5.29-4.85-13.76-1.92-20.8-3.32-8.68-1.72-14.44-9.93-18.26-17.91s-6.95-16.8-13.82-22.38c-2.25-1.83-4.8-3.19-7.51-4.14-8.02,9.27-12.88,21.35-12.88,34.57,0,29.18,23.66,52.84,52.84,52.84,12.96,0,24.83-4.67,34.02-12.41-4.01-4.22-7.02-9.4-8.56-15.02-1.19-4.32-1.74-9.21-5.04-12.24Z"/><path class="cls-96" d="m432.08,241.13c0-29.18-23.66-52.84-52.84-52.84-15.97,0-30.28,7.08-39.97,18.27,2.71.95,5.25,2.31,7.51,4.14,6.87,5.58,10,14.4,13.82,22.38s9.58,16.19,18.26,17.91c7.04,1.4,15.51-1.54,20.8,3.32,3.3,3.03,3.86,7.92,5.04,12.24,1.54,5.62,4.55,10.79,8.56,15.02,11.51-9.69,18.82-24.21,18.82-40.44Z"/></g></g><circle class="cls-98" cx="379.24" cy="241.13" r="3.07"/><rect class="cls-98" x="374.27" y="197.63" width="1.97" height="43.46" transform="translate(-33.67 71.99) rotate(-10.49)"/><polygon class="cls-98" points="370.47 193.5 368.85 199.22 374.02 198.27 370.47 193.5"/><rect class="cls-98" x="367.69" y="236.04" width="1.97" height="27.77" transform="translate(409.6 693.44) rotate(-129.4)"/><polygon class="cls-98" points="354.71 261.47 360.5 260.11 357.16 256.05 354.71 261.47"/></g><g><path class="cls-28" d="m487.12,92.63c-6,0-11.05,4.02-12.62,9.51h25.24c-1.57-5.49-6.62-9.51-12.62-9.51Z"/><path class="cls-28" d="m521.55,92.63c-6,0-11.05,4.02-12.62,9.51h25.24c-1.57-5.49-6.62-9.51-12.62-9.51Z"/><path class="cls-28" d="m505.15,88.55c-8.56,0-15.79,5.74-18.02,13.59h36.05c-2.24-7.85-9.46-13.59-18.02-13.59Z"/></g><g><path class="cls-59" d="m200.78,316.34c-1.93,0-3.5-1.57-3.5-3.5v-25.3c0-1.93,1.57-3.5,3.5-3.5s3.5,1.57,3.5,3.5v25.3c0,1.93-1.57,3.5-3.5,3.5Z"/><path class="cls-59" d="m234.09,317.05c-1.93,0-3.5-1.57-3.5-3.5v-7.91h-59.19v7.91c0,1.93-1.57,3.5-3.5,3.5s-3.5-1.57-3.5-3.5v-11.41c0-1.93,1.57-3.5,3.5-3.5h66.19c1.93,0,3.5,1.57,3.5,3.5v11.41c0,1.93-1.57,3.5-3.5,3.5Z"/></g><ellipse class="cls-95" cx="200.78" cy="319.38" rx="13.97" ry="7.64"/><ellipse class="cls-95" cx="167.91" cy="319.38" rx="13.97" ry="7.64"/><ellipse class="cls-95" cx="234.1" cy="319.38" rx="13.97" ry="7.64"/><g><path class="cls-59" d="m298.02,280.75c-1.93,0-3.5-1.57-3.5-3.5v-18.99h-90.24v18.99c0,1.93-1.57,3.5-3.5,3.5s-3.5-1.57-3.5-3.5v-22.49c0-1.93,1.57-3.5,3.5-3.5h97.24c1.93,0,3.5,1.57,3.5,3.5v22.49c0,1.93-1.57,3.5-3.5,3.5Z"/><path class="cls-59" d="m249.4,258.26c-1.93,0-3.5-1.57-3.5-3.5v-27.47c0-1.93,1.57-3.5,3.5-3.5s3.5,1.57,3.5,3.5v27.47c0,1.93-1.57,3.5-3.5,3.5Z"/></g><rect class="cls-100" x="211.56" y="215.28" width="75.69" height="24.02"/><g><rect class="cls-97" x="158.66" y="267.04" width="84.25" height="24.02"/><rect class="cls-97" x="257.06" y="267.1" width="84.25" height="24.02" transform="translate(11.71 -12.05) rotate(2.35)"/></g><g><rect class="cls-94" x="420.95" y="233.09" width="24.02" height="24.02"/><g><polyline class="cls-94" points="424.64 242.03 432.57 249.96 451.24 231.3"/><path class="cls-59" d="m432.57,254.46c-1.15,0-2.3-.44-3.18-1.32l-7.94-7.94c-1.76-1.76-1.76-4.61,0-6.36,1.76-1.76,4.61-1.76,6.36,0l4.75,4.75,15.48-15.48c1.76-1.76,4.61-1.76,6.36,0,1.76,1.76,1.76,4.61,0,6.36l-18.66,18.66c-.88.88-2.03,1.32-3.18,1.32Z"/></g></g><path class="cls-59" d="m394.19,370.11h-41.63c-1.93,0-3.5-1.57-3.5-3.5v-34.94c0-1.93,1.57-3.5,3.5-3.5h41.63c1.93,0,3.5,1.57,3.5,3.5s-1.57,3.5-3.5,3.5h-38.13v27.94h38.13c1.93,0,3.5,1.57,3.5,3.5s-1.57,3.5-3.5,3.5Z"/><rect class="cls-95" x="366.12" y="353.99" width="174.96" height="24.02"/><g><path class="cls-52" d="m313.38,424.63c-.08-.01-.17-.04-.25-.07-.65-.25-.98-.98-.73-1.64l3.26-8.52c.25-.65.98-.98,1.64-.73.65.25.98.98.73,1.64l-3.26,8.52c-.22.57-.81.89-1.39.8Z"/><path class="cls-98" d="m311.77,423.17s-.78,3.26,0,3.35c.78.09,12.08.43,12.15-.09.23-1.79-9.01-3.44-9.92-3.26s-2.13-.47-2.23,0Z"/><path class="cls-52" d="m299.74,424.63c-.08-.01-.17-.04-.25-.07-.65-.25-.98-.98-.73-1.64l3.26-8.52c.25-.65.98-.98,1.64-.73.65.25.98.98.73,1.64l-3.26,8.52c-.22.57-.81.89-1.39.8Z"/><path class="cls-98" d="m298.13,423.17s-.78,3.26,0,3.35c.78.09,12.08.43,12.15-.09.23-1.79-9.01-3.44-9.92-3.26-.91.18-2.13-.47-2.23,0Z"/><path class="cls-52" d="m328.61,298.38c-.43-.62-.55-1.41-.32-2.13.59-1.85,1.83-5.3,2.94-5.77,1.52-.64.5,5.54-2.37,8.25l-.25-.35Z"/><path class="cls-59" d="m327.74,297.41c1.22-.09,2.26-.51,3.4-.72,3.13,18.78-.74,31.95-22.43,25.09-4.89-1.55-1.42-5.85,3.49-3.92,16.81,6.6,16.72-7.37,15.53-20.44Z"/><path class="cls-52" d="m292.73,296.31c.35-.67.36-1.47.03-2.15-.83-1.76-2.52-5.01-3.68-5.33-1.59-.43.23,5.56,3.44,7.86l.2-.38Z"/><path class="cls-59" d="m293.25,296.53c-1.08-.54-1.9-1.28-2.87-1.95-10.49,17.02-6.71,29.77,14.56,27.18,4.8-.59,2.76-5.78-2.48-4.68-17.97,3.79-14.74-8.99-9.21-20.56Z"/><path class="cls-98" d="m313.91,351.67l2.33,17.16,1.16,8.58.58,4.29.29,2.16.04.28.02.14v.1s.03.16.03.16c0,.06,0,.1,0,.14v.12c0,.09,0,.14,0,.2,0,.06,0,.12,0,.17v.15s-.03.13-.03.13c-.02.17-.05.31-.07.44-.1.52-.22.91-.33,1.31-.23.78-.48,1.49-.74,2.2-.26.71-.52,1.4-.79,2.08-.54,1.37-1.09,2.72-1.65,4.07-1.12,2.69-2.28,5.35-3.45,8-1.17,2.65-2.37,5.29-3.58,7.92-.61,1.31-1.22,2.63-1.84,3.94l-.94,1.97-.49.99-.26.5c-.09.17-.18.34-.3.55l-3.35-1.81c.05-.1.12-.26.19-.41l.21-.47.42-.97.82-1.98c.54-1.33,1.08-2.66,1.61-3.99,1.06-2.67,2.1-5.35,3.12-8.04,1.02-2.68,2.02-5.38,2.97-8.07.48-1.35.94-2.69,1.38-4.03.22-.67.43-1.34.63-2,.2-.66.39-1.32.53-1.93.07-.3.13-.6.16-.8,0-.04,0-.08,0-.09,0-.02,0,0,0,.11v.05s0,.07,0,.07c0,.03,0,.06,0,.09v.05s0-.01,0-.01l-.03-.13-.05-.26-.42-2.1-.86-4.24-1.73-8.48-3.48-16.96,7.87-1.34Z"/><path class="cls-98" d="m320.43,351.26l4.01,16.84,2,8.42,1,4.22.5,2.12.06.27.03.14.02.1.03.16c.01.06.02.1.02.14l.02.12c.01.09.01.14.02.2,0,.06,0,.12,0,.17v.15s0,.13,0,.13c0,.17-.01.31-.03.45-.05.52-.12.93-.2,1.33-.16.8-.33,1.53-.52,2.26-.19.73-.38,1.44-.58,2.15-.4,1.42-.81,2.82-1.24,4.21-.85,2.79-1.74,5.54-2.65,8.3-.91,2.75-1.83,5.49-2.78,8.23-.47,1.37-.95,2.74-1.44,4.1l-.74,2.05-.39,1.03-.2.53c-.07.18-.14.35-.24.58l-3.51-1.47c.04-.11.1-.27.15-.43l.16-.49.32-1.01.62-2.05c.41-1.37.81-2.75,1.21-4.13.79-2.76,1.56-5.53,2.31-8.3.75-2.77,1.48-5.55,2.16-8.32.34-1.39.67-2.77.98-4.15.15-.69.3-1.38.43-2.05.13-.68.26-1.35.34-1.98.04-.3.07-.61.08-.81,0-.04,0-.08,0-.09,0-.02,0,0,0,.12v.05s.02.07.02.07c0,.03.01.06.02.09v.05s0-.01,0-.01l-.04-.13-.08-.25-.63-2.05-1.28-4.13-2.56-8.27-5.13-16.53,7.7-2.11Z"/><path class="cls-59" d="m300.77,334.86c.05.51.11,1.02.18,1.54.15,1.2.35,2.43.58,3.68.1.51.2,1.02.3,1.53.23,1.08.49,2.17.79,3.29.13.49.27.99.42,1.5.22.77.46,1.54.72,2.33.16.49.32.98.49,1.47.48,1.38,1,2.78,1.59,4.22.74-.29,1.62-.58,2.72-.83,1.5-.34,3.42-.61,5.97-.72.12,0,.23-.01.35-.01,2.83-.1,5.07,0,6.84.24-.66-1.42-1.27-2.77-1.84-4.06-.22-.49-.42-.97-.63-1.45-.23-.54-.46-1.08-.67-1.6-.09-.22-.18-.43-.27-.65-.11-.28-.22-.55-.33-.82-.39-.97-.75-1.9-1.08-2.8-.19-.51-.37-1-.54-1.49-.29-.8-.55-1.58-.79-2.32-.17-.53-.33-1.04-.48-1.54-.11-.35-.21-.7-.3-1.03-1.56-5.5-1.79-9.13-1.41-11.68.35-2.32-.55-4.65-2.41-6.07l-.73-.56c-3.37-2.59-8.3-.74-9.11,3.43-.27,1.4-.48,2.99-.57,4.79-.16,3.08-.12,6.27.23,9.61Z"/><path class="cls-99" d="m310.7,304.3s2.62,1.46,1.72,3.12c-.91,1.66-3.02-1.71-3.02-1.71,0,0,.16-2.28,1.3-1.41Z"/><path class="cls-52" d="m304.87,310.55c1.33,3.45,4.8,5.32,6.91,4.51,2.11-.81,2.05-3.99.72-7.44-1.33-3.45-3.71-4.55-5.81-3.74-2.11.81-3.14,3.22-1.82,6.67Z"/><path class="cls-52" d="m304.97,310.58l3.86-.38c.05.53.46,5.56.26,7.46-.14.58-1.1.85-2.15.6-.94-.23-1.62-.8-1.65-1.34h0c.12-1.14-.14-4.5-.32-6.34Z"/><path class="cls-99" d="m313.68,311.46c-.16-.1-.35-.11-.54-.07-.44.1-1.48.32-1.55.35-.74.22-1.55.06-1.87,1.23-.39,1.41.55.66,1.33-.11.78-.77,1.38-.33,2.06-.38.58-.04,1.08-.72.57-1.02Z"/><path class="cls-99" d="m303.52,308.55s-.12-2.49,1.3-3.95c1.42-1.46,4.8-2.6,6.7.18,0,0,1.16,2.1-1.48,3.29-2.65,1.19-2.6-.41-3.53,1.36s-2.45,1.13-2.61,1.52l-.37-2.39Z"/><path class="cls-52" d="m303.6,312.08c.31.8,1.5,1.52,2.08,1.3.58-.22.48-.93.17-1.73-.31-.8-1.07-1.37-1.65-1.15-.58.22-.91.78-.6,1.58Z"/><path class="cls-98" d="m307.03,318.89c.68,9.67-.05,9.48-2.47,18.56.47,1.19,1.03,2.34,1.63,3.46,1.05-.77,2.12-1.52,3.16-2.32.57-8.31,1.01-11.1-.88-19.68-.48-.04-.96-.02-1.44-.02Z"/></g><g><path class="cls-52" d="m208.15,358.78c.62-.45,1.41-.58,2.14-.36,1.88.57,5.38,1.77,5.86,2.87.67,1.52-5.58.59-8.36-2.27l.35-.25Z"/><path class="cls-59" d="m210.36,357.87c-.38,1.12-.55,2.19-.92,3.43-14.73-4.26-17.89-14.9-17.79-29.39.02-3.27,4.6-2.41,4.98,1.51,1.3,13.47-.98,19.09,13.73,24.45Z"/><path class="cls-52" d="m213.16,422.2c-.08-.01-.17-.04-.25-.07-.66-.25-.99-.99-.74-1.65l3.29-8.59c.25-.66.99-.99,1.65-.74.66.25.99.99.74,1.65l-3.29,8.59c-.22.58-.82.9-1.4.81Z"/><path class="cls-98" d="m211.53,420.73s-.79,3.29,0,3.38c.79.09,12.19.44,12.26-.09.23-1.81-9.09-3.47-10.01-3.29-.91.18-2.15-.48-2.25,0Z"/><path class="cls-52" d="m163.45,420.36c-.07-.05-.13-.11-.19-.17-.48-.52-.45-1.33.07-1.81l6.75-6.25c.52-.48,1.33-.45,1.81.07.48.52.45,1.33-.07,1.81l-6.75,6.25c-.45.42-1.13.45-1.61.1Z"/><path class="cls-98" d="m162.65,418.32s-2.16,2.6-1.49,3.03c.67.43,10.75,5.78,11.04,5.34,1-1.52-6.62-7.13-7.52-7.37s-1.72-1.38-2.02-1Z"/><path class="cls-98" d="m190.45,363.94l1.24,16.33.59,8.16.14,2.03c.03.53.07,1.09.09,1.6-.05.06-.1.13-.16.2-.35.42-.79.87-1.24,1.32-.91.9-1.89,1.8-2.88,2.69-1,.89-2.02,1.78-3.05,2.65-2.06,1.76-4.15,3.5-6.25,5.24l-6.32,5.24c-1.05.88-2.1,1.77-3.15,2.68-.52.46-1.05.92-1.57,1.39-.53.48-1.04.96-1.59,1.54l2.76,2.68c.41-.39.92-.82,1.42-1.23.51-.42,1.04-.83,1.57-1.24,1.06-.82,2.14-1.64,3.23-2.45l6.58-4.87c2.2-1.63,4.4-3.26,6.59-4.94,1.1-.84,2.19-1.68,3.28-2.55,1.09-.87,2.17-1.76,3.26-2.73.54-.49,1.08-.99,1.65-1.59.28-.3.57-.62.9-1.07.16-.24.34-.49.55-.95.1-.25.22-.54.29-1.06,0-.07.01-.14.02-.21v-.14s0-.07,0-.07v-.14c.03-.76.04-1.43.05-2.13l.02-2.06.04-8.22v-16.41s-8.04.32-8.04.32Zm2.29,27.8s-.02.03-.03.05c.06-.13.06-.1.03-.05Z"/><path class="cls-98" d="m228.72,382.03v-.11s-.03-.13-.03-.13l-.02-.13s-.02-.1-.04-.15c-.03-.11-.05-.2-.11-.36-.03-.07-.06-.14-.09-.21-.03-.07-.06-.12-.09-.18-.03-.06-.06-.11-.09-.17l-.07-.12c-.05-.08-.1-.16-.14-.21-.04-.05-.09-.12-.13-.16l-.11-.13c-.14-.16-.26-.29-.37-.39-.22-.22-.41-.38-.59-.54-.18-.16-.36-.3-.53-.43-.34-.27-.67-.52-1-.75-1.31-.94-2.58-1.79-3.87-2.62-2.57-1.65-5.15-3.23-7.74-4.78-5.19-3.1-10.38-6.11-15.64-9.08l-3.72,7.15c5.36,2.59,10.72,5.24,16.01,7.96,2.64,1.36,5.28,2.74,7.85,4.17,1.28.71,2.55,1.44,3.73,2.18.29.18.57.37.83.55.04.03.09.06.13.09-.08.57-.21,1.21-.35,1.85-.15.69-.32,1.4-.5,2.1-.36,1.41-.75,2.84-1.16,4.26-.82,2.85-1.68,5.7-2.57,8.55-.89,2.85-1.79,5.7-2.7,8.56l-1.36,4.29-.67,2.17-.33,1.11-.16.58c-.05.21-.1.39-.17.69l3.76.8c.02-.07.07-.24.12-.4l.17-.5.37-1.03.77-2.09,1.58-4.2c1.06-2.8,2.12-5.61,3.16-8.43,1.04-2.82,2.07-5.65,3.06-8.52.49-1.43.97-2.87,1.43-4.34.23-.74.45-1.48.66-2.24.21-.77.41-1.53.58-2.41.04-.22.08-.45.11-.7.03-.25.06-.52.07-.88,0-.19,0-.37-.03-.66Zm-5.78.65s0,.06,0,.11h0c0-.11,0-.11,0-.11Z"/><path class="cls-59" d="m184.15,346.66c.05.52.11,1.03.18,1.56.15,1.21.35,2.45.59,3.71.1.51.2,1.03.31,1.54.23,1.09.5,2.19.8,3.32.13.5.27,1,.42,1.51.22.77.46,1.56.72,2.35.16.49.32.99.5,1.48.48,1.39,1.01,2.81,1.6,4.26.75-.29,1.63-.58,2.74-.84,1.52-.35,3.45-.62,6.02-.73.12,0,.24-.01.35-.01,2.86-.1,5.12,0,6.9.24-.66-1.43-1.28-2.8-1.86-4.1-.22-.5-.43-.98-.63-1.46-.23-.55-.46-1.09-.68-1.61-.09-.22-.18-.44-.27-.66-.12-.28-.23-.56-.34-.83-.39-.98-.76-1.92-1.09-2.82-.19-.51-.37-1.01-.55-1.5-.29-.81-.56-1.6-.8-2.34-.17-.54-.33-1.05-.49-1.56-.11-.36-.21-.7-.3-1.04-1.58-5.55-1.8-9.22-1.42-11.79.35-2.34-.56-4.69-2.44-6.12l-.73-.56c-3.4-2.61-8.37-.75-9.19,3.46-.27,1.41-.48,3.02-.57,4.84-.16,3.11-.12,6.32.23,9.69Z"/><g><rect class="cls-100" x="196.04" y="336.25" width="24.02" height="24.02"/><path class="cls-59" d="m207.66,357.62c-1.19,0-2.34-.47-3.18-1.32l-7.94-7.94c-1.76-1.76-1.76-4.61,0-6.36,1.76-1.76,4.61-1.76,6.36,0l4.75,4.75,15.48-15.48c1.76-1.76,4.61-1.76,6.36,0,1.76,1.76,1.76,4.61,0,6.36l-18.66,18.67c-.84.84-1.99,1.32-3.18,1.32Z"/></g><path class="cls-99" d="m194.17,315.83s2.65,1.47,1.73,3.15c-.92,1.68-3.05-1.73-3.05-1.73,0,0,.16-2.3,1.31-1.42Z"/><path class="cls-52" d="m188.28,322.14c1.34,3.48,4.84,5.37,6.97,4.55,2.13-.82,2.07-4.03.73-7.51-1.34-3.48-3.74-4.59-5.87-3.77-2.13.82-3.17,3.25-1.83,6.73Z"/><path class="cls-52" d="m188.38,322.16l3.9-.38c.05.53.46,5.61.26,7.53-.14.59-1.11.86-2.17.6-.95-.23-1.64-.81-1.66-1.35h0c.12-1.15-.14-4.54-.32-6.4Z"/><path class="cls-99" d="m189.92,323.58c.69-.49,1.1.17,2.29,1.22,1.19,1.05,3.65,1.37,4.49-1.76.36-1.32.67-.21.84.69.12.66.13,1.35-.06,1.99-.3,1-.9,1.6-1.85,1.96-1.42.54-3.28.21-4.94-.88-.88-.58-1.38-1.64-1.11-2.66.07-.25.18-.45.33-.56Z"/><path class="cls-99" d="m196.83,322.94s-.05.01-.14.04c-.74.22-4.12,1.27-4.69,2.45-.64,1.33,1.74-.2,2.53-.97.79-.77,1.48-.5,2.17-.55.69-.05,1.15-.8.14-.97Z"/><path class="cls-99" d="m186.92,320.12s-.12-2.51,1.31-3.99c1.43-1.48,4.85-2.63,6.76.18,0,0,1.18,2.12-1.5,3.32-2.67,1.2-2.63-.41-3.57,1.37-.94,1.79-2.47,1.14-2.63,1.53l-.37-2.41Z"/><path class="cls-52" d="m187,323.68c.31.81,1.51,1.54,2.1,1.31s.48-.94.17-1.75-1.08-1.38-1.66-1.16c-.59.23-.92.79-.61,1.6Z"/><path class="cls-98" d="m191.62,332.76c.18.38.34.82.48,1.24.14.42.25.85.34,1.28.18.86.25,1.73.15,2.53-.1.8-.37,1.52-.81,2.08l-.04.05-.06.08-.11.16-.23.32c-.08.11-.14.22-.21.33l-.2.34c-.14.22-.24.46-.36.69-.06.12-.12.23-.17.35l-.15.36c-.39.96-.69,1.96-.86,2.99-.05.26-.08.51-.11.77-.03.26-.07.52-.07.78-.01.26-.03.53-.03.79l.02.8c.06,1.06.22,2.14.54,3.21.33,1.06.81,2.1,1.44,3.07l3.51.92-.03-3.55c-.47-.53-.89-1.14-1.23-1.82-.33-.69-.57-1.44-.74-2.22l-.11-.59c-.03-.2-.04-.4-.07-.61-.03-.2-.03-.41-.04-.61,0-.21-.02-.41,0-.62,0-.83.12-1.66.31-2.46l.07-.3c.03-.1.06-.2.09-.3.06-.2.12-.4.2-.59l.11-.29c.04-.1.07-.19.12-.28l.13-.27.07-.14.03-.07.05-.1c.28-.51.48-1.05.6-1.6.12-.55.16-1.09.14-1.62-.04-1.06-.29-2.05-.63-2.98-.17-.46-.37-.91-.59-1.35-.22-.44-.45-.85-.73-1.28l-.83.49Z"/><path class="cls-52" d="m196.8,348.83c0-.76.37-1.48.99-1.94,1.57-1.17,4.61-3.28,5.79-3.02,1.62.36-2.83,4.85-6.78,5.39v-.44Z"/><path class="cls-59" d="m197.26,347.14c.6,1.06,1.45,1.99,2.1,3.01-19.48,11.45-28.06-2.84-14.56-18.8,3.05-3.6,5.91,1.11,2.42,4.71-11.99,12.34-2.81,17.61,10.04,11.09Z"/></g><g><rect class="cls-100" x="257.98" y="363.52" width="24.02" height="24.02"/><path class="cls-59" d="m269.6,384.9c-1.15,0-2.3-.44-3.18-1.32l-7.94-7.94c-1.76-1.76-1.76-4.61,0-6.36,1.76-1.76,4.61-1.76,6.36,0l4.75,4.75,15.48-15.48c1.76-1.76,4.61-1.76,6.36,0,1.76,1.76,1.76,4.61,0,6.36l-18.66,18.66c-.88.88-2.03,1.32-3.18,1.32Z"/></g><g><rect class="cls-94" x="257.98" y="326.57" width="24.02" height="24.02"/><g><polyline class="cls-94" points="261.67 335.51 269.6 343.45 288.26 324.78"/><path class="cls-59" d="m269.6,347.95c-1.15,0-2.3-.44-3.18-1.32l-7.94-7.94c-1.76-1.76-1.76-4.61,0-6.36,1.76-1.76,4.61-1.76,6.36,0l4.75,4.75,15.48-15.48c1.76-1.76,4.61-1.76,6.36,0,1.76,1.76,1.76,4.61,0,6.36l-18.66,18.66c-.88.88-2.03,1.32-3.18,1.32Z"/></g></g><polygon class="cls-92" points="253.13 307.22 250.15 304.25 244.53 309.87 238.91 304.25 235.94 307.22 241.56 312.84 235.94 318.46 238.91 321.44 244.53 315.82 250.15 321.44 253.13 318.46 247.5 312.84 253.13 307.22"/><polygon class="cls-92" points="496.31 277.53 493.33 274.56 487.71 280.18 482.09 274.56 479.12 277.53 484.74 283.15 479.12 288.77 482.09 291.75 487.71 286.13 493.33 291.75 496.31 288.77 490.68 283.15 496.31 277.53"/><path class="cls-52" d="m424.44,357.27c.08-.01.16-.03.24-.06.63-.23.96-.94.72-1.57l-3.05-8.23c-.23-.63-.94-.95-1.57-.72-.63.23-.96.94-.72,1.57l3.05,8.23c.21.55.77.87,1.33.78Z"/><path class="cls-98" d="m425.7,355.43s1.23,2.99.49,3.19c-.73.2-11.43,2.19-11.57,1.71-.48-1.67,8.07-4.6,8.96-4.56.89.04,1.96-.76,2.13-.33Z"/><path class="cls-98" d="m410.31,323.29c0-.11,0-.21.02-.32,0-.02,0-.07.01-.11l.02-.12c.01-.08.03-.16.05-.24v-.06s.03-.08.05-.12c.03-.08.05-.17.09-.25l.05-.12.04-.09c.03-.06.06-.12.09-.18.07-.13.12-.21.19-.3l.09-.13.08-.1c.23-.27.39-.41.55-.54.15-.12.29-.22.41-.3.49-.32.86-.5,1.23-.68.73-.34,1.39-.6,2.05-.85.66-.24,1.31-.46,1.95-.68,1.29-.42,2.57-.81,3.85-1.18,2.55-.74,5.1-1.41,7.65-2.06,2.55-.65,5.1-1.27,7.66-1.88,2.56-.6,5.1-1.19,7.69-1.76l1.38,7.38c-2.54.4-5.11.82-7.66,1.26-2.56.44-5.11.89-7.65,1.37-2.54.48-5.07.98-7.57,1.54-1.25.28-2.49.57-3.7.88-.61.16-1.2.32-1.78.49-.45.13-.89.28-1.28.42,0,.05.02.11.03.17.22,1.16.52,2.4.84,3.63.65,2.47,1.38,4.96,2.13,7.43.75,2.48,1.53,4.96,2.33,7.43.4,1.24.81,2.47,1.22,3.7l.62,1.84.32.91c.1.3.21.61.31.87l-3.3,1.39c-.15-.34-.28-.64-.41-.95l-.38-.92-.75-1.82c-.49-1.22-.98-2.43-1.46-3.65-.96-2.44-1.9-4.88-2.82-7.34-.92-2.46-1.81-4.93-2.65-7.46-.42-1.27-.82-2.54-1.17-3.92-.09-.35-.17-.7-.25-1.1-.04-.2-.07-.4-.1-.64-.02-.11-.03-.25-.04-.38,0-.06,0-.15-.01-.23v-.12s0-.08,0-.13Z"/><rect class="cls-95" x="366.12" y="319.66" width="125.69" height="24.02"/><g><path class="cls-52" d="m461.43,315s-3.27,5.38-2.72,6.87,4.23-3.28,4.26-7.09l-1.54.22Z"/><path class="cls-52" d="m450.56,362.83c.06-.05.12-.11.18-.17.44-.51.37-1.28-.14-1.72l-6.69-5.69c-.51-.44-1.29-.37-1.72.14-.44.51-.37,1.28.14,1.72l6.69,5.69c.45.38,1.1.38,1.54.03Z"/><path class="cls-98" d="m450.76,360.61s2.53,2,1.99,2.54c-.54.54-8.9,7.51-9.26,7.15-1.24-1.22,4.78-7.96,5.57-8.36.79-.4,1.33-1.63,1.69-1.33Z"/><path class="cls-98" d="m445.38,310.71c-1.97,1.9-3.9,3.78-5.83,5.7-1.93,1.91-3.84,3.83-5.75,5.78-1.9,1.95-3.79,3.91-5.65,5.93-.93,1.01-1.85,2.03-2.76,3.09-.46.53-.91,1.07-1.36,1.63-.45.56-.9,1.14-1.35,1.79-.11.16-.23.33-.34.52-.12.18-.23.37-.36.6-.12.23-.25.47-.39.82l-.03.07-.03.08-.05.16c-.02.06-.04.13-.05.19l-.02.1-.03.12-.02.12s-.01.08-.02.13c-.01.1-.02.21-.03.32,0,.13,0,.27,0,.41,0,.03,0,.07.01.12l.02.13c.01.09.03.18.05.26.01.05.02.06.02.09l.02.07.04.14c.03.08.05.14.08.21.03.07.05.11.08.17.03.06.05.1.07.15.1.18.18.31.26.44.16.24.3.42.44.6.27.34.53.63.79.91.51.55,1.02,1.05,1.52,1.54.51.49,1.01.96,1.52,1.43,2.03,1.86,4.09,3.64,6.16,5.39,2.07,1.75,4.16,3.48,6.26,5.19,1.05.86,2.1,1.71,3.16,2.55l1.6,1.27.81.63c.27.21.54.42.85.65l2.25-2.89c-.22-.19-.48-.41-.72-.63l-.75-.66-1.49-1.35c-.99-.9-1.98-1.81-2.97-2.72-1.97-1.82-3.93-3.66-5.86-5.52-1.93-1.86-3.84-3.73-5.67-5.63-.46-.47-.9-.95-1.34-1.43-.43-.48-.86-.95-1.23-1.42-.19-.23-.36-.46-.5-.65-.07-.09-.12-.18-.14-.23,0-.02-.01-.03,0,0l.02.03.03.06s.02.06.04.09c0,.03.02.05.03.08l.03.1c.02.07.03.13.04.2v.1s.02.09.02.09c0,.09.01.19,0,.28,0,.06,0,.13-.01.19v.07s-.02.06-.02.06l-.02.09s-.01.05-.02.07c0,.01,0,.02,0,.04v.02s0,0,0,0c-.01.04.02-.01.06-.08.05-.07.11-.16.18-.26.07-.1.15-.2.24-.31.34-.43.75-.9,1.18-1.37.43-.47.87-.93,1.32-1.4.91-.93,1.85-1.85,2.8-2.77,1.91-1.83,3.88-3.64,5.86-5.44,1.98-1.79,3.99-3.57,6.01-5.34,2.02-1.76,4.05-3.53,6.08-5.25l-5.15-5.71Z"/><path class="cls-52" d="m420.86,270.63s-5.74-2.59-7.15-1.87,3.77,3.8,7.55,3.36l-.4-1.5Z"/><g><path class="cls-59" d="m450.27,282.01h.04s0,0,0,0h-.02s-.07.03-.07.03l-.17.04-.19.04-.21.04c-.28.04-.58.08-.88.1-.61.04-1.24.06-1.88.02-1.28-.05-2.6-.25-3.9-.52-2.62-.56-5.22-1.48-7.74-2.62-2.52-1.14-4.99-2.47-7.37-3.97-2.38-1.49-4.7-3.11-6.95-4.83l-1.68,2.07c2.2,1.89,4.49,3.71,6.87,5.4,2.38,1.7,4.89,3.26,7.52,4.64,2.63,1.38,5.4,2.56,8.35,3.38,1.48.41,2.99.73,4.57.89.79.09,1.59.13,2.42.11.41,0,.83-.03,1.26-.07l.33-.04.34-.05c.12-.02.23-.04.35-.06l.19-.04.11-.03h.06s.1-.04.1-.04l-1.42-4.5Z"/><path class="cls-59" d="m458.35,298.83c-.12.48-.25.96-.38,1.45-.31,1.13-.67,2.26-1.07,3.42-.16.47-.33.94-.5,1.41-.37,1-.77,2-1.21,3.03-.19.45-.4.91-.61,1.37-.31.7-.65,1.41-1.01,2.12-.22.44-.44.89-.68,1.33-.65,1.25-1.34,2.51-2.1,3.8-.66-.38-1.46-.78-2.48-1.17-1.39-.54-3.17-1.06-5.58-1.52-.11-.02-.22-.04-.33-.06-2.68-.49-4.83-.7-6.55-.72.82-1.26,1.6-2.46,2.32-3.62.27-.44.54-.87.8-1.29.3-.48.59-.96.86-1.43.12-.2.23-.39.34-.58.15-.25.29-.49.43-.74.51-.87.98-1.71,1.42-2.52.25-.46.49-.9.72-1.34.38-.73.74-1.43,1.08-2.1.23-.48.46-.95.68-1.4.15-.32.29-.64.43-.94,2.25-5.02,2.98-8.45,2.97-10.94,0-2.26,1.17-4.35,3.15-5.45l.77-.43c3.57-2,8.01.45,8.2,4.54.06,1.37.04,2.92-.13,4.64-.28,2.96-.76,5.99-1.55,9.12Z"/><path class="cls-59" d="m460.88,314.97v-.02s.04-.12.04-.12l.07-.24c.1-.34.19-.68.29-1.03.19-.7.36-1.41.54-2.12.35-1.42.69-2.86,1.02-4.29.67-2.87,1.31-5.75,1.94-8.62l.23-1.08.05-.22c-.04-.05-.08-.11-.12-.16-.21-.27-.43-.55-.66-.83-.91-1.12-1.86-2.24-2.81-3.36-1.91-2.23-3.84-4.46-5.78-6.67l3.64-3.04c1.84,2.33,3.66,4.66,5.47,7.02.9,1.18,1.8,2.36,2.69,3.59.22.31.45.62.67.94.11.16.23.33.35.52l.09.15c.03.05.06.1.1.17l.06.1.07.12c.03.05.06.13.09.19,0,0,.02.05.04.09.01.04.03.08.04.11.01.04.02.08.04.12,0,0,.05.19.06.33.02.15.02.3,0,.44-.01.1-.01.1-.01.1v.02s-.02.07-.02.07l-.02.07v.06s-.05.15-.05.15l-.07.28-.14.54-.29,1.08c-.78,2.86-1.58,5.71-2.4,8.56-.41,1.42-.83,2.85-1.26,4.27-.22.71-.43,1.42-.67,2.14-.12.36-.24.72-.36,1.09l-.1.28-.05.14-.06.15-.06.15v.04s-.03.05-.03.05l-.04.09-.04.09-.05.1c-.04.07-.08.15-.13.22l-2.36-1.82Z"/></g><path class="cls-99" d="m453.15,268.33s-2.7,1.02-2.07,2.74c.63,1.71,3.11-1.21,3.11-1.21,0,0,.16-2.2-1.04-1.52Z"/><path class="cls-52" d="m457.84,275.1c-1.74,3.1-5.32,4.4-7.21,3.34-1.89-1.06-1.39-4.09.35-7.19,1.74-3.1,4.17-3.82,6.06-2.75,1.89,1.06,2.54,3.51.8,6.61Z"/><path class="cls-52" d="m457.74,275.11l-3.63-.9c-.12.5-1.21,5.24-1.29,7.07.05.58.93.97,1.97.87.93-.09,1.66-.54,1.76-1.04h0c.05-1.1.76-4.26,1.19-6Z"/><path class="cls-99" d="m456.09,276.24c-.59-.56-1.07.01-2.33.83-1.27.83-3.63.79-4-2.28-.15-1.3-.6-.29-.89.54-.21.61-.31,1.25-.22,1.89.14.98.63,1.63,1.48,2.1,1.26.71,3.06.65,4.78-.15.91-.42,1.53-1.36,1.41-2.35-.03-.25-.1-.45-.24-.58Z"/><path class="cls-99" d="m449.65,274.68s.05.02.13.06c.67.31,3.72,1.77,4.09,2.97.42,1.35-1.61-.43-2.25-1.27s-1.33-.68-1.97-.82c-.64-.14-.98-.91,0-.94Z"/><path class="cls-99" d="m459.4,273.38s.46-2.35-.69-3.95-4.21-3.15-6.41-.77c0,0-1.4,1.84.96,3.34s2.54-.03,3.18,1.79c.64,1.82,2.18,1.41,2.27,1.81l.69-2.22Z"/><path class="cls-52" d="m458.83,276.73c-.41.72-1.64,1.24-2.16.95s-.32-.95.08-1.67,1.21-1.16,1.73-.87c.52.29.76.87.35,1.59Z"/><path class="cls-98" d="m452.96,284.29c-.19.29-.37.62-.53.95-.16.33-.31.66-.43,1-.24.67-.4,1.37-.42,2.03-.02.66.12,1.28.41,1.77l.03.05.04.07.07.14.15.29c.05.1.09.19.13.29l.12.3c.09.2.14.4.21.6.03.1.07.2.1.3l.08.31c.2.82.32,1.67.34,2.52.01.21,0,.43,0,.64,0,.21,0,.43-.03.64-.02.21-.04.43-.07.64l-.11.64c-.17.85-.43,1.71-.82,2.53-.39.82-.9,1.6-1.52,2.31l-2.95.33.45-2.87c.45-.38.85-.82,1.21-1.33.35-.52.63-1.09.86-1.71l.16-.47c.05-.16.08-.32.13-.48.05-.16.07-.33.1-.49.03-.17.07-.33.08-.5.09-.67.1-1.35.04-2.03l-.02-.25c-.01-.08-.03-.17-.04-.25-.03-.17-.05-.34-.09-.5l-.06-.25c-.02-.08-.04-.17-.07-.24l-.08-.24-.04-.12-.02-.06-.03-.08c-.17-.44-.27-.91-.3-1.36-.03-.46,0-.9.08-1.33.16-.85.47-1.63.86-2.34.19-.36.41-.69.64-1.02.23-.33.47-.63.74-.95l.62.49Z"/><polygon class="cls-1" points="469.86 278.55 469.86 278.58 469.85 278.59 469.85 278.59 469.85 278.58 469.85 278.58 469.86 278.55"/></g><g><path class="cls-94" d="m211.89,167.14c-4.86,0-8.97,3.26-10.24,7.72h20.48c-1.27-4.46-5.37-7.72-10.24-7.72Z"/><path class="cls-94" d="m239.82,167.14c-4.86,0-8.97,3.26-10.24,7.72h20.48c-1.27-4.46-5.37-7.72-10.24-7.72Z"/><path class="cls-94" d="m226.52,163.83c-6.95,0-12.81,4.66-14.62,11.02h29.25c-1.82-6.36-7.68-11.02-14.62-11.02Z"/></g><g><rect class="cls-97" x="237.99" y="186.87" width="24.02" height="24.02"/><g><polyline class="cls-97" points="241.67 195.81 249.6 203.75 268.27 185.09"/><path class="cls-59" d="m249.6,208.25c-1.15,0-2.3-.44-3.18-1.32l-7.94-7.94c-1.76-1.76-1.76-4.61,0-6.36,1.76-1.76,4.61-1.76,6.36,0l4.75,4.75,15.48-15.48c1.76-1.76,4.61-1.76,6.36,0,1.76,1.76,1.76,4.61,0,6.36l-18.66,18.66c-.88.88-2.03,1.32-3.18,1.32Z"/></g></g><path class="cls-59" d="m340.47,254.76c1.89,0,3.43-1.53,3.43-3.43,0,1.89,1.53,3.43,3.43,3.43-1.89,0-3.43,1.53-3.43,3.43,0-1.89-1.53-3.43-3.43-3.43Z"/><path class="cls-59" d="m541.82,288.35c1.89,0,3.43-1.53,3.43-3.43,0,1.89,1.53,3.43,3.43,3.43-1.89,0-3.43,1.53-3.43,3.43,0-1.89-1.53-3.43-3.43-3.43Z"/><path class="cls-59" d="m341.17,381.9c1.89,0,3.43-1.53,3.43-3.43,0,1.89,1.53,3.43,3.43,3.43-1.89,0-3.43,1.53-3.43,3.43,0-1.89-1.53-3.43-3.43-3.43Z"/><path class="cls-59" d="m398.37,222.33c3.31,0,5.99-2.68,5.99-5.99,0,3.31,2.68,5.99,5.99,5.99-3.31,0-5.99,2.68-5.99,5.99,0-3.31-2.68-5.99-5.99-5.99Z"/><path class="cls-59" d="m520.47,307.84c3.31,0,5.99-2.68,5.99-5.99,0,3.31,2.68,5.99,5.99,5.99-3.31,0-5.99,2.68-5.99,5.99,0-3.31-2.68-5.99-5.99-5.99Z"/><path class="cls-59" d="m167.91,276.79c1.89,0,3.43-1.53,3.43-3.43,0,1.89,1.53,3.43,3.43,3.43-1.89,0-3.43,1.53-3.43,3.43,0-1.89-1.53-3.43-3.43-3.43Z"/><g><path class="cls-52" d="m538.19,409.97c.08-.02.16-.06.24-.1.61-.34.84-1.11.51-1.72l-4.37-8c-.34-.61-1.11-.84-1.72-.51-.61.34-.84,1.11-.51,1.72l4.37,8c.29.54.92.78,1.48.6Z"/><path class="cls-98" d="m539.21,407.89s1.71,2.88.99,3.2c-.72.32-11.42,3.97-11.64,3.49-.74-1.64,7.6-5.94,8.52-6.04.92-.09,1.9-1.08,2.13-.66Z"/><path class="cls-98" d="m555.24,366.4c-2.61.81-5.26,1.65-7.87,2.5-2.62.85-5.24,1.73-7.84,2.62-2.6.9-5.19,1.82-7.73,2.78-1.27.48-2.53.98-3.76,1.5-.61.26-1.22.52-1.8.79-.58.27-1.14.55-1.61.82-.22.13-.44.27-.5.31-.01,0,0,0,.01-.02.03-.04.07-.08.18-.25l.03-.06s.03-.06.05-.09c.03-.07.05-.11.1-.22.02-.05.04-.1.05-.15l.02-.08.03-.1c.02-.07.03-.14.04-.21v-.13s.02-.09.02-.13v-.07s0-.05,0-.05c0-.03,0-.05,0-.08,0-.02,0-.02,0-.01h0s0,0,0,.02c0,.04,0,.06.02.12.02.1.05.22.08.35.07.26.17.55.26.84.41,1.19.92,2.45,1.45,3.7,1.06,2.5,2.21,5.01,3.38,7.5,1.17,2.49,2.38,4.98,3.6,7.46.61,1.24,1.23,2.48,1.85,3.71l.94,1.84.47.91c.16.3.32.61.46.87l-3.26,1.97c-.21-.33-.39-.63-.58-.93l-.54-.9-1.07-1.81c-.71-1.2-1.4-2.41-2.1-3.62-1.39-2.42-2.76-4.85-4.1-7.3-1.34-2.45-2.67-4.91-3.94-7.45-.63-1.27-1.25-2.55-1.84-3.95-.15-.36-.29-.71-.43-1.12-.07-.2-.14-.41-.21-.65-.03-.11-.07-.26-.1-.39-.02-.06-.03-.16-.05-.24l-.02-.12s-.01-.08-.02-.14c-.01-.11-.02-.23-.03-.34,0-.02,0-.07,0-.11v-.13c0-.09,0-.17.01-.26v-.06s.02-.13.02-.13c.01-.09.03-.18.05-.27l.03-.14.03-.11c.02-.07.05-.14.07-.21.06-.15.1-.24.15-.34l.08-.15.07-.12c.2-.32.35-.49.5-.66.14-.15.27-.28.39-.38.47-.42.83-.66,1.19-.91.71-.47,1.37-.85,2.03-1.21.66-.36,1.3-.69,1.95-1.01,1.29-.64,2.58-1.25,3.87-1.83,2.58-1.17,5.16-2.27,7.74-3.35,2.59-1.08,5.18-2.12,7.77-3.15,2.6-1.03,5.19-2.04,7.82-3.04l2.59,7.56Z"/><path class="cls-52" d="m599.14,424.69c.07-.04.14-.09.21-.15.53-.46.58-1.26.12-1.79l-6-6.87c-.46-.53-1.26-.58-1.79-.12-.53.46-.58,1.26-.12,1.79l6,6.87c.4.46,1.07.56,1.58.27Z"/><path class="cls-98" d="m600.09,423.17s.78,3.26,0,3.35c-.78.09-12.08.43-12.15-.09-.23-1.79,9.01-3.44,9.92-3.26s2.13-.47,2.23,0Z"/><path class="cls-98" d="m594.27,421.91c1.14-.82,2.27-1.65,3.32-2.58-15.91-15.29-32.96-42.12-38.6-63.83-3.52,1.01-7.02,2.09-10.51,3.19,8.6,20.71,30.98,46.99,45.78,63.23Z"/><path class="cls-59" d="m559.56,353.15c-.31-.88-.64-1.78-.98-2.64-.23-.57-.48-1.15-.71-1.68-.53-1.21-1.14-2.37-1.77-3.48-.3-.53-.61-1.02-.92-1.5-.77-1.18-1.56-2.32-2.52-3.33-.41-.44-.85-.86-1.29-1.28-2.85-2.72-6.43-5.2-9.83-6.88-1.99-.98-4.05-2-5.82-2.4-5.29-1.19-7.72,1.32-7.9,6.21-.07,1.99,2.13,4.78,5.4,6.11,3.58,1.45,7.67,4.31,9.89,8.05.14.23.34.61.49.91.2.44.45.9.64,1.4.27.7.52,1.45.75,2.22.14.46.28.96.41,1.48.24.91.45,1.91.66,2.86.06.26.12.57.18.85.05.22.09.44.14.68.07.31.14.62.21.94.48.11.96.18,1.45.18,3.4.03,6.39-2.49,9.78-2.64,1.11-.05,2.23.16,3.34.07.15-.01.3-.03.45-.05-.51-1.47-.99-2.95-1.5-4.43-.18-.54-.37-1.11-.57-1.65Z"/><path class="cls-99" d="m517.88,328.37s-.32,2.98,1.57,3.2c1.88.21.33-3.46.33-3.46,0,0-1.96-1.18-1.9.26Z"/><path class="cls-52" d="m526.35,327.19c2.06,3.07,1.59,6.99-.28,8.25s-4.45-.62-6.51-3.69c-2.06-3.07-1.59-5.65.28-6.91s4.44-.72,6.5,2.35Z"/><path class="cls-52" d="m526.31,327.28l-2.53,2.94c.4.35,4.29,3.57,5.95,4.5.56.22,1.33-.41,1.73-1.42.35-.9.28-1.79-.15-2.12h0c-1-.56-3.6-2.7-5.01-3.91Z"/><path class="cls-99" d="m526.59,329.34c-.79.28-.49.99-.32,2.55.17,1.56-.97,3.74-3.99,2.64-1.28-.47-.55.42.08,1.07.46.48,1.02.87,1.65,1.08.98.33,1.81.17,2.64-.39,1.25-.84,2.04-2.54,2.1-4.5.03-1.04-.54-2.06-1.52-2.41-.24-.09-.47-.11-.65-.05Z"/><path class="cls-99" d="m525.48,324.93s-1.97-1.53-3.98-1.21c-2.01.32-4.89,2.43-3.71,5.58,0,0,1.05,2.16,3.54.68,2.5-1.48,1.16-2.36,3.14-2.11,1.98.25,2.33-1.36,2.74-1.26l-1.74-1.68Z"/><path class="cls-52" d="m528.33,327.03c.48.71.38,2.1-.13,2.45-.52.35-1.03-.14-1.51-.86-.48-.71-.51-1.66,0-2.01.52-.35,1.16-.3,1.64.42Z"/><path class="cls-52" d="m496.18,341.65s-5.99-1.88-7.3-1c-1.31.88,4.19,3.32,7.88,2.44l-.58-1.44Z"/><path class="cls-98" d="m530.27,338.71c.18.38.34.82.48,1.24.14.42.25.85.34,1.28.18.86.25,1.73.15,2.53-.1.8-.37,1.52-.81,2.08l-.04.05-.06.08-.11.16-.23.32c-.08.11-.14.22-.21.33l-.2.34c-.14.22-.24.46-.36.69-.06.12-.12.23-.17.35l-.15.36c-.39.96-.69,1.96-.86,2.99-.05.26-.08.51-.11.77-.03.26-.07.52-.07.78-.01.26-.03.53-.03.79l.02.8c.06,1.06.22,2.14.54,3.21.33,1.06.81,2.1,1.44,3.07l3.51.92-.03-3.55c-.47-.53-.89-1.14-1.23-1.82-.33-.69-.57-1.44-.74-2.22l-.11-.59c-.03-.2-.04-.4-.07-.61-.03-.2-.03-.41-.04-.61,0-.21-.02-.41,0-.62,0-.83.12-1.66.31-2.46l.07-.3c.03-.1.06-.2.09-.3.06-.2.12-.4.2-.59l.11-.29c.04-.1.07-.19.12-.28l.13-.27.07-.14.03-.07.05-.1c.28-.51.48-1.05.6-1.6.12-.55.16-1.09.14-1.62-.04-1.06-.29-2.05-.63-2.98-.17-.46-.37-.91-.59-1.35-.22-.44-.45-.85-.73-1.28l-.83.49Z"/><path class="cls-59" d="m495.9,341.27c-.25,1.06-.56,1.96-.89,3.1,18.73,5.45,24.41,5.58,40.63-5.88,3.66-2.59-.13-5.8-4.39-2.6-14.61,10.96-17.93,8.75-35.35,5.38Z"/></g><g><polygon class="cls-52" points="263.48 133.45 246.35 151.61 290.3 185.72 307.59 165.6 263.48 133.45"/><path class="cls-52" d="m320,157.55c-9.93-4.3-30.95-5.94-31.54-5.53l-9.51,25.4c1.3,3.41,5.76,7.85,9.96,10.6,4.32,2.82,9.3,4.47,14.44,4.82l9.59.65,7.44-8.34,5.47-9.7,4.02-14.92-9.88-2.98Z"/><path class="cls-52" d="m342.01,180.31l-17.45-10.98c-2.05-1.29-2.67-4-1.38-6.05h0c1.29-2.05,4-2.67,6.05-1.38l17.45,10.98c2.05,1.29,2.67,4,1.38,6.05h0c-1.29,2.05-4,2.67-6.05,1.38Z"/><path class="cls-52" d="m324.58,201.7l-9.51-18.29c-1.12-2.15-.28-4.8,1.87-5.92h0c2.15-1.12,4.8-.28,5.92,1.87l9.51,18.29c1.12,2.15.28,4.8-1.87,5.92h0c-2.15,1.12-4.8.28-5.92-1.87Z"/><path class="cls-52" d="m314.06,203.2l-7.88-15.16c-1.12-2.15-.28-4.8,1.87-5.92h0c2.15-1.12,4.8-.28,5.92,1.87l7.88,15.16c1.12,2.15.28,4.8-1.87,5.92h0c-2.15,1.12-4.8.28-5.92-1.87Z"/><path class="cls-52" d="m318.33,206.01l-6.13.04c-2.1.01-3.81-1.68-3.82-3.78h0c-.01-1.93,1.42-3.56,3.34-3.79l6.12-.75c2.25-.28,4.25,1.48,4.26,3.75v.71c.02,2.1-1.67,3.81-3.77,3.82Z"/><path class="cls-52" d="m353.81,189.68l-11.65-9.28c-1.9-1.51-2.21-4.27-.7-6.17h0c1.51-1.9,4.27-2.21,6.17-.7l11.65,9.28c1.9,1.51,2.21,4.27.7,6.17h0c-1.51,1.9-4.27,2.21-6.17.7Z"/><path class="cls-52" d="m329.12,198.83l5.03-6.03h0c1.69-1.78,4.53-1.76,6.2.03h0c1.6,1.72,1.5,4.41-.22,6.01l-7.18,6.66c-1.11,1.03-2.86.92-3.83-.24h0c-1.55-1.86-1.55-4.56,0-6.42Z"/><path class="cls-52" d="m309.85,196.72l3.83,4.07h0c1.11,1.35.86,3.35-.56,4.38h0c-1.35.98-3.24.68-4.23-.67l-4.09-5.64c-.63-.87-.4-2.1.5-2.69h0c1.45-.94,3.36-.7,4.54.55Z"/><path class="cls-52" d="m333.43,187.85l-15.79-13.25c-1.86-1.56-2.1-4.32-.54-6.18h0c1.56-1.86,4.32-2.1,6.18-.54l15.79,13.25c1.86,1.56,2.1,4.32.54,6.18h0c-1.56,1.86-4.32,2.1-6.18.54Z"/><path class="cls-52" d="m333.16,195.61l-1.09-10.25c-.26-2.41,1.49-4.57,3.9-4.83h0c2.41-.26,4.57,1.49,4.83,3.9l1.09,10.25c.26,2.41-1.49,4.57-3.9,4.83h0c-2.41.26-4.57-1.49-4.83-3.9Z"/><path class="cls-52" d="m317.28,198.95l9.56-3.85c2.25-.91,4.8.18,5.71,2.43h0c.91,2.25-.18,4.8-2.43,5.71l-9.56,3.85c-2.25.91-4.8-.18-5.71-2.43h0c-.91-2.25.18-4.8,2.43-5.71Z"/><path class="cls-52" d="m340.25,159.84l-23.26,7.92c-1.18.4-2.45-.26-2.79-1.46l-1.56-5.42c-.33-1.16.33-2.36,1.49-2.7l27.44-7.92c1.16-.33,2.36.33,2.7,1.49l.07.25c.95,3.28-.85,6.73-4.09,7.84Z"/><polygon class="cls-97" points="275.97 141.06 259.68 164.84 113.97 62 171.33 61.62 275.97 141.06"/><path class="cls-52" d="m360.57,195.07l-6.35-5.08h0c-1.88-1.71-1.92-4.65-.09-6.41h0c1.75-1.69,4.53-1.64,6.22.11l7.04,7.29c1.09,1.13,1.01,2.94-.18,3.97h0c-1.89,1.64-4.69,1.7-6.65.13Z"/></g><g><rect class="cls-39" x="144.69" y="155.09" width="2" height="42.84" transform="translate(-80.33 140.5) rotate(-41.41)"/><rect class="cls-39" x="152.61" y="175.51" width="42.84" height="2" transform="translate(-73.46 190.24) rotate(-48.58)"/><rect class="cls-39" x="158.86" y="160.38" width="2" height="32.19"/><rect class="cls-39" x="149.7" y="175.47" width="35.67" height="2" transform="translate(-63.89 251.66) rotate(-64.49)"/><rect class="cls-40" x="151.18" y="158.64" width="2" height="35.67" transform="translate(-61.16 82.73) rotate(-25.51)"/><g><path class="cls-83" d="m188.19,160.44c-1.54-.97-3.36-1.53-5.32-1.53-3.08,0-5.83,1.39-7.67,3.57-.08-.1-.16-.19-.25-.28-1.84-2.02-4.48-3.29-7.42-3.29s-5.83,1.39-7.67,3.57c-1.84-2.18-4.6-3.57-7.67-3.57s-5.58,1.27-7.42,3.28c-.09.09-.17.19-.25.29-1.84-2.18-4.59-3.57-7.67-3.57-1.96,0-3.78.56-5.32,1.53.87-14.76,13-26.49,27.93-26.7.14,0,.27,0,.4,0s.27,0,.41,0c14.93.21,27.06,11.94,27.93,26.7Z"/><path class="cls-60" d="m175.22,157.75c0,1.52-.09,3.01-.27,4.45-1.84-2.02-4.48-3.29-7.42-3.29s-5.83,1.39-7.67,3.57c-1.84-2.18-4.6-3.57-7.67-3.57s-5.58,1.27-7.42,3.28c-.18-1.44-.27-2.93-.27-4.45,0-13.05,6.66-23.66,14.96-24,.14,0,.27,0,.4,0s.27,0,.41,0c8.3.34,14.96,10.96,14.96,24Z"/></g></g><g><path class="cls-100" d="m145.28,194.81l-22.33,5.74,2.73,10.63,7.27-1.87-.98-3.8,5.03-1.29-1.36,8.77c3.03-.44,6.12-.41,9.14.11l1.89-12.87-1.39-5.41Z"/><path class="cls-94" d="m135.64,212.98l-1.96,12.63,9.62-2.47,1.48-10.05c-3.02-.52-6.11-.54-9.14-.11Z"/><path class="cls-100" d="m159.77,200.9l-1.34.34-.47-2.62,10.1-2.59-1.7-6.64-17.34,4.45,2.76,16.18,7.57-1.94c3.17-.81,4.14-.27,4.43.85.34,1.34-.93,2.42-2.9,2.93-2.2.56-4.89.62-7.46-.11l-.59,3.24c1.37.25,2.75.37,4.14.23,4.83-.47,8.76-3.87,12.96-6.3.92-.53,1.87-1.02,2.84-1.46-.05-.33-.11-.67-.2-1-1.19-4.62-5.08-7.56-12.8-5.58Z"/><path class="cls-94" d="m156.96,215.23c-1.39.13-2.77.01-4.14-.23l-.73,4.01c3.2.85,7.31.63,10.89-.29,7.76-1.99,10.4-6.83,9.77-11.24-.97.44-1.92.93-2.84,1.46-4.2,2.42-8.13,5.83-12.96,6.3Z"/><path class="cls-100" d="m179.54,201.11c3.95-1.02,6.26-4.39,5.07-9.05-1.19-4.62-4.85-6.5-8.8-5.49-3.95,1.02-6.26,4.43-5.07,9.05,1.2,4.66,4.85,6.5,8.8,5.49Zm-2.7-10.51c.82-.21,1.83.32,2.47,2.82.64,2.5.01,3.45-.81,3.67-.82.21-1.83-.32-2.47-2.82-.64-2.5-.01-3.45.81-3.67Z"/><path class="cls-100" d="m198.09,193.96c-3.95,1.01-6.26,4.43-5.07,9.05.19.75.46,1.43.77,2.03.02,0,.04,0,.06.01,1.84.38,3.69.91,5.56.76,2.38-.19,4.54-1.46,6.41-2.94.47-.37.93-.77,1.38-1.18-.01-.71-.1-1.46-.31-2.25-1.19-4.62-4.85-6.5-8.8-5.49Zm2.7,10.51c-.82.21-1.83-.32-2.47-2.82-.64-2.5-.01-3.45.81-3.67.82-.21,1.83.32,2.47,2.82.64,2.5.01,3.45-.81,3.67Z"/><path class="cls-94" d="m199.41,205.82c-1.87.15-3.72-.38-5.56-.76-.02,0-.04,0-.06-.01,1.62,3.14,4.72,4.31,8.03,3.46,3.28-.84,5.42-3.32,5.38-6.8-.45.41-.91.8-1.38,1.18-1.87,1.48-4.03,2.75-6.41,2.94Z"/><path class="cls-94" d="m183.4,204.58l-3.3,9.1,6.3-1.62,2.76-7.62c-1.92-.12-3.85-.07-5.76.14Z"/><path class="cls-100" d="m191.22,183.01l-7.82,21.57c1.91-.2,3.84-.25,5.76-.14l8.36-23.05-6.3,1.62Z"/></g><path class="cls-92" d="m75.75,371.37c-1.91-6.4.31-10.94,6.45-12.78s10.49.74,12.4,7.14l6.12,20.45c1.91,6.4-.31,10.94-6.45,12.78s-10.49-.74-12.4-7.14l-6.12-20.45Zm12.47,19.03c.82,2.76,2.33,3.57,4.37,2.95s2.86-2.11,2.03-4.87l-6.38-21.34c-.82-2.76-2.42-3.54-4.37-2.96s-2.86,2.11-2.03,4.87l6.38,21.34Zm18.65-38.71l5.78-1.73-5.93,69.58-5.78,1.73,5.93-69.58Zm6.54,33.21c-1.91-6.4.31-10.94,6.45-12.78,6.14-1.83,10.49.74,12.4,7.14l6.12,20.45c1.91,6.4-.31,10.94-6.45,12.78s-10.49-.74-12.4-7.14l-6.12-20.45Zm12.47,19.03c.82,2.76,2.33,3.57,4.37,2.95s2.86-2.11,2.03-4.87l-6.38-21.34c-.82-2.76-2.42-3.54-4.37-2.96s-2.86,2.11-2.03,4.87l6.38,21.34Z"/><path class="cls-100" d="m129.08,328.19c2.14-3.39,5.08-4.17,8.32-2.11s3.8,5.04,1.65,8.43l-6.85,10.82c-2.14,3.39-5.08,4.17-8.32,2.11s-3.8-5.04-1.65-8.43l6.85-10.82Zm-3.71,13.14c-.92,1.46-.7,2.46.38,3.14s2.08.46,3-1l7.15-11.29c.92-1.46.65-2.49-.38-3.14s-2.08-.46-3,1l-7.15,11.29Zm24.87-6.8l3.06,1.94-33.83,24.72-3.06-1.94,33.83-24.72Zm-12.46,16.04c2.14-3.39,5.08-4.17,8.32-2.11s3.8,5.04,1.65,8.43l-6.85,10.82c-2.14,3.39-5.08,4.17-8.32,2.11s-3.8-5.04-1.65-8.43l6.85-10.82Zm-3.7,13.14c-.92,1.46-.7,2.46.38,3.14s2.08.46,3-1l7.15-11.29c.92-1.46.65-2.49-.38-3.14s-2.08-.46-3,1l-7.15,11.29Z"/><path class="cls-59" d="m303.45,272.41c.09-2.08,1.41-3.18,3.79-3.08s3.61,1.3,3.53,3.38l-.27,6.63c-.09,2.08-1.41,3.18-3.79,3.08s-3.61-1.3-3.53-3.38l.27-6.63Zm2.14,6.88c-.04.89.4,1.29,1.19,1.32s1.26-.32,1.3-1.22l.28-6.92c.04-.89-.43-1.29-1.19-1.32s-1.26.32-1.3,1.22l-.28,6.92Zm11.18-9.42l2.24.09-10.36,19.8-2.24-.09,10.36-19.8Zm-1.64,10.42c.09-2.08,1.41-3.18,3.79-3.08s3.61,1.3,3.53,3.38l-.27,6.63c-.09,2.08-1.41,3.18-3.79,3.08s-3.61-1.3-3.53-3.38l.27-6.63Zm2.14,6.88c-.04.89.4,1.29,1.19,1.32s1.26-.32,1.3-1.22l.28-6.92c.04-.89-.43-1.29-1.19-1.32s-1.26.32-1.3,1.22l-.28,6.92Z"/></g><g><g><rect class="cls-39" x="473.12" y="127.5" width="1" height="51.41" transform="translate(17.08 351.58) rotate(-41.41)"/><rect class="cls-39" x="481.92" y="152.7" width="51.41" height="1" transform="translate(57.02 432.69) rotate(-48.6)"/><rect class="cls-39" x="490.12" y="133.84" width="1" height="38.63"/><rect class="cls-39" x="478.43" y="152.66" width="42.81" height="1" transform="translate(146.32 538.28) rotate(-64.49)"/><rect class="cls-39" x="480.9" y="131.76" width="1" height="42.8" transform="translate(-19.03 222.23) rotate(-25.51)"/><g><path class="cls-83" d="m524.62,133.92c-1.85-1.16-4.04-1.83-6.38-1.83-3.69,0-7,1.67-9.21,4.28-.1-.12-.19-.23-.3-.34-2.2-2.42-5.37-3.95-8.9-3.95s-7,1.67-9.21,4.28c-2.21-2.62-5.51-4.28-9.21-4.28s-6.7,1.52-8.9,3.94c-.1.11-.21.23-.3.34-2.21-2.62-5.51-4.28-9.2-4.28-2.35,0-4.54.67-6.39,1.83,1.04-17.71,15.6-31.79,33.52-32.04.16,0,.32,0,.49,0s.32,0,.49,0c17.91.25,32.47,14.33,33.51,32.04Z"/><path class="cls-60" d="m509.06,130.69c0,1.83-.11,3.62-.32,5.35-2.2-2.42-5.37-3.95-8.9-3.95s-7,1.67-9.21,4.28c-2.21-2.62-5.51-4.28-9.21-4.28s-6.7,1.52-8.9,3.94c-.21-1.73-.32-3.51-.32-5.34,0-15.66,7.99-28.4,17.95-28.8.16,0,.32,0,.49,0s.32,0,.49,0c9.96.41,17.95,13.15,17.95,28.8Z"/></g></g><g><path class="cls-100" d="m469.51,184.11l3.92-2.21c3.99-2.22,5.04-4.1,5.55-6.34.99-4.31-2.16-7.98-7.55-9.21-4.9-1.13-8.67.26-11.04,3l5.11,4.21c.99-1.21,2.46-1.65,3.83-1.34,1.46.34,2.05,1.19,1.8,2.29-.18.78-.61,1.6-2.5,2.7l-9.95,5.7-.19.81c1.64-.48,3.29-.56,4.88.09,2.9,1.2,4.67,4.62,7.77,5.14,2.22.37,4.04-.81,5.84-2.29l.19-.81-7.65-1.76Z"/><path class="cls-94" d="m471.14,188.96c-3.1-.52-4.86-3.95-7.77-5.14-1.58-.65-3.24-.56-4.88-.09l-.89,3.89,18.2,4.18,1.18-5.13c-1.8,1.47-3.62,2.66-5.84,2.29Z"/><path class="cls-100" d="m490.01,179.6l-1.17-.27.68-2.2,8.79,2.02,1.33-5.77-15.08-3.47-4.3,13.52.61.14c.43-.28.87-.53,1.33-.74,2.82-1.27,6.38-.66,8.61,1.48,1.75,1.68,2.66,4.1,4.43,5.75.47.44.98.8,1.52,1.1.4-.68.7-1.43.87-2.2.92-4.02-.9-7.82-7.61-9.37Z"/><path class="cls-94" d="m490.8,184.32c-2.23-2.14-5.79-2.75-8.61-1.48-.46.21-.9.46-1.33.74l5.98,1.37c2.76.63,3.29,1.44,3.07,2.41-.27,1.17-1.67,1.49-3.39,1.1-1.91-.44-4-1.47-5.69-3.05l-3.89,5.05c2.12,1.92,5.37,3.39,8.48,4.1,5.88,1.35,9.63-.49,11.34-3.39-.54-.3-1.06-.66-1.52-1.1-1.77-1.66-2.68-4.07-4.43-5.75Z"/><path class="cls-100" d="m505.11,187.62c3.44.79,6.55-.88,7.49-4.94.92-4.02-1.14-6.92-4.58-7.71-3.44-.79-6.56.92-7.49,4.94-.93,4.05,1.14,6.92,4.58,7.71Zm.03-6.65c.5-2.17,1.36-2.66,2.08-2.49.71.16,1.28.98.78,3.15-.5,2.17-1.36,2.66-2.08,2.49-.71-.16-1.28-.98-.78-3.15Z"/><path class="cls-94" d="m522.2,189.5c-3.44-.79-6.56.92-7.49,4.94-.93,4.05,1.14,6.92,4.58,7.71s6.56-.88,7.49-4.94c.92-4.02-1.14-6.92-4.58-7.71Zm-.03,6.65c-.5,2.17-1.36,2.66-2.08,2.49-.71-.16-1.28-.98-.78-3.15.5-2.17,1.36-2.66,2.08-2.49.71.16,1.28.98.78,3.15Z"/><path class="cls-100" d="m521.28,178.36l-14.07,12.99c3.29-1.18,6.31-3.07,9.55-4.41,1.03-.43,2.11-.79,3.21-1.05l6.79-6.27-5.48-1.26Z"/><path class="cls-94" d="m507.21,191.35l-6.66,6.15,5.48,1.26,13.94-12.87c-1.1.26-2.18.63-3.21,1.05-3.24,1.34-6.26,3.23-9.55,4.41Z"/></g></g></g></svg>