<?xml version="1.0" encoding="UTF-8"?><svg xmlns="http://www.w3.org/2000/svg" viewBox="0 0 783.36 570.14"><defs><style>.cls-1{stroke:#fff;stroke-width:1.5px;}.cls-1,.cls-2,.cls-3,.cls-4,.cls-5,.cls-6,.cls-7,.cls-8{stroke-miterlimit:10;}.cls-1,.cls-2,.cls-3,.cls-4,.cls-5,.cls-6,.cls-7,.cls-9{fill:none;}.cls-2{stroke:#ff6584;}.cls-2,.cls-3,.cls-4,.cls-5{stroke-width:3px;}.cls-3,.cls-6,.cls-8{stroke:#0ea2bd;}.cls-4,.cls-7{stroke:#3b3e54;}.cls-5{stroke:#bcf0f2;}.cls-10{fill:#fa5a55;}.cls-11{fill:#e6e6e6;}.cls-12{fill:#f6cfbe;}.cls-13,.cls-8{fill:#fff;}.cls-14{fill:#f2c73a;}.cls-15{fill:#ff6584;}.cls-16{fill:#92edf0;}.cls-17,.cls-18{fill:#b5b5b5;}.cls-19{fill:#8fcccf;}.cls-20{fill:#84d6d9;}.cls-21{fill:#bcf0f2;}.cls-22{fill:#d0f1f2;}.cls-23{fill:#12455a;}.cls-24{fill:#0ea2bd;}.cls-25{fill:#444;}.cls-26{fill:#1a1c2e;}.cls-27{fill:#292b3b;}.cls-28{fill:#3b3e54;}.cls-29{fill:#7a7a79;}.cls-6,.cls-7{stroke-width:4.5px;}.cls-9{stroke:#7a7a79;stroke-linecap:round;stroke-linejoin:round;stroke-width:9px;}.cls-30{isolation:isolate;}.cls-31{mix-blend-mode:multiply;opacity:.2;}.cls-18{opacity:.24;}</style></defs><g class="cls-30"><g id="Layer_2"><g id="Layer_4"><circle class="cls-18" cx="455.08" cy="246.09" r="246.09"/><g><path class="cls-29" d="m137.73,386.37c-.94-3.81-2.52-4.51-4.64-3.99s-3.16,2-2.42,5.02l.67,2.72-6.29,1.55-.57-2.3c-1.67-6.77.76-11.48,7.29-13.09,6.53-1.61,10.87,1.43,12.54,8.2l.27,1.09c1.12,4.54.37,7.74-2.51,9.86,3.68.63,5.79,3.45,6.85,7.74l.82,3.33c1.67,6.77-.76,11.48-7.29,13.09-6.53,1.61-10.87-1.43-12.54-8.2l-.86-3.51,6.29-1.55.97,3.93c.75,3.02,2.36,3.84,4.48,3.32,2.12-.52,3.19-1.88,2.27-5.63l-.82-3.33c-.97-3.93-2.66-5.05-5.68-4.31l-2.24.55-1.49-6.05,2.6-.64c2.48-.61,3.72-2.07,2.89-5.46l-.58-2.36Z"/><path class="cls-29" d="m159.34,400.41l.97,3.93c.75,3.02,2.34,3.78,4.46,3.26,2.12-.52,3.18-1.94,2.43-4.96l-2.3-9.31c-.75-3.02-2.36-3.85-4.48-3.32-2.12.52-3.16,2-2.42,5.02l.31,1.27-6.29,1.55-4.84-24.85,17.54-4.32,1.49,6.05-11.55,2.85,1.95,10.23c.72-2.29,2.38-3.86,5.04-4.51,4.9-1.21,8.23,1.63,9.76,7.86l2.32,9.43c1.67,6.77-.76,11.48-7.29,13.09-6.53,1.61-10.87-1.43-12.54-8.2l-.86-3.51,6.29-1.55Z"/><path class="cls-29" d="m171.46,373.88c-1.07-4.35.57-7.32,4.74-8.35,4.17-1.03,7.01.84,8.08,5.19l3.43,13.91c1.07,4.35-.57,7.33-4.74,8.36-4.17,1.03-7.01-.84-8.08-5.19l-3.43-13.91Zm7.74,13.17c.46,1.88,1.44,2.47,2.83,2.13,1.33-.33,1.98-1.33,1.52-3.2l-3.58-14.51c-.46-1.87-1.5-2.45-2.83-2.12-1.39.34-1.98,1.32-1.52,3.2l3.58,14.51Zm13.77-25.33l3.93-.97-6.25,46.45-3.93.97,6.25-46.45Zm3.3,22.47c-1.07-4.35.57-7.32,4.74-8.35,4.17-1.03,7.01.84,8.08,5.19l3.43,13.91c1.07,4.35-.57,7.33-4.74,8.35-4.17,1.03-7.01-.84-8.08-5.19l-3.43-13.91Zm7.74,13.17c.46,1.87,1.44,2.47,2.83,2.12,1.33-.33,1.98-1.32,1.52-3.2l-3.58-14.52c-.46-1.87-1.5-2.45-2.83-2.13-1.39.34-1.98,1.32-1.52,3.2l3.58,14.52Z"/></g><g><path class="cls-24" d="m28.15,440.46l5.37,8.19,19.98,60.59-9.38,6.16-19.85-60.2-18.68,12.26-5.6-8.53,28.15-18.47Z"/><path class="cls-24" d="m43.52,451.61c-6.6-10.07-5.58-18.55,4.15-24.93,9.21-6.04,17.57-3.72,23.84,5.84l1.01,1.54-8.87,5.82-1.4-2.13c-2.8-4.27-5.74-4.65-8.72-2.7-3.33,2.18-4.14,5.03-.39,10.75l7.16,10.92c-.62-4.48,1.05-8.26,5.23-11,6.91-4.53,13.6-1.96,19.36,6.82l7.16,10.92c6.27,9.55,4.82,18.32-4.4,24.36-9.21,6.04-17.83,3.89-24.1-5.67l-20.04-30.54Zm22.76,14.23l7.05,10.75c2.8,4.27,5.68,4.57,8.67,2.61,2.99-1.96,3.86-4.73,1.06-8.99l-7.05-10.75c-2.8-4.27-5.74-4.66-8.72-2.7-2.99,1.96-3.8,4.81-1,9.08Z"/><path class="cls-24" d="m73.64,423.68c-4.03-6.14-3.11-11.63,2.77-15.49,5.89-3.86,11.28-2.52,15.31,3.62l12.87,19.62c4.03,6.14,3.11,11.63-2.77,15.49-5.89,3.86-11.28,2.52-15.31-3.62l-12.87-19.62Zm19.12,16.13c1.73,2.64,3.57,3.03,5.53,1.74,1.88-1.23,2.34-3.12.61-5.77l-13.43-20.47c-1.74-2.64-3.66-2.97-5.53-1.74-1.96,1.29-2.34,3.12-.61,5.77l13.43,20.47Zm7.48-46.64l5.55-3.64,15.63,75.16-5.55,3.64-15.63-75.16Zm17.33,32.93c-4.03-6.14-3.11-11.63,2.77-15.49,5.89-3.86,11.28-2.52,15.31,3.62l12.87,19.62c4.03,6.14,3.11,11.63-2.77,15.49-5.89,3.86-11.28,2.52-15.31-3.62l-12.87-19.62Zm19.12,16.13c1.73,2.64,3.57,3.03,5.53,1.74,1.88-1.23,2.34-3.12.61-5.77l-13.43-20.47c-1.74-2.64-3.66-2.97-5.53-1.74-1.96,1.29-2.34,3.12-.61,5.77l13.43,20.47Z"/></g><g><g><line class="cls-1" x1="288.61" y1="167.08" x2="288.61" y2="290.85"/><line class="cls-1" x1="313.8" y1="167.08" x2="313.8" y2="290.85"/><line class="cls-1" x1="338.99" y1="167.08" x2="338.99" y2="290.85"/><line class="cls-1" x1="364.19" y1="167.08" x2="364.19" y2="290.85"/><line class="cls-1" x1="389.38" y1="167.08" x2="389.38" y2="290.85"/><line class="cls-1" x1="414.57" y1="167.08" x2="414.57" y2="290.85"/><line class="cls-1" x1="439.76" y1="167.08" x2="439.76" y2="290.85"/><line class="cls-1" x1="464.96" y1="167.08" x2="464.96" y2="290.85"/><line class="cls-1" x1="490.15" y1="167.08" x2="490.15" y2="290.85"/></g><g><line class="cls-1" x1="262.24" y1="182.76" x2="514.14" y2="182.76"/><line class="cls-1" x1="262.24" y1="205.76" x2="514.14" y2="205.76"/><line class="cls-1" x1="262.24" y1="228.77" x2="514.14" y2="228.77"/><line class="cls-1" x1="262.24" y1="251.78" x2="514.14" y2="251.78"/><line class="cls-1" x1="262.24" y1="274.79" x2="514.14" y2="274.79"/></g></g><path class="cls-17" d="m644.42,570.14H141.56c-9.29,0-16.83-7.53-16.83-16.83s7.53-16.83,16.83-16.83h502.86c9.29,0,16.83,7.53,16.83,16.83s-7.53,16.83-16.83,16.83Z"/><g><path class="cls-22" d="m441.81,61.15c-32.43,0-59.78,21.75-68.26,51.46h136.52c-8.48-29.71-35.83-51.46-68.26-51.46Z"/><path class="cls-22" d="m628.03,61.15c-32.43,0-59.78,21.75-68.26,51.46h136.52c-8.48-29.71-35.83-51.46-68.26-51.46Z"/><path class="cls-22" d="m539.31,39.1c-46.33,0-85.39,31.07-97.5,73.51h195.01c-12.11-42.44-51.18-73.51-97.5-73.51Z"/></g><g><path class="cls-13" d="m272.99,112.57c-20.03,0-36.93,13.44-42.17,31.79h84.33c-5.24-18.35-22.13-31.79-42.17-31.79Z"/><path class="cls-13" d="m388.02,112.57c-20.03,0-36.93,13.44-42.17,31.79h84.33c-5.24-18.35-22.13-31.79-42.17-31.79Z"/><path class="cls-13" d="m333.22,98.96c-28.62,0-52.75,19.19-60.23,45.41h120.46c-7.48-26.21-31.61-45.41-60.23-45.41Z"/></g><g><path class="cls-22" d="m655.13,146.61c-16.34,0-30.12,10.96-34.4,25.93h68.79c-4.27-14.97-18.05-25.93-34.4-25.93Z"/><path class="cls-22" d="m748.97,146.61c-16.34,0-30.12,10.96-34.4,25.93h68.79c-4.27-14.97-18.05-25.93-34.4-25.93Z"/><path class="cls-22" d="m704.26,135.5c-23.34,0-43.03,15.66-49.13,37.04h98.26c-6.1-21.38-25.79-37.04-49.13-37.04Z"/></g><g><path class="cls-13" d="m664.29,166.18c-10.99,0-20.26,7.37-23.13,17.44h46.26c-2.87-10.07-12.14-17.44-23.13-17.44Z"/><path class="cls-13" d="m727.39,166.18c-10.99,0-20.26,7.37-23.13,17.44h46.26c-2.87-10.07-12.14-17.44-23.13-17.44Z"/><path class="cls-13" d="m697.33,158.71c-15.7,0-28.93,10.53-33.04,24.91h66.08c-4.1-14.38-17.34-24.91-33.04-24.91Z"/></g><g><path class="cls-20" d="m238.51,104.22c-10.99,0-20.26,7.37-23.13,17.44h46.26c-2.87-10.07-12.14-17.44-23.13-17.44Z"/><path class="cls-20" d="m301.61,104.22c-10.99,0-20.26,7.37-23.13,17.44h46.26c-2.87-10.07-12.14-17.44-23.13-17.44Z"/><path class="cls-20" d="m271.55,96.75c-15.7,0-28.93,10.53-33.04,24.91h66.08c-4.1-14.38-17.34-24.91-33.04-24.91Z"/></g><path class="cls-13" d="m592.55,398.06c4.96,0,8.98-4.02,8.98-8.98,0,4.96,4.02,8.98,8.98,8.98-4.96,0-8.98,4.02-8.98,8.98,0-4.96-4.02-8.98-8.98-8.98Z"/><path class="cls-13" d="m216.95,267.51c4.96,0,8.98-4.02,8.98-8.98,0,4.96,4.02,8.98,8.98,8.98-4.96,0-8.98,4.02-8.98,8.98,0-4.96-4.02-8.98-8.98-8.98Z"/><path class="cls-13" d="m615.27,373.94c2.77,0,5.01-2.24,5.01-5.01,0,2.77,2.24,5.01,5.01,5.01-2.77,0-5.01,2.24-5.01,5.01,0-2.77-2.24-5.01-5.01-5.01Z"/><path class="cls-13" d="m32.87,385.29c2.77,0,5.01-2.24,5.01-5.01,0,2.77,2.24,5.01,5.01,5.01-2.77,0-5.01,2.24-5.01,5.01,0-2.77-2.24-5.01-5.01-5.01Z"/><path class="cls-13" d="m346.16,154.02c2.77,0,5.01-2.24,5.01-5.01,0,2.77,2.24,5.01,5.01,5.01-2.77,0-5.01,2.24-5.01,5.01,0-2.77-2.24-5.01-5.01-5.01Z"/><path class="cls-13" d="m532.78,255.06c2.77,0,5.01-2.24,5.01-5.01,0,2.77,2.24,5.01,5.01,5.01-2.77,0-5.01,2.24-5.01,5.01,0-2.77-2.24-5.01-5.01-5.01Z"/><path class="cls-13" d="m605.87,202.66c2.77,0,5.01-2.24,5.01-5.01,0,2.77,2.24,5.01,5.01,5.01-2.77,0-5.01,2.24-5.01,5.01,0-2.77-2.24-5.01-5.01-5.01Z"/><path class="cls-25" d="m573.16,322.68c-1.09,0-1.98.89-1.98,1.98v19.4h-27.49v-19.4c0-1.09-.89-1.98-1.98-1.98s-1.98.89-1.98,1.98v205.68c0,1.09.89,1.98,1.98,1.98s1.98-.89,1.98-1.98v-17.1h27.49v17.1c0,1.09.89,1.98,1.98,1.98s1.98-.89,1.98-1.98v-205.68c0-1.09-.89-1.98-1.98-1.98Zm-29.47,103.84v-16.35h27.49v16.35h-27.49Zm27.49,4.26v16.35h-27.49v-16.35h27.49Zm-27.49-24.88v-16.35h27.49v16.35h-27.49Zm0,45.49h27.49v16.35h-27.49v-16.35Zm27.49-66.11h-27.49v-16.35h27.49v16.35Zm-27.49,86.72h27.49v16.35h-27.49v-16.35Zm27.49-123.69v16.35h-27.49v-16.35h27.49Zm-27.49,160.65v-16.35h27.49v16.35h-27.49Z"/><g><path class="cls-29" d="m704.4,422.06s7.96-6.77,9.01-19.45c1.05-12.68,11.93-13.23,14.6-7.61,2.67,5.62-.99,18.54-23.61,27.07Z"/><path class="cls-29" d="m692.99,424.41s1.81-10.29-5.47-20.73c-7.28-10.44.75-17.8,6.39-15.18,5.64,2.62,11.06,14.91-.92,35.91Z"/><path class="cls-29" d="m693.49,425.84s9.48,4.41,13.86,16.35c4.39,11.95,15.02,9.58,16.1,3.46,1.08-6.12-5.89-17.6-29.96-19.81Z"/><path class="cls-29" d="m673.47,435.1s9.48,4.41,13.86,16.35,15.02,9.58,16.1,3.46c1.08-6.12-5.89-17.6-29.96-19.81Z"/><path class="cls-29" d="m657.68,448.04s9.48,4.41,13.86,16.35c4.39,11.95,15.02,9.58,16.1,3.46,1.08-6.12-5.89-17.6-29.96-19.81Z"/><path class="cls-29" d="m638.84,464.9s9.48,4.41,13.86,16.35,15.02,9.58,16.1,3.46c1.08-6.12-5.89-17.6-29.96-19.81Z"/><path class="cls-29" d="m673.66,435.05s1.81-10.29-5.47-20.73c-7.28-10.44.75-17.8,6.39-15.18,5.64,2.62,11.06,14.91-.92,35.91Z"/><path class="cls-29" d="m655.4,448.8s1.81-10.29-5.47-20.73c-7.28-10.44.75-17.8,6.39-15.18,5.64,2.62,11.06,14.91-.92,35.91Z"/><path class="cls-29" d="m638.39,464.18s1.81-10.29-5.47-20.73c-7.28-10.44.75-17.8,6.39-15.18,5.64,2.62,11.06,14.91-.92,35.91Z"/><path class="cls-9" d="m581.63,543.29s45.85-96.52,126.71-124.15"/></g><g><rect class="cls-20" x="230.46" y="302.88" width="52.79" height="233.98"/><path class="cls-28" d="m283.25,487.71v52.31h-52.79v-44.43c18.05-1.19,35.68-3.85,52.79-7.88Z"/><line class="cls-4" x1="256.86" y1="524.24" x2="256.86" y2="458.54"/><circle class="cls-28" cx="256.86" cy="460.67" r="4.99"/></g><g><rect class="cls-20" x="451.49" y="302.88" width="52.79" height="233.98"/><path class="cls-21" d="m504.2,307.25v232.77h-52.79v-152.39c21.34-23.89,39.2-50.94,52.79-80.38Z"/><line class="cls-5" x1="475.37" y1="389.74" x2="475.37" y2="324.03"/><circle class="cls-21" cx="475.37" cy="320.99" r="4.99" transform="translate(53.75 709.9) rotate(-76.72)"/></g><circle class="cls-28" cx="587.88" cy="328.16" r="3.08" transform="translate(133.44 824.92) rotate(-76.72)"/><g><polyline class="cls-7" points="264.28 234.57 302.17 189.05 363.66 274.67 417.96 160.31 472.86 240.94 514.14 192.43 565.18 256.66 593.15 160.62"/><circle class="cls-28" cx="593.15" cy="160.62" r="3.08" transform="translate(300.55 701) rotate(-76.72)"/><circle class="cls-28" cx="565.18" cy="256.66" r="3.08"/><circle class="cls-28" cx="472.86" cy="240.54" r="3.08"/><circle class="cls-28" cx="363.81" cy="274.67" r="3.08"/><circle class="cls-28" cx="264.28" cy="234.57" r="3.08" transform="translate(-24.74 437.88) rotate(-76.72)"/><circle class="cls-28" cx="514.14" cy="192.43" r="3.08"/><circle class="cls-28" cx="417.96" cy="160.62" r="3.08" transform="translate(165.61 530.49) rotate(-76.72)"/><circle class="cls-28" cx="302.26" cy="189.35" r="3.08" transform="translate(48.52 440.02) rotate(-76.72)"/></g><g><polyline class="cls-6" points="249.35 234.57 275.75 194.85 336.33 257.4 385.49 178.03 443.9 268.29 482.86 204.21 524.02 224.22 578.23 160.62"/><circle class="cls-8" cx="249.35" cy="234.57" r="3.08"/><circle class="cls-8" cx="275.45" cy="195.51" r="3.08"/><circle class="cls-8" cx="385.49" cy="178.26" r="3.08" transform="translate(123.43 512.48) rotate(-76.72)"/><circle class="cls-8" cx="482.91" cy="204.34" r="3.08"/><circle class="cls-8" cx="336.24" cy="257.04" r="3.08" transform="translate(8.82 525.24) rotate(-76.72)"/><circle class="cls-8" cx="443.9" cy="268.29" r="3.08"/><circle class="cls-8" cx="578.23" cy="160.62" r="3.08" transform="translate(289.06 686.48) rotate(-76.72)"/><circle class="cls-8" cx="524.02" cy="224.22" r="3.08" transform="translate(185.4 682.71) rotate(-76.72)"/></g><circle class="cls-10" cx="584.81" cy="331.24" r="3.08" transform="translate(128.07 824.3) rotate(-76.72)"/><g><path class="cls-12" d="m480.37,411.99c0-.12,0-.24,0-.37.12-1,1.04-1.71,2.04-1.59l13.04,1.61c1,.12,1.71,1.04,1.59,2.04-.12,1-1.04,1.71-2.04,1.59l-13.04-1.61c-.88-.11-1.53-.82-1.6-1.67Z"/><path class="cls-26" d="m482.61,409.52s-4.77-.76-4.81.38c-.04,1.14.73,17.4,1.49,17.44,2.6.12,3.93-13.33,3.57-14.61-.36-1.28.44-3.11-.25-3.21Z"/><path class="cls-12" d="m566.15,265.89s.81-9.38,2.78-10.7,2.21,7.7-1.12,12.32l-1.66-1.62Z"/><path class="cls-19" d="m565.33,265.84c1.42-.58,2.83-1.16,4.14-1.72,11.18,28.77,6.99,37.99-21.53,47.23-4.36,1.41-4.32,0-4.76-2.98-.73,0-.73,0,0,0-.44-2.98.1-3.44,4.06-4.65,25.89-7.97,25.06-11.36,18.09-37.88Z"/><path class="cls-12" d="m549.75,464.59c-.12,0-.24-.01-.37-.04-.99-.2-1.63-1.17-1.43-2.15l2.62-12.87c.2-.99,1.17-1.63,2.15-1.43.99.2,1.63,1.17,1.43,2.15l-2.62,12.87c-.18.87-.94,1.46-1.79,1.46Z"/><path class="cls-27" d="m553.77,457.1c-1.95-.05-3.89-.25-5.82-.54,5.79-30.94,10.17-72.47-5.31-101.39,4.7-2.31,9.43-4.56,14.16-6.79,11.31,25.2,1.68,82.1-3.03,108.72Z"/><path class="cls-27" d="m487.43,416.26c.41-2.16.89-4.31,1.46-6.44,49.32,9.12,58.74-10.64,49.07-58.83,5.27-1.18,10.58-2.21,15.9-3.2.96,56.13-9.53,75.65-66.43,68.47Z"/><path class="cls-26" d="m547.46,462.16s-1.13,4.7,0,4.83c1.13.13,17.41.62,17.5-.13.33-2.58-12.98-4.96-14.29-4.7-1.3.26-3.07-.68-3.22,0Z"/><path class="cls-20" d="m560.69,356.31c-2.65-.35-6.04-.5-10.35-.33-6.35.27-10,1.24-12.51,2.23-.84-2.07-1.6-4.1-2.29-6.08-.25-.71-.48-1.42-.71-2.12-.37-1.14-.72-2.26-1.03-3.36-.21-.73-.41-1.45-.6-2.16-.43-1.61-.81-3.19-1.14-4.75-.16-.74-.3-1.47-.44-2.2-.34-1.8-.62-3.57-.84-5.3-.09-.75-.18-1.49-.26-2.22-.49-4.81-.55-9.4-.33-13.84.13-2.59.43-4.89.82-6.9,1.16-6.01,8.27-8.67,13.12-4.95l1.05.8c2.68,2.05,3.98,5.4,3.48,8.74-.58,3.9-.18,9.56,2.46,18.32.22.72.45,1.46.7,2.22.35,1.07.73,2.19,1.14,3.35.25.7.51,1.41.78,2.14.48,1.29,1,2.63,1.56,4.03.28.69.57,1.4.86,2.12.3.75.63,1.52.96,2.3.29.68.59,1.37.9,2.08.82,1.86,1.7,3.81,2.65,5.85Z"/><path class="cls-12" d="m545.37,293.56c-1.9,5.19-7.05,8.08-10.22,6.92-3.17-1.16-3.16-5.92-1.27-11.11,1.9-5.19,5.43-6.89,8.6-5.73,3.17,1.16,4.78,4.74,2.88,9.93Z"/><path class="cls-12" d="m536.67,294.25l5.78-.56c.08.79.68,8.32.39,11.16-.21.87-1.65,1.28-3.22.9-1.41-.34-2.43-1.2-2.46-2h0c.18-1.7-.21-6.73-.48-9.49Z"/><path class="cls-26" d="m547.34,290.53s.12-3.73-2.04-5.88c-2.16-2.15-7.25-3.78-10.02.43,0,0-1.69,3.17,2.3,4.88s3.88-.68,5.32,1.94c1.44,2.62,3.7,1.62,3.94,2.2l.5-3.58Z"/><path class="cls-12" d="m577.03,334.93s8.68-3.65,10.77-2.51-5.79,5.54-11.43,4.74l.66-2.22Z"/><path class="cls-19" d="m577.52,333.63c.07,1.53.2,3,.29,4.47-23.47,2.11-35.99-4.55-45.48-25.61-1.45-3.22-.54-4.07,2.25-5.01.1-.54.06-.53,0,0,2.79-.94,3.59-.46,5.07,2.81,9.66,21.37,14.62,21.51,37.87,23.34Z"/><path class="cls-12" d="m547.37,294.83c-.44,1.21-2.21,2.32-3.08,2-.87-.32-.74-1.38-.29-2.59.44-1.21,1.56-2.08,2.44-1.76.87.32,1.38,1.14.94,2.35Z"/><path class="cls-26" d="m544.18,295.95s-1.11-.57-2.17.93c-1.05,1.49-2.33,2.67-4.05,2.46-1.72-.21-2.07-.59-3.45-.76s-1.74-3.96-1.66-4.67c.19-1.73-.57-.38-.9.73-.33,1.11-1.52,4.36,1.25,6.09s3.81,1.94,5.75,1.03c1.94-.9,4.85-1.99,5.23-5.81Z"/></g><g><rect class="cls-20" x="304.11" y="302.88" width="52.79" height="233.98"/><path class="cls-24" d="m356.9,460.67v79.34h-52.79v-57.93c18.34-5.61,35.99-12.81,52.79-21.41Z"/><line class="cls-3" x1="330.5" y1="507.33" x2="330.5" y2="441.62"/><circle class="cls-24" cx="330.5" cy="441.62" r="4.99" transform="translate(-158.36 697.12) rotate(-80.78)"/><g><path class="cls-24" d="m315.48,412.45c-1.05,0-1.72.57-1.72,2.08v2.26h-3.13v-2.05c0-3.38,1.69-5.31,4.94-5.31s4.94,1.93,4.94,5.31c0,6.63-6.6,9.1-6.6,12.57,0,.15,0,.3.03.45h6.27v3.01h-9.59v-2.59c0-6.21,6.57-7.23,6.57-13.32,0-1.9-.66-2.41-1.72-2.41Z"/><path class="cls-24" d="m322.29,414.74c0-3.38,1.78-5.31,5.03-5.31s5.03,1.93,5.03,5.31v10.97c0,3.38-1.78,5.31-5.03,5.31s-5.03-1.93-5.03-5.31v-10.97Zm3.32,11.18c0,1.51.66,2.08,1.72,2.08s1.72-.57,1.72-2.08v-11.39c0-1.51-.66-2.08-1.72-2.08s-1.72.57-1.72,2.08v11.39Z"/><path class="cls-24" d="m334.32,412.9c0-2.17,1.12-3.38,3.2-3.38s3.2,1.21,3.2,3.38v6.93c0,2.17-1.12,3.38-3.2,3.38s-3.2-1.2-3.2-3.38v-6.93Zm2.11,7.08c0,.93.39,1.33,1.09,1.33s1.09-.39,1.09-1.33v-7.24c0-.93-.42-1.33-1.09-1.33s-1.09.39-1.09,1.33v7.24Zm9.4-10.31h1.96l-8.32,21.1h-1.96l8.32-21.1Zm-1.06,10.94c0-2.17,1.12-3.38,3.2-3.38s3.2,1.21,3.2,3.38v6.93c0,2.17-1.12,3.38-3.2,3.38s-3.2-1.2-3.2-3.38v-6.93Zm2.11,7.08c0,.93.39,1.33,1.09,1.33s1.09-.39,1.09-1.33v-7.24c0-.93-.42-1.33-1.09-1.33s-1.09.39-1.09,1.33v7.24Z"/></g></g><g><rect class="cls-20" x="377.75" y="302.88" width="52.79" height="233.98"/><path class="cls-15" d="m430.55,408.94v131.08h-52.79v-91.03c18.96-11.56,36.65-24.99,52.79-40.05Z"/><line class="cls-2" x1="400.79" y1="463.63" x2="400.79" y2="397.93"/><circle class="cls-15" cx="400.79" cy="397.73" r="4.99"/></g><g><path class="cls-16" d="m179.39,438.19l-2.73,4.14-24.12,21.41-4.74-3.12,23.97-21.27-9.43-6.22,2.84-4.31,14.21,9.37Z"/><path class="cls-16" d="m173.34,463.48l-1.84,2.8c-1.42,2.15-.98,3.55.52,4.55,1.51.99,2.97.84,4.39-1.31l4.37-6.63c1.42-2.15,1.01-3.6-.5-4.59-1.51-.99-2.99-.8-4.41,1.35l-.6.91-4.48-2.95,12.39-16.92,12.49,8.23-2.84,4.31-8.23-5.42-5.13,6.94c1.8-.85,3.69-.72,5.58.53,3.49,2.3,3.64,5.92.71,10.36l-4.43,6.72c-3.18,4.82-7.41,5.99-12.06,2.92-4.65-3.07-5.25-7.41-2.07-12.24l1.65-2.5,4.48,2.95Z"/><path class="cls-16" d="m196.29,455.94c2.04-3.1,4.77-3.77,7.74-1.81,2.97,1.96,3.43,4.73,1.39,7.83l-6.53,9.91c-2.04,3.1-4.77,3.77-7.74,1.81-2.97-1.96-3.43-4.73-1.39-7.83l6.53-9.91Zm-3.66,12.11c-.88,1.33-.69,2.26.3,2.92.95.62,1.92.46,2.8-.87l6.81-10.34c.88-1.33.65-2.29-.3-2.92-.99-.65-1.92-.46-2.8.87l-6.81,10.34Zm23.15-5.87l2.8,1.85-31.76,22.31-2.8-1.85,31.76-22.31Zm-11.81,14.64c2.04-3.1,4.77-3.77,7.74-1.81,2.97,1.96,3.43,4.73,1.39,7.83l-6.53,9.91c-2.04,3.1-4.77,3.77-7.74,1.81-2.97-1.96-3.43-4.73-1.39-7.83l6.53-9.91Zm-3.66,12.11c-.88,1.33-.69,2.26.3,2.92.95.62,1.92.46,2.8-.87l6.81-10.34c.88-1.33.65-2.29-.3-2.92-.99-.65-1.92-.46-2.8.87l-6.81,10.34Z"/></g><path class="cls-13" d="m399.5,480.18c4.96,0,8.98-4.02,8.98-8.98,0,4.96,4.02,8.98,8.98,8.98-4.96,0-8.98,4.02-8.98,8.98,0-4.96-4.02-8.98-8.98-8.98Z"/><g><circle class="cls-28" cx="609.01" cy="260.02" r="7.49"/><circle class="cls-24" cx="609.01" cy="283.39" r="7.49"/><circle class="cls-15" cx="609.01" cy="306.77" r="7.49"/><circle class="cls-21" cx="609.01" cy="330.14" r="7.49"/><rect class="cls-28" x="624.82" y="254.9" width="80.39" height="2.87"/><rect class="cls-28" x="624.82" y="260.85" width="60.04" height="2.87"/><rect class="cls-24" x="624.82" y="278.99" width="80.39" height="2.87"/><rect class="cls-24" x="624.82" y="284.94" width="60.04" height="2.87"/><rect class="cls-15" x="624.82" y="302.36" width="80.39" height="2.87"/><rect class="cls-15" x="624.82" y="308.31" width="60.04" height="2.87"/><rect class="cls-21" x="624.82" y="332.06" width="60.04" height="2.87"/><rect class="cls-21" x="624.82" y="325.74" width="80.39" height="2.87"/></g><g><path class="cls-12" d="m299.56,279.4l-1.36-3.59c-1.43-3.76-5.63-5.65-9.4-4.22l-78.47,29.79c-3.76,1.43-5.65,5.63-4.22,9.4l1.36,3.59c1.43,3.76,5.63,5.65,9.4,4.22l78.47-29.79c3.76-1.43,5.65-5.63,4.22-9.4Z"/><path class="cls-12" d="m327.31,306.21l-.17-3.84c-.18-4.02-3.58-7.13-7.6-6.95l-96.32,4.29c-4.02.18-7.13,3.58-6.95,7.6l.17,3.84c.18,4.02,3.58,7.13,7.6,6.95l96.32-4.29c4.02-.18,7.13-3.58,6.95-7.6Z"/><path class="cls-12" d="m333.87,335.23l.6-3.79c.63-3.97-2.08-7.71-6.05-8.34l-101.13-16.07c-3.97-.63-7.71,2.08-8.34,6.05l-.6,3.79c-.63,3.97,2.08,7.71,6.05,8.34l101.13,16.07c3.97.63,7.71-2.08,8.34-6.05Z"/><polygon class="cls-12" points="142.91 294.9 135.65 347.26 216.87 358.71 246.28 289.54 142.91 294.9"/><path class="cls-12" d="m252.53,386.27h0c-2.73,5.36-9.12,7.59-14.56,5.09l-66.02-26.11c-6.06-2.77-10.3-10.5-7.19-17.7,4.12-9.55,14.51-8.98,20.22-6.28l62.31,29.44c5.78,2.76,8.17,9.83,5.25,15.56"/><rect class="cls-24" x="4.24" y="289.54" width="144.75" height="67.34"/><g><path class="cls-28" d="m240.62,374.48c2.31,1.11,3.36.25,4.44-.81l2.01.97-9.16,19.01-2.99-1.44,6.99-14.5-2.31-1.11,1.02-2.12Z"/><path class="cls-28" d="m253.84,380.99c-.95-.46-1.8-.23-2.45,1.13l-.98,2.04-2.82-1.36.89-1.85c1.47-3.04,3.82-4.05,6.76-2.63,2.93,1.41,3.61,3.88,2.15,6.93-2.88,5.97-9.9,5.33-11.41,8.46-.07.14-.13.27-.17.42l5.65,2.72-1.31,2.72-8.63-4.16,1.13-2.34c2.7-5.59,9.06-3.66,11.71-9.15.82-1.71.45-2.46-.5-2.92Z"/><path class="cls-28" d="m259.86,384.39c.94-1.95,2.47-2.56,4.34-1.65,1.87.9,2.35,2.47,1.41,4.43l-3.01,6.24c-.94,1.96-2.47,2.56-4.34,1.65-1.87-.9-2.35-2.47-1.41-4.43l3.01-6.24Zm-1.18,7.3c-.41.84-.22,1.36.4,1.67.6.29,1.15.12,1.55-.72l3.14-6.52c.41-.84.2-1.38-.4-1.67-.62-.3-1.15-.12-1.55.72l-3.14,6.52Zm12.95-5.2l1.77.85-16.66,15.39-1.77-.85,16.66-15.39Zm-5.7,9.4c.94-1.95,2.47-2.56,4.34-1.65,1.87.9,2.35,2.47,1.41,4.43l-3.01,6.24c-.94,1.96-2.47,2.56-4.34,1.65-1.87-.9-2.35-2.47-1.41-4.43l3.01-6.24Zm-1.18,7.3c-.41.84-.22,1.36.4,1.67.6.29,1.15.12,1.55-.72l3.14-6.52c.41-.84.2-1.38-.4-1.67-.62-.3-1.15-.12-1.55.72l-3.14,6.52Z"/></g><path class="cls-12" d="m268.9,389.09c2.98-.68,5.63-2.68,7.02-5.66,8.89-19.08,9.09-34.64.58-46.25-16.3-22.24-57.57-17.54-62.23-16.93-5.61.73-9.55,5.87-8.82,11.48.73,5.6,5.86,9.55,11.46,8.82,10.94-1.4,35.88-1.11,43.08,8.74,4.67,6.39,1.15,17.38-2.63,25.49-2.39,5.12-.17,11.21,4.95,13.6,2.14,1,4.45,1.19,6.59.7Z"/></g><g><path class="cls-29" d="m592.13,534.57c-14.81,0-27.31,9.94-31.18,23.51h62.36c-3.87-13.57-16.37-23.51-31.18-23.51Z"/><path class="cls-29" d="m551.6,524.5c-21.16,0-39.01,14.19-44.54,33.58h89.08c-5.53-19.39-23.38-33.58-44.54-33.58Z"/></g><g><path class="cls-24" d="m206.79,533.08c-10.37,0-19.12,6.96-21.83,16.46h43.66c-2.71-9.5-11.46-16.46-21.83-16.46Z"/><path class="cls-24" d="m178.42,526.03c-14.81,0-27.31,9.94-31.18,23.51h62.36c-3.87-13.57-16.37-23.51-31.18-23.51Z"/></g><g><path class="cls-12" d="m511.4,513.17c.04-.11.08-.22.1-.33.17-.94-.45-1.84-1.38-2.01l-12.2-2.26c-.94-.17-1.84.45-2.01,1.38-.17.94.45,1.84,1.38,2.01l12.2,2.26c.82.15,1.61-.3,1.91-1.05Z"/><path class="cls-26" d="m508.71,510.21s4.37-1.3,4.55-.24c.18,1.06,1.46,16.39.75,16.51-2.42.44-5.32-12-5.14-13.24.18-1.24-.8-2.86-.16-3.04Z"/><path class="cls-12" d="m416.06,387.05s-6.02-6.55-8.25-6.4c-2.23.15,2.79,7.04,7.94,8.57l.31-2.17Z"/><path class="cls-26" d="m416.53,387.57c-1.66-.32-3.24-.7-4.86-.57-.57,30.64,6.97,36.13,29.42,15.58,3.43-3.14,1.21-3.71-1.36-5.11.41-.65.41-.65,0,0-2.57-1.4-2.59-.31-5.29,2.48-17.65,18.28-18.32,8.46-17.91-12.39Z"/><path class="cls-12" d="m442.82,552.81c.11.04.22.06.34.08.95.12,1.81-.55,1.93-1.49l1.57-12.31c.12-.94-.55-1.81-1.49-1.93-.95-.12-1.81.55-1.93,1.49l-1.57,12.31c-.11.83.39,1.59,1.15,1.85Z"/><path class="cls-29" d="m441.3,546.72c1.79.64,3.6,1.18,5.46,1.59,2.88-32.3-2.06-72.2,3.03-101.59-4.87-.65-9.74-1.24-14.61-1.84-3.05,34.06,12.39,61.83,6.12,101.84Z"/><path class="cls-29" d="m505.46,514.39c.3-1.87.55-3.74.73-5.62-39.34-5.36-55.79-20.6-54.25-62.43-4.97-.7-9.94-1.28-14.94-1.78,2.55,46.27,23.77,65.79,68.46,69.83Z"/><path class="cls-26" d="m437.87,372.68c1.69-.09,3.72,1.08,4.28,2.76.56,1.68-.74,3.4-2.34,3.93-1.6.53-4.8-1.2-5.36-2.88-.56-1.68,1.29-3.69,3.43-3.81Z"/><path class="cls-26" d="m444.71,368.55c3.11-2.37,8.53-2.77,11.78-.27s2.97,7.48.59,10.57c-2.38,3.09-9.41,4.83-14.53,1.46-3.42-2.25-1.78-8.75,2.17-11.76Z"/><path class="cls-26" d="m441.3,381.37c2.3-1.8,6.23-2.18,8.55-.4,2.31,1.78,2.02,5.44.25,7.75s-7.88,3.08-10.19,1.3c-2.31-1.78-1.52-6.39,1.4-8.66Z"/><path class="cls-12" d="m444.84,384.55c-2.34,4.66-7.49,6.82-10.34,5.39-2.85-1.43-2.33-5.9.01-10.56s5.84-5.88,8.69-4.45c2.85,1.43,3.97,4.96,1.63,9.63Z"/><path class="cls-12" d="m446.13,387.21c-.54,1.09-2.32,1.93-3.11,1.54-.79-.39-.54-1.37,0-2.46.54-1.09,1.69-1.78,2.48-1.39.79.39,1.17,1.22.62,2.31Z"/><path class="cls-26" d="m447,381.92s.51-3.48-1.28-5.73c-1.8-2.25-6.39-4.33-9.44-.68,0,0-1.93,2.79,1.63,4.83,3.56,2.04,3.71-.22,4.78,2.4,1.07,2.62,3.29,1.92,3.46,2.49l.85-3.31Z"/><path class="cls-24" d="m434.77,489.51c4.12.24,9.01-2.27,12.58-4.28,2.74-1.54,8.52-2.34,11.39-3.4.83-15.54-4.28-71.87-8.23-80.61-3.01-6.66-7.13-7.47-10.34-6.71-1.77.42-3.23,1.76-3.68,3.52,0,.02,0,.04-.01.05-.54,2.16-.84,4.9-1.12,7.75-.44,4.4-2.1,3.55,1.58,11.33,1.59,3.34-5.33,26.25-2.15,72.34Z"/><path class="cls-26" d="m445.63,550.54s1.07,4.44,0,4.56-16.44.59-16.53-.12c-.31-2.43,12.26-4.68,13.49-4.44,1.23.25,2.9-.64,3.04,0Z"/><path class="cls-12" d="m443.17,385.2l-5.47.33c.04.75.6,7.86,1.29,10.47.33.78,1.73.94,3.13.36,1.26-.53,2.09-1.48,2-2.23h0c-.42-1.56-.8-6.31-.96-8.92Z"/><path class="cls-12" d="m464.25,444.23s-4.92,7.94-4.13,10.15c.79,2.22,6.33-4.81,6.41-10.45l-2.28.3Z"/><path class="cls-26" d="m462.8,446.01c1.39.63,2.52,1.22,4.02,1.92,9.89-27.75,4.75-34.78-18.21-50.81-3.51-2.45-7.9,3.52-1.62,7.03,22.03,12.33,21.49,16.75,15.82,41.86Z"/></g><g><path class="cls-15" d="m387.54,368.39l-.58,1.87c-.44,1.44.03,2.15,1.04,2.46,1.01.31,1.8-.01,2.25-1.45l1.37-4.44c.44-1.44-.02-2.18-1.03-2.49-1.01-.31-1.81.04-2.25,1.48l-.19.61-3-.92,4.18-11.52,8.35,2.58-.89,2.88-5.5-1.7-1.74,4.73c.87-.77,1.95-1.01,3.22-.62,2.33.72,3.01,2.73,2.09,5.69l-1.39,4.49c-.99,3.23-3.18,4.57-6.29,3.61-3.11-.96-4.16-3.3-3.16-6.53l.52-1.67,3,.92Z"/><path class="cls-15" d="m398.55,362.13c.99-3.23,3.26-4.55,6.37-3.59,3.11.96,4.24,3.33,3.25,6.55l-3.23,10.49c-.99,3.23-3.26,4.55-6.37,3.59-3.11-.96-4.24-3.33-3.25-6.55l3.23-10.49Zm-.13,11.66c-.44,1.44.02,2.18,1.03,2.49,1.01.31,1.81-.04,2.25-1.48l3.36-10.89c.44-1.44-.02-2.18-1.03-2.49-1.01-.31-1.81.04-2.25,1.48l-3.36,10.89Z"/><path class="cls-15" d="m410.58,363.92c.64-2.07,2.06-2.9,4.05-2.28,1.99.61,2.7,2.09,2.06,4.17l-2.04,6.63c-.64,2.07-2.06,2.9-4.05,2.28-1.99-.61-2.7-2.09-2.06-4.17l2.04-6.63Zm-.07,7.39c-.28.89-.02,1.38.65,1.59.63.2,1.15-.05,1.43-.95l2.13-6.91c.28-.89-.01-1.39-.65-1.59-.66-.2-1.15.05-1.43.95l-2.13,6.91Zm12.02-7.08l1.87.58-14.17,17.71-1.87-.58,14.17-17.71Zm-4.23,10.15c.64-2.07,2.06-2.9,4.05-2.28,1.99.61,2.7,2.09,2.06,4.17l-2.04,6.63c-.64,2.07-2.06,2.9-4.05,2.28-1.99-.61-2.7-2.09-2.06-4.17l2.04-6.63Zm-.07,7.39c-.28.89-.02,1.38.65,1.59.63.2,1.15-.05,1.43-.95l2.13-6.91c.28-.89-.01-1.39-.65-1.59-.66-.2-1.15.05-1.43.95l-2.13,6.91Z"/></g><path class="cls-13" d="m261.07,436.63c2.77,0,5.01-2.24,5.01-5.01,0,2.77,2.24,5.01,5.01,5.01-2.77,0-5.01,2.24-5.01,5.01,0-2.77-2.24-5.01-5.01-5.01Z"/><g><path class="cls-17" d="m579.49,545.87c0-.16.97-16.08,6.59-35.83,5.2-18.27,15.55-43.66,35.4-60.92l1.37,1.57c-37.28,32.42-41.24,94.67-41.27,95.3l-2.08-.12Z"/><path class="cls-17" d="m626.78,449.03c.22-1.68-.97-3.21-2.65-3.43-1.68-.22-3.21.97-3.43,2.65s.97,3.21,2.65,3.43c1.68.22,3.21-.97,3.43-2.65Z"/><path class="cls-17" d="m614.12,445.78c.22-1.68-.97-3.21-2.65-3.43-1.68-.22-3.21.97-3.43,2.65-.22,1.68.97,3.21,2.65,3.43s3.21-.97,3.43-2.65Z"/><path class="cls-17" d="m624.25,468.78c.22-1.68-.97-3.21-2.65-3.43-1.68-.22-3.21.97-3.43,2.65-.22,1.68.97,3.21,2.65,3.43,1.68.22,3.21-.97,3.43-2.65Z"/><path class="cls-17" d="m630.53,458.79c.22-1.68-.97-3.21-2.65-3.43-1.68-.22-3.21.97-3.43,2.65-.22,1.68.97,3.21,2.65,3.43s3.21-.97,3.43-2.65Z"/><path class="cls-17" d="m602.25,454.61c-.34-1.66-1.96-2.73-3.62-2.39-1.66.34-2.73,1.96-2.39,3.62.34,1.66,1.96,2.73,3.62,2.39,1.66-.34,2.73-1.96,2.39-3.62Z"/><path class="cls-17" d="m616.51,479.28c.22-1.68-.97-3.21-2.65-3.43-1.68-.22-3.21.97-3.43,2.65s.97,3.21,2.65,3.43c1.68.22,3.21-.97,3.43-2.65Z"/><path class="cls-17" d="m593.46,466.11c-.6-1.58-2.37-2.38-3.95-1.78-1.58.6-2.38,2.37-1.78,3.95.6,1.58,2.37,2.38,3.95,1.78,1.58-.6,2.38-2.37,1.78-3.95Z"/><path class="cls-17" d="m610.78,493.25c.22-1.68-.97-3.21-2.65-3.43-1.68-.22-3.21.97-3.43,2.65s.97,3.21,2.65,3.43,3.21-.97,3.43-2.65Z"/><path class="cls-17" d="m588.04,480.39c-.45-1.63-2.13-2.59-3.77-2.14-1.63.45-2.59,2.13-2.14,3.77.45,1.63,2.13,2.59,3.77,2.14,1.63-.45,2.59-2.13,2.14-3.77Z"/><path class="cls-17" d="m605.95,506.81c.22-1.68-.97-3.21-2.65-3.43-1.68-.22-3.21.97-3.43,2.65-.22,1.68.97,3.21,2.65,3.43s3.21-.97,3.43-2.65Z"/><path class="cls-17" d="m580.25,495.3c-.72-1.53-2.55-2.18-4.08-1.46-1.53.72-2.18,2.55-1.46,4.08s2.55,2.18,4.08,1.46,2.18-2.55,1.46-4.08Z"/><rect class="cls-17" x="611.17" y="445.53" width="2.08" height="13.32" transform="translate(-67.72 110.18) rotate(-9.75)"/><rect class="cls-17" x="601.83" y="455.18" width="2.08" height="13.32" transform="translate(-147.65 345.78) rotate(-28.66)"/><rect class="cls-17" x="594.22" y="466.54" width="2.08" height="13.32" transform="translate(-165.13 464.98) rotate(-37.86)"/><rect class="cls-17" x="588.57" y="481.67" width="2.08" height="13.32" transform="translate(-169.9 392.13) rotate(-32.41)"/><rect class="cls-17" x="581.98" y="494.92" width="2.08" height="13.32" transform="translate(-185.73 524.25) rotate(-42.4)"/><rect class="cls-17" x="613.34" y="457.53" width="14.15" height="2.08" transform="translate(-11.13 15.46) rotate(-1.41)"/><rect class="cls-17" x="605.61" y="467.56" width="14.15" height="2.08" transform="translate(-11.39 15.28) rotate(-1.42)"/><rect class="cls-17" x="599.53" y="478.02" width="14.15" height="2.08" transform="translate(-11.64 15.13) rotate(-1.41)"/><rect class="cls-17" x="593.02" y="492" width="14.15" height="2.08" transform="translate(-12 14.98) rotate(-1.42)"/><rect class="cls-17" x="588.24" y="505.56" width="14.15" height="2.08" transform="translate(-12.33 14.86) rotate(-1.41)"/></g><g><path class="cls-20" d="m56.98,494.09c7.14,0,8.74-3.45,10.17-7.4h6.22v58.82h-9.24v-44.87h-7.14v-6.55Z"/><path class="cls-20" d="m83.79,500.81c0-9.41,4.96-14.79,14.03-14.79s14.03,5.38,14.03,14.79v30.59c0,9.41-4.96,14.79-14.03,14.79s-14.03-5.38-14.03-14.79v-30.59Zm9.24,31.18c0,4.2,1.85,5.8,4.79,5.8s4.79-1.6,4.79-5.8v-31.76c0-4.2-1.85-5.8-4.79-5.8s-4.79,1.6-4.79,5.8v31.76Z"/><path class="cls-20" d="m117.06,500.81c0-9.41,4.96-14.79,14.03-14.79s14.03,5.38,14.03,14.79v30.59c0,9.41-4.96,14.79-14.03,14.79s-14.03-5.38-14.03-14.79v-30.59Zm9.24,31.18c0,4.2,1.85,5.8,4.79,5.8s4.79-1.6,4.79-5.8v-31.76c0-4.2-1.85-5.8-4.79-5.8s-4.79,1.6-4.79,5.8v31.76Z"/><path class="cls-20" d="m150.59,495.68c0-6.05,3.11-9.41,8.91-9.41s8.91,3.36,8.91,9.41v19.33c0,6.05-3.11,9.41-8.91,9.41s-8.91-3.36-8.91-9.41v-19.33Zm5.88,19.75c0,2.6,1.09,3.7,3.03,3.7s3.03-1.09,3.03-3.7v-20.17c0-2.6-1.18-3.7-3.03-3.7s-3.03,1.09-3.03,3.7v20.17Zm26.22-28.74h5.46l-23.19,58.82h-5.46l23.19-58.82Zm-2.94,30.5c0-6.05,3.11-9.41,8.91-9.41s8.91,3.36,8.91,9.41v19.33c0,6.05-3.11,9.41-8.91,9.41s-8.91-3.36-8.91-9.41v-19.33Zm5.88,19.75c0,2.6,1.09,3.7,3.03,3.7s3.03-1.09,3.03-3.7v-20.17c0-2.6-1.18-3.7-3.03-3.7s-3.03,1.09-3.03,3.7v20.17Z"/></g><g><g><g><path class="cls-14" d="m592.07,100.49c-5.93,0-10.74,4.81-10.74,10.74,0,2.67.98,5.1,2.59,6.98l2.85,5.31v11.08h5.55v-34.1c-.08,0-.16-.01-.24-.01Z"/><path class="cls-14" d="m593.92,134.6h3.85v-11.08l3.86-7.2h-.09c.81-1.52,1.28-3.25,1.28-5.09,0-5.85-4.68-10.61-10.5-10.73v34.1h1.61Z"/><path class="cls-31" d="m593.8,134.6h3.85v-11.08l3.86-7.2h-.09c.81-1.52,1.27-3.25,1.27-5.09,0-5.85-4.68-10.61-10.5-10.73v34.1h1.61Z"/></g><rect class="cls-23" x="586.76" y="125.13" width="11" height="8.25"/><path class="cls-23" d="m595.94,134.25c0,.86-.7,1.55-1.56,1.55h-4.13c-.86,0-1.55-.7-1.55-1.55h0c0-.86.69-1.55,1.55-1.55h4.13c.86,0,1.56.69,1.56,1.55h0Z"/><rect class="cls-13" x="586.76" y="126.55" width="11" height="8.25"/><rect class="cls-11" x="586.76" y="128.18" width="11" height="1.54"/><rect class="cls-11" x="586.76" y="131.15" width="11" height="1.55"/><rect class="cls-23" x="589.05" y="116.62" width=".85" height="9.38" transform="translate(-5.7 210.54) rotate(-20.15)"/><rect class="cls-23" x="590.25" y="120.89" width="9.38" height=".85" transform="translate(274.66 637.16) rotate(-69.69)"/><rect class="cls-23" x="587.58" y="116.62" width="8.96" height=".86"/></g><rect class="cls-14" x="613.98" y="110.54" width=".85" height="15.35" transform="translate(443.36 720.06) rotate(-85.03)"/><rect class="cls-14" x="606.59" y="106.25" width="15.64" height=".85" transform="translate(-8.67 132.18) rotate(-12.19)"/><polygon class="cls-14" points="602.95 99.18 602.43 98.5 614.15 89.57 614.67 90.25 602.95 99.18"/><polygon class="cls-14" points="595.61 94.62 594.81 94.32 599.8 80.66 600.6 80.95 595.61 94.62"/><rect class="cls-14" x="559.11" y="117.79" width="15.35" height=".85" transform="translate(-8.12 49.63) rotate(-4.98)"/><rect class="cls-14" x="566.36" y="98.85" width=".85" height="15.65" transform="translate(343.71 638.52) rotate(-77.9)"/><polygon class="cls-14" points="578.24 99.18 566.52 90.25 567.04 89.57 578.75 98.5 578.24 99.18"/><rect class="cls-14" x="583.06" y="80.36" width=".85" height="14.55" transform="translate(5.33 205.43) rotate(-20.06)"/></g></g></g></g></svg>