<?xml version="1.0" encoding="UTF-8"?><svg xmlns="http://www.w3.org/2000/svg" xmlns:xlink="http://www.w3.org/1999/xlink" viewBox="0 0 578.48 409.93"><defs><style>.cls-1,.cls-2{fill:none;}.cls-3,.cls-4,.cls-5,.cls-6,.cls-7,.cls-2{clip-rule:evenodd;}.cls-3,.cls-8,.cls-9{fill:#84d6d9;}.cls-4,.cls-10,.cls-11{fill:#92edf0;}.cls-5,.cls-12,.cls-13{fill:#a0616a;}.cls-6,.cls-14,.cls-15,.cls-16{fill:#0ea2bd;}.cls-7,.cls-17,.cls-18{fill:#26bed3;}.cls-19{fill:url(#linear-gradient);}.cls-20{clip-path:url(#clippath);}.cls-21,.cls-22,.cls-23{fill:#f2f2f2;}.cls-24{fill:#f2f0ee;}.cls-25{fill:#f0f2f3;}.cls-26{fill:#e6e6e6;}.cls-27{fill:#e54547;}.cls-28,.cls-29,.cls-30{fill:#fff;}.cls-31{fill:#fffef6;}.cls-32{fill:#e8e8e8;}.cls-33,.cls-34{fill:#f2cd64;}.cls-35{fill:#b3b3b3;}.cls-36{fill:#333;}.cls-37,.cls-38,.cls-39{fill:#ccc;}.cls-40{fill:#cbc1bd;}.cls-41{fill:#d54948;}.cls-42{fill:#231f20;}.cls-43{fill:#444;}.cls-44{fill:#a2c7d0;}.cls-45{fill:#6cc6c3;}.cls-46{fill:#515474;}.cls-47{clip-path:url(#clippath-1);}.cls-48{clip-path:url(#clippath-4);}.cls-49{clip-path:url(#clippath-3);}.cls-50{clip-path:url(#clippath-2);}.cls-51{clip-path:url(#clippath-7);}.cls-52{clip-path:url(#clippath-8);}.cls-53{clip-path:url(#clippath-6);}.cls-54{clip-path:url(#clippath-5);}.cls-55{clip-path:url(#clippath-9);}.cls-38{opacity:.3;}.cls-38,.cls-56,.cls-57{mix-blend-mode:multiply;}.cls-56{opacity:.52;}.cls-56,.cls-57{fill:#809c94;}.cls-58{clip-path:url(#clippath-13);}.cls-59{clip-path:url(#clippath-12);}.cls-60{clip-path:url(#clippath-10);}.cls-61{clip-path:url(#clippath-11);}.cls-62{opacity:.29;}.cls-62,.cls-63{fill:#b5b5b5;}.cls-62,.cls-63,.cls-64,.cls-65,.cls-66,.cls-67,.cls-18,.cls-68,.cls-15,.cls-69,.cls-70,.cls-9,.cls-71,.cls-13,.cls-11,.cls-72,.cls-34,.cls-29,.cls-73{fill-rule:evenodd;}.cls-63{opacity:.64;}.cls-74{fill:url(#linear-gradient-3);}.cls-75{fill:url(#linear-gradient-4);}.cls-76{fill:url(#linear-gradient-2);}.cls-77{fill:url(#linear-gradient-6);}.cls-78{fill:url(#linear-gradient-7);}.cls-79{fill:url(#linear-gradient-5);}.cls-80{opacity:.67;}.cls-64{fill:#f6f9fc;}.cls-65{fill:#38404b;}.cls-66{fill:#282f39;}.cls-67{fill:#28363c;}.cls-68{fill:#374549;}.cls-69{fill:#dbe3ec;}.cls-70{fill:#cdfcfc;}.cls-71{fill:#b7c7d9;}.cls-72{fill:#eaeef4;}.cls-73{fill:#e2e2e2;}.cls-57{opacity:.1;}.cls-81{isolation:isolate;}.cls-16{font-family:Arial-BoldMT, Arial;font-size:17.14px;font-weight:700;}.cls-22{opacity:.53;}.cls-23{opacity:.81;}.cls-39{opacity:.45;}.cls-30{opacity:.41;}</style><linearGradient id="linear-gradient" x1="53.68" y1="470.4" x2="86.38" y2="470.4" gradientTransform="translate(200.88 -151.25) rotate(7.89)" gradientUnits="userSpaceOnUse"><stop offset=".02" stop-color="#cacaca"/><stop offset=".39" stop-color="#f6f6f6"/><stop offset=".7" stop-color="#797979"/><stop offset=".97" stop-color="#e7e7e7"/></linearGradient><linearGradient id="linear-gradient-2" x1="79.83" y1="442.85" x2="79.83" y2="443.69" gradientTransform="translate(200.88 -151.25) rotate(7.89)" gradientUnits="userSpaceOnUse"><stop offset=".01" stop-color="#231f20"/><stop offset="1" stop-color="#605d5d"/></linearGradient><linearGradient id="linear-gradient-3" x1="57.97" y1="442.85" x2="57.97" y2="443.68" xlink:href="#linear-gradient-2"/><linearGradient id="linear-gradient-4" x1="69.61" y1="442.23" x2="69.61" y2="443.49" gradientTransform="translate(200.88 -151.25) rotate(7.89)" gradientUnits="userSpaceOnUse"><stop offset="0" stop-color="#605d5d"/><stop offset=".99" stop-color="#231f20"/></linearGradient><clipPath id="clippath"><path class="cls-2" d="m437.67,340.03h52.55v33.74c0,1.07-.87,1.94-1.94,1.94h-48.65c-1.07,0-1.95-.87-1.95-1.94v-33.74Z"/></clipPath><clipPath id="clippath-1"><path class="cls-3" d="m464.79,318.35l25.43,21.68h-52.55l25.43-21.68c.5-.42,1.21-.42,1.69,0"/></clipPath><clipPath id="clippath-2"><path class="cls-2" d="m445.24,325.32h37.43c.36,0,.65.29.65.65v18.74l-16.27,11.05h-6.19l-16.27-11.05v-18.74c0-.36.29-.65.65-.65"/></clipPath><linearGradient id="linear-gradient-5" x1="463.68" y1="364.1" x2="463.96" y2="340" gradientUnits="userSpaceOnUse"><stop offset="0" stop-color="#a2c7ec"/><stop offset="1" stop-color="#f6f9fc"/></linearGradient><clipPath id="clippath-3"><path class="cls-2" d="m464.81,353.73l24.81,21.45c-.35.34-.82.53-1.34.53h-48.65c-.52,0-.99-.2-1.33-.53l24.81-21.45c.49-.43,1.21-.43,1.7,0"/></clipPath><clipPath id="clippath-4"><polygon class="cls-43" points="393.91 6.38 383.76 14.9 377.8 14.47 378.41 8.52 388.56 0 387.94 5.95 393.91 6.38"/></clipPath><clipPath id="clippath-5"><path class="cls-5" d="m389.77,4.42h0c-.3-.36-.83-.41-1.2-.11l-32.62,27.38c-.36.3-.41.83-.11,1.19.3.36.83.4,1.2.11l32.62-27.38c.35-.3.4-.83.1-1.19"/></clipPath><clipPath id="clippath-6"><path class="cls-4" d="m475.45,69.76h25.3c.56,0,1.02.45,1.02,1.02v16.54c0,.56-.45,1.02-1.02,1.02h-25.3c-.56,0-1.02-.45-1.02-1.02v-16.54c0-.56.45-1.02,1.02-1.02"/></clipPath><clipPath id="clippath-7"><path class="cls-7" d="m488.1,76.88l13.34,11.17c-.18.17-.43.28-.69.28h-25.3c-.27,0-.51-.11-.69-.28l13.34-11.17Z"/></clipPath><clipPath id="clippath-8"><path class="cls-6" d="m488.54,80.72l12.9-10.69c-.18-.16-.43-.27-.69-.27h-25.3c-.27,0-.51.11-.69.27l12.9,10.69c.26.21.63.21.88,0"/></clipPath><clipPath id="clippath-9"><path class="cls-3" d="m496.6,69.17c1.27-2.2,4.1-2.96,6.31-1.69,2.21,1.28,2.97,4.11,1.69,6.31-1.27,2.21-4.1,2.96-6.31,1.69-2.21-1.28-2.97-4.1-1.69-6.31"/></clipPath><clipPath id="clippath-10"><path class="cls-2" d="m235.5,54.13c2.32-.98,6.47,3.6,9.25,10.21,2.8,6.61,3.18,12.77.86,13.74-2.32.98-6.45-3.59-9.25-10.21-2.8-6.61-3.18-12.77-.86-13.75"/></clipPath><linearGradient id="linear-gradient-6" x1="234.86" y1="68.67" x2="243.04" y2="64.99" gradientUnits="userSpaceOnUse"><stop offset="0" stop-color="#48515d"/><stop offset="1" stop-color="#a7b6c7"/></linearGradient><clipPath id="clippath-11"><path class="cls-2" d="m237.74,62.76c.66-.28,1.92,1.22,2.82,3.36.9,2.12,1.08,4.06.44,4.34-.66.28-1.92-1.22-2.82-3.34-.88-2.14-1.08-4.08-.44-4.36"/></clipPath><linearGradient id="linear-gradient-7" x1="239.3" y1="67.11" x2="239.71" y2="63.84" gradientUnits="userSpaceOnUse"><stop offset="0" stop-color="#282f39"/><stop offset="1" stop-color="#38404b"/></linearGradient><clipPath id="clippath-12"><path class="cls-6" d="m302.77,389.45c3.77-6.53,12.13-8.77,18.64-5,6.53,3.76,8.77,12.11,4.99,18.64-3.76,6.53-12.11,8.77-18.64,4.99-6.53-3.78-8.77-12.11-4.99-18.64"/></clipPath><clipPath id="clippath-13"><path class="cls-3" d="m321.01,378.92c5.08-8.87,16.43-11.89,25.3-6.75,8.91,5.09,11.93,16.43,6.8,25.3-5.13,8.87-16.48,11.93-25.35,6.8-8.87-5.13-11.88-16.48-6.75-25.35"/></clipPath></defs><g class="cls-81"><g id="Layer_2"><g id="Layer_5"><path class="cls-37" d="m539.75,214.56c.84,74.5-48.63,144.76-117.67,171.72-122.1,49.87-262.48-37.86-262.68-171.72-.26-134.25,140.51-222.51,262.94-172.37,69.11,27.19,118.46,97.77,117.4,172.37h0Zm-.3,0c.75-74.24-49.1-143.87-118.03-170.07C300.62-3.86,162.14,82.22,161.8,214.56c-.12,132.73,138.76,219.34,259.88,170.73,68.99-26.44,118.73-96.38,117.76-170.73h0Z"/><g><g><polygon class="cls-46" points="181.64 129.74 181.64 215.15 85.97 215.15 85.97 162.68 99.64 162.68 99.64 156.09 113.31 156.09 113.31 149.5 126.97 149.5 126.97 142.91 140.64 142.91 140.64 136.33 154.31 136.33 154.31 129.74 181.64 129.74"/><rect class="cls-21" x="103.7" y="170.83" width="6.5" height="6.27"/><rect class="cls-22" x="103.7" y="189.9" width="6.5" height="6.27"/><rect class="cls-22" x="117.65" y="161.3" width="6.5" height="6.27"/><rect class="cls-21" x="117.65" y="170.83" width="6.5" height="6.27"/><rect class="cls-22" x="117.65" y="189.9" width="6.5" height="6.27"/><rect class="cls-21" x="117.65" y="199.44" width="6.5" height="6.27"/><rect class="cls-23" x="131.61" y="151.76" width="6.5" height="6.27"/><rect class="cls-21" x="131.61" y="170.83" width="6.5" height="6.27"/><rect class="cls-22" x="131.61" y="199.44" width="6.5" height="6.27"/><rect class="cls-22" x="145.56" y="142.22" width="6.5" height="6.27"/><rect class="cls-21" x="145.56" y="151.76" width="6.5" height="6.27"/><rect class="cls-21" x="145.56" y="180.37" width="6.5" height="6.27"/><rect class="cls-21" x="159.51" y="161.3" width="6.5" height="6.27"/><rect class="cls-23" x="159.51" y="170.83" width="6.5" height="6.27"/><rect class="cls-22" x="159.51" y="151.76" width="6.5" height="6.27"/></g><g class="cls-80"><rect class="cls-26" x="18.86" y="78.2" width="7.98" height="91.08"/><rect class="cls-26" x="28.99" y="83.92" width="1.42" height="84.39"/><rect class="cls-26" x="15.49" y="83.92" width="1.42" height="84.39"/><rect class="cls-26" x="16.2" y="88.08" width="13.5" height=".67"/><rect class="cls-26" x="16.2" y="95.55" width="13.5" height=".67"/><rect class="cls-26" x="16.2" y="103.02" width="13.5" height=".67"/><rect class="cls-26" x="16.2" y="110.48" width="13.5" height=".67"/><rect class="cls-26" x="16.2" y="117.95" width="13.5" height=".67"/><rect class="cls-26" x="16.2" y="125.42" width="13.5" height=".67"/><rect class="cls-26" x="16.2" y="132.89" width="13.5" height=".67"/><rect class="cls-26" x="16.2" y="140.35" width="13.5" height=".67"/><rect class="cls-26" x="16.2" y="147.82" width="13.5" height=".67"/><rect class="cls-26" x="16.2" y="155.29" width="13.5" height=".67"/></g><g class="cls-80"><rect class="cls-26" x="65.78" y="78.2" width="7.98" height="91.08"/><rect class="cls-26" x="75.92" y="83.92" width="1.42" height="84.39"/><rect class="cls-26" x="62.41" y="83.92" width="1.42" height="84.39"/><rect class="cls-26" x="63.12" y="88.08" width="13.5" height=".67"/><rect class="cls-26" x="63.12" y="95.55" width="13.5" height=".67"/><rect class="cls-26" x="63.12" y="103.02" width="13.5" height=".67"/><rect class="cls-26" x="63.12" y="110.48" width="13.5" height=".67"/><rect class="cls-26" x="63.12" y="117.95" width="13.5" height=".67"/><rect class="cls-26" x="63.12" y="125.42" width="13.5" height=".67"/><rect class="cls-26" x="63.12" y="132.89" width="13.5" height=".67"/><rect class="cls-26" x="63.12" y="140.35" width="13.5" height=".67"/><rect class="cls-26" x="63.12" y="147.82" width="13.5" height=".67"/><rect class="cls-26" x="63.12" y="155.29" width="13.5" height=".67"/></g><rect class="cls-26" x="59.74" y="129.07" width="20.27" height="42"/><rect class="cls-26" x="12.82" y="129.07" width="20.27" height="42"/><polygon class="cls-37" points="47.33 215.15 0 215.15 0 154.41 47.33 174.39 47.33 215.15"/><rect class="cls-46" x="17.45" y="200.64" width="12.43" height="14.51"/><rect class="cls-44" x="3.81" y="176.65" width="9.01" height="8.9"/><rect class="cls-44" x="13.95" y="176.65" width="9.01" height="8.9"/><rect class="cls-44" x="24.08" y="176.65" width="9.01" height="8.9"/><rect class="cls-44" x="34.21" y="176.65" width="9.01" height="8.9"/><rect class="cls-44" x="3.81" y="186.62" width="9.01" height="8.9"/><rect class="cls-44" x="13.95" y="186.62" width="9.01" height="8.9"/><rect class="cls-44" x="24.08" y="186.62" width="9.01" height="8.9"/><rect class="cls-44" x="34.21" y="186.62" width="9.01" height="8.9"/><polygon class="cls-37" points="94.67 215.15 47.33 215.15 47.33 154.41 94.67 174.39 94.67 215.15"/><rect class="cls-46" x="64.78" y="200.64" width="12.43" height="14.51"/><rect class="cls-44" x="51.14" y="176.65" width="9.01" height="8.9"/><rect class="cls-44" x="61.28" y="176.65" width="9.01" height="8.9"/><rect class="cls-44" x="71.41" y="176.65" width="9.01" height="8.9"/><rect class="cls-44" x="81.55" y="176.65" width="9.01" height="8.9"/><rect class="cls-44" x="51.14" y="186.62" width="9.01" height="8.9"/><rect class="cls-44" x="61.28" y="186.62" width="9.01" height="8.9"/><rect class="cls-44" x="71.41" y="186.62" width="9.01" height="8.9"/><rect class="cls-44" x="81.55" y="186.62" width="9.01" height="8.9"/><rect class="cls-30" x="81.55" y="176.65" width="9" height="8.9"/><rect class="cls-30" x="81.55" y="186.62" width="9" height="8.9"/><polygon class="cls-37" points="150.65 182.18 145.95 198.47 121.58 198.47 116.96 182.18 121.58 169.28 145.94 169.28 150.65 182.18"/><rect class="cls-35" x="129.51" y="197.27" width="7.4" height="4.38"/><rect class="cls-45" x="122.86" y="174.23" width="1.75" height="39.9"/><rect class="cls-45" x="142.69" y="174.23" width="1.75" height="39.9"/><path class="cls-45" d="m149.51,174.98c0,.41-.35.75-.78.75h-29.86c-.43,0-.78-.34-.78-.75h0c0-.41.35-.75.78-.75h29.86c.43,0,.78.34.78.75h0Z"/><path class="cls-45" d="m149.51,190.32c0,.41-.35.75-.78.75h-29.86c-.43,0-.78-.34-.78-.75h0c0-.41.35-.75.78-.75h29.86c.43,0,.78.34.78.75h0Z"/><path class="cls-21" d="m162.11,145.32v4.7h-9.9c-9.16.07-16.58,7.26-16.58,16.11v3.16h-4.87v-3.16c0-11.43,9.62-20.74,21.45-20.81h9.9Z"/><rect class="cls-45" x="162.11" y="143.71" width="34.88" height="70.42"/><path class="cls-46" d="m203.44,145.55v61.36h-1.91v-13.37h-4.54v-1.23h4.54v-12.06h-4.54v-1.23h4.54v-12.05h-4.54v-1.23h4.54v-12.06h-4.54v-1.23h4.54v-6.91c0-2.51-2.11-4.54-4.7-4.54-1.91,0-3.56,1.11-4.28,2.7h-2.04c.81-2.63,3.34-4.54,6.32-4.54,3.64,0,6.61,2.87,6.61,6.39Z"/><path class="cls-45" d="m116.17,215.15h-4.69c-.07-8.5-7.24-15.38-16.07-15.38h-3.14v-4.52h3.14c11.4,0,20.69,8.93,20.76,19.9Z"/><rect class="cls-35" x="116.97" y="210.49" width="32.55" height="4.65"/><rect class="cls-35" x="160.4" y="210.49" width="38.3" height="4.65"/><polygon class="cls-57" points="47.33 174.39 47.33 215.15 0 215.15 0 200.05 32.92 168.3 47.33 174.39"/><polygon class="cls-56" points="77.21 200.64 77.21 215.15 73.7 215.15 73.7 204.03 64.79 204.03 64.79 200.64 77.21 200.64"/><path class="cls-38" d="m59.65,55.03c-1.43,0-2.63.33-3.63.87-.22-.42-.49-.82-.78-1.2,1.46-2.8.08-7.06-4.17-7.06-2.67,0-4.2,1.69-4.62,3.64-4.1.44-6.68,2.99-7.71,6.09-.99-.54-2.2-.86-3.61-.86-4.54,0-6.9,3.24-7.1,6.63-.6-.27-1.3-.42-2.1-.42-4.45,0-5.76,4.67-3.95,7.45-2.58.54-2.39,4.67.57,4.67,1.76,0,2.54-1.46,2.34-2.76.32.06.67.1,1.03.1,2.42,0,3.91-1.39,4.48-3.1,1.16.99,2.73,1.62,4.72,1.62,2.83,0,4.81-1.27,5.95-3.04,1.57,1.49,3.77,2.45,6.62,2.45,3.05,0,5.36-1.11,6.94-2.78,1.18,1.15,2.85,1.89,5.02,1.89,9.49,0,9.49-14.2,0-14.2Z"/><path class="cls-39" d="m131.1,56.51c-1.56,0-2.92.29-4.1.79-1.59-3.93-5.23-7-10.93-7-3.74,0-6.58,1.33-8.55,3.35-.32-.85-.73-1.66-1.21-2.43,1.23-1.07,1.01-3.37-.65-4,.56-2.66-.97-5.79-4.61-5.79-2.69,0-4.23,1.71-4.63,3.68-.68-.08-1.38-.13-2.12-.13-6.15,0-10.3,2.99-12.46,7.02-.7-.14-1.45-.22-2.26-.22-8.47,0-11.26,8.47-8.4,14.08-4.93,1.25-4.49,9.29,1.34,9.29,3.14,0,4.71-2.33,4.74-4.67.72.15,1.49.23,2.31.23,1.84,0,3.41-.41,4.71-1.1,2.35,2.27,5.68,3.76,10,3.76.91,0,1.77-.09,2.59-.21,1.4,2.82,4.21,4.94,8.45,4.94,3.96,0,6.68-1.85,8.16-4.4.81.15,1.65.26,2.57.26,3.01,0,5.44-.86,7.3-2.24,1.55,2.19,4.12,3.72,7.72,3.72,12.66,0,12.66-18.93,0-18.93Z"/><path class="cls-39" d="m144.59,52.66c-6.33,0-6.33,9.46,0,9.46s6.33-9.46,0-9.46Z"/><path class="cls-39" d="m163.6,55.03c-2.8,0-4.36,1.86-4.68,3.93-.37-.05-.75-.08-1.15-.08-9.49,0-9.49,14.2,0,14.2,5.46,0,7.77-4.7,6.95-8.69,5.18-1.05,4.8-9.35-1.12-9.35Z"/><path class="cls-39" d="m174.33,59.76c-3.16,0-3.16,4.73,0,4.73s3.16-4.73,0-4.73Z"/></g><g><g><g><path class="cls-26" d="m388.19,242.21h-146.04c-4.85,0-8.8-3.95-8.8-8.8v-2.4c0-4.85,3.95-8.8,8.8-8.8h146.04c4.85,0,8.8,3.95,8.8,8.8v2.4c0,4.85-3.95,8.8-8.8,8.8Zm-146.04-16.73c-3.05,0-5.53,2.48-5.53,5.53v2.4c0,3.05,2.48,5.53,5.53,5.53h146.04c3.05,0,5.53-2.48,5.53-5.53v-2.4c0-3.05-2.48-5.53-5.53-5.53h-146.04Z"/><g><rect class="cls-37" x="240.55" y="241.75" width="149.22" height="3.12"/><g><rect class="cls-37" x="286.76" y="241.75" width="3.4" height="19.15"/><rect class="cls-37" x="340.19" y="241.75" width="3.4" height="19.15"/></g><g><rect class="cls-37" x="240.55" y="241.75" width="3.4" height="19.15"/><rect class="cls-37" x="386.4" y="241.75" width="3.4" height="19.15"/></g><path class="cls-37" d="m244.48,259.98h-4.64c-.18,0-.33.12-.33.28v1.01c0,.15.15.28.33.28h4.64c.18,0,.33-.12.33-.28v-1.01c0-.15-.15-.28-.33-.28Z"/><path class="cls-37" d="m290.78,260.12h-4.64c-.18,0-.33.12-.33.28v1.01c0,.15.15.28.33.28h4.64c.18,0,.33-.12.33-.28v-1.01c0-.15-.15-.28-.33-.28Z"/><path class="cls-37" d="m344.19,260.12h-4.64c-.18,0-.33.12-.33.28v1.01c0,.15.15.28.33.28h4.64c.18,0,.33-.12.33-.28v-1.01c0-.15-.15-.28-.33-.28Z"/><path class="cls-37" d="m390.42,260.12h-4.64c-.18,0-.33.12-.33.28v1.01c0,.15.15.28.33.28h4.64c.18,0,.33-.12.33-.28v-1.01c0-.15-.15-.28-.33-.28Z"/></g><g><rect class="cls-37" x="240.55" y="225.48" width="149.25" height="1.67"/><g><g><g><g><rect class="cls-37" x="240.55" y="225.72" width="3.4" height="2.38"/><rect class="cls-37" x="249.93" y="225.72" width="3.4" height="2.38"/></g><rect class="cls-37" x="259.31" y="225.72" width="3.4" height="2.38"/><rect class="cls-37" x="268.69" y="225.72" width="3.4" height="2.38"/><rect class="cls-37" x="278.08" y="225.72" width="3.4" height="2.38"/></g><g><rect class="cls-37" x="287.4" y="225.72" width="3.4" height="2.38"/><rect class="cls-37" x="296.79" y="225.72" width="3.4" height="2.38"/><rect class="cls-37" x="306.17" y="225.72" width="3.4" height="2.38"/><rect class="cls-37" x="315.55" y="225.72" width="3.4" height="2.38"/></g></g><g><g><g><rect class="cls-37" x="315.55" y="225.72" width="3.4" height="2.38"/><rect class="cls-37" x="324.93" y="225.72" width="3.4" height="2.38"/></g><rect class="cls-37" x="334.31" y="225.72" width="3.4" height="2.38"/><rect class="cls-37" x="343.7" y="225.72" width="3.4" height="2.38"/><rect class="cls-37" x="353.08" y="225.72" width="3.4" height="2.38"/></g><g><rect class="cls-37" x="362.41" y="225.72" width="3.4" height="2.38"/><rect class="cls-37" x="371.79" y="225.72" width="3.4" height="2.38"/><rect class="cls-37" x="381.17" y="225.72" width="3.4" height="2.38"/></g></g></g></g><g><rect class="cls-37" x="240.53" y="237.23" width="149.25" height="1.67"/><g><g><g><g><rect class="cls-37" x="240.53" y="236.28" width="3.4" height="2.38"/><rect class="cls-37" x="249.91" y="236.28" width="3.4" height="2.38"/></g><rect class="cls-37" x="259.3" y="236.28" width="3.4" height="2.38"/><rect class="cls-37" x="268.68" y="236.28" width="3.4" height="2.38"/><rect class="cls-37" x="278.06" y="236.28" width="3.4" height="2.38"/></g><g><rect class="cls-37" x="287.39" y="236.28" width="3.4" height="2.38"/><rect class="cls-37" x="296.77" y="236.28" width="3.4" height="2.38"/><rect class="cls-37" x="306.15" y="236.28" width="3.4" height="2.38"/><rect class="cls-37" x="315.53" y="236.28" width="3.4" height="2.38"/></g></g><g><g><g><rect class="cls-37" x="315.53" y="236.28" width="3.4" height="2.38"/><rect class="cls-37" x="324.92" y="236.28" width="3.4" height="2.38"/></g><rect class="cls-37" x="334.3" y="236.28" width="3.4" height="2.38"/><rect class="cls-37" x="343.68" y="236.28" width="3.4" height="2.38"/><rect class="cls-37" x="353.06" y="236.28" width="3.4" height="2.38"/></g><g><rect class="cls-37" x="362.39" y="236.28" width="3.4" height="2.38"/><rect class="cls-37" x="371.77" y="236.28" width="3.4" height="2.38"/><rect class="cls-37" x="381.16" y="236.28" width="3.4" height="2.38"/></g></g></g></g><g><g><g><circle class="cls-26" cx="342.18" cy="232.21" r="7.31"/><circle class="cls-37" cx="342.18" cy="232.21" r="3.62"/></g><g><circle class="cls-26" cx="288.13" cy="232.21" r="7.31" transform="translate(-4.06 459.28) rotate(-76.72)"/><circle class="cls-37" cx="288.13" cy="232.21" r="3.62"/></g></g><g><g><circle class="cls-26" cx="243.16" cy="232.21" r="7.31"/><circle class="cls-37" cx="243.16" cy="232.21" r="3.62"/></g><g><circle class="cls-26" cx="387.15" cy="232.21" r="7.31"/><circle class="cls-37" cx="387.15" cy="232.21" r="3.62"/></g></g></g></g><rect class="cls-26" x="240.55" y="247.74" width="149.25" height="2.2"/></g><g><path class="cls-37" d="m241.42,193.89h-65.89c-.42,0-.77.34-.77.77v68.58h67.42v-68.58c0-.42-.34-.77-.77-.77Z"/><g><g><rect class="cls-26" x="174.76" y="254.55" width="67.42" height="8.69"/><path class="cls-26" d="m228.89,189.42h-40.83c-1.28,0-2.32,1.04-2.32,2.32v2.15h45.47v-2.15c0-1.28-1.04-2.32-2.32-2.32Z"/></g><rect class="cls-37" x="174.76" y="228.56" width="67.42" height="3.29"/><g><g><rect class="cls-26" x="179.84" y="200.91" width="22.04" height="11.68" rx=".77" ry=".77"/><path class="cls-12" d="m201.12,213.13h-20.51c-.72,0-1.31-.59-1.31-1.31v-10.15c0-.72.59-1.31,1.31-1.31h20.51c.72,0,1.31.59,1.31,1.31v10.15c0,.72-.59,1.31-1.31,1.31Zm-20.51-11.68c-.12,0-.22.1-.22.22v10.15c0,.12.1.22.22.22h20.51c.12,0,.22-.1.22-.22v-10.15c0-.12-.1-.22-.22-.22h-20.51Z"/><g><rect class="cls-40" x="182.02" y="202.74" width="5.6" height=".64" rx=".17" ry=".17"/><rect class="cls-40" x="182.02" y="203.83" width="5.6" height=".64" rx=".17" ry=".17"/><g><rect class="cls-40" x="182.02" y="207.53" width="14.63" height="1.25" rx=".5" ry=".5"/><rect class="cls-40" x="182.02" y="205.53" width="14.63" height="1.25" rx=".5" ry=".5"/><rect class="cls-40" x="182.02" y="209.52" width="14.63" height="1.25" rx=".5" ry=".5"/></g><circle class="cls-40" cx="198.63" cy="203.83" r="1.08"/><circle class="cls-40" cx="198.63" cy="206.74" r="1.08"/><g><rect class="cls-40" x="197.56" y="208.51" width="2.15" height=".62" rx=".13" ry=".13"/><rect class="cls-40" x="197.56" y="209.67" width="2.15" height=".62" rx=".13" ry=".13"/></g></g></g><g><g><g><path class="cls-26" d="m185.57,214.73h-.96c-.36,0-.65.29-.65.65s.29.65.65.65h.96c.36,0,.65-.29.65-.65s-.29-.65-.65-.65Z"/><path class="cls-26" d="m182.5,214.73h-.96c-.36,0-.65.29-.65.65s.29.65.65.65h.96c.36,0,.65-.29.65-.65s-.29-.65-.65-.65Z"/><path class="cls-26" d="m187.68,216.04h.96c.36,0,.65-.29.65-.65s-.29-.65-.65-.65h-.96c-.36,0-.65.29-.65.65s.29.65.65.65Z"/><path class="cls-26" d="m185.57,216.56h-.96c-.36,0-.65.29-.65.65s.29.65.65.65h.96c.36,0,.65-.29.65-.65s-.29-.65-.65-.65Z"/><path class="cls-26" d="m182.5,216.56h-.96c-.36,0-.65.29-.65.65s.29.65.65.65h.96c.36,0,.65-.29.65-.65s-.29-.65-.65-.65Z"/><path class="cls-26" d="m188.64,216.56h-.96c-.36,0-.65.29-.65.65s.29.65.65.65h.96c.36,0,.65-.29.65-.65s-.29-.65-.65-.65Z"/></g><g><path class="cls-26" d="m197.12,214.73h-.96c-.36,0-.65.29-.65.65s.29.65.65.65h.96c.36,0,.65-.29.65-.65s-.29-.65-.65-.65Z"/><path class="cls-26" d="m194.05,214.73h-.96c-.36,0-.65.29-.65.65s.29.65.65.65h.96c.36,0,.65-.29.65-.65s-.29-.65-.65-.65Z"/><path class="cls-26" d="m199.23,216.04h.96c.36,0,.65-.29.65-.65s-.29-.65-.65-.65h-.96c-.36,0-.65.29-.65.65s.29.65.65.65Z"/><path class="cls-26" d="m197.12,216.56h-.96c-.36,0-.65.29-.65.65s.29.65.65.65h.96c.36,0,.65-.29.65-.65s-.29-.65-.65-.65Z"/><path class="cls-26" d="m194.05,216.56h-.96c-.36,0-.65.29-.65.65s.29.65.65.65h.96c.36,0,.65-.29.65-.65s-.29-.65-.65-.65Z"/><path class="cls-26" d="m200.19,216.56h-.96c-.36,0-.65.29-.65.65s.29.65.65.65h.96c.36,0,.65-.29.65-.65s-.29-.65-.65-.65Z"/></g></g><g><g><path class="cls-26" d="m185.57,219.47h-.96c-.36,0-.65.29-.65.65s.29.65.65.65h.96c.36,0,.65-.29.65-.65s-.29-.65-.65-.65Z"/><path class="cls-26" d="m182.5,219.47h-.96c-.36,0-.65.29-.65.65s.29.65.65.65h.96c.36,0,.65-.29.65-.65s-.29-.65-.65-.65Z"/><path class="cls-26" d="m187.68,220.78h.96c.36,0,.65-.29.65-.65s-.29-.65-.65-.65h-.96c-.36,0-.65.29-.65.65s.29.65.65.65Z"/><path class="cls-26" d="m185.57,221.3h-.96c-.36,0-.65.29-.65.65s.29.65.65.65h.96c.36,0,.65-.29.65-.65s-.29-.65-.65-.65Z"/><path class="cls-26" d="m182.5,221.3h-.96c-.36,0-.65.29-.65.65s.29.65.65.65h.96c.36,0,.65-.29.65-.65s-.29-.65-.65-.65Z"/><path class="cls-26" d="m188.64,221.3h-.96c-.36,0-.65.29-.65.65s.29.65.65.65h.96c.36,0,.65-.29.65-.65s-.29-.65-.65-.65Z"/></g><g><path class="cls-26" d="m197.12,219.47h-.96c-.36,0-.65.29-.65.65s.29.65.65.65h.96c.36,0,.65-.29.65-.65s-.29-.65-.65-.65Z"/><path class="cls-26" d="m194.05,219.47h-.96c-.36,0-.65.29-.65.65s.29.65.65.65h.96c.36,0,.65-.29.65-.65s-.29-.65-.65-.65Z"/><path class="cls-26" d="m199.23,220.78h.96c.36,0,.65-.29.65-.65s-.29-.65-.65-.65h-.96c-.36,0-.65.29-.65.65s.29.65.65.65Z"/><path class="cls-26" d="m197.12,221.3h-.96c-.36,0-.65.29-.65.65s.29.65.65.65h.96c.36,0,.65-.29.65-.65s-.29-.65-.65-.65Z"/><path class="cls-26" d="m194.05,221.3h-.96c-.36,0-.65.29-.65.65s.29.65.65.65h.96c.36,0,.65-.29.65-.65s-.29-.65-.65-.65Z"/><path class="cls-26" d="m200.19,221.3h-.96c-.36,0-.65.29-.65.65s.29.65.65.65h.96c.36,0,.65-.29.65-.65s-.29-.65-.65-.65Z"/></g></g></g></g><g><g><g><circle class="cls-24" cx="209.69" cy="204.15" r="2.95"/><path class="cls-26" d="m209.69,207.32c-1.74,0-3.16-1.42-3.16-3.16s1.42-3.16,3.16-3.16,3.16,1.42,3.16,3.16-1.42,3.16-3.16,3.16Zm0-5.89c-1.5,0-2.73,1.22-2.73,2.73s1.22,2.73,2.73,2.73,2.73-1.22,2.73-2.73-1.22-2.73-2.73-2.73Z"/></g><path class="cls-14" d="m209.93,204.12c0,.13-.1.23-.23.23h0c-.13,0-.23-.1-.23-.23v-1.72c0-.13.1-.23.23-.23h0c.13,0,.23.1.23.23v1.72Z"/></g><g><g><circle class="cls-24" cx="234.35" cy="204.15" r="2.95"/><path class="cls-26" d="m234.35,207.32c-1.74,0-3.16-1.42-3.16-3.16s1.42-3.16,3.16-3.16,3.16,1.42,3.16,3.16-1.42,3.16-3.16,3.16Zm0-5.89c-1.5,0-2.73,1.22-2.73,2.73s1.22,2.73,2.73,2.73,2.73-1.22,2.73-2.73-1.22-2.73-2.73-2.73Z"/></g><path class="cls-14" d="m234.58,204.12c0,.13-.1.23-.23.23h0c-.13,0-.23-.1-.23-.23v-1.72c0-.13.1-.23.23-.23h0c.13,0,.23.1.23.23v1.72Z"/></g><g><g><circle class="cls-24" cx="217.82" cy="204.15" r="2.95"/><path class="cls-26" d="m215.19,205.9c-.97-1.45-.57-3.42.89-4.39,1.45-.97,3.42-.57,4.39.89.97,1.45.57,3.42-.89,4.39-1.45.97-3.42.57-4.39-.89Zm4.91-3.26c-.83-1.25-2.53-1.6-3.78-.76-1.25.83-1.6,2.53-.76,3.78.83,1.25,2.53,1.6,3.78.76,1.25-.83,1.6-2.53.76-3.78Z"/></g><path class="cls-14" d="m217.98,204.33c-.11.07-.25.04-.32-.06h0c-.07-.11-.04-.25.06-.32l1.43-.95c.11-.07.25-.04.32.06h0c.07.11.04.25-.06.32l-1.43.95Z"/></g><g><g><path class="cls-24" d="m227.69,201.71c1.35.91,1.71,2.74.8,4.09s-2.74,1.71-4.09.8c-1.35-.91-1.71-2.74-.8-4.09.91-1.35,2.74-1.71,4.09-.8Z"/><path class="cls-26" d="m228.68,205.92c-.97,1.45-2.94,1.84-4.39.86-1.45-.97-1.84-2.94-.86-4.39.97-1.45,2.94-1.84,4.39-.86,1.45.97,1.84,2.94.86,4.39Zm-4.89-3.28c-.84,1.25-.5,2.95.74,3.78,1.25.84,2.95.5,3.78-.74s.5-2.95-.74-3.78c-1.25-.84-2.95-.5-3.78.74Z"/></g><path class="cls-14" d="m226.15,203.94c.11.07.13.22.06.32h0c-.07.11-.22.13-.32.06l-1.43-.96c-.11-.07-.13-.22-.06-.32h0c.07-.11.22-.13.32-.06l1.43.96Z"/></g></g><g><path class="cls-25" d="m236.75,213.44h-29.14c-.3,0-.54.15-.54.33v1.33c0,.18.24.33.54.33h29.14c.3,0,.54-.15.54-.33v-1.33c0-.18-.24-.33-.54-.33Z"/><g><path class="cls-25" d="m236.75,209.79h-29.14c-.3,0-.54.15-.54.33v1.33c0,.18.24.33.54.33h29.14c.3,0,.54-.15.54-.33v-1.33c0-.18-.24-.33-.54-.33Z"/><path class="cls-25" d="m236.75,217.08h-29.14c-.3,0-.54.15-.54.33v1.33c0,.18.24.33.54.33h29.14c.3,0,.54-.15.54-.33v-1.33c0-.18-.24-.33-.54-.33Z"/></g></g></g></g><g><path class="cls-33" d="m271.71,215.89c-.38-4.64-3.56-15.54-3.56-15.54h-3.89s-2.86,10.9-3.23,15.54c-.38,4.64-.59,5.74.51,6.32h3.28s0,.02,0,.02h1.55s1.55,0,1.55,0h0s3.28-.02,3.28-.02c1.1-.57.88-1.68.51-6.32Z"/><path class="cls-27" d="m270.31,197.43s-.66.03-1.16-.29c-.33-.21-.54-.74-.65-.89-.28-.42-.19-.77,0-.85.2-.08.51.13.51.13,0,0,.18.69.56,1.08.41.43,1.01.58.75.81Z"/><rect class="cls-28" x="262.61" y="211.69" width="7.27" height="5.79"/><rect class="cls-41" x="264.26" y="197.78" width="3.89" height="2.57"/><path class="cls-32" d="m264.26,197.78l-.45-.83-1.2-.33-.35-1.5s2.25-.72,4.55-.59c.39.02,1.55-.01,1.85.21,1.11.83-.22,1.33-.22,1.33l-.3,1.72h-3.88Z"/><path class="cls-27" d="m262.34,195.11l.27,1.5s-.97.31-1.16-.48c-.19-.79.89-1.02.89-1.02Z"/></g><g><path class="cls-33" d="m293.87,215.89c-.38-4.64-3.56-15.54-3.56-15.54h-3.89s-2.86,10.9-3.23,15.54c-.38,4.64-.59,5.74.51,6.32h3.28s0,.02,0,.02h1.55s1.55,0,1.55,0h0s3.28-.02,3.28-.02c1.1-.57.88-1.68.51-6.32Z"/><path class="cls-27" d="m292.47,197.43s-.66.03-1.16-.29c-.33-.21-.54-.74-.65-.89-.28-.42-.19-.77,0-.85.2-.08.51.13.51.13,0,0,.18.69.56,1.08.41.43,1.01.58.75.81Z"/><rect class="cls-28" x="284.77" y="211.69" width="7.27" height="5.79"/><rect class="cls-41" x="286.42" y="197.78" width="3.89" height="2.57"/><path class="cls-32" d="m286.42,197.78l-.45-.83-1.2-.33-.35-1.5s2.25-.72,4.55-.59c.39.02,1.55-.01,1.85.21,1.11.83-.22,1.33-.22,1.33l-.3,1.72h-3.88Z"/><path class="cls-27" d="m284.5,195.11l.27,1.5s-.97.31-1.16-.48c-.19-.79.89-1.02.89-1.02Z"/></g><g><path class="cls-33" d="m316.03,215.89c-.38-4.64-3.56-15.54-3.56-15.54h-3.89s-2.86,10.9-3.23,15.54c-.38,4.64-.59,5.74.51,6.32h3.28s0,.02,0,.02h1.55s1.55,0,1.55,0h0s3.28-.02,3.28-.02c1.1-.57.88-1.68.51-6.32Z"/><path class="cls-27" d="m314.62,197.43s-.66.03-1.16-.29c-.33-.21-.54-.74-.65-.89-.28-.42-.19-.77,0-.85.2-.08.51.13.51.13,0,0,.18.69.56,1.08.41.43,1.01.58.75.81Z"/><rect class="cls-28" x="306.93" y="211.69" width="7.27" height="5.79"/><rect class="cls-41" x="308.58" y="197.78" width="3.89" height="2.57"/><path class="cls-32" d="m308.58,197.78l-.45-.83-1.2-.33-.35-1.5s2.25-.72,4.55-.59c.39.02,1.55-.01,1.85.21,1.11.83-.22,1.33-.22,1.33l-.3,1.72h-3.88Z"/><path class="cls-27" d="m306.66,195.11l.27,1.5s-.97.31-1.16-.48c-.19-.79.89-1.02.89-1.02Z"/></g><g><path class="cls-33" d="m338.19,215.89c-.38-4.64-3.56-15.54-3.56-15.54h-3.89s-2.86,10.9-3.23,15.54c-.38,4.64-.59,5.74.51,6.32h3.28s0,.02,0,.02h1.55s1.55,0,1.55,0h0s3.28-.02,3.28-.02c1.1-.57.88-1.68.51-6.32Z"/><path class="cls-27" d="m336.78,197.43s-.66.03-1.16-.29c-.33-.21-.54-.74-.65-.89-.28-.42-.19-.77,0-.85.2-.08.51.13.51.13,0,0,.18.69.56,1.08.41.43,1.01.58.75.81Z"/><rect class="cls-28" x="329.09" y="211.69" width="7.27" height="5.79"/><rect class="cls-41" x="330.74" y="197.78" width="3.89" height="2.57"/><path class="cls-32" d="m330.74,197.78l-.45-.83-1.2-.33-.35-1.5s2.25-.72,4.55-.59c.39.02,1.55-.01,1.85.21,1.11.83-.22,1.33-.22,1.33l-.3,1.72h-3.88Z"/><path class="cls-27" d="m328.82,195.11l.27,1.5s-.97.31-1.16-.48c-.19-.79.89-1.02.89-1.02Z"/></g><g><path class="cls-33" d="m360.35,215.89c-.38-4.64-3.56-15.54-3.56-15.54h-3.89s-2.86,10.9-3.23,15.54c-.38,4.64-.59,5.74.51,6.32h3.28s0,.02,0,.02h1.55s1.55,0,1.55,0h0s3.28-.02,3.28-.02c1.1-.57.88-1.68.51-6.32Z"/><path class="cls-27" d="m358.94,197.43s-.66.03-1.16-.29c-.33-.21-.54-.74-.65-.89-.28-.42-.19-.77,0-.85.2-.08.51.13.51.13,0,0,.18.69.56,1.08.41.43,1.01.58.75.81Z"/><rect class="cls-28" x="351.25" y="211.69" width="7.27" height="5.79"/><rect class="cls-41" x="352.9" y="197.78" width="3.89" height="2.57"/><path class="cls-32" d="m352.9,197.78l-.45-.83-1.2-.33-.35-1.5s2.25-.72,4.55-.59c.39.02,1.55-.01,1.85.21,1.11.83-.22,1.33-.22,1.33l-.3,1.72h-3.88Z"/><path class="cls-27" d="m350.98,195.11l.27,1.5s-.97.31-1.16-.48c-.19-.79.89-1.02.89-1.02Z"/></g><g><path class="cls-33" d="m382.51,215.89c-.38-4.64-3.56-15.54-3.56-15.54h-3.89s-2.86,10.9-3.23,15.54c-.38,4.64-.59,5.74.51,6.32h3.28s0,.02,0,.02h1.55s1.55,0,1.55,0h0s3.28-.02,3.28-.02c1.1-.57.88-1.68.51-6.32Z"/><path class="cls-27" d="m381.1,197.43s-.66.03-1.16-.29c-.33-.21-.54-.74-.65-.89-.28-.42-.19-.77,0-.85.2-.08.51.13.51.13,0,0,.18.69.56,1.08.41.43,1.01.58.75.81Z"/><rect class="cls-28" x="373.41" y="211.69" width="7.27" height="5.79"/><rect class="cls-41" x="375.06" y="197.78" width="3.89" height="2.57"/><path class="cls-32" d="m375.06,197.78l-.45-.83-1.2-.33-.35-1.5s2.25-.72,4.55-.59c.39.02,1.55-.01,1.85.21,1.11.83-.22,1.33-.22,1.33l-.3,1.72h-3.88Z"/><path class="cls-27" d="m373.14,195.11l.27,1.5s-.97.31-1.16-.48c-.19-.79.89-1.02.89-1.02Z"/></g></g></g><g id="Layer_7"><g><path class="cls-36" d="m187.74,351.25c-1.11-.15-1.88-1.18-1.73-2.29l7.44-53.71c.15-1.11,1.18-1.89,2.29-1.73l27.95,3.87c1.11.15,1.88,1.18,1.73,2.29l-7.44,53.71c-.15,1.11-1.18,1.89-2.29,1.73l-27.95-3.87Z"/><path class="cls-19" d="m223.66,297.6c.99.14,1.68,1.06,1.55,2.05l-7.44,53.71c-.14.99-1.05,1.69-2.05,1.55l-27.95-3.87c-.99-.14-1.69-1.05-1.55-2.05l7.44-53.71c.14-.99,1.05-1.69,2.05-1.55l27.95,3.87m.06-.42l-27.95-3.87c-1.23-.17-2.36.69-2.53,1.91l-7.44,53.71c-.17,1.22.69,2.36,1.91,2.53l27.95,3.87c1.22.17,2.36-.69,2.53-1.91l7.44-53.71c.17-1.23-.69-2.36-1.91-2.53h0Z"/><rect class="cls-10" x="181.71" y="308.83" width="48.57" height="28.5" transform="translate(-142.3 482.78) rotate(-82.11)"/><path class="cls-42" d="m215.66,355.38l-27.95-3.87c-1.25-.17-2.13-1.34-1.96-2.59l7.44-53.71c.17-1.25,1.34-2.13,2.59-1.96l27.95,3.87c1.25.17,2.13,1.34,1.96,2.59l-7.44,53.71c-.17,1.25-1.34,2.13-2.59,1.96Zm-19.89-62.02c-1.2-.17-2.3.67-2.47,1.87l-7.44,53.71c-.17,1.2.67,2.3,1.87,2.47l27.95,3.87c1.19.17,2.3-.67,2.47-1.87l7.44-53.71c.17-1.19-.67-2.3-1.87-2.47l-27.95-3.87Zm19.95,61.6l-27.95-3.87c-1.02-.14-1.74-1.09-1.59-2.11l7.44-53.71c.14-1.02,1.09-1.74,2.11-1.59l27.95,3.87c1.02.14,1.73,1.09,1.59,2.11l-7.44,53.71c-.14,1.02-1.09,1.74-2.11,1.59Zm-20.01-61.18c-.96-.13-1.85.54-1.99,1.5l-7.44,53.71c-.13.96.54,1.85,1.5,1.99l27.95,3.87c.96.13,1.85-.54,1.99-1.5l7.44-53.71c.13-.96-.54-1.85-1.5-1.99l-27.95-3.87Z"/><path class="cls-76" d="m222.14,299.27c-.02.13-.14.23-.28.21l-5.52-.76c-.13-.02-.23-.14-.21-.28h0c.02-.14.14-.23.28-.21l5.52.77c.13.02.23.14.21.28h0Z"/><path class="cls-74" d="m200.48,296.27c-.02.13-.14.23-.28.21l-5.52-.76c-.14-.02-.23-.14-.21-.28h0c.02-.14.14-.23.28-.21l5.52.77c.13.02.23.14.21.28h0Z"/><path class="cls-75" d="m209.42,297.14c-.03.2-.21.34-.42.31-.2-.03-.34-.21-.31-.41.03-.2.21-.34.42-.32.2.03.34.22.32.42Z"/><g><path class="cls-1" d="m201.41,349.45l.06-.41c-.24.11-.43.34-.47.63-.06.44.25.86.7.92.45.06.86-.25.92-.7.04-.29-.08-.56-.28-.73l-.06.41-.86-.12Z"/><g><path class="cls-28" d="m202.33,349.19l-.02.16c.21.17.32.45.28.73-.06.45-.47.76-.92.7-.44-.06-.76-.48-.7-.92.04-.29.23-.52.47-.63l.02-.16c-.33.12-.58.41-.63.77-.07.52.29,1.01.82,1.08.52.07,1.01-.29,1.08-.82.05-.37-.12-.72-.4-.92Z"/><polygon class="cls-28" points="201.75 349.83 201.91 349.85 201.95 349.55 201.97 349.42 202.05 348.83 201.89 348.81 201.81 349.4 201.79 349.52 201.75 349.83"/></g><polygon class="cls-28" points="195.43 349.66 195.3 349.64 195.46 348.48 195.59 348.5 195.43 349.66"/><polygon class="cls-28" points="196.9 349.86 196.77 349.84 196.93 348.68 197.06 348.7 196.9 349.86"/><rect class="cls-28" x="196.04" y="348.88" width=".13" height="1.62" transform="translate(-177.42 495.34) rotate(-82.02)"/><polygon class="cls-28" points="195.78 349.26 195.8 349.13 196.6 349.24 196.59 349.38 195.78 349.26"/><polygon class="cls-28" points="195.83 348.96 195.84 348.82 196.65 348.93 196.63 349.07 195.83 348.96"/><polygon class="cls-28" points="207.37 350.45 207.33 350.36 207.38 350.29 207.52 350.08 206.79 350.32 207.48 350.66 207.37 350.45"/><path class="cls-1" d="m207.35,351.24c.31.04.58-.11.61-.34.03-.23-.19-.46-.5-.5-.06,0-.12,0-.17,0l-.11.8c.05.02.11.04.17.04Z"/><path class="cls-28" d="m207.48,350.25c-.06,0-.12,0-.17,0l-.02.15c.06,0,.11,0,.17,0,.31.04.53.27.5.5-.03.23-.31.39-.61.34-.06,0-.11-.02-.17-.04l-.02.14c.05.02.11.04.17.04.38.05.73-.16.77-.47.04-.31-.23-.61-.62-.66Z"/></g><rect class="cls-28" x="204.18" y="294.22" width="7.69" height="28.5" transform="translate(-126.07 472.2) rotate(-82.11)"/><g><path class="cls-33" d="m213.43,340.99c1.6-4.64,3.14-16.52,3.14-16.52l-1.31-.58-.82-.36-1.63-.71s-7.37,9.32-9.7,13.65c-2.33,4.32-3,5.3-2.18,6.32l3.16,1.4h0s1.5.66,1.5.66l1.5.66h0s3.17,1.37,3.17,1.37c1.31-.09,1.56-1.25,3.17-5.89Z"/><path class="cls-27" d="m219.89,322.56s-.65-.25-1-.77c-.23-.34-.21-.94-.25-1.14-.09-.52.14-.82.35-.82.23,0,.44.34.44.34,0,0-.11.74.08,1.28.21.59.72.99.38,1.1Z"/><rect class="cls-28" x="205.66" y="333.58" width="6.1" height="7.67" transform="translate(-184.09 393.19) rotate(-66.34)"/><rect class="cls-41" x="213.88" y="320.35" width="2.71" height="4.11" transform="translate(-166.44 390.18) rotate(-66.34)"/><path class="cls-31" d="m213.9,320.34l-.08-.99-1.02-.83.3-1.6s2.48.26,4.65,1.35c.37.19,1.5.64,1.7.99.72,1.27-.78,1.19-.78,1.19l-1.02,1.53-3.75-1.64Z"/><path class="cls-27" d="m213.18,316.95l-.37,1.56s-1.07-.11-.92-.95c.15-.85,1.3-.61,1.3-.61Z"/></g><g><path d="m201.8,307.19l2.29.43-.22,1.2-2.29-.43.22-1.2Z"/><path d="m205.19,306.28l3.3-1.29-1.16,6.21-1.45-.12.77-4.13-1.12.3-.34-.97Z"/><path d="m214.04,307.68c-.08-.07-.19-.15-.34-.23-.15-.08-.29-.13-.42-.15-.31-.06-.57-.04-.78.05-.22.09-.4.24-.54.44l1.87.35-.37.79-1.83-.34s-.02.08-.03.12l-.02.12-.03.19,1.73.32-.37.79-1.37-.25c.02.27.09.49.22.66.13.17.35.29.67.35.2.04.41.03.62-.03.22-.05.42-.13.59-.21l-.47,1.56c-.07.03-.15.04-.25.05-.1,0-.2.01-.29.01-.1,0-.2,0-.3-.01s-.18-.02-.24-.03c-.34-.06-.64-.17-.89-.33-.25-.16-.46-.35-.62-.58-.17-.23-.29-.49-.38-.79-.09-.29-.13-.61-.14-.94l-.77-.14.37-.79.47.09.03-.15.03-.14s.02-.09.03-.14l-.69-.13.37-.79.59.11c.13-.29.3-.55.49-.78.19-.23.41-.42.66-.56.25-.14.52-.24.82-.29.3-.05.63-.04.98.03.24.04.45.11.65.2.2.09.38.2.53.34l-.57,1.23Z"/></g><g><rect class="cls-28" x="196.29" y="314.44" width="13.4" height="6.39" transform="translate(43.09 -23.73) rotate(7.48)"/><g><rect class="cls-43" x="198.02" y="314.45" width=".74" height="5.16" transform="translate(42.97 -23.14) rotate(7.48)"/><rect class="cls-43" x="199.15" y="314.57" width=".37" height="5.16" transform="translate(43 -23.26) rotate(7.48)"/><rect class="cls-43" x="200.46" y="314.81" width="1.38" height="5.16" transform="translate(43.04 -23.49) rotate(7.48)"/><rect class="cls-43" x="202.35" y="315.04" width="1.07" height="5.16" transform="translate(43.09 -23.72) rotate(7.48)"/><rect class="cls-43" x="199.7" y="314.63" width=".18" height="5.16" transform="translate(43.01 -23.32) rotate(7.48)"/><rect class="cls-43" x="203.86" y="315.2" width=".59" height="5.16" transform="translate(43.12 -23.88) rotate(7.48)"/><rect class="cls-43" x="204.76" y="315.3" width=".3" height="5.16" transform="translate(43.14 -23.98) rotate(7.48)"/><rect class="cls-43" x="205.81" y="315.49" width="1.11" height="5.16" transform="translate(43.18 -24.16) rotate(7.48)"/><rect class="cls-43" x="207.33" y="315.68" width=".86" height="5.16" transform="translate(43.21 -24.34) rotate(7.48)"/><rect class="cls-43" x="205.2" y="315.35" width=".15" height="5.16" transform="translate(43.15 -24.02) rotate(7.48)"/><rect class="cls-43" x="208.47" y="315.79" width=".27" height="5.16" transform="translate(43.23 -24.45) rotate(7.48)"/><rect class="cls-43" x="197.24" y="314.31" width=".27" height="5.16" transform="translate(42.95 -23) rotate(7.48)"/></g></g></g><g class="cls-20"><rect class="cls-14" x="437.67" y="340.03" width="52.55" height="35.69"/></g><g><path class="cls-9" d="m464.79,318.35l25.43,21.68h-52.55l25.43-21.68c.5-.42,1.21-.42,1.69,0"/><g class="cls-47"><rect class="cls-8" x="437.67" y="317.93" width="52.55" height="22.1"/></g></g><g class="cls-50"><rect class="cls-79" x="444.59" y="325.32" width="38.72" height="30.44"/><polygon class="cls-34" points="476.79 356.03 467.66 352.61 464.74 361.91 461.02 353.13 452.26 357.95 456.13 348.95 446.66 346.47 455.85 342.53 451.22 334.2 460.35 337.62 463.27 328.32 466.98 337.1 475.75 332.28 471.88 341.27 481.35 343.76 472.16 347.7 476.79 356.03"/></g><g class="cls-49"><rect class="cls-8" x="438.29" y="353.3" width="51.32" height="22.41"/></g><path class="cls-43" d="m460.8,346.18c-.49,0-.91-.12-1.25-.35-.34-.23-.6-.56-.78-.97-.18-.41-.26-.88-.26-1.42s.09-1.01.26-1.42c.18-.41.43-.73.78-.97.34-.24.76-.35,1.25-.35s.89.12,1.22.35c.34.23.59.56.78.97.18.41.27.88.27,1.42s-.09,1.02-.26,1.43c-.18.41-.43.73-.77.96-.34.23-.75.34-1.24.34Zm7.17-5.47l-6.67,9.78-1.49-.03,6.66-9.74h1.5Zm-8.13,2.74c0,.52.08.93.25,1.22.17.29.4.44.71.44s.54-.15.7-.44c.16-.29.24-.7.24-1.22s-.08-.96-.24-1.23c-.16-.28-.4-.42-.7-.42s-.55.14-.71.41c-.17.27-.25.69-.25,1.24Zm6.96,7.26c-.49,0-.9-.11-1.24-.34s-.59-.55-.76-.96c-.17-.41-.26-.89-.26-1.43s.08-1.02.26-1.42c.17-.41.42-.72.76-.95.34-.23.75-.34,1.24-.34s.9.12,1.24.34c.34.23.59.55.78.95.18.41.27.88.27,1.42s-.09,1.01-.26,1.42c-.18.42-.43.74-.78.97-.34.23-.76.34-1.25.34Zm-.96-2.72c0,.51.08.92.25,1.22.17.3.4.45.71.45s.55-.15.71-.45c.17-.3.25-.7.25-1.22,0-.55-.08-.97-.25-1.25-.17-.28-.4-.42-.71-.42s-.55.13-.71.4c-.17.27-.25.69-.25,1.26Z"/><g><path class="cls-68" d="m490.22,209.58v-52.16c0-.39.32-.71.7-.71h86.87c.38,0,.7.31.7.71v52.16c0,.38-.31.7-.7.7h-86.87c-.38,0-.7-.32-.7-.7h0Z"/><polygon class="cls-73" points="494.27 206.23 494.27 160.77 574.43 160.77 574.43 206.23 494.27 206.23 494.27 206.23"/><polygon class="cls-62" points="494.27 203.85 494.27 160.77 572.16 160.77 572.16 203.85 494.27 203.85 494.27 203.85"/><polygon class="cls-68" points="524.69 209.42 550.62 209.42 550.62 282.45 524.69 282.45 524.69 209.42 524.69 209.42"/><path class="cls-67" d="m524.69,210.04h25.93v4.13c-3.81-.85-8.24-1.33-12.97-1.33s-9.16.47-12.97,1.33v-4.13h0Z"/><polygon class="cls-67" points="509.75 285.88 565.16 285.88 565.16 282.45 509.75 282.45 509.75 285.88 509.75 285.88"/><path class="cls-68" d="m559.75,280.85c-.97,0-1.79.68-1.98,1.6h3.97c-.2-.92-1.01-1.6-1.99-1.6h0Z"/><path class="cls-68" d="m515.16,280.85c-.97,0-1.79.68-1.97,1.6h3.96c-.2-.92-1.01-1.6-1.99-1.6h0Z"/><g><path class="cls-33" d="m563.27,188.52c-1.45-5.26-7.48-17.12-7.48-17.12l-1.57.3-.98.18-1.94.37s-.91,13.18-.33,18.6c.58,5.42.57,6.74,1.96,7.16l3.78-.7h0s1.79-.33,1.79-.33l1.79-.33h0s3.77-.74,3.77-.74c1.14-.9.65-2.13-.79-7.38Z"/><path class="cls-27" d="m557.63,167.56s-.75.18-1.4-.08c-.43-.17-.78-.73-.94-.89-.41-.42-.39-.84-.19-.97.21-.14.62.04.62.04,0,0,.36.75.88,1.12.57.41,1.29.45,1.04.77Z"/><rect class="cls-28" x="552.43" y="184.81" width="8.52" height="6.78" transform="translate(-25.29 106.84) rotate(-10.72)"/><rect class="cls-41" x="550.98" y="168.84" width="4.56" height="3.01" transform="translate(-22.03 105.89) rotate(-10.72)"/><path class="cls-31" d="m550.74,169.29l-.7-.86-1.45-.12-.73-1.65s2.43-1.32,5.11-1.67c.45-.06,1.78-.35,2.18-.16,1.45.71.03,1.57.03,1.57l.02,2.05-4.47.85Z"/><path class="cls-27" d="m547.95,166.64l.64,1.67s-1.05.57-1.44-.3c-.39-.87.81-1.37.81-1.37Z"/></g><polygon class="cls-29" points="538.48 196.68 527.07 192.4 523.42 204.02 518.78 193.05 507.82 199.07 512.66 187.83 500.82 184.73 512.31 179.8 506.52 169.39 517.93 173.66 521.59 162.04 526.23 173.01 537.19 166.99 532.34 178.23 544.18 181.34 532.69 186.26 538.48 196.68"/><text class="cls-16" transform="translate(502.37 190)"><tspan x="0" y="0">-20%</tspan></text></g><g><path class="cls-70" d="m331.28,17.59c8.01-13.88,25.75-18.63,39.64-10.62,13.87,8.01,18.63,25.76,10.61,39.63-8.01,13.89-25.75,18.64-39.63,10.62-13.88-8.01-18.64-25.75-10.62-39.63"/><path class="cls-15" d="m348.8,27.71c2.42-4.2,7.8-5.64,12-3.21,4.21,2.42,5.65,7.8,3.21,12-2.42,4.2-7.8,5.64-12,3.22-4.2-2.43-5.65-7.8-3.21-12.01m-4.47-2.57c3.85-6.66,12.38-8.95,19.04-5.1,6.67,3.85,8.95,12.37,5.11,19.04-3.84,6.66-12.37,8.95-19.04,5.1-6.67-3.85-8.95-12.37-5.11-19.04Z"/><path class="cls-15" d="m339.88,22.56c5.27-9.13,16.94-12.26,26.07-6.99,9.14,5.27,12.26,16.95,6.99,26.08-5.27,9.13-16.94,12.25-26.07,6.98-9.13-5.27-12.25-16.94-6.99-26.07m-4.46-2.58c6.7-11.59,21.52-15.57,33.1-8.87,11.6,6.7,15.57,21.52,8.88,33.11-6.69,11.59-21.52,15.56-33.11,8.87-11.6-6.69-15.57-21.52-8.87-33.11Z"/><path class="cls-63" d="m385.42,31.5c0,.56,0,1.13-.02,1.7h-28.89c-.47,0-.85-.38-.85-.85s.38-.85.85-.85h28.9Z"/><g><polygon class="cls-43" points="393.91 6.38 383.76 14.9 377.8 14.47 378.41 8.52 388.56 0 387.94 5.95 393.91 6.38"/><g class="cls-48"><rect class="cls-43" x="377.8" width="16.12" height="14.9"/></g></g><g><path class="cls-13" d="m389.77,4.42h0c-.3-.36-.83-.41-1.2-.11l-32.62,27.38c-.36.3-.41.83-.11,1.19.3.36.83.4,1.2.11l32.62-27.38c.35-.3.4-.83.1-1.19"/><g class="cls-54"><rect class="cls-12" x="355.55" y="4.01" width="34.52" height="29.28"/></g></g></g><g><path class="cls-9" d="m512.25,66.26h-40.83c-1,0-1.83.82-1.83,1.83v26.74c0,1,.82,1.82,1.83,1.82h22.03l15.23,7.86c.12.06.26.04.35-.05.1-.09.14-.22.09-.34l-2.96-7.47h6.1c1,0,1.82-.82,1.82-1.82v-26.74c0-1-.82-1.83-1.82-1.83"/><path class="cls-64" d="m509.16,63.29h-42.12c-1.04,0-1.88.85-1.88,1.88v27.59c0,1.04.85,1.88,1.88,1.88h22.73l15.71,8.11c.12.06.26.04.36-.05.11-.09.14-.23.09-.35l-3.05-7.7h6.29c1.03,0,1.88-.85,1.88-1.88v-27.59c0-1.03-.85-1.88-1.88-1.88"/><g><path class="cls-11" d="m475.45,69.76h25.3c.56,0,1.02.45,1.02,1.02v16.54c0,.56-.45,1.02-1.02,1.02h-25.3c-.56,0-1.02-.45-1.02-1.02v-16.54c0-.56.45-1.02,1.02-1.02"/><g class="cls-53"><rect class="cls-10" x="474.43" y="69.76" width="27.33" height="18.57"/></g></g><g><path class="cls-18" d="m488.1,76.88l13.34,11.17c-.18.17-.43.28-.69.28h-25.3c-.27,0-.51-.11-.69-.28l13.34-11.17Z"/><g class="cls-51"><rect class="cls-17" x="474.76" y="76.88" width="26.68" height="11.44"/></g></g><g><path class="cls-15" d="m488.54,80.72l12.9-10.69c-.18-.16-.43-.27-.69-.27h-25.3c-.27,0-.51.11-.69.27l12.9,10.69c.26.21.63.21.88,0"/><g class="cls-52"><rect class="cls-14" x="474.76" y="69.76" width="26.68" height="11.17"/></g></g><g><path class="cls-9" d="m496.6,69.17c1.27-2.2,4.1-2.96,6.31-1.69,2.21,1.28,2.97,4.11,1.69,6.31-1.27,2.21-4.1,2.96-6.31,1.69-2.21-1.28-2.97-4.1-1.69-6.31"/><g class="cls-55"><rect class="cls-8" x="495.33" y="66.21" width="10.56" height="10.55"/></g></g><polygon class="cls-28" points="501.21 74.1 499.91 74.1 499.91 69.64 498.79 69.64 498.79 68.66 501.21 68.46 501.21 74.1"/></g><g><path class="cls-66" d="m260.73,37.67h0c-.36-.24-.86-.16-1.12.22l-11.75,17.06c-.26.36-.16.86.22,1.12.36.26.86.16,1.12-.2l11.73-17.08c.26-.36.16-.86-.2-1.12"/><path class="cls-66" d="m272.3,51.85h0c-.18-.4-.68-.58-1.08-.38l-18.7,8.91c-.4.18-.56.66-.38,1.06.2.4.68.58,1.08.38l18.7-8.91c.4-.18.58-.66.38-1.06"/><path class="cls-66" d="m275.24,69.92h0c.04-.46-.3-.84-.74-.88l-20.66-1.64c-.44-.04-.84.3-.86.74-.04.44.3.84.74.88l20.64,1.64c.46.02.84-.3.88-.74"/><path class="cls-71" d="m217.88,80.49c.74,1.02,1.58,1.8,2.84,2.5.7.18,1.5-.12,2.04-.28,2.12,1.98,4.23,3.97,6.37,5.95,1.24-.94,2.12-2.16,2.36-3.48-1.06-1.68-4.5-2.88-6.03-4.83.04-1.1.06-2.2.1-3.28-.68-.32-1.72-.34-2.82-.04.02,1.1-1.92,2.2-4.85,3.46"/><path class="cls-69" d="m216.84,80.88c.72,1,1.56,1.78,2.82,2.48.72.18,1.5-.12,2.06-.28,2.12,1.98,4.23,3.97,6.35,5.97,1.24-.96,2.14-2.16,2.38-3.5-1.06-1.68-4.5-2.88-6.03-4.83.02-1.08.06-2.18.08-3.28-.68-.32-1.7-.34-2.8-.02.02,1.08-1.92,2.18-4.86,3.46"/><path class="cls-15" d="m211.72,73.15l8.59-3.64,3.68,8.69-8.61,3.64c-2.04.86-4.41-.12-5.29-2.16l-.52-1.26c-.86-2.04.1-4.41,2.16-5.27"/><path class="cls-72" d="m221.93,79.14c9.27-2.88,14.92-1.24,22.58.6l-10.97-25.99c-4.02,6.75-6.79,11.97-15.32,16.58,0,1.46.34,3.1,1.04,4.76.68,1.64,1.64,3.04,2.68,4.05Z"/><path class="cls-15" d="m234.9,52.69c3.12-1.32,8.17,3.62,11.31,11.03,3.12,7.41,3.12,14.48.02,15.8-3.14,1.32-8.19-3.64-11.31-11.05-3.14-7.41-3.14-14.48-.02-15.78"/><g class="cls-60"><rect class="cls-77" x="233.18" y="53.15" width="14.74" height="25.91"/></g><path class="cls-65" d="m237.64,62.8s0,0,0,0h0c.86-.34,2.02,1.2,2.92,3.32.88,2.12,1.18,3.99.34,4.37,0,0,.02-.02-.02,0-.04.02-.16.06-.24.06l-2.68.64c-.56-1.02-1.1-2.14-1.6-3.32-.5-1.22-.94-2.42-1.28-3.58l2.4-1.4s.12-.08.16-.1"/><g class="cls-61"><rect class="cls-78" x="237.1" y="62.48" width="4.54" height="8.25"/></g></g><g><g><path class="cls-15" d="m302.77,389.45c3.77-6.53,12.13-8.77,18.64-5,6.53,3.76,8.77,12.11,4.99,18.64-3.76,6.53-12.11,8.77-18.64,4.99-6.53-3.78-8.77-12.11-4.99-18.64"/><g class="cls-59"><rect class="cls-14" x="298.99" y="380.68" width="31.19" height="31.19"/></g></g><path class="cls-28" d="m314.6,393.59c.82-1.64,1.64-2.46,3.28-2.46,1.8,0,3.28,1.48,3.28,3.28,0,3.28-1.94,5.4-6.55,7.99-4.17-2.54-6.55-4.72-6.55-7.99,0-1.8,1.46-3.28,3.28-3.28,1.64,0,2.46.82,3.28,2.46"/></g><g><g><path class="cls-9" d="m321.01,378.92c5.08-8.87,16.43-11.89,25.3-6.75,8.91,5.09,11.93,16.43,6.8,25.3-5.13,8.87-16.48,11.93-25.35,6.8-8.87-5.13-11.88-16.48-6.75-25.35"/><g class="cls-58"><rect class="cls-8" x="315.87" y="367.03" width="42.36" height="42.37"/></g></g><path class="cls-29" d="m346.53,385.18l-.04-.04c-.22-.23-.54-.36-.9-.36h-5.99l.32-.63c.31-.59.54-1.17.67-1.85.23-1.13.18-2.3-.18-3.42-.09-.41-.32-.72-.68-.95-.22-.18-.5-.27-.76-.27-.27-.04-.54,0-.77.14-.27.18-.45.4-.54.67l-.86,2.52-3.73,3.96v8.56l3.78,1.71v.04h7.07c.36,0,.67-.13.9-.36.22-.27.36-.58.36-.9v-.27c0-.18-.05-.36-.09-.49l-.22-.5.54-.09c.63-.18.95-.54.95-1.21v-.27c0-.27-.09-.58-.27-.81l-.27-.31.4-.32c.27-.22.49-.5.49-.86v-.27c0-.32-.04-.58-.27-.86l-.23-.27.27-.27c.22-.27.36-.54.36-.9v-.27c0-.31-.09-.63-.32-.85m-19.18,0s-.09.04-.09.13v8.56s.05.13.09.13h4.27s.14-.09.14-.13v-8.56c0-.09-.09-.13-.14-.13h-4.27Z"/></g></g></g></g></svg>