<?xml version="1.0" encoding="UTF-8"?><svg id="Layer_2" xmlns="http://www.w3.org/2000/svg" viewBox="0 0 599.79 398.45"><defs><style>.cls-1{fill:#010700;}.cls-2{fill:#03011c;}.cls-3{fill:#eaeaea;}.cls-4{fill:#e6e6e6;}.cls-5{fill:#f5f5f5;}.cls-6{fill:#f5ffff;}.cls-7{fill:#f6cfbe;}.cls-8{fill:#e8d7b8;}.cls-9{fill:#fcfcfc;}.cls-10{fill:#e8c59c;}.cls-11{fill:#e7ecef;}.cls-12{fill:#e54547;}.cls-13,.cls-14{fill:#fff;}.cls-15{fill:#ffea46;}.cls-16{fill:#fffef6;}.cls-17{fill:#f2cd64;}.cls-18{fill:#e5eae9;}.cls-19,.cls-20{fill:#e2e2e2;}.cls-21{fill:#e83d3d;}.cls-22{fill:#738589;}.cls-23{fill:#686c6b;}.cls-24{fill:#6b8e91;}.cls-25{fill:#999;}.cls-26{fill:#a0616a;}.cls-27{fill:#92edf0;}.cls-28,.cls-29{fill:#b5b5b5;}.cls-30{fill:#b8bcbd;}.cls-31{fill:#909fa4;}.cls-32{fill:#aa8d6b;}.cls-33{fill:#c12525;}.cls-34{fill:#bcbcbc;}.cls-35{fill:#d96735;}.cls-36{fill:#d8d8d8;}.cls-37{fill:#bca07a;}.cls-38{fill:#bdecff;}.cls-39{fill:#ccc;}.cls-40{fill:#cc967a;}.cls-41{fill:#ddd;}.cls-42{fill:#dda687;}.cls-43{fill:#d6d6d6;}.cls-44{fill:#d3b08d;}.cls-45{fill:#dbdddd;}.cls-46{fill:#d54948;}.cls-47{fill:#afafaf;}.cls-48{fill:#e0b4a4;}.cls-49{fill:#dbb089;}.cls-50{fill:#12313f;}.cls-51{fill:#0ea2bd;}.cls-52{fill:#1d676a;}.cls-53{fill:#081a24;}.cls-54{fill:#444;}.cls-55{fill:#960c0c;}.cls-56{fill:#87a8ad;}.cls-57{fill:#2a352f;}.cls-58{fill:#5c6a6d;}.cls-59{fill:#354377;}.cls-60{fill:#3a4439;}.cls-61{fill:#3d404c;}.cls-62{fill:#568db2;}.cls-63{fill:#7a7a79;}.cls-64{fill:#80bf1d;}.cls-29{opacity:.29;}.cls-29,.cls-65,.cls-66,.cls-67,.cls-14,.cls-20{fill-rule:evenodd;}.cls-65{fill:#28363c;}.cls-66{fill:#374549;}.cls-67{fill:#84d6d9;}</style></defs><g id="Layer_6"><path class="cls-39" d="m219.75,186.6c-.96,74.35,48.76,144.29,117.76,170.73,121.13,48.61,260.01-38,259.88-170.73-.35-132.34-138.82-218.42-259.62-170.07-68.92,26.21-118.78,95.83-118.02,170.07h0Zm-.3,0c-1.05-74.6,48.29-145.19,117.4-172.37,122.43-50.13,263.21,38.12,262.94,172.38-.21,133.86-140.58,221.59-262.68,171.72-69.03-26.96-118.52-97.22-117.67-171.72h0Z"/><g><g><g><rect class="cls-31" x="283.36" y="101.83" width="108.21" height="128.87"/><rect class="cls-28" x="280.7" y="98.84" width="5.32" height="135.85"/><rect class="cls-28" x="388.94" y="98.64" width="5.32" height="135.85"/><rect class="cls-23" x="283.36" y="119.82" width="108.21" height="3.1"/><rect class="cls-23" x="283.36" y="148.22" width="108.21" height="3.1"/><rect class="cls-23" x="283.36" y="177.7" width="108.21" height="3.1"/><rect class="cls-23" x="283.36" y="206.09" width="108.21" height="3.1"/><rect class="cls-36" x="283.36" y="209.19" width="108.21" height="22.71"/><rect class="cls-63" x="280.7" y="96.52" width="113.54" height="5.81"/></g><rect class="cls-15" x="334.21" y="147.99" width="8.54" height="5.15"/><rect class="cls-15" x="354.91" y="147.99" width="8.54" height="5.15"/><rect class="cls-15" x="313.51" y="147.99" width="8.54" height="5.15"/><rect class="cls-15" x="375.61" y="147.99" width="8.54" height="5.15"/><polygon class="cls-14" points="319.61 152.2 318.24 151.69 317.81 153.08 317.25 151.77 315.93 152.49 316.52 151.14 315.09 150.77 316.47 150.18 315.78 148.93 317.15 149.44 317.59 148.05 318.14 149.36 319.46 148.64 318.88 149.99 320.3 150.36 318.92 150.95 319.61 152.2"/><polygon class="cls-14" points="340.61 152.2 339.24 151.69 338.8 153.08 338.24 151.77 336.93 152.49 337.51 151.14 336.09 150.77 337.47 150.18 336.77 148.93 338.14 149.44 338.58 148.05 339.14 149.36 340.45 148.64 339.87 149.99 341.29 150.36 339.91 150.95 340.61 152.2"/><polygon class="cls-14" points="361.3 152.2 359.93 151.69 359.49 153.08 358.93 151.77 357.62 152.49 358.2 151.14 356.78 150.77 358.16 150.18 357.46 148.93 358.83 149.44 359.27 148.05 359.83 149.36 361.14 148.64 360.56 149.99 361.98 150.36 360.6 150.95 361.3 152.2"/><polygon class="cls-14" points="382.29 152.2 380.92 151.69 380.48 153.08 379.92 151.77 378.61 152.49 379.19 151.14 377.77 150.77 379.15 150.18 378.45 148.93 379.82 149.44 380.26 148.05 380.82 149.36 382.13 148.64 381.55 149.99 382.97 150.36 381.59 150.95 382.29 152.2"/></g><g><g><path class="cls-28" d="m298.63,142.97c-.29-3.62-2.78-12.14-2.78-12.14h-3.04s-2.23,8.52-2.52,12.14c-.3,3.62-.46,4.49.4,4.93h2.56s0,.01,0,.01h1.21s1.21,0,1.21,0h0s2.56-.01,2.56-.01c.86-.45.69-1.31.4-4.93Z"/><path class="cls-63" d="m297.53,128.55s-.52.02-.91-.22c-.26-.16-.42-.58-.5-.7-.22-.32-.15-.6,0-.66.15-.07.4.1.4.1,0,0,.14.54.44.85.32.34.79.46.58.64Z"/><rect class="cls-63" x="292.8" y="128.82" width="3.04" height="2.01"/><path class="cls-16" d="m292.8,128.82l-.35-.65-.94-.26-.27-1.17s1.76-.56,3.56-.46c.3.02,1.21-.01,1.45.17.86.65-.17,1.04-.17,1.04l-.24,1.34h-3.03Z"/><path class="cls-63" d="m291.31,126.74l.21,1.17s-.76.24-.91-.37c-.15-.62.7-.8.7-.8Z"/></g><g><path class="cls-28" d="m309.2,142.97c-.3-3.62-2.78-12.14-2.78-12.14h-3.04s-2.23,8.52-2.52,12.14c-.3,3.62-.46,4.49.4,4.93h2.56s0,.01,0,.01h1.21s1.21,0,1.21,0h0s2.56-.01,2.56-.01c.86-.45.69-1.31.4-4.93Z"/><path class="cls-63" d="m308.1,128.55s-.52.02-.91-.22c-.26-.16-.42-.58-.51-.7-.22-.32-.15-.6,0-.66.16-.07.4.1.4.1,0,0,.14.54.44.85.32.34.79.46.58.64Z"/><rect class="cls-63" x="303.38" y="128.82" width="3.04" height="2.01"/><path class="cls-16" d="m303.38,128.82l-.35-.65-.94-.26-.27-1.17s1.76-.56,3.55-.46c.31.02,1.21-.01,1.45.17.86.65-.17,1.04-.17,1.04l-.24,1.34h-3.03Z"/><path class="cls-63" d="m301.88,126.74l.21,1.17s-.76.24-.91-.37c-.15-.62.7-.8.7-.8Z"/></g><g><path class="cls-17" d="m319.78,142.97c-.3-3.62-2.78-12.14-2.78-12.14h-3.04s-2.23,8.52-2.52,12.14c-.3,3.62-.46,4.49.4,4.93h2.56s0,.01,0,.01h1.21s1.21,0,1.21,0h0s2.56-.01,2.56-.01c.86-.45.69-1.31.4-4.93Z"/><path class="cls-12" d="m318.68,128.55s-.52.02-.91-.22c-.26-.16-.42-.58-.51-.7-.22-.32-.15-.6,0-.66.16-.07.4.1.4.1,0,0,.14.54.44.85.32.34.79.46.58.64Z"/><rect class="cls-13" x="312.67" y="139.69" width="5.68" height="4.52"/><rect class="cls-46" x="313.95" y="128.82" width="3.04" height="2.01"/><path class="cls-16" d="m313.95,128.82l-.35-.65-.94-.26-.27-1.17s1.76-.56,3.56-.46c.31.02,1.21-.01,1.45.17.86.65-.17,1.04-.17,1.04l-.24,1.34h-3.03Z"/><path class="cls-12" d="m312.46,126.74l.21,1.17s-.76.24-.91-.37c-.15-.62.7-.8.7-.8Z"/></g><g><path class="cls-17" d="m330.35,142.97c-.3-3.62-2.78-12.14-2.78-12.14h-3.04s-2.23,8.52-2.52,12.14c-.29,3.62-.46,4.49.4,4.93h2.56s0,.01,0,.01h1.21s1.21,0,1.21,0h0s2.56-.01,2.56-.01c.86-.45.69-1.31.4-4.93Z"/><path class="cls-12" d="m329.25,128.55s-.52.02-.91-.22c-.26-.16-.42-.58-.51-.7-.22-.32-.15-.6,0-.66.16-.07.4.1.4.1,0,0,.14.54.44.85.32.34.79.46.58.64Z"/><rect class="cls-13" x="323.24" y="139.69" width="5.68" height="4.52"/><rect class="cls-46" x="324.53" y="128.82" width="3.04" height="2.01"/><path class="cls-16" d="m324.53,128.82l-.35-.65-.94-.26-.27-1.17s1.76-.56,3.55-.46c.31.02,1.21-.01,1.45.17.86.65-.17,1.04-.17,1.04l-.24,1.34h-3.03Z"/><path class="cls-12" d="m323.03,126.74l.21,1.17s-.76.24-.91-.37c-.15-.62.7-.8.7-.8Z"/></g><g><path class="cls-17" d="m340.93,142.97c-.3-3.62-2.78-12.14-2.78-12.14h-3.04s-2.23,8.52-2.52,12.14c-.3,3.62-.46,4.49.4,4.93h2.56s0,.01,0,.01h1.21s1.21,0,1.21,0h0s2.56-.01,2.56-.01c.86-.45.69-1.31.4-4.93Z"/><path class="cls-12" d="m339.83,128.55s-.51.02-.91-.22c-.26-.16-.42-.58-.51-.7-.22-.32-.15-.6,0-.66.16-.07.4.1.4.1,0,0,.14.54.44.85.32.34.79.46.58.64Z"/><rect class="cls-13" x="333.82" y="139.69" width="5.68" height="4.52"/><rect class="cls-46" x="335.11" y="128.82" width="3.04" height="2.01"/><path class="cls-16" d="m335.11,128.82l-.35-.65-.94-.26-.27-1.17s1.76-.56,3.56-.46c.31.02,1.21-.01,1.44.17.86.65-.17,1.04-.17,1.04l-.24,1.34h-3.03Z"/><path class="cls-12" d="m333.61,126.74l.21,1.17s-.76.24-.91-.37c-.15-.62.7-.8.7-.8Z"/></g><g><path class="cls-17" d="m351.5,142.97c-.3-3.62-2.78-12.14-2.78-12.14h-3.04s-2.23,8.52-2.52,12.14c-.29,3.62-.46,4.49.4,4.93h2.56s0,.01,0,.01h1.21s1.21,0,1.21,0h0s2.56-.01,2.56-.01c.86-.45.69-1.31.4-4.93Z"/><path class="cls-12" d="m350.41,128.55s-.52.02-.91-.22c-.26-.16-.42-.58-.51-.7-.22-.32-.15-.6,0-.66.15-.07.4.1.4.1,0,0,.14.54.44.85.32.34.79.46.58.64Z"/><rect class="cls-13" x="344.4" y="139.69" width="5.68" height="4.52"/><rect class="cls-46" x="345.68" y="128.82" width="3.04" height="2.01"/><path class="cls-16" d="m345.68,128.82l-.35-.65-.94-.26-.27-1.17s1.76-.56,3.55-.46c.31.02,1.21-.01,1.45.17.86.65-.17,1.04-.17,1.04l-.24,1.34h-3.03Z"/><path class="cls-12" d="m344.19,126.74l.21,1.17s-.76.24-.91-.37c-.15-.62.7-.8.7-.8Z"/></g><g><path class="cls-17" d="m362.08,142.97c-.3-3.62-2.78-12.14-2.78-12.14h-3.04s-2.23,8.52-2.52,12.14c-.29,3.62-.46,4.49.4,4.93h2.56s0,.01,0,.01h1.21s1.21,0,1.21,0h0s2.56-.01,2.56-.01c.86-.45.69-1.31.4-4.93Z"/><path class="cls-12" d="m360.98,128.55s-.52.02-.91-.22c-.26-.16-.42-.58-.51-.7-.22-.32-.15-.6,0-.66.16-.07.4.1.4.1,0,0,.14.54.44.85.32.34.79.46.59.64Z"/><rect class="cls-13" x="354.97" y="139.69" width="5.68" height="4.52"/><rect class="cls-46" x="356.26" y="128.82" width="3.04" height="2.01"/><path class="cls-16" d="m356.26,128.82l-.35-.65-.94-.26-.27-1.17s1.76-.56,3.55-.46c.31.02,1.21-.01,1.45.17.86.65-.17,1.04-.17,1.04l-.24,1.34h-3.03Z"/><path class="cls-12" d="m354.76,126.74l.21,1.17s-.76.24-.91-.37c-.15-.62.7-.8.7-.8Z"/></g><g><path class="cls-17" d="m372.65,142.97c-.3-3.62-2.78-12.14-2.78-12.14h-3.04s-2.23,8.52-2.52,12.14c-.29,3.62-.46,4.49.4,4.93h2.56s0,.01,0,.01h1.21s1.21,0,1.21,0h0s2.56-.01,2.56-.01c.86-.45.69-1.31.4-4.93Z"/><path class="cls-12" d="m371.56,128.55s-.52.02-.91-.22c-.26-.16-.42-.58-.51-.7-.22-.32-.15-.6,0-.66.16-.07.4.1.4.1,0,0,.14.54.44.85.32.34.79.46.59.64Z"/><rect class="cls-13" x="365.55" y="139.69" width="5.68" height="4.52"/><rect class="cls-46" x="366.83" y="128.82" width="3.04" height="2.01"/><path class="cls-16" d="m366.83,128.82l-.35-.65-.94-.26-.27-1.17s1.76-.56,3.56-.46c.31.02,1.21-.01,1.45.17.86.65-.17,1.04-.17,1.04l-.24,1.34h-3.03Z"/><path class="cls-12" d="m365.34,126.74l.21,1.17s-.76.24-.91-.37c-.15-.62.7-.8.7-.8Z"/></g><g><path class="cls-17" d="m382.67,143.25c-.3-3.62-2.78-12.14-2.78-12.14h-3.04s-2.23,8.52-2.52,12.14c-.29,3.62-.46,4.49.4,4.93h2.56s0,.01,0,.01h1.21s1.21,0,1.21,0h0s2.56-.01,2.56-.01c.86-.45.69-1.31.4-4.93Z"/><path class="cls-12" d="m381.57,128.82s-.52.02-.91-.22c-.26-.16-.42-.58-.51-.7-.22-.32-.15-.6,0-.66.16-.07.4.1.4.1,0,0,.14.54.44.85.32.34.79.46.59.64Z"/><rect class="cls-13" x="375.56" y="139.96" width="5.68" height="4.52"/><rect class="cls-46" x="376.85" y="129.1" width="3.04" height="2.01"/><path class="cls-16" d="m376.85,129.1l-.35-.65-.94-.26-.27-1.17s1.76-.56,3.56-.46c.31.02,1.21-.01,1.45.17.86.65-.17,1.04-.17,1.04l-.24,1.34h-3.03Z"/><path class="cls-12" d="m375.35,127.02l.21,1.17s-.76.24-.91-.37c-.15-.62.7-.8.7-.8Z"/></g></g><g><g><path class="cls-28" d="m295.1,191.22l-.56-6.96h-3.33s-.64,6.96-.64,6.96c-.77,0-1.4.73-1.4,1.63v11.46c0,.9.62,1.63,1.38,1.63h4.53c.77,0,1.39-.73,1.39-1.63v-11.46c0-.9-.62-1.63-1.38-1.63Z"/><rect class="cls-28" x="290.86" y="183.88" width="3.95" height="2.43"/><rect class="cls-28" x="289.17" y="195.54" width="7.32" height="4.93"/></g><g><path class="cls-28" d="m307.75,191.25l-.56-6.96h-3.33s-.64,6.96-.64,6.96c-.77,0-1.4.73-1.4,1.63v11.46c0,.9.62,1.63,1.39,1.63h4.53c.77,0,1.39-.73,1.39-1.63v-11.46c0-.9-.62-1.63-1.38-1.63Z"/><rect class="cls-28" x="303.52" y="183.91" width="3.95" height="2.44"/><rect class="cls-28" x="301.82" y="195.56" width="7.32" height="4.93"/></g><g><path class="cls-28" d="m320.4,191.28l-.56-6.96h-3.33s-.64,6.96-.64,6.96c-.77,0-1.4.73-1.4,1.63v11.46c0,.9.62,1.63,1.38,1.63h4.53c.77,0,1.39-.73,1.39-1.63v-11.46c0-.9-.62-1.63-1.38-1.63Z"/><rect class="cls-28" x="316.17" y="183.94" width="3.95" height="2.43"/><rect class="cls-28" x="314.47" y="195.59" width="7.32" height="4.93"/></g><g><path class="cls-28" d="m333.06,191.31l-.56-6.96h-3.33s-.64,6.96-.64,6.96c-.77,0-1.4.73-1.4,1.63v11.46c0,.9.62,1.63,1.39,1.63h4.53c.77,0,1.39-.73,1.39-1.63v-11.46c0-.9-.62-1.63-1.38-1.63Z"/><rect class="cls-28" x="328.82" y="183.96" width="3.95" height="2.43"/><rect class="cls-28" x="327.13" y="195.62" width="7.32" height="4.93"/></g><g><path class="cls-28" d="m345.71,191.33l-.56-6.96h-3.33s-.64,6.96-.64,6.96c-.77,0-1.4.73-1.4,1.63v11.46c0,.9.62,1.63,1.39,1.63h4.53c.77,0,1.39-.73,1.39-1.63v-11.46c0-.9-.62-1.63-1.38-1.63Z"/><rect class="cls-28" x="341.47" y="183.99" width="3.94" height="2.43"/><rect class="cls-28" x="339.78" y="195.64" width="7.32" height="4.93"/></g><g><path class="cls-28" d="m358.36,191.36l-.56-6.96h-3.33s-.64,6.96-.64,6.96c-.77,0-1.4.73-1.4,1.63v11.46c0,.9.62,1.63,1.39,1.63h4.53c.77,0,1.39-.73,1.39-1.63v-11.46c0-.9-.62-1.63-1.38-1.63Z"/><rect class="cls-28" x="354.13" y="184.02" width="3.94" height="2.43"/><rect class="cls-28" x="352.43" y="195.67" width="7.32" height="4.93"/></g><g><path class="cls-28" d="m371.01,191.39l-.56-6.96h-3.33s-.64,6.96-.64,6.96c-.77,0-1.4.73-1.4,1.63v11.46c0,.9.62,1.63,1.39,1.63h4.53c.77,0,1.39-.73,1.39-1.63v-11.46c0-.9-.62-1.63-1.38-1.63Z"/><rect class="cls-28" x="366.78" y="184.05" width="3.94" height="2.43"/><rect class="cls-28" x="365.08" y="195.7" width="7.32" height="4.93"/></g><g><path class="cls-28" d="m383.66,191.41l-.56-6.96h-3.33s-.64,6.96-.64,6.96c-.77,0-1.4.73-1.4,1.63v11.46c0,.9.62,1.63,1.39,1.63h4.53c.77,0,1.39-.73,1.39-1.63v-11.46c0-.9-.62-1.63-1.38-1.63Z"/><rect class="cls-28" x="379.43" y="184.07" width="3.94" height="2.44"/><rect class="cls-28" x="377.73" y="195.72" width="7.32" height="4.93"/></g></g><g><g><path class="cls-28" d="m296.51,166.03s1.48-2.89.45-4c-1.04-1.11-1.26-1.56-1.26-1.56h-1.53s-1.53,0-1.53,0c0,0-.22.45-1.26,1.56-1.04,1.11.44,4,.44,4l-.82,11.25h6.32l-.82-11.25Z"/><polygon class="cls-28" points="297.01 173 291.32 173 291.56 169.58 296.76 169.58 297.01 173"/><rect class="cls-28" x="293.32" y="159.16" width="1.72" height="1.31"/></g><g><path class="cls-28" d="m306.13,166.03s1.48-2.89.45-4c-1.04-1.11-1.26-1.56-1.26-1.56h-1.53s-1.53,0-1.53,0c0,0-.22.45-1.26,1.56-1.04,1.11.44,4,.44,4l-.81,11.25h6.32l-.81-11.25Z"/><polygon class="cls-28" points="306.64 173 300.94 173 301.19 169.58 306.38 169.58 306.64 173"/><rect class="cls-28" x="302.94" y="159.16" width="1.72" height="1.31"/></g><g><path class="cls-28" d="m315.75,166.03s1.48-2.89.45-4c-1.04-1.11-1.26-1.56-1.26-1.56h-1.53s-1.53,0-1.53,0c0,0-.22.45-1.26,1.56-1.04,1.11.45,4,.45,4l-.81,11.25h6.32l-.82-11.25Z"/><polygon class="cls-28" points="316.26 173 310.56 173 310.81 169.58 316 169.58 316.26 173"/><rect class="cls-28" x="312.56" y="159.16" width="1.72" height="1.31"/></g><g><path class="cls-28" d="m325.38,166.03s1.48-2.89.44-4c-1.04-1.11-1.26-1.56-1.26-1.56h-1.53s-1.53,0-1.53,0c0,0-.22.45-1.26,1.56-1.04,1.11.45,4,.45,4l-.82,11.25h6.32l-.81-11.25Z"/><polygon class="cls-28" points="325.88 173 320.18 173 320.43 169.58 325.63 169.58 325.88 173"/><rect class="cls-28" x="322.18" y="159.16" width="1.72" height="1.31"/></g><g><path class="cls-28" d="m335,166.03s1.48-2.89.44-4c-1.04-1.11-1.26-1.56-1.26-1.56h-1.53s-1.53,0-1.53,0c0,0-.22.45-1.26,1.56-1.04,1.11.45,4,.45,4l-.82,11.25h6.32l-.82-11.25Z"/><polygon class="cls-28" points="335.5 173 329.81 173 330.05 169.58 335.25 169.58 335.5 173"/><rect class="cls-28" x="331.81" y="159.16" width="1.72" height="1.31"/></g><g><path class="cls-28" d="m344.62,166.03s1.48-2.89.45-4c-1.04-1.11-1.26-1.56-1.26-1.56h-1.53s-1.53,0-1.53,0c0,0-.22.45-1.26,1.56-1.04,1.11.45,4,.45,4l-.82,11.25h6.32l-.82-11.25Z"/><polygon class="cls-28" points="345.13 173 339.43 173 339.68 169.58 344.87 169.58 345.13 173"/><rect class="cls-28" x="341.43" y="159.16" width="1.72" height="1.31"/></g><g><path class="cls-28" d="m354.24,166.03s1.48-2.89.44-4c-1.04-1.11-1.26-1.56-1.26-1.56h-1.53s-1.53,0-1.53,0c0,0-.22.45-1.26,1.56-1.04,1.11.44,4,.44,4l-.81,11.25h6.32l-.82-11.25Z"/><polygon class="cls-28" points="354.75 173 349.05 173 349.3 169.58 354.49 169.58 354.75 173"/><rect class="cls-28" x="351.05" y="159.16" width="1.72" height="1.31"/></g><g><path class="cls-28" d="m363.87,166.03s1.48-2.89.45-4c-1.04-1.11-1.26-1.56-1.26-1.56h-1.53s-1.53,0-1.53,0c0,0-.22.45-1.26,1.56-1.04,1.11.45,4,.45,4l-.82,11.25h6.32l-.82-11.25Z"/><polygon class="cls-28" points="364.37 173 358.67 173 358.92 169.58 364.12 169.58 364.37 173"/><rect class="cls-28" x="360.67" y="159.16" width="1.72" height="1.31"/></g><g><path class="cls-28" d="m373.49,166.03s1.48-2.89.45-4c-1.04-1.11-1.26-1.56-1.26-1.56h-1.53s-1.53,0-1.53,0c0,0-.22.45-1.26,1.56-1.04,1.11.44,4,.44,4l-.81,11.25h6.32l-.81-11.25Z"/><polygon class="cls-28" points="373.99 173 368.3 173 368.54 169.58 373.74 169.58 373.99 173"/><rect class="cls-28" x="370.29" y="159.16" width="1.72" height="1.31"/></g><g><path class="cls-28" d="m383.11,166.03s1.48-2.89.45-4c-1.04-1.11-1.26-1.56-1.26-1.56h-1.53s-1.53,0-1.53,0c0,0-.22.45-1.26,1.56-1.04,1.11.45,4,.45,4l-.81,11.25h6.32l-.81-11.25Z"/><polygon class="cls-28" points="383.61 173 377.92 173 378.16 169.58 383.36 169.58 383.61 173"/><rect class="cls-28" x="379.92" y="159.16" width="1.72" height="1.31"/></g></g><g><g><path class="cls-28" d="m296.72,114.21c-.68-.23-1.36-5.58-1.36-5.58.64-.19,1.21,1.13,1.66,2.79.45,1.66.38,3.02-.3,2.79Zm.91-4.62c-1.23-1.97-2.58-3.32-2.58-3.32h-2.46s-2.22,1.35-2.71,4.43c-.49,3.07,0,7.99,0,7.99,0,0,.24.63.39.78.17.17.85.45.85.45h6.97s1.26-.23,1.26-1.09-.49-7.27-1.72-9.24Z"/><rect class="cls-35" x="292.44" y="105.25" width="2.61" height="1.02"/><path class="cls-6" d="m290.9,116.68s-.49-6.15,1.55-6.22c2.04-.08,3.06,4.64,3.21,5.88.15,1.24-.23,1.85-1.51,1.88-1.28.04-3.2.41-3.24-1.55Z"/></g><g><path class="cls-28" d="m308.94,114.2c-.68-.23-1.36-5.58-1.36-5.58.64-.19,1.21,1.13,1.66,2.79s.38,3.02-.3,2.79Zm.91-4.62c-1.23-1.97-2.58-3.32-2.58-3.32h-2.46s-2.21,1.35-2.71,4.43c-.49,3.08,0,7.99,0,7.99,0,0,.24.63.39.78.17.17.85.45.85.45h6.97s1.26-.23,1.26-1.09-.49-7.27-1.72-9.24Z"/><rect class="cls-35" x="304.66" y="105.24" width="2.61" height="1.02"/><path class="cls-6" d="m303.11,116.66s-.49-6.15,1.55-6.22c2.04-.08,3.06,4.64,3.21,5.88.15,1.24-.23,1.85-1.51,1.88-1.28.04-3.2.41-3.25-1.55Z"/></g><g><path class="cls-28" d="m321.16,114.19c-.68-.23-1.36-5.58-1.36-5.58.64-.19,1.21,1.13,1.66,2.79.45,1.66.38,3.02-.3,2.79Zm.91-4.62c-1.23-1.97-2.58-3.32-2.58-3.32h-2.46s-2.21,1.35-2.71,4.43c-.49,3.08,0,7.99,0,7.99,0,0,.24.63.39.78.17.17.85.45.85.45h6.97s1.26-.23,1.26-1.09-.49-7.27-1.72-9.24Z"/><rect class="cls-35" x="316.88" y="105.22" width="2.61" height="1.02"/><path class="cls-6" d="m315.33,116.65s-.49-6.15,1.55-6.22c2.04-.08,3.06,4.64,3.21,5.88.15,1.24-.23,1.85-1.51,1.89-1.28.04-3.2.41-3.24-1.55Z"/></g><g><path class="cls-28" d="m333.37,114.17c-.68-.23-1.36-5.58-1.36-5.58.64-.19,1.21,1.13,1.66,2.79.45,1.66.38,3.02-.3,2.79Zm.91-4.62c-1.23-1.97-2.58-3.32-2.58-3.32h-2.46s-2.21,1.35-2.71,4.43c-.49,3.08,0,7.99,0,7.99,0,0,.24.63.39.78.17.17.85.45.85.45h6.97s1.26-.23,1.26-1.09-.49-7.27-1.72-9.24Z"/><rect class="cls-35" x="329.09" y="105.21" width="2.61" height="1.02"/><path class="cls-6" d="m327.55,116.63s-.49-6.15,1.55-6.22c2.04-.08,3.06,4.64,3.21,5.88.15,1.24-.23,1.85-1.51,1.88-1.28.04-3.2.41-3.24-1.55Z"/></g><g><path class="cls-28" d="m345.59,114.16c-.68-.23-1.36-5.58-1.36-5.58.64-.19,1.21,1.13,1.66,2.79.45,1.66.38,3.02-.3,2.79Zm.91-4.62c-1.23-1.97-2.58-3.32-2.58-3.32h-2.46s-2.21,1.35-2.71,4.43c-.49,3.07,0,7.99,0,7.99,0,0,.24.63.39.78.17.17.85.45.85.45h6.97s1.26-.23,1.26-1.09-.49-7.27-1.72-9.24Z"/><rect class="cls-35" x="341.31" y="105.19" width="2.61" height="1.02"/><path class="cls-6" d="m339.77,116.62s-.49-6.15,1.55-6.22c2.04-.08,3.05,4.64,3.21,5.88.15,1.24-.23,1.85-1.51,1.88-1.28.04-3.2.41-3.24-1.55Z"/></g><g><path class="cls-28" d="m357.81,114.14c-.68-.23-1.36-5.58-1.36-5.58.64-.19,1.21,1.13,1.66,2.79.45,1.66.38,3.02-.3,2.79Zm.91-4.62c-1.23-1.97-2.58-3.32-2.58-3.32h-2.46s-2.21,1.35-2.71,4.43c-.49,3.07,0,7.99,0,7.99,0,0,.24.63.39.78.17.17.85.45.85.45h6.97s1.26-.23,1.26-1.09-.49-7.27-1.72-9.24Z"/><rect class="cls-35" x="353.53" y="105.18" width="2.61" height="1.02"/><path class="cls-6" d="m351.98,116.61s-.49-6.15,1.55-6.22c2.04-.08,3.06,4.64,3.21,5.88.15,1.24-.23,1.85-1.51,1.88-1.28.04-3.2.41-3.24-1.55Z"/></g><g><path class="cls-28" d="m370.03,114.13c-.68-.23-1.36-5.58-1.36-5.58.64-.19,1.21,1.13,1.66,2.79.45,1.66.38,3.02-.3,2.79Zm.91-4.62c-1.23-1.97-2.58-3.32-2.58-3.32h-2.46s-2.21,1.35-2.71,4.43c-.49,3.07,0,7.99,0,7.99,0,0,.24.63.39.78.17.17.85.45.85.45h6.97s1.26-.23,1.26-1.09-.49-7.27-1.72-9.24Z"/><rect class="cls-35" x="365.75" y="105.17" width="2.61" height="1.02"/><path class="cls-6" d="m364.2,116.59s-.49-6.15,1.55-6.22c2.04-.08,3.05,4.64,3.21,5.88.15,1.24-.23,1.85-1.51,1.88-1.28.04-3.2.41-3.24-1.54Z"/></g><g><path class="cls-28" d="m382.24,114.12c-.68-.23-1.36-5.58-1.36-5.58.64-.19,1.21,1.13,1.66,2.79.45,1.66.38,3.02-.3,2.79Zm.91-4.62c-1.23-1.97-2.58-3.32-2.58-3.32h-2.46s-2.21,1.35-2.71,4.43c-.49,3.08,0,7.99,0,7.99,0,0,.24.63.39.78.17.17.85.45.85.45h6.97s1.26-.23,1.26-1.09-.49-7.27-1.72-9.24Z"/><rect class="cls-35" x="377.96" y="105.15" width="2.61" height="1.02"/><path class="cls-6" d="m376.42,116.58s-.49-6.15,1.55-6.22c2.04-.08,3.06,4.64,3.21,5.88.15,1.24-.23,1.85-1.51,1.88-1.28.04-3.2.41-3.24-1.55Z"/></g></g><rect class="cls-23" x="280.68" y="230.89" width="113.56" height="3.8"/></g><g><rect class="cls-4" x="395.48" y="96.09" width="145.93" height="132.36"/><g><rect class="cls-39" x="399.01" y="102.78" width="139.3" height="22.87"/><rect class="cls-39" x="398.8" y="128.91" width="139.3" height="22.87"/><rect class="cls-39" x="398.9" y="154.65" width="139.3" height="22.87"/><rect class="cls-39" x="399.46" y="180.49" width="139.3" height="22.87"/></g><g><path class="cls-4" d="m408.6,161.82v-1.39h.36v-1.57h-4.24v1.57h.34v1.39s-2.26,2.75-2.33,4.29c-.03.65-.04,1.62-.05,2.72h0v5.06h.02c.02,1.66.03,2.89.03,2.89,0,.5.42.9.94.9h6.31c.52,0,.94-.4.94-.9,0,0,.09-7.93,0-10.57-.05-1.54-2.33-4.39-2.33-4.39Z"/><path class="cls-4" d="m419.32,161.83v-1.39h.36v-1.57h-4.24v1.57h.35v1.39s-2.26,2.75-2.33,4.29c-.03.65-.04,1.62-.05,2.72h0v5.06h.02c.01,1.66.03,2.89.03,2.89,0,.5.42.9.94.9h6.32c.52,0,.94-.4.94-.9,0,0,.09-7.93,0-10.57-.05-1.54-2.33-4.39-2.33-4.39Z"/><path class="cls-4" d="m430.05,161.85v-1.39h.36v-1.57h-4.24v1.57h.34v1.39s-2.26,2.75-2.33,4.29c-.03.65-.04,1.62-.05,2.72h0v5.06h.02c.02,1.66.03,2.89.03,2.89,0,.5.42.9.94.9h6.31c.52,0,.94-.4.94-.9,0,0,.09-7.93,0-10.57-.05-1.54-2.33-4.4-2.33-4.4Z"/><path class="cls-4" d="m440.77,161.86v-1.39h.36v-1.57h-4.24v1.57h.34v1.39s-2.26,2.75-2.33,4.29c-.03.65-.04,1.62-.05,2.72h0v5.06h.02c.02,1.66.03,2.89.03,2.89,0,.5.42.9.94.9h6.31c.52,0,.94-.4.94-.9,0,0,.01-1.24.02-2.89h0v-.06c.02-2.54.03-6.03-.02-7.61-.05-1.54-2.33-4.39-2.33-4.39Z"/><path class="cls-4" d="m462.22,161.89v-1.39h.36v-1.57h-4.24v1.57h.34v1.39s-2.26,2.75-2.33,4.29c-.03.65-.04,1.62-.05,2.72h0v.72c0,.38,0,.77,0,1.16v3.18h.02c.02,1.66.03,2.89.03,2.89,0,.5.42.9.94.9h6.32c.52,0,.94-.4.94-.9,0,0,.09-7.93,0-10.57-.05-1.54-2.33-4.39-2.33-4.39Z"/><path class="cls-4" d="m472.95,161.91v-1.39h.36v-1.57h-4.24v1.57h.34v1.39s-2.26,2.75-2.33,4.29c-.03.65-.04,1.62-.05,2.72h0v5.06h.02c.02,1.66.03,2.89.03,2.89,0,.5.42.9.94.9h6.31c.52,0,.94-.4.94-.9,0,0,.01-1.24.02-2.89h0c.02-2.55.03-6.08-.02-7.68-.05-1.54-2.33-4.4-2.33-4.4Z"/><path class="cls-4" d="m483.67,161.92v-1.39h.36v-1.57h-4.24v1.57h.34v1.39s-2.26,2.75-2.33,4.29c-.03.65-.04,1.62-.05,2.72h0v5.06h.02c.01,1.66.03,2.89.03,2.89,0,.5.42.9.94.9h6.31c.52,0,.94-.4.94-.9,0,0,.01-1.24.02-2.89h0v-.11c.02-2.53.03-5.99-.03-7.56-.05-1.54-2.33-4.39-2.33-4.39Z"/><path class="cls-4" d="m494.4,161.93v-1.39h.36v-1.57h-4.24v1.57h.35v1.39s-2.26,2.75-2.33,4.29c-.03.65-.04,1.62-.05,2.72h0v5.06h.02c.01,1.66.03,2.89.03,2.89,0,.5.42.9.94.9h6.32c.52,0,.94-.4.94-.9,0,0,.09-7.93,0-10.57-.05-1.54-2.33-4.39-2.33-4.39Z"/><path class="cls-4" d="m408.17,187.6v-1.39h.36v-1.57h-4.24v1.57h.34v1.39s-2.26,2.75-2.33,4.29c-.03.65-.04,1.62-.05,2.72h0v5.06h.02c.02,1.66.03,2.89.03,2.89,0,.5.42.9.94.9h6.31c.52,0,.94-.4.94-.9,0,0,.09-7.93,0-10.57-.05-1.54-2.33-4.39-2.33-4.39Z"/><path class="cls-4" d="m418.89,187.62v-1.39h.36v-1.57h-4.24v1.57h.35v1.39s-2.26,2.75-2.33,4.29c-.03.65-.04,1.62-.05,2.72h0v5.06h.02c.01,1.66.03,2.89.03,2.89,0,.5.42.9.94.9h6.32c.52,0,.94-.4.94-.9,0,0,.09-7.93,0-10.57-.05-1.54-2.33-4.39-2.33-4.39Z"/><path class="cls-4" d="m429.62,187.63v-1.39h.36v-1.57h-4.24v1.57h.34v1.39s-2.26,2.75-2.33,4.29c-.03.65-.04,1.62-.05,2.72h0v5.06h.02c.01,1.66.03,2.89.03,2.89,0,.5.42.9.94.9h6.31c.52,0,.94-.4.94-.9,0,0,.09-7.93,0-10.57-.05-1.54-2.33-4.39-2.33-4.39Z"/><path class="cls-4" d="m440.34,187.65v-1.39h.36v-1.57h-4.24v1.57h.34v1.39s-2.26,2.75-2.33,4.29c-.03.65-.04,1.62-.05,2.72h0v5.06h.02c.02,1.66.03,2.89.03,2.89,0,.5.42.9.94.9h6.31c.52,0,.94-.4.94-.9,0,0,.01-1.24.02-2.89h0v-.06c.02-2.54.03-6.03-.02-7.61-.05-1.54-2.33-4.4-2.33-4.4Z"/><path class="cls-4" d="m451.07,187.66v-1.39h.36v-1.57h-4.24v1.57h.34v1.39s-2.26,2.75-2.33,4.29c-.03.65-.04,1.62-.05,2.72h0v5.06h.02c.01,1.66.03,2.89.03,2.89,0,.5.42.9.94.9h6.31c.52,0,.94-.4.94-.9,0,0,.01-1.24.02-2.89h0v-.06c.02-2.54.03-6.03-.03-7.61-.05-1.54-2.33-4.39-2.33-4.39Z"/><path class="cls-4" d="m461.79,187.67v-1.39h.36v-1.57h-4.24v1.57h.35v1.39s-2.26,2.75-2.33,4.29c-.03.65-.04,1.62-.05,2.72h0v.72c0,.38,0,.77,0,1.16v3.18h.02c.02,1.66.03,2.89.03,2.89,0,.5.42.9.94.9h6.31c.52,0,.94-.4.94-.9,0,0,.09-7.93,0-10.57-.05-1.54-2.33-4.39-2.33-4.39Z"/><path class="cls-4" d="m472.52,187.69v-1.39h.36v-1.57h-4.24v1.57h.34v1.39s-2.26,2.75-2.33,4.29c-.03.65-.04,1.62-.05,2.72h0v5.06h.02c.01,1.66.03,2.89.03,2.89,0,.5.42.9.94.9h6.32c.52,0,.94-.4.94-.9,0,0,.01-1.24.02-2.89h0c.02-2.55.03-6.08-.02-7.68-.05-1.54-2.33-4.39-2.33-4.39Z"/><path class="cls-4" d="m483.24,187.7v-1.39h.36v-1.57h-4.24v1.57h.34v1.39s-2.26,2.75-2.33,4.29c-.03.65-.04,1.62-.05,2.72h0v5.06h.02c.02,1.66.03,2.89.03,2.89,0,.5.42.9.94.9h6.31c.52,0,.94-.4.94-.9,0,0,.01-1.24.02-2.89h0v-.11c.02-2.53.03-5.99-.03-7.56-.05-1.54-2.33-4.39-2.33-4.39Z"/><path class="cls-4" d="m493.97,187.72v-1.39h.36v-1.57h-4.24v1.57h.34v1.39s-2.26,2.75-2.33,4.29c-.03.65-.04,1.62-.05,2.72h0v5.06h.02c.01,1.66.03,2.89.03,2.89,0,.5.42.9.94.9h6.32c.52,0,.94-.4.94-.9,0,0,.09-7.93,0-10.57-.05-1.54-2.33-4.39-2.33-4.39Z"/><polygon class="cls-4" points="409.56 132.28 406 132.28 406 133.97 404.27 133.97 404.27 151.78 410.97 151.78 410.97 133.97 409.56 133.97 409.56 132.28"/><polygon class="cls-4" points="421.73 132.28 418.17 132.28 418.17 133.97 416.44 133.97 416.44 151.78 423.14 151.78 423.14 133.97 421.73 133.97 421.73 132.28"/><polygon class="cls-4" points="430.34 132.28 430.34 133.97 428.61 133.97 428.61 151.78 435.31 151.78 435.31 133.97 433.9 133.97 433.9 132.28 430.34 132.28"/><polygon class="cls-4" points="440.78 151.78 447.48 151.78 447.48 133.97 446.07 133.97 446.07 132.28 442.51 132.28 442.51 133.97 440.78 133.97 440.78 151.78"/><polygon class="cls-4" points="452.95 151.78 459.65 151.78 459.65 133.97 458.24 133.97 458.24 132.28 454.68 132.28 454.68 133.97 452.95 133.97 452.95 151.78"/><polygon class="cls-4" points="471.82 133.97 470.41 133.97 470.41 132.28 466.85 132.28 466.85 133.97 465.12 133.97 465.12 151.78 471.82 151.78 471.82 133.97"/><polygon class="cls-4" points="483.99 133.97 482.58 133.97 482.58 132.28 479.02 132.28 479.02 133.97 477.29 133.97 477.29 151.78 483.99 151.78 483.99 133.97"/><polygon class="cls-4" points="496.16 133.97 494.75 133.97 494.75 132.28 491.19 132.28 491.19 133.97 489.46 133.97 489.46 151.78 496.16 151.78 496.16 133.97"/><polygon class="cls-4" points="503.36 132.28 503.36 133.97 501.63 133.97 501.63 151.78 508.33 151.78 508.33 133.97 506.92 133.97 506.92 132.28 503.36 132.28"/><polygon class="cls-4" points="520.5 133.97 519.09 133.97 519.09 132.28 515.53 132.28 515.53 133.97 513.8 133.97 513.8 151.78 520.5 151.78 520.5 133.97"/><rect class="cls-4" x="503.77" y="164.02" width="5.05" height="13.51"/><rect class="cls-4" x="510.88" y="164.01" width="5.05" height="13.51"/><rect class="cls-4" x="517.7" y="164.01" width="5.05" height="13.51"/><rect class="cls-4" x="524.81" y="164" width="5.05" height="13.51"/><path class="cls-4" d="m531.96,198.58v-4.99h-4.87v-4.99h-7.66v4.99h-2.12v-4.99h-7.66v4.99h-4.87v4.99h-4.19v4.99h7.66v-4.99h2.12v4.99h7.66v-4.99h2.08v4.99h7.66v-4.99h2.12v4.99h7.66v-4.99h-5.59Zm-17.4,0h-2.12v-4.99h2.12v4.99Zm9.74,0h-2.08v-4.99h2.08v4.99Z"/><path class="cls-4" d="m414.82,125.67h7.66v-4.99h2.08v4.99h7.66v-4.99h2.12v4.99h7.66v-4.99h-5.59v-4.99h-4.87v-4.99h-7.66v4.99h-2.12v-4.99h-7.66v4.99h-4.87v4.99h-4.19v4.99h7.66v-4.99h2.12v4.99Zm11.85-9.97h2.08v4.99h-2.08v-4.99Zm-9.78,0h2.12v4.99h-2.12v-4.99Z"/><path class="cls-4" d="m500.78,120.69h2.12v4.99h7.66v-4.99h2.08v4.99h7.66v-4.99h2.12v4.99h7.66v-4.99h-5.59v-4.99h-4.87v-4.99h-7.66v4.99h-2.12v-4.99h-7.66v4.99h-4.87v4.99h-4.19v4.99h7.66v-4.99Zm13.97-4.99h2.09v4.99h-2.09v-4.99Zm-9.78,0h2.12v4.99h-2.12v-4.99Z"/><rect class="cls-4" x="447.01" y="112.68" width="5.94" height="12.97"/><rect class="cls-4" x="455.56" y="112.68" width="5.94" height="12.97"/><rect class="cls-4" x="463.93" y="112.68" width="5.94" height="12.97"/><rect class="cls-4" x="472.48" y="112.68" width="5.94" height="12.97"/><rect class="cls-4" x="480.64" y="112.83" width="5.94" height="12.97"/><path class="cls-4" d="m451.49,161.18v-1.39h.36v-1.57h-4.24v1.57h.34v1.39s-2.26,2.75-2.33,4.29c-.03.65-.04,1.62-.05,2.72h0v5.06h.02c.02,1.66.03,2.89.03,2.89,0,.5.42.9.94.9h6.31c.52,0,.94-.4.94-.9,0,0,.01-1.24.02-2.89h0v-.06c.02-2.54.03-6.03-.02-7.61-.05-1.54-2.33-4.39-2.33-4.39Z"/></g></g><g><path class="cls-66" d="m460.85,196.73v-52.16c0-.39.32-.71.7-.71h86.87c.38,0,.7.31.7.71v52.16c0,.38-.31.7-.7.7h-86.87c-.38,0-.7-.32-.7-.7h0Z"/><polygon class="cls-20" points="464.9 193.38 464.9 147.92 545.06 147.92 545.06 193.38 464.9 193.38 464.9 193.38"/><polygon class="cls-29" points="464.9 191 464.9 147.92 542.79 147.92 542.79 191 464.9 191 464.9 191"/><polygon class="cls-66" points="495.31 196.58 521.25 196.58 521.25 269.6 495.31 269.6 495.31 196.58 495.31 196.58"/><path class="cls-65" d="m495.31,197.19h25.93v4.13c-3.81-.85-8.24-1.33-12.97-1.33s-9.16.47-12.97,1.33v-4.13h0Z"/><polygon class="cls-65" points="480.38 273.03 535.79 273.03 535.79 269.6 480.38 269.6 480.38 273.03 480.38 273.03"/><path class="cls-66" d="m530.37,268c-.97,0-1.79.68-1.98,1.6h3.97c-.2-.92-1.01-1.6-1.99-1.6h0Z"/><path class="cls-66" d="m485.79,268c-.97,0-1.79.68-1.97,1.6h3.96c-.2-.92-1.01-1.6-1.99-1.6h0Z"/><g><path class="cls-17" d="m533.89,175.67c-1.45-5.26-7.48-17.12-7.48-17.12l-1.57.3-.98.18-1.94.37s-.91,13.18-.33,18.6c.58,5.42.57,6.74,1.96,7.16l3.78-.7h0s1.79-.33,1.79-.33l1.79-.33h0s3.77-.74,3.77-.74c1.14-.9.65-2.13-.79-7.38Z"/><path class="cls-12" d="m528.25,154.72s-.75.18-1.4-.08c-.43-.17-.78-.73-.94-.89-.41-.42-.39-.84-.19-.97.21-.14.62.04.62.04,0,0,.36.75.88,1.12.57.41,1.29.45,1.04.77Z"/><rect class="cls-13" x="523.06" y="171.96" width="8.52" height="6.78" transform="translate(-23.42 101.15) rotate(-10.72)"/><rect class="cls-46" x="521.61" y="155.99" width="4.56" height="3.01" transform="translate(-20.15 100.2) rotate(-10.72)"/><path class="cls-16" d="m521.36,156.44l-.7-.86-1.45-.12-.73-1.65s2.43-1.32,5.11-1.67c.45-.06,1.78-.35,2.18-.16,1.45.71.03,1.57.03,1.57l.02,2.05-4.47.85Z"/><path class="cls-12" d="m518.58,153.79l.64,1.67s-1.05.57-1.44-.3c-.39-.87.81-1.37.81-1.37Z"/></g><polygon class="cls-14" points="509.1 183.83 497.7 179.56 494.04 191.17 489.4 180.2 478.44 186.22 483.29 174.98 471.45 171.88 482.94 166.95 477.15 156.54 488.56 160.81 492.21 149.19 496.85 160.16 507.81 154.14 502.97 165.38 514.81 168.49 503.32 173.42 509.1 183.83"/><g><path class="cls-51" d="m473.96,173.88v-2.35h4.62v2.35h-4.62Z"/><path class="cls-51" d="m487.37,174.96v2.18h-8.24c.09-.83.36-1.61.8-2.35.45-.74,1.33-1.72,2.64-2.94,1.06-.99,1.71-1.66,1.95-2.01.32-.49.49-.96.49-1.44,0-.52-.14-.93-.42-1.21-.28-.28-.67-.42-1.17-.42s-.88.15-1.17.44c-.29.3-.46.79-.5,1.47l-2.34-.23c.14-1.29.58-2.22,1.31-2.79s1.66-.85,2.76-.85c1.21,0,2.16.33,2.85.98s1.04,1.46,1.04,2.44c0,.55-.1,1.08-.3,1.58-.2.5-.51,1.02-.94,1.57-.28.36-.8.88-1.54,1.56-.74.68-1.21,1.13-1.41,1.36s-.36.44-.48.65h4.67Z"/><path class="cls-51" d="m492.93,164.83c1.19,0,2.12.42,2.79,1.27.8,1,1.2,2.67,1.2,5s-.4,3.99-1.21,5c-.66.84-1.59,1.25-2.78,1.25s-2.16-.46-2.89-1.38c-.73-.92-1.1-2.55-1.1-4.91s.4-3.97,1.21-4.99c.66-.84,1.59-1.25,2.78-1.25Zm0,1.95c-.29,0-.54.09-.76.27-.22.18-.4.51-.52.97-.16.61-.24,1.63-.24,3.07s.07,2.43.22,2.97c.14.54.33.9.55,1.08.22.18.47.27.76.27s.54-.09.76-.27c.22-.18.4-.51.52-.98.16-.6.24-1.62.24-3.06s-.07-2.43-.22-2.97c-.14-.54-.33-.9-.55-1.08s-.47-.27-.76-.27Z"/><path class="cls-51" d="m498.51,167.91c0-1.1.24-1.91.72-2.44.48-.53,1.14-.79,1.96-.79s1.52.26,2,.79c.48.53.72,1.34.72,2.45s-.24,1.91-.72,2.44c-.48.53-1.14.79-1.96.79s-1.52-.26-2-.79c-.48-.53-.72-1.34-.72-2.45Zm1.83-.02c0,.8.09,1.33.28,1.61.14.2.33.3.58.3s.45-.1.59-.3c.18-.27.27-.81.27-1.61s-.09-1.33-.27-1.6c-.14-.21-.33-.31-.59-.31s-.44.1-.58.3c-.18.27-.28.81-.28,1.61Zm2.64,9.72h-1.74l6.53-12.94h1.69l-6.49,12.94Zm3.8-3.22c0-1.1.24-1.91.72-2.44.48-.53,1.14-.79,1.98-.79s1.51.27,1.99.79c.48.53.72,1.34.72,2.44s-.24,1.92-.72,2.45-1.14.79-1.96.79-1.52-.27-2-.79-.72-1.35-.72-2.45Zm1.83,0c0,.8.09,1.33.28,1.6.14.21.33.31.58.31s.44-.1.58-.3c.19-.27.28-.81.28-1.61s-.09-1.33-.27-1.61c-.14-.2-.34-.3-.59-.3s-.44.1-.58.3c-.18.27-.28.81-.28,1.61Z"/></g></g><g><g><path class="cls-33" d="m440.8,200v-2.68h-34.69v2.68h1.55l1.21,14v2.2h28.81v-2.59h-.05l1.45-13.61h1.72Zm-21.48,0h3.05v13.61h-2.49l-.56-13.61Zm-1.36,13.61h-2.55l-1.02-13.61h3.02l.56,13.61Zm6.34-13.61h3.04l-.55,13.61h-2.49v-13.61Zm4.97,0h2.9l-.82,13.61h-2.64l.55-13.61Zm-16.81,0l1.02,13.61h-2.72l-1.18-13.61h2.87Zm23.24,13.61h-2.42l.81-13.61h3.06l-1.45,13.61Z"/><path class="cls-21" d="m423.45,216.21v-18.88h-17.34v2.68h1.55l1.21,14v2.2h14.58Zm-1.08-16.2v13.61h-2.49l-.56-13.61h3.05Zm-4.98,0l.56,13.61h-2.55l-1.02-13.61h3.02Zm-4.94,0l1.02,13.61h-2.72l-1.18-13.61h2.87Z"/><rect class="cls-55" x="406.11" y="199.4" width="34.69" height=".83"/><rect class="cls-55" x="408.87" y="215.33" width="28.81" height=".87"/><path class="cls-1" d="m417.24,197.66v-4.5c0-.87.73-1.57,1.62-1.57h10.7c.89,0,1.62.71,1.62,1.57v4.5h1.49v-4.5c0-1.57-1.4-2.85-3.11-2.85h-10.7c-1.71,0-3.11,1.28-3.11,2.85v4.5h1.49Z"/></g><path class="cls-49" d="m383.81,146.99s.41-2.14,0-3.58c-.41-1.43-.13-2.23-.92-2.23s0,2.78,0,2.78c0,0-1.61.22-2.38-.54-.78-.76-3.09-2.6-3.18-1.49-.08,1.11.65,4.41,1.15,5.07.49.65,2.18,2.22,2.18,2.22,0,0,2.14,13.85,2.71,15.42.57,1.57,14.65-3.93,14.85-3.94s-2.64-3.86-2.64-3.86l-9.7,3.4-2.06-13.23Z"/><path class="cls-49" d="m401.32,198.57l.02,10.17,1.78,30.02,2.96-.19s2.75-14.52,1.94-20.97c-.8-6.45,0-7.77,0-7.77v-21.13s1.81-3.05,1.02-5.95c-.79-2.9-1.02-4.59-1.02-4.59h-6.16l-.54,20.41Z"/><path class="cls-49" d="m407.22,198.07l.02,10.17,10.09,28.36h2.74s-1.22-13.83-3.7-19.83c-2.72-6.56-3.46-9.48-3.46-9.48l1.01-19.1s1.81-3.05,1.02-5.95c-.79-2.9-1.02-4.59-1.02-4.59h-6.16l-.54,20.41Z"/><path class="cls-26" d="m400.54,151.54s-4.28.35-5.86,1.67c-1.58,1.33-.92,4.76-.92,4.76l3.18,3.22,1.26-.5s.35,2.34.87,3.31c.66,1.22,1.58,3.09,2.41,5.3.45,1.19.07,3.57.07,3.57l-3.9,37.96,23.15-.22-7.3-39.45,1.06-10.19,4.08-.79s1.94-5.29-1.16-7.14-5.47-1.51-5.47-1.51h-11.48Z"/><g><path class="cls-28" d="m402.77,172.86s.37-2.38-.07-3.57c-.83-2.22-1.76-4.09-2.41-5.3-.52-.97-.87-3.31-.87-3.31l-1.16.46c.13.73.42,2.14.79,2.84.66,1.22,1.58,3.09,2.41,5.3.45,1.19.07,3.57.07,3.57l-3.9,37.96h1.24s3.9-37.96,3.9-37.96Z"/><path class="cls-28" d="m394.98,157.96s-.66-3.43.92-4.76c1.58-1.33,5.86-1.67,5.86-1.67h-1.23s-4.28.35-5.86,1.67c-1.58,1.33-.92,4.76-.92,4.76l3.18,3.22.88-.35-2.83-2.87Z"/></g><path class="cls-60" d="m414.57,155.25s-.68-17.34-1.64-22.61c-.82-4.51-5.98-5.1-7.45-5.18h0s-.08-.01-.2,0c-.12,0-.2,0-.2,0h0c-1.47.09-6.63.69-7.45,5.2-.96,5.27-1.64,22.61-1.64,22.61,0,0,4.34,1.77,9.29,1.56,4.95.21,9.29-1.56,9.29-1.56Z"/><path class="cls-49" d="m418.65,160.19s2.38,11.72,2.54,12.68,3.1,14.91,3.1,14.91c0,0,2.49,1.77,2.65,2.76s-.93,3.02-1.83,3.13c-.88.1-2.96-1.95-2.96-1.95l-.69-2.99-4.15-14.62-3.08-13.14,4.4-.79Z"/><g><path class="cls-27" d="m416.24,234.31s1.29-.12,2.28-.51c.99-.39,1.29-.83,1.29-.83,0,0,.56.29.56.83s.49.87.49.87l.62.9s-3.72,2.66-4.18,2.38c-.46-.29-.86-2.21-.86-2.21,0,0-.77-.76-.22-1.42Z"/><path class="cls-28" d="m416.67,236.4c.65-.17,1.39,1.03,1.39,1.03l3.31-2.07,1.96,3.34s-1.84,1.87-2.09,2.2c-.25.33-1.12,2.36-1.99,3.1-.86.74-6.34.44-6.34.44,0,0-.71-.54,1.28-1.9,1.99-1.36,1.99-3.02,1.99-3.02,0,0-.76-2.78.49-3.11Z"/><path class="cls-54" d="m413.58,243s.39.98.4,1.08c0,.1,4.34,0,4.92-.22.58-.22,1.53-2.6,1.7-2.83.62-.88,1.61-2.12,1.61-2.12,0,0-.26-.59-.3-1.22-.04-.63.2-1.05.2-1.05l1.31,2.05s-2.06,1.77-2.38,2.65c-.21.57-1.43,2.98-1.92,3.1-.78.2-6.24.09-6.24.09,0,0-.51-.88.69-1.52Z"/></g><path class="cls-27" d="m402.98,236.69s1.22.45,2.27.54c1.06.08,1.53-.18,1.53-.18,0,0,.37.51.14.99-.23.48.06.99.06.99l.15,1.34s-4.39.32-4.67-.14c-.29-.46.09-2.16.09-2.16,0,0-.36-1.04.42-1.39Z"/><path class="cls-28" d="m402.79,238.39c.65.17.7,1.58.7,1.58l3.91-.17.33,4.5-12.03.12s-.49-1.71,1.91-1.92c2.4-.2,3.22-1.65,3.22-1.65,0,0,.71-2.8,1.96-2.46Z"/><path class="cls-54" d="m396.18,242.94s.75.1.8.74c.02.31,0,.31,0,.31h9.63s-.06-.62.25-1.11c.31-.49.72-.53.72-.53l.14,2.12-12.19-.05s-.14-1.15.65-1.48Z"/><rect class="cls-63" x="401.53" y="169.69" width="12.12" height="2.7"/><path class="cls-52" d="m416.07,239.06l.05.87,2.5.16s.34-.09.33-.51c-.02-.42-.52-.38-.52-.38l-2.36-.14Z"/><path class="cls-52" d="m400.29,241.46l.61-.87,1.62,1.17s.22.27,0,.53c-.22.27-.69.06-.69.06l-1.54-.89Z"/></g><g><g><g><g><polygon class="cls-34" points="274.47 232.34 111.94 232.34 118.53 130.87 267.92 130.87 274.47 232.34"/><path class="cls-28" d="m276.23,234.36H110.17l6.82-105h152.46l6.78,105Zm-162.53-3.53h159l-6.32-97.93H120.06l-6.36,97.93Z"/></g><polygon class="cls-43" points="265.59 227.07 119.44 227.07 125.37 136.34 259.7 136.34 265.59 227.07"/><rect class="cls-13" x="116.88" y="153.51" width="151.04" height="3.2"/><rect class="cls-13" x="116.88" y="178.66" width="154.31" height="3.2"/><rect class="cls-13" x="110.17" y="205.1" width="166.06" height="3.2"/><rect class="cls-39" x="110.17" y="208.3" width="166.06" height="26.06"/><rect class="cls-23" x="110.17" y="223.02" width="166.06" height="6.55"/><rect class="cls-18" x="109.28" y="229.57" width="167.82" height="4.79"/><rect class="cls-25" x="109.28" y="231.97" width="167.82" height="3.22"/><rect class="cls-4" x="114.6" y="210.99" width="157.6" height="12.03"/></g><polygon class="cls-4" points="129.08 146.12 134.62 136.3 166.41 136.71 166.41 146.12 129.08 146.12"/><g><g><path class="cls-28" d="m165.98,139.76c0,2.12-1.88,3.84-4.21,3.84s-4.21-1.72-4.21-3.84,1.88-3.84,4.21-3.84,4.21,1.72,4.21,3.84Z"/><path class="cls-28" d="m162.79,140.26c0,1.35-1.04,2.44-2.33,2.44s-2.33-1.09-2.33-2.44,1.04-2.44,2.33-2.44,2.33,1.09,2.33,2.44Z"/><path class="cls-28" d="m162.69,136.87c0,.29-.36.53-.81.53s-.81-.24-.81-.53.36-.53.81-.53.81.24.81.53Z"/><rect class="cls-28" x="161.77" y="135.08" width=".34" height="1.9"/><g><path class="cls-28" d="m164.2,137.89c.13.03.32.05.47.03-.31-.48.07-1.22-.55-1.53.09.06.18.09.28.13-.54-.7-1.51-1.31-2.38-.92,0,.76.05,1.3.67,1.8.54.44,1.07.71,1.75.79-.15-.08-.17-.15-.24-.3Z"/><path class="cls-28" d="m161.98,135.62s.03,0,.05-.02c0-.01,0-.02,0-.03l-.05.04Z"/></g></g><g><path class="cls-28" d="m157.45,139.76c0,2.12-1.88,3.84-4.21,3.84s-4.21-1.72-4.21-3.84,1.88-3.84,4.21-3.84,4.21,1.72,4.21,3.84Z"/><path class="cls-28" d="m154.26,140.26c0,1.35-1.04,2.44-2.33,2.44s-2.33-1.09-2.33-2.44,1.04-2.44,2.33-2.44,2.33,1.09,2.33,2.44Z"/><path class="cls-28" d="m154.16,136.87c0,.29-.36.53-.81.53s-.81-.24-.81-.53.36-.53.81-.53.81.24.81.53Z"/><rect class="cls-28" x="153.24" y="135.08" width=".34" height="1.9"/><g><path class="cls-28" d="m155.67,137.89c.13.03.32.05.47.03-.31-.48.07-1.22-.55-1.53.09.06.18.09.28.13-.54-.7-1.51-1.31-2.38-.92,0,.76.05,1.3.67,1.8.54.44,1.07.71,1.75.79-.15-.08-.17-.15-.24-.3Z"/><path class="cls-28" d="m153.45,135.62s.03,0,.05-.02c0-.01,0-.02,0-.03l-.05.04Z"/></g></g><g><path class="cls-28" d="m148.92,139.76c0,2.12-1.88,3.84-4.21,3.84s-4.21-1.72-4.21-3.84,1.88-3.84,4.21-3.84,4.21,1.72,4.21,3.84Z"/><path class="cls-28" d="m145.73,140.26c0,1.35-1.04,2.44-2.33,2.44s-2.33-1.09-2.33-2.44,1.04-2.44,2.33-2.44,2.33,1.09,2.33,2.44Z"/><path class="cls-28" d="m145.64,136.87c0,.29-.36.53-.81.53s-.81-.24-.81-.53.36-.53.81-.53.81.24.81.53Z"/><rect class="cls-28" x="144.71" y="135.08" width=".34" height="1.9"/><g><path class="cls-28" d="m147.14,137.89c.13.03.32.05.47.03-.31-.48.07-1.22-.55-1.53.09.06.18.09.28.13-.54-.7-1.51-1.31-2.38-.92,0,.76.05,1.3.67,1.8.54.44,1.07.71,1.75.79-.15-.08-.17-.15-.24-.3Z"/><path class="cls-28" d="m144.92,135.62s.03,0,.05-.02c0-.01,0-.02,0-.03l-.05.04Z"/></g></g><g><path class="cls-28" d="m140.4,139.76c0,2.12-1.88,3.84-4.21,3.84s-4.21-1.72-4.21-3.84,1.88-3.84,4.21-3.84,4.21,1.72,4.21,3.84Z"/><path class="cls-28" d="m137.21,140.26c0,1.35-1.04,2.44-2.33,2.44s-2.33-1.09-2.33-2.44,1.04-2.44,2.33-2.44,2.33,1.09,2.33,2.44Z"/><path class="cls-28" d="m137.11,136.87c0,.29-.36.53-.81.53s-.81-.24-.81-.53.36-.53.81-.53.81.24.81.53Z"/><rect class="cls-28" x="136.19" y="135.08" width=".34" height="1.9"/><g><path class="cls-28" d="m138.61,137.89c.13.03.32.05.47.03-.31-.48.07-1.22-.55-1.53.09.06.18.09.28.13-.54-.7-1.51-1.31-2.38-.92,0,.76.05,1.3.67,1.8.54.44,1.07.71,1.75.79-.15-.08-.17-.15-.24-.3Z"/><path class="cls-28" d="m136.39,135.62s.03,0,.05-.02c0-.01,0-.02,0-.03l-.05.04Z"/></g></g><g><path class="cls-28" d="m164.71,145.16c0,2.12-1.88,3.84-4.21,3.84s-4.21-1.72-4.21-3.84,1.88-3.84,4.21-3.84,4.21,1.72,4.21,3.84Z"/><path class="cls-28" d="m161.52,145.66c0,1.35-1.04,2.44-2.33,2.44s-2.33-1.09-2.33-2.44,1.04-2.44,2.33-2.44,2.33,1.09,2.33,2.44Z"/><path class="cls-28" d="m161.42,142.27c0,.29-.36.53-.81.53s-.81-.24-.81-.53.36-.53.81-.53.81.24.81.53Z"/><rect class="cls-28" x="160.5" y="140.47" width=".34" height="1.9"/><g><path class="cls-28" d="m162.93,143.29c.13.03.32.05.47.03-.31-.48.07-1.22-.55-1.53.09.06.18.09.28.13-.54-.7-1.51-1.31-2.38-.92,0,.76.05,1.3.67,1.8.54.44,1.07.71,1.75.79-.15-.08-.17-.15-.24-.3Z"/><path class="cls-28" d="m160.7,141.02s.03,0,.05-.02c0-.01,0-.02,0-.03l-.05.04Z"/></g></g><g><path class="cls-28" d="m156.18,145.16c0,2.12-1.88,3.84-4.21,3.84s-4.21-1.72-4.21-3.84,1.88-3.84,4.21-3.84,4.21,1.72,4.21,3.84Z"/><path class="cls-28" d="m152.99,145.66c0,1.35-1.04,2.44-2.33,2.44s-2.33-1.09-2.33-2.44,1.04-2.44,2.33-2.44,2.33,1.09,2.33,2.44Z"/><path class="cls-28" d="m152.89,142.27c0,.29-.36.53-.81.53s-.81-.24-.81-.53.36-.53.81-.53.81.24.81.53Z"/><rect class="cls-28" x="151.97" y="140.47" width=".34" height="1.9"/><g><path class="cls-28" d="m154.4,143.29c.13.03.32.05.47.03-.31-.48.07-1.22-.55-1.53.09.06.18.09.28.13-.54-.7-1.51-1.31-2.38-.92,0,.76.05,1.3.67,1.8.54.44,1.07.71,1.75.79-.15-.08-.17-.15-.24-.3Z"/><path class="cls-28" d="m152.18,141.02s.03,0,.05-.02c0-.01,0-.02,0-.03l-.05.04Z"/></g></g><g><path class="cls-28" d="m147.65,145.16c0,2.12-1.88,3.84-4.21,3.84s-4.21-1.72-4.21-3.84,1.88-3.84,4.21-3.84,4.21,1.72,4.21,3.84Z"/><path class="cls-28" d="m144.46,145.66c0,1.35-1.04,2.44-2.33,2.44s-2.33-1.09-2.33-2.44,1.04-2.44,2.33-2.44,2.33,1.09,2.33,2.44Z"/><path class="cls-28" d="m144.36,142.27c0,.29-.36.53-.81.53s-.81-.24-.81-.53.36-.53.81-.53.81.24.81.53Z"/><rect class="cls-28" x="143.44" y="140.47" width=".34" height="1.9"/><g><path class="cls-28" d="m145.87,143.29c.13.03.32.05.47.03-.31-.48.07-1.22-.55-1.53.09.06.18.09.28.13-.54-.7-1.51-1.31-2.38-.92,0,.76.05,1.3.67,1.8.54.44,1.07.71,1.75.79-.15-.08-.17-.15-.24-.3Z"/><path class="cls-28" d="m143.65,141.02s.03,0,.05-.02c0-.01,0-.02,0-.03l-.05.04Z"/></g></g><g><path class="cls-28" d="m139.12,145.16c0,2.12-1.88,3.84-4.21,3.84s-4.21-1.72-4.21-3.84,1.88-3.84,4.21-3.84,4.21,1.72,4.21,3.84Z"/><path class="cls-28" d="m135.93,145.66c0,1.35-1.04,2.44-2.33,2.44s-2.33-1.09-2.33-2.44,1.04-2.44,2.33-2.44,2.33,1.09,2.33,2.44Z"/><path class="cls-28" d="m135.83,142.27c0,.29-.36.53-.81.53s-.81-.24-.81-.53.36-.53.81-.53.81.24.81.53Z"/><rect class="cls-28" x="134.91" y="140.47" width=".34" height="1.9"/><g><path class="cls-28" d="m137.34,143.29c.13.03.32.05.47.03-.31-.48.07-1.22-.55-1.53.09.06.18.09.28.13-.54-.7-1.51-1.31-2.38-.92,0,.76.05,1.3.67,1.8.54.44,1.07.71,1.75.79-.15-.08-.17-.15-.24-.3Z"/><path class="cls-28" d="m135.12,141.02s.03,0,.05-.02c0-.01,0-.02,0-.03l-.05.04Z"/></g></g><rect class="cls-28" x="129.08" y="146.12" width="37.33" height="7.4"/></g><g><g><path class="cls-4" d="m177.58,162.76v-2.73h-3.4v2.73s-2.17,2.76-2.24,4.3c-.12,2.67,0,10.68,0,10.68,0,.5.4.9.9.9h6.07c.5,0,.9-.4.9-.9,0,0,.08-7.94,0-10.58-.05-1.54-2.24-4.4-2.24-4.4Z"/><rect class="cls-4" x="173.86" y="159.8" width="4.07" height="1.57"/><path class="cls-39" d="m174.66,163.24s-1.86,2.68-1.9,3.69c-.04,1.01.09,11.72.09,11.72h.94s.05-11.19.06-12c.02-.82.81-3.4.81-3.4Z"/><rect class="cls-63" x="171.9" y="169.78" width="7.95" height="5.07"/></g><g><path class="cls-4" d="m187.89,162.78v-2.73h-3.4v2.73s-2.17,2.75-2.24,4.3c-.12,2.67,0,10.68,0,10.68,0,.5.4.9.9.9h6.07c.5,0,.9-.4.9-.9,0,0,.08-7.94,0-10.58-.05-1.54-2.24-4.4-2.24-4.4Z"/><rect class="cls-4" x="184.16" y="159.82" width="4.07" height="1.57"/><path class="cls-39" d="m184.97,163.26s-1.86,2.68-1.9,3.69c-.04,1.01.09,11.72.09,11.72h.94s.05-11.19.06-12c.02-.82.81-3.4.81-3.4Z"/><rect class="cls-63" x="182.2" y="169.8" width="7.95" height="5.07"/></g><g><path class="cls-4" d="m198.19,162.79v-2.73h-3.4v2.73s-2.17,2.75-2.24,4.3c-.12,2.67,0,10.68,0,10.68,0,.5.4.9.9.9h6.07c.5,0,.9-.4.9-.9,0,0,.08-7.94,0-10.58-.05-1.54-2.24-4.4-2.24-4.4Z"/><rect class="cls-4" x="194.47" y="159.83" width="4.07" height="1.57"/><path class="cls-39" d="m195.27,163.27s-1.86,2.68-1.9,3.69c-.04,1.01.09,11.72.09,11.72h.94s.05-11.19.06-12c.02-.81.81-3.4.81-3.4Z"/><rect class="cls-63" x="192.51" y="169.81" width="7.95" height="5.07"/></g><g><path class="cls-4" d="m208.49,162.81v-2.73h-3.4v2.73s-2.17,2.76-2.24,4.3c-.12,2.67,0,10.68,0,10.68,0,.5.4.9.9.9h6.07c.5,0,.9-.4.9-.9,0,0,.08-7.94,0-10.58-.05-1.54-2.24-4.4-2.24-4.4Z"/><rect class="cls-4" x="204.77" y="159.85" width="4.07" height="1.57"/><path class="cls-39" d="m205.57,163.29s-1.86,2.68-1.9,3.69c-.04,1.01.09,11.72.09,11.72h.94s.04-11.19.06-12c.02-.82.81-3.4.81-3.4Z"/><rect class="cls-63" x="202.81" y="169.83" width="7.95" height="5.07"/></g><g><path class="cls-13" d="m220.61,167.46c0-1.21-.59-2.28-1.5-2.95-.45-.33-.73-.87-.73-1.43v-1.38h-3.01v1.38c0,.57-.27,1.1-.73,1.43-.91.67-1.5,1.74-1.5,2.95,0,.09,0,.18.01.27h-.01v10.31c0,.34.28.62.62.62h6.22c.34,0,.62-.28.62-.62v-10.31h-.01c0-.09.01-.18.01-.27Z"/><rect class="cls-28" x="215" y="160.46" width="3.74" height="1.89" rx=".26" ry=".26"/><circle class="cls-4" cx="216.87" cy="168.53" r="1.34"/><rect class="cls-39" x="214.42" y="170.98" width="4.9" height="4.9" rx=".33" ry=".33"/></g><g><path class="cls-13" d="m231.17,167.32c0-1.21-.59-2.28-1.5-2.95-.45-.33-.73-.87-.73-1.43v-1.38h-3.01v1.38c0,.57-.27,1.1-.73,1.43-.91.67-1.5,1.74-1.5,2.95,0,.09,0,.18.01.27h-.01v10.31c0,.34.28.62.62.62h6.22c.34,0,.62-.28.62-.62v-10.31h-.01c0-.09.01-.18.01-.27Z"/><rect class="cls-28" x="225.56" y="160.32" width="3.74" height="1.89" rx=".26" ry=".26"/><circle class="cls-4" cx="227.43" cy="168.39" r="1.34"/><rect class="cls-39" x="224.98" y="170.84" width="4.9" height="4.9" rx=".33" ry=".33"/></g><g><path class="cls-13" d="m242.02,167.28c0-1.21-.59-2.28-1.5-2.95-.45-.33-.73-.87-.73-1.43v-1.38h-3.01v1.38c0,.57-.27,1.1-.73,1.43-.91.67-1.5,1.74-1.5,2.95,0,.09,0,.18.01.27h-.01v10.31c0,.34.28.62.62.62h6.22c.34,0,.62-.28.62-.62v-10.31h-.01c0-.09.01-.18.01-.27Z"/><rect class="cls-28" x="236.41" y="160.29" width="3.74" height="1.89" rx=".26" ry=".26"/><circle class="cls-4" cx="238.29" cy="168.36" r="1.34"/><rect class="cls-39" x="235.83" y="170.81" width="4.9" height="4.9" rx=".33" ry=".33"/></g><g><path class="cls-13" d="m252.31,167.32c0-1.21-.59-2.28-1.5-2.95-.45-.33-.73-.87-.73-1.43v-1.38h-3.01v1.38c0,.57-.27,1.1-.73,1.43-.91.67-1.5,1.74-1.5,2.95,0,.09,0,.18.01.27h-.01v10.31c0,.34.28.62.62.62h6.22c.34,0,.62-.28.62-.62v-10.31h-.01c0-.09.01-.18.01-.27Z"/><rect class="cls-28" x="246.7" y="160.32" width="3.74" height="1.89" rx=".26" ry=".26"/><circle class="cls-4" cx="248.57" cy="168.39" r="1.34"/><rect class="cls-39" x="246.12" y="170.84" width="4.9" height="4.9" rx=".33" ry=".33"/></g><g><path class="cls-13" d="m263.16,167.28c0-1.21-.59-2.28-1.5-2.95-.45-.33-.73-.87-.73-1.43v-1.38h-3.01v1.38c0,.57-.27,1.1-.73,1.43-.91.67-1.5,1.74-1.5,2.95,0,.09,0,.18.01.27h-.01v10.31c0,.34.28.62.62.62h6.22c.34,0,.62-.28.62-.62v-10.31h-.01c0-.09.01-.18.01-.27Z"/><rect class="cls-28" x="257.55" y="160.29" width="3.74" height="1.89" rx=".26" ry=".26"/><circle class="cls-4" cx="259.43" cy="168.36" r="1.34"/><rect class="cls-39" x="256.97" y="170.81" width="4.9" height="4.9" rx=".33" ry=".33"/></g></g><g><g><polygon class="cls-39" points="177.84 153.48 173.95 153.48 173.39 145.56 178.41 145.56 177.84 153.48"/><rect class="cls-28" x="172.9" y="144.85" width="5.94" height="1.08"/><polygon class="cls-13" points="177.99 151.36 173.8 151.36 173.6 148.54 178.17 148.54 177.99 151.36"/></g><g><polygon class="cls-39" points="210.82 153.36 206.93 153.36 206.36 145.44 211.39 145.44 210.82 153.36"/><rect class="cls-28" x="205.88" y="144.72" width="5.94" height="1.08"/><polygon class="cls-13" points="210.97 151.23 206.78 151.23 206.58 148.42 211.15 148.42 210.97 151.23"/></g><g><polygon class="cls-39" points="218.94 153.42 215.05 153.42 214.49 145.5 219.51 145.5 218.94 153.42"/><rect class="cls-28" x="214" y="144.79" width="5.94" height="1.08"/><polygon class="cls-13" points="219.09 151.3 214.9 151.3 214.7 148.48 219.27 148.48 219.09 151.3"/></g><g><polygon class="cls-39" points="227.21 153.31 223.32 153.31 222.75 145.39 227.78 145.39 227.21 153.31"/><rect class="cls-28" x="222.27" y="144.67" width="5.94" height="1.08"/><polygon class="cls-13" points="227.36 151.18 223.16 151.18 222.96 148.36 227.54 148.36 227.36 151.18"/></g><g><polygon class="cls-39" points="235.46 153.42 231.57 153.42 231 145.5 236.03 145.5 235.46 153.42"/><rect class="cls-28" x="230.52" y="144.79" width="5.94" height="1.08"/><polygon class="cls-13" points="235.61 151.3 231.42 151.3 231.22 148.48 235.79 148.48 235.61 151.3"/></g><g><polygon class="cls-39" points="243.72 153.23 239.83 153.23 239.26 145.31 244.29 145.31 243.72 153.23"/><rect class="cls-28" x="238.78" y="144.6" width="5.94" height="1.08"/><polygon class="cls-13" points="243.87 151.11 239.67 151.11 239.47 148.29 244.05 148.29 243.87 151.11"/></g><g><polygon class="cls-39" points="252.35 153.52 248.46 153.52 247.9 145.6 252.92 145.6 252.35 153.52"/><rect class="cls-28" x="247.41" y="144.89" width="5.94" height="1.08"/><polygon class="cls-13" points="252.5 151.4 248.31 151.4 248.11 148.58 252.68 148.58 252.5 151.4"/></g><g><polygon class="cls-39" points="260.43 153.5 256.54 153.5 255.98 145.58 261 145.58 260.43 153.5"/><rect class="cls-28" x="255.49" y="144.86" width="5.94" height="1.08"/><polygon class="cls-13" points="260.58 151.37 256.39 151.37 256.19 148.55 260.76 148.55 260.58 151.37"/></g><g><polygon class="cls-39" points="202.62 153.5 198.73 153.5 198.16 145.58 203.19 145.58 202.62 153.5"/><rect class="cls-28" x="197.68" y="144.86" width="5.94" height="1.08"/><polygon class="cls-13" points="202.77 151.37 198.57 151.37 198.38 148.55 202.95 148.55 202.77 151.37"/></g><g><polygon class="cls-39" points="194.17 153.31 190.28 153.31 189.72 145.39 194.74 145.39 194.17 153.31"/><rect class="cls-28" x="189.23" y="144.67" width="5.94" height="1.08"/><polygon class="cls-13" points="194.32 151.18 190.13 151.18 189.93 148.36 194.5 148.36 194.32 151.18"/></g><g><polygon class="cls-39" points="186.1 153.5 182.21 153.5 181.65 145.58 186.67 145.58 186.1 153.5"/><rect class="cls-28" x="181.16" y="144.86" width="5.94" height="1.08"/><polygon class="cls-13" points="186.25 151.37 182.06 151.37 181.86 148.55 186.43 148.55 186.25 151.37"/></g></g><g><polygon class="cls-4" points="176.84 197.64 176.84 188.07 209.16 188.17 214.17 197.64 176.84 197.64"/><g><path class="cls-4" d="m185.59,189.32c0,1.56-1.39,2.83-3.1,2.83s-3.1-1.27-3.1-2.83,1.39-2.83,3.1-2.83,3.1,1.27,3.1,2.83Z"/><path class="cls-28" d="m183.25,189.69c0,.99-.77,1.8-1.71,1.8s-1.71-.81-1.71-1.8.77-1.8,1.71-1.8,1.71.81,1.71,1.8Z"/><path class="cls-64" d="m183.61,185.46s.02,0,.03-.01c0,0,0-.01,0-.02l-.03.03Z"/></g><g><path class="cls-39" d="m195.32,189.79c0,1.88-1.67,3.4-3.72,3.4s-3.72-1.52-3.72-3.4,1.67-3.4,3.72-3.4,3.72,1.52,3.72,3.4Z"/><path class="cls-39" d="m192.5,190.23c0,1.19-.92,2.16-2.06,2.16s-2.06-.97-2.06-2.16.92-2.16,2.06-2.16,2.06.97,2.06,2.16Z"/><path class="cls-39" d="m191.78,186.12s.03,0,.04-.01c0,0,0-.02,0-.03l-.04.04Z"/></g><g><path class="cls-28" d="m190.04,191.15c0,1.56-1.39,2.83-3.1,2.83s-3.1-1.27-3.1-2.83,1.39-2.83,3.1-2.83,3.1,1.27,3.1,2.83Z"/><path class="cls-39" d="m187.69,191.52c0,.99-.77,1.8-1.71,1.8s-1.71-.81-1.71-1.8.77-1.8,1.71-1.8,1.71.81,1.71,1.8Z"/><path class="cls-51" d="m187.09,188.1s.02,0,.03-.01c0,0,0-.01,0-.02l-.03.03Z"/></g><g><path class="cls-28" d="m203.02,188.08c0,1.97-1.75,3.57-3.91,3.57s-3.91-1.6-3.91-3.57,1.75-3.57,3.91-3.57,3.91,1.6,3.91,3.57Z"/><path class="cls-39" d="m200.06,188.55c0,1.25-.97,2.27-2.16,2.27s-2.16-1.02-2.16-2.27.97-2.27,2.16-2.27,2.16,1.02,2.16,2.27Z"/><path class="cls-51" d="m199.31,184.23s.03,0,.04-.01c0,0,0-.02,0-.03l-.04.04Z"/></g><g><path class="cls-39" d="m209.84,190.41c0,2.07-1.84,3.75-4.1,3.75s-4.1-1.68-4.1-3.75,1.84-3.75,4.1-3.75,4.1,1.68,4.1,3.75Z"/><path class="cls-4" d="m206.74,190.9c0,1.31-1.02,2.38-2.27,2.38s-2.27-1.07-2.27-2.38,1.02-2.38,2.27-2.38,2.27,1.07,2.27,2.38Z"/><path class="cls-39" d="m205.94,186.37s.03,0,.04-.01c0-.01,0-.02,0-.03l-.04.04Z"/></g><g><path class="cls-39" d="m200.23,191.12c0,1.97-1.75,3.57-3.91,3.57s-3.91-1.6-3.91-3.57,1.75-3.57,3.91-3.57,3.91,1.6,3.91,3.57Z"/><path class="cls-28" d="m197.27,191.59c0,1.25-.97,2.27-2.16,2.27s-2.16-1.02-2.16-2.27.97-2.27,2.16-2.27,2.16,1.02,2.16,2.27Z"/><path class="cls-39" d="m196.52,187.27s.03,0,.04-.01c0,0,0-.02,0-.03l-.04.04Z"/></g><g><path class="cls-39" d="m186.37,195.52c0,2.12-1.88,3.84-4.21,3.84s-4.21-1.72-4.21-3.84,1.88-3.84,4.21-3.84,4.21,1.72,4.21,3.84Z"/><path class="cls-63" d="m183.18,196.03c0,1.35-1.04,2.44-2.33,2.44s-2.33-1.09-2.33-2.44,1.04-2.44,2.33-2.44,2.33,1.09,2.33,2.44Z"/></g><g><path class="cls-28" d="m194.79,195.52c0,2.12-1.88,3.84-4.21,3.84s-4.21-1.72-4.21-3.84,1.88-3.84,4.21-3.84,4.21,1.72,4.21,3.84Z"/><path class="cls-39" d="m191.6,196.03c0,1.35-1.04,2.44-2.33,2.44s-2.33-1.09-2.33-2.44,1.04-2.44,2.33-2.44,2.33,1.09,2.33,2.44Z"/><path class="cls-64" d="m190.79,191.38s.03,0,.05-.02c0,0,0-.02,0-.03l-.05.04Z"/></g><g><path class="cls-39" d="m203.21,195.52c0,2.12-1.88,3.84-4.21,3.84s-4.21-1.72-4.21-3.84,1.88-3.84,4.21-3.84,4.21,1.72,4.21,3.84Z"/><path class="cls-4" d="m200.02,196.03c0,1.35-1.04,2.44-2.33,2.44s-2.33-1.09-2.33-2.44,1.04-2.44,2.33-2.44,2.33,1.09,2.33,2.44Z"/><path class="cls-39" d="m199.21,191.38s.03,0,.05-.02c0,0,0-.02,0-.03l-.05.04Z"/></g><g><path class="cls-28" d="m211.63,195.93c0,2.12-1.88,3.84-4.21,3.84s-4.21-1.72-4.21-3.84,1.88-3.84,4.21-3.84,4.21,1.72,4.21,3.84Z"/><path class="cls-39" d="m208.44,196.43c0,1.35-1.04,2.44-2.33,2.44s-2.33-1.09-2.33-2.44,1.04-2.44,2.33-2.44,2.33,1.09,2.33,2.44Z"/><path class="cls-51" d="m207.63,191.79s.03,0,.05-.02c0-.01,0-.02,0-.03l-.05.04Z"/></g><rect class="cls-39" x="176.84" y="197.51" width="37.33" height="7.4"/></g><g><g><path class="cls-63" d="m164.31,164.73c0,2.12-1.88,3.84-4.21,3.84s-4.21-1.72-4.21-3.84,1.88-3.84,4.21-3.84,4.21,1.72,4.21,3.84Z"/><path class="cls-28" d="m161.12,165.23c0,1.35-1.04,2.44-2.33,2.44s-2.33-1.09-2.33-2.44,1.04-2.44,2.33-2.44,2.33,1.09,2.33,2.44Z"/><path class="cls-45" d="m161.02,161.84c0,.29-.36.53-.81.53s-.81-.24-.81-.53.36-.53.81-.53.81.24.81.53Z"/><rect class="cls-39" x="160.1" y="160.05" width=".34" height="1.9"/><g><path class="cls-39" d="m162.53,162.86c.13.03.32.05.47.03-.31-.48.07-1.22-.55-1.53.09.06.18.09.28.13-.54-.7-1.51-1.31-2.38-.92,0,.76.05,1.3.67,1.8.54.44,1.07.71,1.75.79-.15-.08-.17-.15-.24-.3Z"/><path class="cls-39" d="m160.31,160.59s.03,0,.05-.02c0-.01,0-.02,0-.03l-.05.04Z"/></g></g><g><path class="cls-63" d="m155.78,164.73c0,2.12-1.88,3.84-4.21,3.84s-4.21-1.72-4.21-3.84,1.88-3.84,4.21-3.84,4.21,1.72,4.21,3.84Z"/><path class="cls-28" d="m152.59,165.23c0,1.35-1.04,2.44-2.33,2.44s-2.33-1.09-2.33-2.44,1.04-2.44,2.33-2.44,2.33,1.09,2.33,2.44Z"/><path class="cls-45" d="m152.49,161.84c0,.29-.36.53-.81.53s-.81-.24-.81-.53.36-.53.81-.53.81.24.81.53Z"/><rect class="cls-39" x="151.57" y="160.05" width=".34" height="1.9"/><g><path class="cls-39" d="m154,162.86c.13.03.32.05.47.03-.31-.48.07-1.22-.55-1.53.09.06.18.09.28.13-.54-.7-1.51-1.31-2.38-.92,0,.76.05,1.3.67,1.8.54.44,1.07.71,1.75.79-.15-.08-.17-.15-.24-.3Z"/><path class="cls-39" d="m151.78,160.59s.03,0,.05-.02c0-.01,0-.02,0-.03l-.05.04Z"/></g></g><g><path class="cls-63" d="m147.25,164.73c0,2.12-1.88,3.84-4.21,3.84s-4.21-1.72-4.21-3.84,1.88-3.84,4.21-3.84,4.21,1.72,4.21,3.84Z"/><path class="cls-28" d="m144.07,165.23c0,1.35-1.04,2.44-2.33,2.44s-2.33-1.09-2.33-2.44,1.04-2.44,2.33-2.44,2.33,1.09,2.33,2.44Z"/><path class="cls-45" d="m143.97,161.84c0,.29-.36.53-.81.53s-.81-.24-.81-.53.36-.53.81-.53.81.24.81.53Z"/><rect class="cls-39" x="143.04" y="160.05" width=".34" height="1.9"/><g><path class="cls-39" d="m145.47,162.86c.13.03.32.05.47.03-.31-.48.07-1.22-.55-1.53.09.06.18.09.28.13-.54-.7-1.51-1.31-2.38-.92,0,.76.05,1.3.67,1.8.54.44,1.07.71,1.75.79-.15-.08-.17-.15-.24-.3Z"/><path class="cls-39" d="m143.25,160.59s.03,0,.05-.02c0-.01,0-.02,0-.03l-.05.04Z"/></g></g><g><path class="cls-63" d="m138.73,164.73c0,2.12-1.88,3.84-4.21,3.84s-4.21-1.72-4.21-3.84,1.88-3.84,4.21-3.84,4.21,1.72,4.21,3.84Z"/><path class="cls-28" d="m135.54,165.23c0,1.35-1.04,2.44-2.33,2.44s-2.33-1.09-2.33-2.44,1.04-2.44,2.33-2.44,2.33,1.09,2.33,2.44Z"/><path class="cls-19" d="m135.44,161.84c0,.29-.36.53-.81.53s-.81-.24-.81-.53.36-.53.81-.53.81.24.81.53Z"/><rect class="cls-39" x="134.52" y="160.05" width=".34" height="1.9"/><g><path class="cls-39" d="m136.94,162.86c.13.03.32.05.47.03-.31-.48.07-1.22-.55-1.53.09.06.18.09.28.13-.54-.7-1.51-1.31-2.38-.92,0,.76.05,1.3.67,1.8.54.44,1.07.71,1.75.79-.15-.08-.17-.15-.24-.3Z"/><path class="cls-39" d="m134.72,160.59s.03,0,.05-.02c0-.01,0-.02,0-.03l-.05.04Z"/></g></g><g><path class="cls-63" d="m163.04,170.13c0,2.12-1.88,3.84-4.21,3.84s-4.21-1.72-4.21-3.84,1.88-3.84,4.21-3.84,4.21,1.72,4.21,3.84Z"/><path class="cls-28" d="m159.85,170.63c0,1.35-1.04,2.44-2.33,2.44s-2.33-1.09-2.33-2.44,1.04-2.44,2.33-2.44,2.33,1.09,2.33,2.44Z"/><path class="cls-45" d="m159.75,167.24c0,.29-.36.53-.81.53s-.81-.24-.81-.53.36-.53.81-.53.81.24.81.53Z"/><rect class="cls-39" x="158.83" y="165.44" width=".34" height="1.9"/><g><path class="cls-39" d="m161.26,168.26c.13.03.32.05.47.03-.31-.48.07-1.22-.55-1.53.09.06.18.09.28.13-.54-.7-1.51-1.31-2.38-.92,0,.76.05,1.3.67,1.8.54.44,1.07.71,1.75.79-.15-.08-.17-.15-.24-.3Z"/><path class="cls-39" d="m159.04,165.99s.03,0,.05-.02c0-.01,0-.02,0-.03l-.05.04Z"/></g></g><g><path class="cls-63" d="m154.51,170.13c0,2.12-1.88,3.84-4.21,3.84s-4.21-1.72-4.21-3.84,1.88-3.84,4.21-3.84,4.21,1.72,4.21,3.84Z"/><path class="cls-28" d="m151.32,170.63c0,1.35-1.04,2.44-2.33,2.44s-2.33-1.09-2.33-2.44,1.04-2.44,2.33-2.44,2.33,1.09,2.33,2.44Z"/><path class="cls-45" d="m151.22,167.24c0,.29-.36.53-.81.53s-.81-.24-.81-.53.36-.53.81-.53.81.24.81.53Z"/><rect class="cls-39" x="150.3" y="165.44" width=".34" height="1.9"/><g><path class="cls-39" d="m152.73,168.26c.13.03.32.05.47.03-.31-.48.07-1.22-.55-1.53.09.06.18.09.28.13-.54-.7-1.51-1.31-2.38-.92,0,.76.05,1.3.67,1.8.54.44,1.07.71,1.75.79-.15-.08-.17-.15-.24-.3Z"/><path class="cls-39" d="m150.51,165.99s.03,0,.05-.02c0-.01,0-.02,0-.03l-.05.04Z"/></g></g><g><path class="cls-63" d="m145.98,170.13c0,2.12-1.88,3.84-4.21,3.84s-4.21-1.72-4.21-3.84,1.88-3.84,4.21-3.84,4.21,1.72,4.21,3.84Z"/><path class="cls-28" d="m142.79,170.63c0,1.35-1.04,2.44-2.33,2.44s-2.33-1.09-2.33-2.44,1.04-2.44,2.33-2.44,2.33,1.09,2.33,2.44Z"/><path class="cls-45" d="m142.69,167.24c0,.29-.36.53-.81.53s-.81-.24-.81-.53.36-.53.81-.53.81.24.81.53Z"/><rect class="cls-39" x="141.77" y="165.44" width=".34" height="1.9"/><g><path class="cls-39" d="m144.2,168.26c.13.03.32.05.47.03-.31-.48.07-1.22-.55-1.53.09.06.18.09.28.13-.54-.7-1.51-1.31-2.38-.92,0,.76.05,1.3.67,1.8.54.44,1.07.71,1.75.79-.15-.08-.17-.15-.24-.3Z"/><path class="cls-39" d="m141.98,165.99s.03,0,.05-.02c0-.01,0-.02,0-.03l-.05.04Z"/></g></g><g><path class="cls-63" d="m137.45,170.13c0,2.12-1.88,3.84-4.21,3.84s-4.21-1.72-4.21-3.84,1.88-3.84,4.21-3.84,4.21,1.72,4.21,3.84Z"/><path class="cls-28" d="m134.26,170.63c0,1.35-1.04,2.44-2.33,2.44s-2.33-1.09-2.33-2.44,1.04-2.44,2.33-2.44,2.33,1.09,2.33,2.44Z"/><path class="cls-45" d="m134.16,167.24c0,.29-.36.53-.81.53s-.81-.24-.81-.53.36-.53.81-.53.81.24.81.53Z"/><rect class="cls-39" x="133.24" y="165.44" width=".34" height="1.9"/><g><path class="cls-39" d="m135.67,168.26c.13.03.32.05.47.03-.31-.48.07-1.22-.55-1.53.09.06.18.09.28.13-.54-.7-1.51-1.31-2.38-.92,0,.76.05,1.3.67,1.8.54.44,1.07.71,1.75.79-.15-.08-.17-.15-.24-.3Z"/><path class="cls-39" d="m133.45,165.99s.03,0,.05-.02c0-.01,0-.02,0-.03l-.05.04Z"/></g></g><rect class="cls-39" x="127.41" y="171.08" width="37.33" height="7.4"/></g><g><polygon class="cls-4" points="229.45 197.78 229.45 188.21 261.77 188.31 266.77 197.78 229.45 197.78"/><g><path class="cls-4" d="m238.2,189.46c0,1.56-1.39,2.83-3.1,2.83s-3.1-1.27-3.1-2.83,1.39-2.83,3.1-2.83,3.1,1.27,3.1,2.83Z"/><path class="cls-28" d="m235.85,189.83c0,.99-.77,1.8-1.71,1.8s-1.71-.81-1.71-1.8.77-1.8,1.71-1.8,1.71.81,1.71,1.8Z"/><path class="cls-64" d="m236.21,185.6s.02,0,.03-.01c0,0,0-.01,0-.02l-.03.03Z"/></g><g><path class="cls-39" d="m247.92,189.93c0,1.88-1.67,3.4-3.72,3.4s-3.72-1.52-3.72-3.4,1.67-3.4,3.72-3.4,3.72,1.52,3.72,3.4Z"/><path class="cls-39" d="m245.1,190.37c0,1.19-.92,2.16-2.06,2.16s-2.06-.97-2.06-2.16.92-2.16,2.06-2.16,2.06.97,2.06,2.16Z"/><path class="cls-39" d="m244.39,186.27s.03,0,.04-.01c0,0,0-.02,0-.03l-.04.04Z"/></g><g><path class="cls-28" d="m242.64,191.29c0,1.56-1.39,2.83-3.1,2.83s-3.1-1.27-3.1-2.83,1.39-2.83,3.1-2.83,3.1,1.27,3.1,2.83Z"/><path class="cls-39" d="m240.3,191.66c0,.99-.77,1.8-1.71,1.8s-1.71-.81-1.71-1.8.77-1.8,1.71-1.8,1.71.81,1.71,1.8Z"/><path class="cls-51" d="m239.7,188.24s.02,0,.03-.01c0,0,0-.01,0-.02l-.03.03Z"/></g><g><path class="cls-28" d="m255.63,188.22c0,1.97-1.75,3.57-3.91,3.57s-3.91-1.6-3.91-3.57,1.75-3.57,3.91-3.57,3.91,1.6,3.91,3.57Z"/><path class="cls-39" d="m252.66,188.69c0,1.25-.97,2.27-2.16,2.27s-2.16-1.02-2.16-2.27.97-2.27,2.16-2.27,2.16,1.02,2.16,2.27Z"/><path class="cls-51" d="m251.91,184.37s.03,0,.04-.01c0,0,0-.02,0-.03l-.04.04Z"/></g><g><path class="cls-39" d="m262.45,190.55c0,2.07-1.84,3.75-4.1,3.75s-4.1-1.68-4.1-3.75,1.84-3.75,4.1-3.75,4.1,1.68,4.1,3.75Z"/><path class="cls-4" d="m259.34,191.04c0,1.31-1.02,2.38-2.27,2.38s-2.27-1.07-2.27-2.38,1.02-2.38,2.27-2.38,2.27,1.07,2.27,2.38Z"/><path class="cls-39" d="m258.54,186.51s.03,0,.04-.01c0-.01,0-.02,0-.03l-.04.04Z"/></g><g><path class="cls-39" d="m252.84,191.26c0,1.97-1.75,3.57-3.91,3.57s-3.91-1.6-3.91-3.57,1.75-3.57,3.91-3.57,3.91,1.6,3.91,3.57Z"/><path class="cls-28" d="m249.87,191.73c0,1.25-.97,2.27-2.16,2.27s-2.16-1.02-2.16-2.27.97-2.27,2.16-2.27,2.16,1.02,2.16,2.27Z"/><path class="cls-39" d="m249.12,187.41s.03,0,.04-.01c0,0,0-.02,0-.03l-.04.04Z"/></g><g><path class="cls-39" d="m238.97,195.66c0,2.12-1.88,3.84-4.21,3.84s-4.21-1.72-4.21-3.84,1.88-3.84,4.21-3.84,4.21,1.72,4.21,3.84Z"/><path class="cls-63" d="m235.78,196.17c0,1.35-1.04,2.44-2.33,2.44s-2.33-1.09-2.33-2.44,1.04-2.44,2.33-2.44,2.33,1.09,2.33,2.44Z"/></g><g><path class="cls-28" d="m247.39,195.66c0,2.12-1.88,3.84-4.21,3.84s-4.21-1.72-4.21-3.84,1.88-3.84,4.21-3.84,4.21,1.72,4.21,3.84Z"/><path class="cls-39" d="m244.2,196.17c0,1.35-1.04,2.44-2.33,2.44s-2.33-1.09-2.33-2.44,1.04-2.44,2.33-2.44,2.33,1.09,2.33,2.44Z"/><path class="cls-64" d="m243.39,191.52s.03,0,.05-.02c0,0,0-.02,0-.03l-.05.04Z"/></g><g><path class="cls-39" d="m255.81,195.66c0,2.12-1.88,3.84-4.21,3.84s-4.21-1.72-4.21-3.84,1.88-3.84,4.21-3.84,4.21,1.72,4.21,3.84Z"/><path class="cls-4" d="m252.62,196.17c0,1.35-1.04,2.44-2.33,2.44s-2.33-1.09-2.33-2.44,1.04-2.44,2.33-2.44,2.33,1.09,2.33,2.44Z"/><path class="cls-39" d="m251.81,191.52s.03,0,.05-.02c0,0,0-.02,0-.03l-.05.04Z"/></g><g><path class="cls-28" d="m264.23,196.07c0,2.12-1.88,3.84-4.21,3.84s-4.21-1.72-4.21-3.84,1.88-3.84,4.21-3.84,4.21,1.72,4.21,3.84Z"/><path class="cls-39" d="m261.04,196.57c0,1.35-1.04,2.44-2.33,2.44s-2.33-1.09-2.33-2.44,1.04-2.44,2.33-2.44,2.33,1.09,2.33,2.44Z"/><path class="cls-51" d="m260.23,191.93s.03,0,.05-.02c0-.01,0-.02,0-.03l-.05.04Z"/></g><rect class="cls-39" x="229.45" y="197.65" width="37.33" height="7.4"/></g><g><polygon class="cls-4" points="163.72 197.78 163.72 188.21 131.4 188.31 126.39 197.78 163.72 197.78"/><g><path class="cls-4" d="m154.97,189.46c0,1.56,1.39,2.83,3.1,2.83s3.1-1.27,3.1-2.83-1.39-2.83-3.1-2.83-3.1,1.27-3.1,2.83Z"/><path class="cls-28" d="m157.32,189.83c0,.99.77,1.8,1.71,1.8s1.71-.81,1.71-1.8-.77-1.8-1.71-1.8-1.71.81-1.71,1.8Z"/><path class="cls-64" d="m156.95,185.6s-.02,0-.03-.01c0,0,0-.01,0-.02l.03.03Z"/></g><g><path class="cls-39" d="m145.24,189.93c0,1.88,1.67,3.4,3.72,3.4s3.72-1.52,3.72-3.4-1.67-3.4-3.72-3.4-3.72,1.52-3.72,3.4Z"/><path class="cls-39" d="m148.06,190.37c0,1.19.92,2.16,2.06,2.16s2.06-.97,2.06-2.16-.92-2.16-2.06-2.16-2.06.97-2.06,2.16Z"/><path class="cls-39" d="m148.78,186.27s-.03,0-.04-.01c0,0,0-.02,0-.03l.04.04Z"/></g><g><path class="cls-28" d="m150.52,191.29c0,1.56,1.39,2.83,3.1,2.83s3.1-1.27,3.1-2.83-1.39-2.83-3.1-2.83-3.1,1.27-3.1,2.83Z"/><path class="cls-39" d="m152.87,191.66c0,.99.77,1.8,1.71,1.8s1.71-.81,1.71-1.8-.77-1.8-1.71-1.8-1.71.81-1.71,1.8Z"/><path class="cls-51" d="m153.47,188.24s-.02,0-.03-.01c0,0,0-.01,0-.02l.03.03Z"/></g><g><path class="cls-28" d="m137.54,188.22c0,1.97,1.75,3.57,3.91,3.57s3.91-1.6,3.91-3.57-1.75-3.57-3.91-3.57-3.91,1.6-3.91,3.57Z"/><path class="cls-39" d="m140.5,188.69c0,1.25.97,2.27,2.16,2.27s2.16-1.02,2.16-2.27-.97-2.27-2.16-2.27-2.16,1.02-2.16,2.27Z"/><path class="cls-51" d="m141.26,184.37s-.03,0-.04-.01c0,0,0-.02,0-.03l.04.04Z"/></g><g><path class="cls-39" d="m130.72,190.55c0,2.07,1.84,3.75,4.1,3.75s4.1-1.68,4.1-3.75-1.84-3.75-4.1-3.75-4.1,1.68-4.1,3.75Z"/><path class="cls-4" d="m133.83,191.04c0,1.31,1.02,2.38,2.27,2.38s2.27-1.07,2.27-2.38-1.02-2.38-2.27-2.38-2.27,1.07-2.27,2.38Z"/><path class="cls-39" d="m134.62,186.51s-.03,0-.04-.01c0-.01,0-.02,0-.03l.04.04Z"/></g><g><path class="cls-39" d="m140.33,191.26c0,1.97,1.75,3.57,3.91,3.57s3.91-1.6,3.91-3.57-1.75-3.57-3.91-3.57-3.91,1.6-3.91,3.57Z"/><path class="cls-28" d="m143.29,191.73c0,1.25.97,2.27,2.16,2.27s2.16-1.02,2.16-2.27-.97-2.27-2.16-2.27-2.16,1.02-2.16,2.27Z"/><path class="cls-39" d="m144.05,187.41s-.03,0-.04-.01c0,0,0-.02,0-.03l.04.04Z"/></g><g><path class="cls-39" d="m154.2,195.66c0,2.12,1.88,3.84,4.21,3.84s4.21-1.72,4.21-3.84-1.88-3.84-4.21-3.84-4.21,1.72-4.21,3.84Z"/><path class="cls-63" d="m157.39,196.17c0,1.35,1.04,2.44,2.33,2.44s2.33-1.09,2.33-2.44-1.04-2.44-2.33-2.44-2.33,1.09-2.33,2.44Z"/></g><g><path class="cls-28" d="m145.77,195.66c0,2.12,1.88,3.84,4.21,3.84s4.21-1.72,4.21-3.84-1.88-3.84-4.21-3.84-4.21,1.72-4.21,3.84Z"/><path class="cls-39" d="m148.96,196.17c0,1.35,1.04,2.44,2.33,2.44s2.33-1.09,2.33-2.44-1.04-2.44-2.33-2.44-2.33,1.09-2.33,2.44Z"/><path class="cls-64" d="m149.78,191.52s-.03,0-.05-.02c0,0,0-.02,0-.03l.05.04Z"/></g><g><path class="cls-39" d="m137.35,195.66c0,2.12,1.88,3.84,4.21,3.84s4.21-1.72,4.21-3.84-1.88-3.84-4.21-3.84-4.21,1.72-4.21,3.84Z"/><path class="cls-4" d="m140.54,196.17c0,1.35,1.04,2.44,2.33,2.44s2.33-1.09,2.33-2.44-1.04-2.44-2.33-2.44-2.33,1.09-2.33,2.44Z"/><path class="cls-39" d="m141.36,191.52s-.03,0-.05-.02c0,0,0-.02,0-.03l.05.04Z"/></g><g><path class="cls-28" d="m128.93,196.07c0,2.12,1.88,3.84,4.21,3.84s4.21-1.72,4.21-3.84-1.88-3.84-4.21-3.84-4.21,1.72-4.21,3.84Z"/><path class="cls-39" d="m132.12,196.57c0,1.35,1.04,2.44,2.33,2.44s2.33-1.09,2.33-2.44-1.04-2.44-2.33-2.44-2.33,1.09-2.33,2.44Z"/><path class="cls-51" d="m132.94,191.93s-.03,0-.05-.02c0-.01,0-.02,0-.03l.05.04Z"/></g><rect class="cls-39" x="126.39" y="197.65" width="37.33" height="7.4"/></g></g><g><g><rect class="cls-39" x="145.37" y="97.35" width="38.84" height="24.33"/><rect class="cls-9" x="148.17" y="100.27" width="32.53" height="18.62"/><rect class="cls-30" x="152.29" y="111.54" width="23.54" height="3.8"/></g><rect class="cls-30" x="163.87" y="121.68" width="2.54" height="7.68"/></g><g><g><g><rect class="cls-39" x="215.08" y="100.85" width="29.95" height="20.4"/><rect class="cls-13" x="217.65" y="102.82" width="24.81" height="16.04"/></g><rect class="cls-43" x="220.77" y="114.23" width="18.49" height="1.86"/></g><rect class="cls-43" x="228.94" y="121.24" width="3.6" height="8.12"/></g></g><g><g><path class="cls-17" d="m365.12,310.09c-.59-7.25-5.56-24.28-5.56-24.28h-6.08s-4.46,17.04-5.05,24.28c-.59,7.25-.92,8.97.79,9.87l5.13.02h0s2.42,0,2.42,0h2.43s0,0,0,0l5.12-.02c1.72-.9,1.38-2.62.8-9.87Z"/><path class="cls-12" d="m362.92,281.25s-1.03.04-1.82-.45c-.52-.32-.85-1.15-1.01-1.4-.43-.65-.3-1.2-.01-1.32.31-.13.8.21.8.21,0,0,.29,1.07.87,1.69.64.67,1.57.91,1.17,1.27Z"/><rect class="cls-13" x="350.9" y="303.53" width="11.36" height="9.04"/><rect class="cls-46" x="353.47" y="281.8" width="6.08" height="4.02"/><path class="cls-16" d="m353.47,281.8l-.7-1.3-1.87-.52-.55-2.35s3.52-1.13,7.11-.93c.61.03,2.42-.02,2.89.33,1.73,1.29-.35,2.07-.35,2.07l-.47,2.69h-6.06Z"/><path class="cls-12" d="m350.48,277.64l.42,2.35s-1.52.49-1.82-.75c-.3-1.24,1.4-1.6,1.4-1.6Z"/></g><g><path class="cls-28" d="m373.92,289.57v-5.25h-6.52v5.25s-4.17,5.29-4.3,8.26c-.22,5.12,0,20.51,0,20.51,0,.96.78,1.73,1.73,1.73h11.65c.96,0,1.73-.78,1.73-1.73,0,0,.16-15.24,0-20.32-.09-2.96-4.3-8.45-4.3-8.45Z"/><rect class="cls-5" x="366.76" y="283.89" width="7.81" height="3.02"/><path class="cls-13" d="m368.31,290.49s-3.56,5.15-3.64,7.09.17,22.5.17,22.5h1.81s.09-21.49.12-23.05c.03-1.56,1.55-6.53,1.55-6.53Z"/><rect class="cls-5" x="363" y="303.05" width="15.26" height="9.73"/></g><g><g><path class="cls-10" d="m388.07,315.8c-.65,1.57-2.48,2.3-4.08,1.64h0c-1.6-.66-2.37-2.48-1.73-4.05l17.82-43.01c.65-1.57,2.48-2.3,4.08-1.64h0c1.6.66,2.37,2.48,1.73,4.05l-17.82,43.01Z"/><path class="cls-44" d="m404.13,268.73h0c-1.6-.66-3.43.07-4.08,1.64l-17.82,43.01c-.65,1.57.12,3.38,1.73,4.05h0l20.17-48.7Z"/><g><path class="cls-8" d="m399.67,275.39l3.16,1.31s-.72.44-1.94-.07c-1.22-.51-1.22-1.24-1.22-1.24Z"/><path class="cls-8" d="m396.92,282.05l3.16,1.31s-.71.44-1.93-.07c-1.22-.51-1.22-1.24-1.22-1.24Z"/><path class="cls-8" d="m394.16,288.71l3.16,1.31s-.72.45-1.94-.07c-1.22-.51-1.22-1.24-1.22-1.24Z"/><path class="cls-8" d="m391.4,295.37l3.16,1.31s-.71.44-1.94-.07c-1.22-.51-1.22-1.24-1.22-1.24Z"/><path class="cls-8" d="m388.64,302.03l3.16,1.31s-.71.44-1.94-.07c-1.22-.51-1.22-1.24-1.22-1.24Z"/><path class="cls-8" d="m385.88,308.69l3.16,1.31s-.71.44-1.94-.07c-1.22-.51-1.22-1.24-1.22-1.24Z"/></g></g><g><path class="cls-10" d="m386.34,316.59c-.24,1.68-1.83,2.85-3.55,2.6h0c-1.72-.25-2.92-1.81-2.67-3.49l6.62-46.09c.24-1.68,1.83-2.85,3.55-2.6h0c1.72.25,2.92,1.81,2.67,3.49l-6.62,46.08Z"/><path class="cls-44" d="m390.26,267h0c-1.72-.25-3.31.92-3.55,2.6l-6.62,46.08c-.24,1.68.96,3.25,2.67,3.49h0l7.49-52.18Z"/><g><path class="cls-8" d="m387.59,274.56l3.38.48s-.58.61-1.89.41c-1.31-.2-1.49-.9-1.49-.9Z"/><path class="cls-8" d="m386.56,281.7l3.38.49s-.58.61-1.89.41c-1.31-.2-1.49-.9-1.49-.9Z"/><path class="cls-8" d="m385.54,288.83l3.38.49s-.58.61-1.89.41c-1.31-.2-1.49-.9-1.49-.9Z"/><path class="cls-8" d="m384.51,295.97l3.38.49s-.58.61-1.89.41c-1.31-.2-1.49-.9-1.49-.9Z"/><path class="cls-8" d="m383.49,303.1l3.38.48s-.58.61-1.89.41c-1.31-.2-1.49-.9-1.49-.9Z"/><path class="cls-8" d="m382.46,310.24l3.38.49s-.58.61-1.89.41c-1.31-.19-1.49-.9-1.49-.9Z"/></g></g><polygon class="cls-32" points="378.01 298.7 397.35 299.62 395.54 304.51 395.54 320.17 377.22 319.75 378.01 298.7"/><polygon class="cls-37" points="382.67 301.96 384.15 319.01 377.94 318.75 378.63 300.08 382.67 301.96"/></g><g><circle class="cls-57" cx="348.8" cy="356.63" r="6.85"/><path class="cls-57" d="m396.73,356.63c0,3.78-3.07,6.85-6.85,6.85s-6.85-3.07-6.85-6.85,3.07-6.85,6.85-6.85,6.85,3.07,6.85,6.85Z"/><rect class="cls-11" x="345.27" y="344.28" width="7.08" height="11"/><rect class="cls-11" x="386.44" y="344.28" width="6.93" height="11"/><path class="cls-47" d="m352.6,356.32c0,2.11-1.71,3.82-3.82,3.82s-3.81-1.71-3.81-3.82,1.71-3.82,3.81-3.82,3.82,1.71,3.82,3.82Z"/><path class="cls-47" d="m393.7,356.63c0,2.11-1.71,3.82-3.82,3.82s-3.81-1.71-3.81-3.82,1.71-3.81,3.81-3.81,3.82,1.71,3.82,3.81Z"/><path class="cls-22" d="m408.58,274.95c-.64-.17-1.29.21-1.46.85l-1.89,7.19h-66.07l-1.89-7.19c-.17-.64-19.3-12.41-19.3-12.41-.39-.25-.96-.05-1.28.44-.32.5-.27,1.1.11,1.35l18.2,11.84s.09.03.13.04l11.35,43.23c-.14.25-.24.53-.24.84,0,.27.07.52.18.75l-6.18,20.91h-3.74v2.99h65.06v-2.99h-57.9l5.88-19.9h47.47c.97,0,1.76-.79,1.76-1.76,0-.57-.29-1.06-.71-1.38l11.38-43.35c.17-.64-.22-1.29-.85-1.46Zm-21.59,44.42l1.72-10.44h9.72l-2.74,10.44h-8.7Zm-38.28,0l-2.74-10.44h9.48l1.72,10.44h-8.46Zm23.51-23.98v-10.83h19.05l-1.78,10.83h-17.27Zm17.06,1.28l-1.84,11.2h-15.22v-11.2h17.07Zm-18.43-1.28h-16.16l-1.78-10.83h17.96v10.83Zm-.01,1.28v11.2h-14.11l-1.84-11.2h15.95Zm-15.56,11.2h-9.59l-2.94-11.2h10.68l1.84,11.2Zm1.63,1.07h13.92v10.44h-12.2l-1.72-10.44Zm15.29,0h15.05l-1.72,10.44h-13.34v-10.44Zm16.69-1.07l1.84-11.2h10.92l-2.94,11.2h-9.82Zm2.05-12.48l1.78-10.83h12.1l-2.84,10.83h-11.04Zm-39.49-10.83l1.78,10.83h-10.81l-2.84-10.83h11.87Z"/><rect class="cls-47" x="345.27" y="345.77" width="7.08" height="1.48"/><rect class="cls-47" x="386.34" y="345.77" width="7.08" height="1.48"/><path class="cls-11" d="m350.65,356.32c0,1.03-.83,1.86-1.86,1.86s-1.86-.83-1.86-1.86.83-1.86,1.86-1.86,1.86.83,1.86,1.86Z"/><circle class="cls-11" cx="389.89" cy="356.63" r="1.86"/></g></g><g><g><path class="cls-40" d="m299.44,235.17s2.05,6.05,3.02,6.81c.97.76,13.31,14.75,15.41,15.51,2.11.77,5.25,6.04,5.25,6.04,0,0-2.77,3.8-3.31,3.69-.54-.1-5.63-1.99-5.63-1.99,0,0,.33-1.25.96-1.13l.63.12s-.14-2.74-.49-3.37c-.35-.63-16.48-14.29-18.14-15.91-1.67-1.62-3.7-8.11-3.7-8.11l6-1.66Z"/><path class="cls-28" d="m296.19,242.79l-6.53-20.03s-2.96-4.43,0-6.49c2.96-2.06,5.36,1.29,6.83,4.42,1.89,4.04,1.86,5.16,6.34,19.56l-6.64,2.55Z"/><path class="cls-63" d="m280.24,215.9s-5.99,2.48-5.8,8.37c.18,5.89,3.13,35.46,3.13,35.46h16.95l2.03-20.45s3.43-5.16,1.81-9.58c-1.62-4.42-6.23-13.74-6.23-13.74l-11.88-.07Z"/><path class="cls-42" d="m297.72,190.91s1.55,10.37-.2,15.17c-.93,2.56-2.18,4.48-3.42,4.69-1.09.18-1.95-.1-1.95-.1v8.29l-.03,7.3-8.69-7.74v-8.29l-.14-19.32h14.43Z"/><path class="cls-2" d="m293.55,191.65c-3.5,1.73-4.25,7.22-5.85,10.37-.56,1.1-1.53,3.03-3.05,2.77,2.36,1.94-3.52,11.01,1.49,10.8-.05-.24.07-.56.03-.8.95-.24.87,1.55.72,2.15-.29,1.1-1.59,1.39-2.58,1.53-.96.14-1.52.11-2.34-.34-.95-.52-1.23-.74-1.85-1.69-.59.89-.75,1.93-2.02,2.31-.88.26-1.48.25-2.19-.17.95.74,1.03-.6.81-1.1-.45-1.01-1.33-1.84-1.83-2.85-.37-.75-.51-1.58-.61-2.45-.17-1.48-.39-3.28-.1-4.74.32-1.61.72-2.92,1.3-4.32.38-.93.91-1.53,1.66-1.66-1.95-.5-2.34-3.79-2.11-5.47.38-2.71,1.9-5.34,3.55-7.36,1.14-1.39,2.07-2.21,3.86-2.78,1.44-.46,2.88-.63,4.38-.67,1.06-.03,2.13-.06,3.16.16,1.06.23,1.85,1.18,2.77,1.38.75-1.3,2.62-1.66,3.98-1.15,1.24.47,3.3,1.91,3.74,3.12.87,2.4.19,6.75-1.92,8.32-1.23-.57-1.95-1.12-3.12-1.96-1.34-.96-1.31-2.15-2.08-3.31l.19-.09Z"/><path class="cls-24" d="m284.89,252.65c-1.29-15.79-4.46-32.88-7.36-32.95-.93-.02-2.29-.05-3.88,7.08-2.22,9.96-5.12,25.54-5.15,25.7l-1.55-.29c.03-.16,2.93-15.77,5.16-25.76,1.39-6.2,2.8-8.35,5.45-8.31,5.66.13,8.23,26.36,8.89,34.39l-1.57.13Z"/><path class="cls-28" d="m286.04,246.9l-10.28-20.23s-2.26-4.85.7-6.91c2.96-2.06,5.36,1.29,6.83,4.42s8.83,18.61,8.83,18.61l-6.08,4.11Z"/><path class="cls-63" d="m294.51,259.74l1.24,12.95,10.26,34.47v40.19h-7.23l-.98-40.35-14.17-27.93s-6.85-2.94-6.85-8.82.79-10.5.79-10.5h16.95Z"/><path class="cls-28" d="m292.52,259.74l-.4,8.87-8.49,43.59-13.18,34.01-7.87-1.42,12.56-35.58.02-31.29s-2.53-3.34-1.86-6.49c1.29-6.04,4.27-11.69,4.27-11.69h14.95Z"/><path class="cls-26" d="m262.58,344.78l-1.54,2.98s-1.61.63-2.15,1.71c-.54,1.09-.36,3.66-.48,4.17-.12.51-1.61,6.17-1.61,6.17l1.28.42s2.01-7.16,2.6-6.76c.6.4,1.59,6.28,1.9,7.37.31,1.09,7.13,2.69,7.72,2.63.32-.03.35-1.16-.24-2.28-.5-.96-1.58-1.85-1.91-2.8-.72-2.06-.36-8.4-.36-8.4l1.02.23,2.39-4.51-7.96-2.8-.66,1.88Z"/><path class="cls-26" d="m298.54,347.31l-.63,3.27s-1.37,1.03-1.58,2.21c-.21,1.19.7,3.61.73,4.14.03.53.21,6.36.21,6.36l1.53-.02s-.29-7.33.4-7.1c.69.23,3.32,5.63,3.93,6.6.61.96,7.62.73,8.18.52.3-.11,0-1.21-.88-2.14-.76-.79-2.05-1.37-2.64-2.2-1.28-1.79-2.74-7.99-2.74-7.99l1.04-.05,1.01-4.96-8.46-.62-.1,1.98Z"/><polygon class="cls-26" points="294.7 261.74 276.65 261.74 277.41 257.6 294.67 257.6 294.7 261.74"/><path class="cls-42" d="m292.12,242.79s1.05,3.09,2.21,3.5c1.16.41,20.19,11.67,22.43,11.72,2.24.05,6.91,4.03,6.91,4.03,0,0-1.4,4.48-1.95,4.56-.55.08-5.97-.07-5.97-.07,0,0-.09-1.29.55-1.38l.64-.09s-1.02-2.55-1.55-3.03c-.54-.48-21.16-9.2-23.26-10.2-2.1-1-5.15-5.53-5.15-5.53l5.15-3.5Z"/><path class="cls-2" d="m319.97,264.32c0,1.27-1.03,2.3-2.3,2.3s-2.3-1.03-2.3-2.3,1.03-2.3,2.3-2.3,2.3,1.03,2.3,2.3Z"/></g><path class="cls-24" d="m266.96,253.22c-.02.27-.04.55-.04.82,0,6.13,4.39,11.1,9.8,11.1s9.8-4.97,9.8-11.1c0-.28-.02-.55-.04-.82h-19.52Z"/><path class="cls-56" d="m268.37,253.22c-.02.22-.03.44-.03.67,0,4.99,3.72,9.03,8.3,9.03s8.3-4.04,8.3-9.03c0-.23-.02-.45-.03-.67h-16.54Z"/><rect class="cls-41" x="274.94" y="261.74" width="3.46" height="2.58"/><rect class="cls-24" x="275.42" y="262.4" width="2.35" height="1.32"/><rect class="cls-41" x="266.92" y="251.96" width="1.61" height="1.26"/><rect class="cls-41" x="284.87" y="251.96" width="1.61" height="1.26"/><path class="cls-13" d="m293.45,204.96h4.4s-1.49,2.23-2.2,2.23-2.2-2.23-2.2-2.23Z"/></g><g><rect class="cls-22" x="3.98" y="304.8" width="94.28" height="93.58"/><rect class="cls-58" x="3.98" y="304.8" width="94.28" height="9.21"/><rect class="cls-30" y="296.46" width="102.12" height="9.23"/><rect class="cls-53" x="21.18" y="279.01" width="56.96" height="10.76"/><rect class="cls-53" x="46.36" y="208.15" width="11.06" height="79.31"/><rect class="cls-53" x="28.14" y="287.46" width="2.49" height="9"/><rect class="cls-53" x="68.79" y="287.46" width="2.49" height="9"/><rect class="cls-41" x="18.3" y="275.87" width="62.03" height="4.77"/><rect class="cls-3" x="23.5" y="221.66" width="52.86" height="40.87"/><rect class="cls-30" x="23.5" y="199.79" width="53.5" height="17.33"/><rect class="cls-38" x="29.39" y="203.5" width="41.89" height="9.29"/><g><rect class="cls-13" x="26.01" y="223.33" width="6.27" height="5.56"/><rect class="cls-13" x="26.01" y="230.8" width="6.27" height="5.56"/><rect class="cls-13" x="26.01" y="238.65" width="6.27" height="5.56"/><rect class="cls-13" x="26.01" y="246.54" width="6.27" height="5.56"/><rect class="cls-13" x="26.01" y="254.27" width="6.27" height="5.56"/><rect class="cls-13" x="34.11" y="223.39" width="6.27" height="5.56"/><rect class="cls-13" x="34.11" y="230.85" width="6.27" height="5.56"/><rect class="cls-13" x="34.11" y="238.7" width="6.27" height="5.56"/><rect class="cls-13" x="34.11" y="246.59" width="6.27" height="5.56"/><rect class="cls-13" x="34.11" y="254.32" width="6.27" height="5.56"/><rect class="cls-13" x="42.3" y="223.38" width="6.27" height="5.56"/><rect class="cls-13" x="42.3" y="230.85" width="6.27" height="5.56"/><rect class="cls-13" x="42.3" y="238.7" width="6.27" height="5.56"/><rect class="cls-13" x="42.3" y="246.59" width="6.27" height="5.56"/><rect class="cls-13" x="42.3" y="254.32" width="6.27" height="5.56"/><rect class="cls-13" x="50.53" y="223.37" width="6.27" height="5.56"/><rect class="cls-13" x="50.53" y="230.84" width="6.27" height="5.56"/><rect class="cls-13" x="50.53" y="238.69" width="6.27" height="5.56"/><rect class="cls-13" x="50.53" y="246.58" width="6.27" height="5.56"/><rect class="cls-13" x="50.53" y="254.31" width="6.27" height="5.56"/><rect class="cls-13" x="58.59" y="223.34" width="6.27" height="5.56"/><rect class="cls-13" x="58.59" y="230.8" width="6.27" height="5.56"/><rect class="cls-13" x="58.59" y="238.65" width="6.27" height="5.56"/><rect class="cls-13" x="58.59" y="246.54" width="6.27" height="5.56"/><rect class="cls-13" x="58.59" y="254.27" width="6.27" height="5.56"/><rect class="cls-13" x="67.19" y="223.4" width="6.27" height="5.56"/><rect class="cls-13" x="67.19" y="230.86" width="6.27" height="5.56"/><rect class="cls-13" x="67.19" y="238.71" width="6.27" height="5.56"/><rect class="cls-13" x="67.19" y="246.6" width="6.27" height="5.56"/><rect class="cls-13" x="67.19" y="254.33" width="6.27" height="5.56"/></g><path class="cls-58" d="m23.5,220.92v41.61h53.5v-41.61H23.5Zm42.67,2.41v6.48h-7.53v-6.48h7.53Zm-7.53,22.21v-6.97h7.53v6.97h-7.53Zm7.53.93v6.9h-7.53v-6.9h7.53Zm-7.53-8.83v-6.9h7.53v6.9h-7.53Zm-8.15-14.31h7.17v6.48h-7.17v-6.48Zm0,7.41h7.17v6.9h-7.17v-6.9Zm0,7.83h7.17v6.97h-7.17v-6.97Zm0,7.9h7.17v6.9h-7.17v-6.9Zm-17.34,15.13h-7.13v-7.3h7.13v7.3Zm0-8.23h-7.13v-6.9h7.13v6.9Zm0-7.83h-7.13v-6.97h7.13v6.97Zm0-7.9h-7.13v-6.9h7.13v6.9Zm0-7.83h-7.13v-6.48h7.13v6.48Zm8.19,31.79h-7.21v-7.3h7.21v7.3Zm0-8.23h-7.21v-6.9h7.21v6.9Zm0-7.83h-7.21v-6.97h7.21v6.97Zm0-7.9h-7.21v-6.9h7.21v6.9Zm0-7.83h-7.21v-6.48h7.21v6.48Zm8.17,31.79h-7.19v-7.3h7.19v7.3Zm0-8.23h-7.19v-6.9h7.19v6.9Zm0-7.83h-7.19v-6.97h7.19v6.97Zm0-7.9h-7.19v-6.9h7.19v6.9Zm0-7.83h-7.19v-6.48h7.19v6.48Zm.98,31.79v-7.3h7.17v7.3h-7.17Zm8.15-7.3h7.53v7.3h-7.53v-7.3Zm15.85,7.3h-7.34v-7.3h7.34v7.3Zm0-8.23h-7.34v-6.9h7.34v6.9Zm0-7.83h-7.34v-6.97h7.34v6.97Zm0-7.9h-7.34v-6.9h7.34v6.9Zm0-7.83h-7.34v-6.48h7.34v6.48Z"/><g><g><rect class="cls-39" x="25.07" y="159.85" width="50.49" height="31.63"/><rect class="cls-9" x="28.71" y="163.65" width="42.29" height="24.21"/><rect class="cls-30" x="34.07" y="178.3" width="30.6" height="4.94"/></g><rect class="cls-30" x="49.12" y="190.49" width="3.3" height="9.98"/></g><g><path class="cls-17" d="m63.33,180.2c-.72-2.63-3.74-8.56-3.74-8.56l-.78.15-.49.09-.97.18s-.46,6.59-.17,9.3c.29,2.71.29,3.37.98,3.58l1.89-.35h0s.89-.17.89-.17l.89-.17h0s1.89-.37,1.89-.37c.57-.45.33-1.06-.4-3.69Z"/><path class="cls-12" d="m60.51,169.73s-.38.09-.7-.04c-.21-.08-.39-.37-.47-.44-.21-.21-.19-.42-.1-.49.11-.07.31.02.31.02,0,0,.18.38.44.56.28.2.64.23.52.39Z"/><rect class="cls-13" x="57.91" y="178.35" width="4.26" height="3.39" transform="translate(-32.44 14.31) rotate(-10.72)"/><rect class="cls-46" x="57.18" y="170.36" width="2.28" height="1.51" transform="translate(-30.81 13.84) rotate(-10.72)"/><path class="cls-16" d="m57.06,170.59l-.35-.43-.73-.06-.37-.83s1.22-.66,2.56-.84c.23-.03.89-.18,1.09-.08.73.35.02.79.02.79v1.02s-2.22.42-2.22.42Z"/><path class="cls-12" d="m55.67,169.26l.32.83s-.53.29-.72-.15c-.2-.43.4-.69.4-.69Z"/></g><polygon class="cls-67" points="50.93 184.28 45.23 182.15 43.4 187.95 41.08 182.47 35.6 185.48 38.02 179.86 32.1 178.31 37.85 175.84 34.95 170.64 40.66 172.77 42.49 166.96 44.81 172.45 50.28 169.44 47.86 175.06 53.78 176.61 48.04 179.08 50.93 184.28"/><g><path class="cls-54" d="m33.36,179.31v-1.18h2.31v1.18h-2.31Z"/><path class="cls-54" d="m40.06,179.85v1.09h-4.12c.04-.41.18-.8.4-1.17.22-.37.66-.86,1.32-1.47.53-.49.85-.83.98-1,.16-.24.24-.48.24-.72,0-.26-.07-.46-.21-.6s-.34-.21-.58-.21-.44.07-.59.22-.23.39-.25.74l-1.17-.12c.07-.65.29-1.11.66-1.39s.83-.42,1.38-.42c.61,0,1.08.16,1.43.49.35.33.52.73.52,1.22,0,.28-.05.54-.15.79-.1.25-.26.51-.47.78-.14.18-.4.44-.77.78s-.61.57-.71.68c-.1.11-.18.22-.24.33h2.33Z"/><path class="cls-54" d="m42.85,174.78c.59,0,1.06.21,1.39.64.4.5.6,1.33.6,2.5s-.2,1.99-.6,2.5c-.33.42-.79.63-1.39.63s-1.08-.23-1.44-.69c-.37-.46-.55-1.28-.55-2.45s.2-1.99.6-2.49c.33-.42.79-.63,1.39-.63Zm0,.98c-.14,0-.27.05-.38.14-.11.09-.2.25-.26.49-.08.3-.12.82-.12,1.54s.04,1.21.11,1.48c.07.27.16.45.27.54.11.09.24.13.38.13s.27-.05.38-.14c.11-.09.2-.25.26-.49.08-.3.12-.81.12-1.53s-.04-1.21-.11-1.48c-.07-.27-.16-.45-.27-.54-.11-.09-.24-.14-.38-.14Z"/><path class="cls-54" d="m45.63,176.32c0-.55.12-.96.36-1.22.24-.27.57-.4.98-.4s.76.13,1,.4c.24.26.36.67.36,1.22s-.12.96-.36,1.22c-.24.26-.57.4-.98.4s-.76-.13-1-.4-.36-.67-.36-1.22Zm.92,0c0,.4.05.67.14.8.07.1.17.15.29.15s.22-.05.29-.15c.09-.14.13-.4.13-.8s-.04-.67-.13-.8c-.07-.1-.17-.15-.29-.15s-.22.05-.29.15c-.09.14-.14.4-.14.8Zm1.32,4.86h-.87l3.27-6.47h.85l-3.24,6.47Zm1.9-1.61c0-.55.12-.96.36-1.22s.57-.4.99-.4.75.13.99.4.36.67.36,1.22-.12.96-.36,1.23c-.24.26-.57.4-.98.4s-.76-.13-1-.4c-.24-.27-.36-.67-.36-1.23Zm.92,0c0,.4.05.67.14.8.07.1.17.15.29.15s.22-.05.29-.15c.09-.14.14-.4.14-.8s-.04-.67-.13-.8c-.07-.1-.17-.15-.29-.15s-.22.05-.29.15c-.09.14-.14.4-.14.8Z"/></g></g><g><path class="cls-7" d="m135.01,229.72c0,2.55,2.04,4.62,4.56,4.62h0c2.52,0,4.56-2.07,4.56-4.62v-9.23c0-2.55-2.04-4.62-4.56-4.62h0c-2.52,0-4.56,2.07-4.56,4.62v9.23Z"/><path class="cls-48" d="m144.12,222.99s-.47,1.73-4.05,2.12c-3.59.38-5.06-2.12-5.06-2.12l.33-4.04h8.78v4.04Z"/><path class="cls-7" d="m150.8,208.25c0,7.73-5.87,15.5-11.68,15.5-3.87,0-7.54-4.64-9.37-8.78-.92-2.08,0-4.14,0-6.72,0-2.89-.17-7.57.96-9.8,1.89-3.73,5.92-4.19,9.56-4.19,5.81,0,10.52,6.27,10.52,13.99Z"/><path class="cls-38" d="m144.12,227.99s7.05,3.46,8.75,3.85,8.98-.19,9.96,4.23c.98,4.42,2.71,10.39,2.71,10.39l-8.85,1.92s-1.03,8.27-1.86,9.42c-.83,1.15-6.8,29.79-6.8,29.79h-25.1v-40.59l-9.23-.78s2.83-12.29,3.87-13.84c2.17-3.23,7.25-3.2,9.51-2.58,2.25.62,7.93-1.82,7.93-1.82,0,0,1.37,3.52,4.56,3.83,3.19.31,4.56-3.83,4.56-3.83Z"/><path class="cls-7" d="m164.31,246.72s2.3,13.6,2.92,15.77c.62,2.17,9.29,30.99,11.15,33.15.93,1.08,3.6,2.54,5.32,4.39,1.03,1.11-.9,4.56-2.19,5.32-.65.38-.24-.64-.97-.12-.78.56-.76,1.21-1.77.96-.7-.17,1.17-3.74.72-4.14-.58-.53-3.37-2.55-3.72-1.15-.35,1.39.97,4.34,0,4.49-.97.16-2.67-5.89-2.67-7.44s-10.69-25.72-11.77-27.73c-1.08-2.02-1.08-3.41-1.08-3.41l-3.72-17.35.15-1.1s5.64-2.56,7.62-1.66Z"/><path class="cls-7" d="m122.93,247s.19,15.01-2.06,17.13c-2.25,2.11-22.4,9.05-23.52,10.3-1.11,1.26-3.92,5.14-4.76,6.46-.84,1.33-3.7,5.86-4.28,5.34-.58-.52,1.7-4.02,1.7-4.02,0,0-4.27,5.52-4.82,5.37-.56-.15,2.23-4.41,2.11-4.86-.12-.45-3.21,4.92-3.78,4.4-.58-.52,1.83-5.12,1.83-5.12,0,0-3.41,2.83-4.07,2.41-.66-.42,3.32-4.47,3.32-4.47l4.1-4.63s-3.68,2.59-4.1,2.21c-.43-.38,1.99-2.71,3.27-3.65,1.28-.93,4.54-3.2,6.09-3.2,1.55,0,19.98-10.76,19.88-11.03-.11-.27.48-13.43.48-13.43l8.62.78Z"/><path class="cls-61" d="m122.93,282.82s-6.18,8.49-7.17,18.38c-.99,9.89,2.76,46.15,2.76,46.15l4.41,43.84h5.49s2.66-33.63,3.08-48.79c.41-15.17,2.42-43.85,3.39-43.52.97.33,9.23,42.2,9.23,42.2l15.15,50.11,6.27.99s-8.78-63.3-11.48-80.11c-2.7-16.81-6.03-24.49-6.03-24.49l-25.1-4.77Z"/><polygon class="cls-62" points="149.71 257.79 128.42 255.71 146.08 260.98 142.79 263.93 149.71 265.27 147.07 263.93 149.71 257.79"/><path class="cls-50" d="m159.27,391.2s-.66,3.3,0,4.95c.66,1.65,5.28.99,6.27,1.32.99.33,8.54,1.48,10.95.41,2.77-1.23-1.79-2.06-4.23-2.88-2.44-.82-6.73-3.79-6.73-3.79h-6.27Z"/><path class="cls-50" d="m128.42,391.2s.51,1.55.61,2.33c.1.78-.44,1.67-.61,2.25-.17.59-.37,2.06-2.23,2.35-1.86.29-7.35.69-7.25-.49.1-1.18,1.76-3.04,2.16-3.43.39-.39,1.84-3.02,1.84-3.02h5.49Z"/><path class="cls-51" d="m127.08,229.81s-6.49,11.68-6.49,17.27,1.92,10.71,1.92,10.71c0,0-1.5,14.17-1.5,17.97s-7.27,19.41-7.31,29.65c-.04,10.25-1.84,43.6-1.84,45.46s38.81,2.16,38.81,2.16c0,0-7.12-46.11-6.54-54.85.58-8.74,1.79-9.14,1.79-9.14h3.8l4.94,15.04,1.9-2.29-4.31-12.75,4.31,2.38,1.12-2.38-5.73-2.31-2.23-3.07-5.59-.84s.03-14.72,1.96-21.83c1.93-7.11,8.23-28.99,8.23-28.99l-3.52-.91-6.68,14.67-18.1-.93,4.38-15.27-3.32.26Z"/><rect class="cls-13" x="137.58" y="243.28" width="13.08" height="6.51"/><path class="cls-53" d="m137.58,193.16s-7.36.7-9.43,5c-2.06,4.3-.48,8.07-.48,8.07,0,0,5.21,2.23,9.91-.69,4.7-2.92,6.54-4.81,6.54-4.81,0,0,2.63,4.98,2.8,9.11.17,4.12-2.39,8.49-.25,9.65,1.39.75,3.04-.53,3.04-.53,0,0,4.08.5,5.11-5.34,1.03-5.84-2.41-6.19-2.41-6.19,0,0,4.55-11.45-5.33-15.29-5.75-2.23-9.51,1.03-9.51,1.03Z"/><polygon class="cls-59" points="147.04 257.53 125.18 255.71 145.39 261.6 147.04 257.53"/><path class="cls-13" d="m134.76,215.88l6.3.27s-.59,2.8-3.15,2.8-3.15-3.08-3.15-3.08Z"/></g></g></svg>